<svg width="36" height="36" viewBox="0 0 36 36" fill="none" xmlns="http://www.w3.org/2000/svg">
<path d="M11.6317 9.02169C11.5357 9.02187 11.4433 9.05988 11.3728 9.12819C11.3023 9.19649 11.2589 9.29008 11.2512 9.39037C11.2436 9.49065 11.2722 9.59028 11.3314 9.66946C11.3907 9.74864 11.4761 9.80158 11.5709 9.81775C28.1617 12.6386 30.7144 30.989 30.7385 31.1741C30.7448 31.2264 30.761 31.2769 30.7861 31.3226C30.8112 31.3683 30.8448 31.4083 30.8848 31.4403C30.9249 31.4722 30.9706 31.4955 31.0193 31.5088C31.0681 31.522 31.1188 31.5249 31.1687 31.5174C31.2186 31.5104 31.2667 31.4931 31.3102 31.4665C31.3537 31.4399 31.3917 31.4046 31.4222 31.3626C31.4526 31.3206 31.4749 31.2726 31.4876 31.2216C31.5003 31.1705 31.5033 31.1174 31.4963 31.0651C31.4719 30.8744 28.8508 11.9423 11.6933 9.0249C11.6729 9.02206 11.6523 9.02099 11.6317 9.02169Z" fill="#00AE65" style="fill:#00AE65;fill:color(display-p3 0.0000 0.6830 0.3962);fill-opacity:1;"/>
<path d="M4.5 8.98887C7.57912 10.4514 11.3512 12.8099 13.6125 15.1589L12.15 9.65993L14.5451 4.50012C11.9115 6.41994 7.78612 8.08831 4.5 8.98887Z" fill="#00AE65" style="fill:#00AE65;fill:color(display-p3 0.0000 0.6830 0.3962);fill-opacity:1;"/>
</svg>
