<svg width="16" height="16" viewBox="0 0 16 16" fill="none" xmlns="http://www.w3.org/2000/svg">
<g clip-path="url(#clip0_440_10000)">
<path d="M3.16965 2.00009C3.12698 2.00017 3.08589 2.01707 3.05456 2.04742C3.02323 2.07778 3.00395 2.11938 3.00054 2.16395C2.99714 2.20852 3.00986 2.2528 3.03619 2.28799C3.06251 2.32318 3.10051 2.34671 3.14263 2.35389C10.5163 3.60759 11.6508 11.7633 11.6616 11.8456C11.6643 11.8689 11.6715 11.8913 11.6827 11.9116C11.6939 11.9319 11.7088 11.9497 11.7266 11.9639C11.7444 11.9781 11.7647 11.9885 11.7864 11.9944C11.808 12.0002 11.8306 12.0015 11.8527 11.9982C11.8749 11.9951 11.8963 11.9874 11.9156 11.9756C11.935 11.9638 11.9519 11.9481 11.9654 11.9294C11.979 11.9107 11.9888 11.8894 11.9945 11.8667C12.0001 11.844 12.0015 11.8204 11.9984 11.7972C11.9875 11.7124 10.8226 3.29813 3.19701 2.00152C3.18794 2.00026 3.17879 1.99978 3.16965 2.00009Z" fill="black" style="fill:black;fill-opacity:1;"/>
<path d="M0 1.98529C1.3685 2.63529 3.045 3.68354 4.05 4.72754L3.4 2.28354L4.4645 -0.00971127C3.294 0.843539 1.4605 1.58504 0 1.98529Z" fill="black" style="fill:black;fill-opacity:1;"/>
</g>
<defs>
<clipPath id="clip0_440_10000">
<rect width="16" height="16" fill="white" style="fill:white;fill-opacity:1;" transform="matrix(1 0 0 -1 0 16)"/>
</clipPath>
</defs>
</svg>
