<svg width="263" height="45" viewBox="0 0 263 45" fill="none" xmlns="http://www.w3.org/2000/svg">
<g filter="url(#filter0_i_60_1254)">
<rect y="1.5" width="24" height="42" rx="12" fill="#FBB8B8"/>
</g>
<g filter="url(#filter1_i_60_1254)">
<rect x="28" y="1.5" width="24" height="42" rx="12" fill="#83DEFC"/>
</g>
<g filter="url(#filter2_i_60_1254)">
<rect x="56" y="1.5" width="24" height="42" rx="12" fill="#F2ED7B"/>
</g>
<path d="M110.292 36.36C108.492 36.36 106.824 36.036 105.288 35.388C103.752 34.716 102.408 33.792 101.256 32.616C100.128 31.44 99.252 30.072 98.628 28.512C98.004 26.952 97.692 25.284 97.692 23.508C97.692 21.708 98.004 20.028 98.628 18.468C99.252 16.908 100.128 15.552 101.256 14.4C102.408 13.224 103.74 12.312 105.252 11.664C106.788 10.992 108.456 10.656 110.256 10.656C112.224 10.656 113.952 10.992 115.44 11.664C116.928 12.336 118.248 13.248 119.4 14.4L117.06 16.74C116.268 15.852 115.296 15.156 114.144 14.652C113.016 14.148 111.72 13.896 110.256 13.896C108.936 13.896 107.724 14.136 106.62 14.616C105.516 15.072 104.556 15.732 103.74 16.596C102.924 17.46 102.288 18.48 101.832 19.656C101.4 20.832 101.184 22.116 101.184 23.508C101.184 24.9 101.4 26.184 101.832 27.36C102.288 28.536 102.924 29.556 103.74 30.42C104.556 31.284 105.516 31.956 106.62 32.436C107.724 32.892 108.936 33.12 110.256 33.12C111.816 33.12 113.172 32.868 114.324 32.364C115.476 31.836 116.448 31.128 117.24 30.24L119.58 32.544C118.428 33.744 117.072 34.68 115.512 35.352C113.976 36.024 112.236 36.36 110.292 36.36ZM130.073 36.36C128.657 36.36 127.385 36.048 126.257 35.424C125.153 34.776 124.289 33.888 123.665 32.76C123.041 31.632 122.729 30.324 122.729 28.836V18.9H125.969V28.692C125.969 29.628 126.125 30.444 126.437 31.14C126.773 31.812 127.253 32.328 127.877 32.688C128.501 33.048 129.233 33.228 130.073 33.228C131.345 33.228 132.341 32.832 133.061 32.04C133.781 31.224 134.141 30.108 134.141 28.692V18.9H137.381V28.836C137.381 30.324 137.069 31.632 136.445 32.76C135.821 33.888 134.957 34.776 133.853 35.424C132.773 36.048 131.513 36.36 130.073 36.36ZM147.16 36.36C146.2 36.36 145.288 36.24 144.424 36C143.584 35.736 142.804 35.376 142.084 34.92C141.364 34.44 140.74 33.876 140.212 33.228L142.3 31.14C142.924 31.908 143.644 32.484 144.46 32.868C145.276 33.228 146.188 33.408 147.196 33.408C148.204 33.408 148.984 33.24 149.536 32.904C150.088 32.544 150.364 32.052 150.364 31.428C150.364 30.804 150.136 30.324 149.68 29.988C149.248 29.628 148.684 29.34 147.988 29.124C147.292 28.884 146.548 28.656 145.756 28.44C144.988 28.2 144.256 27.9 143.56 27.54C142.864 27.18 142.288 26.688 141.832 26.064C141.4 25.44 141.184 24.612 141.184 23.58C141.184 22.548 141.436 21.66 141.94 20.916C142.444 20.148 143.14 19.56 144.028 19.152C144.94 18.744 146.032 18.54 147.304 18.54C148.648 18.54 149.836 18.78 150.868 19.26C151.924 19.716 152.788 20.412 153.46 21.348L151.372 23.436C150.892 22.812 150.292 22.332 149.572 21.996C148.876 21.66 148.084 21.492 147.196 21.492C146.26 21.492 145.54 21.66 145.036 21.996C144.556 22.308 144.316 22.752 144.316 23.328C144.316 23.904 144.532 24.348 144.964 24.66C145.396 24.972 145.96 25.236 146.656 25.452C147.376 25.668 148.12 25.896 148.888 26.136C149.656 26.352 150.388 26.652 151.084 27.036C151.78 27.42 152.344 27.936 152.776 28.584C153.232 29.232 153.46 30.084 153.46 31.14C153.46 32.748 152.884 34.02 151.732 34.956C150.604 35.892 149.08 36.36 147.16 36.36ZM159.715 36V11.736H162.955V36H159.715ZM155.503 21.852V18.9H167.167V21.852H155.503ZM177.626 36.36C175.946 36.36 174.434 35.964 173.09 35.172C171.746 34.38 170.678 33.312 169.886 31.968C169.094 30.6 168.698 29.076 168.698 27.396C168.698 25.74 169.094 24.252 169.886 22.932C170.678 21.588 171.746 20.52 173.09 19.728C174.434 18.936 175.946 18.54 177.626 18.54C179.282 18.54 180.782 18.936 182.126 19.728C183.494 20.496 184.574 21.552 185.366 22.896C186.158 24.24 186.554 25.74 186.554 27.396C186.554 29.076 186.158 30.6 185.366 31.968C184.574 33.312 183.494 34.38 182.126 35.172C180.782 35.964 179.282 36.36 177.626 36.36ZM177.626 33.228C178.706 33.228 179.666 32.976 180.506 32.472C181.346 31.968 182.006 31.284 182.486 30.42C182.966 29.532 183.206 28.524 183.206 27.396C183.206 26.292 182.954 25.308 182.45 24.444C181.97 23.58 181.31 22.908 180.47 22.428C179.654 21.924 178.706 21.672 177.626 21.672C176.546 21.672 175.586 21.924 174.746 22.428C173.906 22.908 173.246 23.58 172.766 24.444C172.286 25.308 172.046 26.292 172.046 27.396C172.046 28.524 172.286 29.532 172.766 30.42C173.246 31.284 173.906 31.968 174.746 32.472C175.586 32.976 176.546 33.228 177.626 33.228ZM190.204 36V18.9H193.444V36H190.204ZM201.76 36V25.668C201.76 24.396 201.364 23.4 200.572 22.68C199.804 21.936 198.832 21.564 197.656 21.564C196.864 21.564 196.156 21.732 195.532 22.068C194.908 22.404 194.404 22.872 194.02 23.472C193.636 24.072 193.444 24.792 193.444 25.632L192.112 24.984C192.112 23.688 192.388 22.56 192.94 21.6C193.516 20.64 194.296 19.896 195.28 19.368C196.264 18.816 197.368 18.54 198.592 18.54C199.792 18.54 200.872 18.804 201.832 19.332C202.816 19.86 203.584 20.604 204.136 21.564C204.712 22.524 205 23.664 205 24.984V36H201.76ZM213.316 36V25.668C213.316 24.396 212.92 23.4 212.128 22.68C211.36 21.936 210.4 21.564 209.248 21.564C208.456 21.564 207.736 21.732 207.088 22.068C206.464 22.404 205.96 22.872 205.576 23.472C205.192 24.072 205 24.792 205 25.632L203.164 24.984C203.236 23.664 203.584 22.536 204.208 21.6C204.856 20.64 205.684 19.896 206.692 19.368C207.7 18.816 208.804 18.54 210.004 18.54C211.252 18.54 212.368 18.804 213.352 19.332C214.336 19.86 215.116 20.604 215.692 21.564C216.292 22.524 216.592 23.676 216.592 25.02V36H213.316ZM226.899 36L236.979 10.584H242.091L252.063 36H246.087L238.455 14.904H240.507L232.767 36H226.899ZM232.623 31.392V26.784H246.483V31.392H232.623ZM254.753 36V10.584H260.405V36H254.753Z" fill="white"/>
<defs>
<filter id="filter0_i_60_1254" x="0" y="1.5" width="24" height="43.7685" filterUnits="userSpaceOnUse" color-interpolation-filters="sRGB">
<feFlood flood-opacity="0" result="BackgroundImageFix"/>
<feBlend mode="normal" in="SourceGraphic" in2="BackgroundImageFix" result="shape"/>
<feColorMatrix in="SourceAlpha" type="matrix" values="0 0 0 0 0 0 0 0 0 0 0 0 0 0 0 0 0 0 127 0" result="hardAlpha"/>
<feOffset dy="1.76852"/>
<feGaussianBlur stdDeviation="1.76852"/>
<feComposite in2="hardAlpha" operator="arithmetic" k2="-1" k3="1"/>
<feColorMatrix type="matrix" values="0 0 0 0 0 0 0 0 0 0 0 0 0 0 0 0 0 0 0.3 0"/>
<feBlend mode="normal" in2="shape" result="effect1_innerShadow_60_1254"/>
</filter>
<filter id="filter1_i_60_1254" x="28" y="1.5" width="24" height="43.7685" filterUnits="userSpaceOnUse" color-interpolation-filters="sRGB">
<feFlood flood-opacity="0" result="BackgroundImageFix"/>
<feBlend mode="normal" in="SourceGraphic" in2="BackgroundImageFix" result="shape"/>
<feColorMatrix in="SourceAlpha" type="matrix" values="0 0 0 0 0 0 0 0 0 0 0 0 0 0 0 0 0 0 127 0" result="hardAlpha"/>
<feOffset dy="1.76852"/>
<feGaussianBlur stdDeviation="1.76852"/>
<feComposite in2="hardAlpha" operator="arithmetic" k2="-1" k3="1"/>
<feColorMatrix type="matrix" values="0 0 0 0 0 0 0 0 0 0 0 0 0 0 0 0 0 0 0.3 0"/>
<feBlend mode="normal" in2="shape" result="effect1_innerShadow_60_1254"/>
</filter>
<filter id="filter2_i_60_1254" x="56" y="1.5" width="24" height="43.7685" filterUnits="userSpaceOnUse" color-interpolation-filters="sRGB">
<feFlood flood-opacity="0" result="BackgroundImageFix"/>
<feBlend mode="normal" in="SourceGraphic" in2="BackgroundImageFix" result="shape"/>
<feColorMatrix in="SourceAlpha" type="matrix" values="0 0 0 0 0 0 0 0 0 0 0 0 0 0 0 0 0 0 127 0" result="hardAlpha"/>
<feOffset dy="1.76852"/>
<feGaussianBlur stdDeviation="1.76852"/>
<feComposite in2="hardAlpha" operator="arithmetic" k2="-1" k3="1"/>
<feColorMatrix type="matrix" values="0 0 0 0 0 0 0 0 0 0 0 0 0 0 0 0 0 0 0.3 0"/>
<feBlend mode="normal" in2="shape" result="effect1_innerShadow_60_1254"/>
</filter>
</defs>
</svg>
