<svg width="42" height="42" viewBox="0 0 42 42" fill="none" xmlns="http://www.w3.org/2000/svg">
<g clip-path="url(#clip0_530_696)">
<path d="M2.86363 36.7537H9.54548V20.5265L5.1701 12.8862L0 13.3673V33.8901C0 35.4722 1.28149 36.7537 2.86363 36.7537Z" fill="#0085F7" style="fill:#0085F7;fill:color(display-p3 0.0000 0.5216 0.9686);fill-opacity:1;"/>
<path d="M32.4551 36.7537H39.1369C40.7191 36.7537 42.0006 35.4722 42.0006 33.8901V13.3673L36.8379 12.8862L32.4552 20.5265V36.7537H32.4551Z" fill="#00A94B" style="fill:#00A94B;fill:color(display-p3 0.0000 0.6627 0.2941);fill-opacity:1;"/>
<path d="M32.4542 8.11742L28.5293 15.6071L32.4542 20.5265L41.9997 13.3674V9.54928C41.9997 6.01028 37.9596 3.98903 35.127 6.11291L32.4542 8.11742Z" fill="#FFBC00" style="fill:#FFBC00;fill:color(display-p3 1.0000 0.7373 0.0000);fill-opacity:1;"/>
<path fill-rule="evenodd" clip-rule="evenodd" d="M9.54474 20.5265L5.80469 12.6261L9.54474 8.11743L20.9993 16.7083L32.4538 8.11743V20.5265L20.9993 29.1174L9.54474 20.5265Z" fill="#FF4131" style="fill:#FF4131;fill:color(display-p3 1.0000 0.2549 0.1922);fill-opacity:1;"/>
<path d="M0 9.54928V13.3674L9.54548 20.5265V8.11742L6.87274 6.11291C4.04012 3.98903 0 6.01028 0 9.54928Z" fill="#E51C19" style="fill:#E51C19;fill:color(display-p3 0.8980 0.1098 0.0980);fill-opacity:1;"/>
</g>
<defs>
<clipPath id="clip0_530_696">
<rect width="42" height="42" fill="white" style="fill:white;fill-opacity:1;"/>
</clipPath>
</defs>
</svg>
