<svg width="1289" height="1519" viewBox="0 0 1289 1519" fill="none" xmlns="http://www.w3.org/2000/svg">
<path d="M604.09 1013.47L570.59 1090.24C557.71 1119.75 516.9 1119.75 504.02 1090.24L470.52 1013.47C440.7 945.15 387.04 890.76 320.1 861.04L227.88 820.09C198.56 807.07 198.56 764.4 227.88 751.38L317.21 711.7C385.87 681.21 440.5 624.81 469.8 554.16L503.74 472.34C516.33 441.98 558.26 441.98 570.86 472.34L604.8 554.16C634.1 624.81 688.73 681.21 757.39 711.7L846.73 751.38C876.05 764.4 876.05 807.07 846.73 820.09L754.51 861.05C687.56 890.76 633.9 945.15 604.09 1013.47Z" fill="#636B74" style="fill:#636B74;fill:color(display-p3 0.3882 0.4196 0.4549);fill-opacity:1;"/>
<path d="M915.43 1255.55L906.01 1277.16C899.11 1292.98 877.22 1292.98 870.33 1277.16L860.91 1255.55C844.12 1217.03 813.86 1186.36 776.12 1169.58L747.09 1156.68C731.39 1149.7 731.39 1126.87 747.09 1119.9L774.5 1107.72C813.22 1090.51 844.01 1058.7 860.52 1018.87L870.19 995.52C876.93 979.25 899.42 979.25 906.16 995.52L915.84 1018.87C932.35 1058.7 963.14 1090.51 1001.86 1107.72L1029.27 1119.9C1044.97 1126.88 1044.97 1149.71 1029.27 1156.68L1000.24 1169.58C962.47 1186.35 932.22 1217.03 915.43 1255.55Z" fill="#636B74" style="fill:#636B74;fill:color(display-p3 0.3882 0.4196 0.4549);fill-opacity:1;"/>
<path d="M915.43 508.55L906.01 530.16C899.11 545.98 877.22 545.98 870.33 530.16L860.91 508.55C844.12 470.03 813.86 439.36 776.12 422.58L747.09 409.68C731.39 402.7 731.39 379.87 747.09 372.9L774.5 360.72C813.22 343.51 844.01 311.7 860.52 271.87L870.19 248.52C876.93 232.25 899.42 232.25 906.16 248.52L915.84 271.87C932.35 311.7 963.14 343.51 1001.86 360.72L1029.27 372.9C1044.97 379.88 1044.97 402.71 1029.27 409.68L1000.24 422.58C962.47 439.35 932.22 470.03 915.43 508.55Z" fill="#636B74" style="fill:#636B74;fill:color(display-p3 0.3882 0.4196 0.4549);fill-opacity:1;"/>
</svg>
