<svg width="42" height="42" viewBox="0 0 42 42" fill="none" xmlns="http://www.w3.org/2000/svg">
<g clip-path="url(#clip0_530_688)">
<path d="M3.16338 34.3597L5.0099 37.5624C5.39356 38.2366 5.94588 38.7668 6.59466 39.1528L13.2182 34.4567L13.2303 27.7146L6.62042 24.7366L6.71641e-06 27.6908C-0.00130578 28.4365 0.189745 29.1826 0.573487 29.8568L3.16338 34.3597Z" fill="#0066DD" style="fill:#0066DD;fill:color(display-p3 0.0000 0.4000 0.8667);fill-opacity:1;"/>
<path d="M21.024 14.2576L21.3696 5.47504L14.4294 2.79565C13.7792 3.1794 13.225 3.7076 12.8389 4.38042L0.581191 25.5269C0.195152 26.1998 0.0013125 26.9452 0 27.6908L13.2302 27.7145L21.024 14.2576Z" fill="#00AD3C" style="fill:#00AD3C;fill:color(display-p3 0.0000 0.6784 0.2353);fill-opacity:1;"/>
<path d="M21.0244 14.2576L27.3821 10.8374L27.6599 2.81928C27.0112 2.43324 26.2657 2.23948 25.496 2.23809L16.5957 2.22217C15.8259 2.22078 15.0799 2.43595 14.4297 2.79566L21.0244 14.2576Z" fill="#00831E" style="fill:#00831E;fill:color(display-p3 0.0000 0.5137 0.1176);fill-opacity:1;"/>
<path d="M28.7688 27.7423L13.2293 27.7146L6.59375 39.1529C7.24254 39.5389 7.98795 39.7327 8.75765 39.7341L33.1975 39.7777C33.9673 39.7791 34.7133 39.5639 35.3635 39.2042L35.3893 31.5212L28.7688 27.7423Z" fill="#0084FF" style="fill:#0084FF;fill:color(display-p3 0.0000 0.5176 1.0000);fill-opacity:1;"/>
<path d="M35.3635 39.2042C36.0137 38.8204 36.5679 38.2922 36.9539 37.6194L37.7261 36.2978L41.4179 29.9298C41.8039 29.257 41.9978 28.5116 41.9991 27.7659L34.3521 23.7422L28.793 27.7424L35.3635 39.2042Z" fill="#FF4131" style="fill:#FF4131;fill:color(display-p3 1.0000 0.2549 0.1922);fill-opacity:1;"/>
<path d="M35.3349 15.0048L29.2439 4.4096C28.8602 3.7353 28.3079 3.20513 27.659 2.81909L21.0234 14.2574L28.7691 27.7422L41.9753 27.7658C41.9766 27.0201 41.7855 26.274 41.4018 25.5997L35.3349 15.0048Z" fill="#FFBA00" style="fill:#FFBA00;fill:color(display-p3 1.0000 0.7294 0.0000);fill-opacity:1;"/>
</g>
<defs>
<clipPath id="clip0_530_688">
<rect width="42" height="42" fill="white" style="fill:white;fill-opacity:1;"/>
</clipPath>
</defs>
</svg>
