<svg width="23" height="22" viewBox="0 0 23 22" fill="none" xmlns="http://www.w3.org/2000/svg">
<path d="M11.5 21.25C17.1609 21.25 21.75 16.6609 21.75 11C21.75 5.33908 17.1609 0.75 11.5 0.75C5.83908 0.75 1.25 5.33908 1.25 11C1.25 16.6609 5.83908 21.25 11.5 21.25Z" fill="white" stroke="#00AE65" style="fill:white;fill-opacity:1;stroke:#00AE65;stroke:color(display-p3 0.0000 0.6830 0.3962);stroke-opacity:1;" stroke-width="1.5"/>
<path d="M11.6545 16.5431L10.614 15.5028L15.1151 11.001L10.6141 6.49931L11.6545 5.45898L17.1958 11.001L11.6545 16.5431Z" fill="#00AE65" style="fill:#00AE65;fill:color(display-p3 0.0000 0.6830 0.3962);fill-opacity:1;"/>
<path d="M8.01784 16.5431L6.97729 15.5027L11.4784 11.001L6.97737 6.49931L8.01788 5.45898L13.5591 11.001L8.01784 16.5431Z" fill="#00AE65" style="fill:#00AE65;fill:color(display-p3 0.0000 0.6830 0.3962);fill-opacity:1;"/>
<path d="M17.1958 11L11.6545 16.5421L10.614 15.5017L15.1151 11H17.1958Z" fill="#00AE65" style="fill:#00AE65;fill:color(display-p3 0.0000 0.6830 0.3962);fill-opacity:1;"/>
<path d="M13.5591 11L8.01784 16.5421L6.97729 15.5017L11.4784 11H13.5591Z" fill="#00AE65" style="fill:#00AE65;fill:color(display-p3 0.0000 0.6830 0.3962);fill-opacity:1;"/>
</svg>
