<svg width="24" height="25" viewBox="0 0 24 25" fill="none" xmlns="http://www.w3.org/2000/svg">
<g clip-path="url(#clip0_14032_10907)">
<path d="M11.7379 21.551C11.7379 20.2871 10.7135 19.2627 9.44988 19.2627C8.18607 19.2627 7.16162 20.2871 7.16162 21.5507C7.16162 22.8145 8.18607 23.839 9.44988 23.839C10.7128 23.8376 11.7366 22.8141 11.7379 21.551ZM7.97321 21.551C7.97321 20.7353 8.63421 20.0743 9.44988 20.0743C10.2653 20.0743 10.9263 20.7353 10.9263 21.5507C10.9263 22.3664 10.2653 23.0274 9.44988 23.0274C8.63467 23.0265 7.97412 22.3659 7.97321 21.551Z" fill="#212121" style="fill:#212121;fill:color(display-p3 0.1294 0.1294 0.1294);fill-opacity:1;"/>
<path d="M17.9228 23.839C19.1866 23.8392 20.2111 22.8148 20.2111 21.551C20.2113 20.2871 19.1868 19.2627 17.923 19.2627C16.6592 19.2627 15.6348 20.2871 15.6348 21.551C15.6364 22.8139 16.6597 23.8374 17.9228 23.839ZM17.9228 20.0743C18.7382 20.0743 19.3995 20.7353 19.3995 21.5507C19.3997 22.3662 18.7385 23.0274 17.923 23.0274C17.1076 23.0274 16.4464 22.3664 16.4464 21.551C16.4473 20.736 17.1078 20.0754 17.9228 20.0743Z" fill="#212121" style="fill:#212121;fill:color(display-p3 0.1294 0.1294 0.1294);fill-opacity:1;"/>
<path d="M0.405795 1.9493H2.8811C3.69563 1.94613 4.39015 2.5392 4.51424 3.34445L6.4737 15.7219C6.6587 16.9221 7.69403 17.8063 8.90847 17.8016H21.0203C21.2442 17.8016 21.4261 17.6197 21.4261 17.3958C21.4261 17.1716 21.2442 16.99 21.0203 16.99H8.90847C8.09393 16.9932 7.39942 16.3999 7.27532 15.5948L6.94222 13.4905H19.3468C20.3971 13.49 21.3319 12.8247 21.6761 11.8326L23.9775 5.19046C24.0207 5.06636 24.001 4.92913 23.9249 4.82202C23.8486 4.71514 23.7254 4.65151 23.5941 4.65151H5.54277L5.31587 3.21741C5.13086 2.01724 4.09554 1.13296 2.8811 1.13771H0.405795C0.181611 1.13771 0 1.31955 0 1.54351C0 1.76769 0.181611 1.9493 0.405795 1.9493ZM23.0239 5.46333L20.9093 11.5668C20.6783 12.2323 20.0513 12.6786 19.3468 12.6789H6.8136L5.67116 5.4631L23.0239 5.46333Z" fill="#212121" style="fill:#212121;fill:color(display-p3 0.1294 0.1294 0.1294);fill-opacity:1;"/>
</g>
<defs>
<clipPath id="clip0_14032_10907">
<rect width="24" height="24" fill="white" style="fill:white;fill-opacity:1;" transform="translate(0 0.5)"/>
</clipPath>
</defs>
</svg>
