<svg width="24" height="25" viewBox="0 0 24 25" fill="none" xmlns="http://www.w3.org/2000/svg">
<path d="M23.0348 8.71525L12.1639 3.60213C12.0626 3.5545 11.9456 3.5545 11.8448 3.60213L0.965625 8.71525C0.834 8.77713 0.75 8.90913 0.75 9.05425C0.75 9.19938 0.834 9.33175 0.96525 9.39363L3.85575 10.7545V18.4878C3.85575 18.5628 3.87825 18.6359 3.92025 18.6981C3.99375 18.8073 5.79637 21.3659 12.0037 21.3659C18.2111 21.3659 20.0055 18.8069 20.0794 18.6981C20.1214 18.6359 20.1439 18.5628 20.1439 18.4878V10.7556L23.0344 9.39363C23.166 9.33175 23.2496 9.19938 23.2496 9.05425C23.2496 8.90913 23.1656 8.77675 23.0344 8.71488L23.0348 8.71525ZM19.3943 18.3565C19.035 18.7698 17.1416 20.6159 12.0041 20.6159C6.86663 20.6159 4.96125 18.7656 4.60613 18.3569V11.1078L11.8444 14.5154C11.895 14.539 11.9494 14.551 12.0041 14.551C12.0589 14.551 12.1133 14.539 12.1639 14.5154L16.158 12.6336V17.0969C16.158 17.3039 16.326 17.4719 16.533 17.4719C16.74 17.4719 16.908 17.3039 16.908 17.0969V12.28L19.3939 11.1089L19.3943 18.3565ZM19.6166 10.1748C19.6144 10.1759 19.6118 10.1759 19.6091 10.177L16.5686 11.6099L12.4264 8.74975C12.2558 8.63125 12.0218 8.67475 11.9048 8.845C11.787 9.01563 11.8298 9.24925 12 9.36662L15.7838 11.9796L12.0037 13.7609L2.00625 9.05463L12.0041 4.3555L21.9945 9.05463L19.6166 10.1748Z" fill="#212121" style="fill:#212121;fill:color(display-p3 0.1294 0.1294 0.1294);fill-opacity:1;"/>
<path d="M5.54004 13.0098C5.33304 13.0098 5.16504 13.1778 5.16504 13.3848V13.7489C5.16504 13.9559 5.33304 14.1239 5.54004 14.1239C5.74704 14.1239 5.91504 13.9559 5.91504 13.7489V13.3848C5.91504 13.1778 5.74704 13.0098 5.54004 13.0098Z" fill="#212121" style="fill:#212121;fill:color(display-p3 0.1294 0.1294 0.1294);fill-opacity:1;"/>
<path d="M5.54004 14.6348C5.33304 14.6348 5.16504 14.8028 5.16504 15.0098V17.2418C5.16504 17.4488 5.33304 17.6168 5.54004 17.6168C5.74704 17.6168 5.91504 17.4488 5.91504 17.2418V15.0098C5.91504 14.8028 5.74704 14.6348 5.54004 14.6348Z" fill="#212121" style="fill:#212121;fill:color(display-p3 0.1294 0.1294 0.1294);fill-opacity:1;"/>
</svg>
