<svg width="24" height="25" viewBox="0 0 24 25" fill="none" xmlns="http://www.w3.org/2000/svg">
<g clip-path="url(#clip0_14032_10139)">
<path d="M21.9819 7.32508C21.787 7.32508 21.629 7.16705 21.629 6.97214C21.629 4.71076 19.7891 2.87092 17.5277 2.87092C17.3328 2.87092 17.1748 2.71289 17.1748 2.51798C17.1748 2.32307 17.3328 2.16504 17.5277 2.16504C20.1784 2.16504 22.3348 4.32146 22.3348 6.97214C22.3348 7.16705 22.1768 7.32508 21.9819 7.32508Z" fill="#212121" style="fill:#212121;fill:color(display-p3 0.1294 0.1294 0.1294);fill-opacity:1;"/>
<path d="M12.8437 24.1463C12.833 24.1463 12.8224 24.1463 12.8117 24.1463C12.2057 24.1463 11.632 23.9066 11.1993 23.47L9.3617 21.6323C9.26158 21.5323 9.23107 21.382 9.28381 21.2509C9.56041 20.5645 9.54438 19.2939 9.54421 19.2811C9.54283 19.1856 9.58005 19.0934 9.64761 19.0259L16.0571 12.62C16.1929 12.4842 16.4116 12.482 16.5503 12.6143C16.689 12.7467 16.6966 12.9656 16.5677 13.1074C16.0922 13.6296 13.7855 16.4789 15.0629 21.2922C15.2693 22.0578 15.0382 22.8925 14.4597 23.4711C14.0239 23.9069 13.4505 24.1463 12.8437 24.1463ZM12.8277 23.4404C13.2594 23.4309 13.6554 23.2768 13.9606 22.972C14.3613 22.5713 14.5224 21.9976 14.3811 21.4747C14.3809 21.4742 14.3808 21.4737 14.3808 21.4732C13.6558 18.7417 14.0175 16.5868 14.5964 15.078L10.2499 19.4219C10.2463 19.7686 10.2158 20.632 10.0171 21.2895L11.6996 22.972C12.0022 23.2775 12.4001 23.4483 12.8277 23.4404Z" fill="#212121" style="fill:#212121;fill:color(display-p3 0.1294 0.1294 0.1294);fill-opacity:1;"/>
<path d="M16.3064 13.223C16.2215 13.223 16.1361 13.1925 16.0684 13.1304C15.9245 12.9989 15.9145 12.7756 16.0462 12.6319L16.085 12.5895C16.1236 12.5464 16.1465 12.524 16.1465 12.524C16.2852 12.3878 16.5089 12.3892 16.6456 12.5278C16.7821 12.6665 16.7814 12.8886 16.6432 13.0255L16.567 13.1082C16.4974 13.1844 16.4021 13.223 16.3064 13.223Z" fill="#212121" style="fill:#212121;fill:color(display-p3 0.1294 0.1294 0.1294);fill-opacity:1;"/>
<path d="M3.11713 15.2418C3.02528 15.2418 2.93497 15.2059 2.86759 15.1384L1.02878 13.2996C0.589499 12.8644 0.349264 12.2843 0.353573 11.6676C0.349264 11.0596 0.589154 10.48 1.02878 10.0404C1.60748 9.46151 2.44347 9.23058 3.20916 9.43755C8.25666 10.7775 11.1429 8.17365 11.4557 7.87241C11.595 7.73799 11.8169 7.74075 11.9524 7.87913C12.0882 8.01734 12.0871 8.23897 11.9501 8.37597L5.4738 14.8525C5.40659 14.92 5.32646 14.9645 5.21875 14.9559C5.20548 14.9552 3.93537 14.9397 3.24897 15.2163C3.20623 15.2335 3.16159 15.2418 3.11713 15.2418ZM2.64355 10.0688C2.23684 10.0688 1.83238 10.2349 1.52786 10.5395C1.22283 10.8445 1.05653 11.2452 1.05946 11.6676C1.05653 12.0975 1.22248 12.4979 1.52683 12.7993L3.21036 14.483C3.86782 14.2843 4.73139 14.2538 5.07795 14.2502L9.42906 9.89889C7.9182 10.4807 5.76091 10.8455 3.02665 10.1193C2.90085 10.0854 2.77212 10.0688 2.64355 10.0688Z" fill="#212121" style="fill:#212121;fill:color(display-p3 0.1294 0.1294 0.1294);fill-opacity:1;"/>
<path d="M11.7066 8.46128C11.617 8.46128 11.5283 8.4294 11.4624 8.36305C11.3251 8.22467 11.3134 8.01356 11.4517 7.87621L11.4766 7.85157C11.6148 7.71404 11.8383 7.71508 11.9756 7.85329C12.113 7.9915 12.1123 8.21502 11.9739 8.35237C11.9021 8.42389 11.8037 8.46128 11.7066 8.46128Z" fill="#212121" style="fill:#212121;fill:color(display-p3 0.1294 0.1294 0.1294);fill-opacity:1;"/>
<path d="M6.84767 20.7087C6.79994 20.7087 6.75186 20.6991 6.70636 20.6791C6.57315 20.6208 6.48939 20.4869 6.49525 20.3416C6.53437 19.3602 6.34618 18.6769 5.93585 18.3107C5.5693 17.9836 4.98388 17.8795 4.19838 18.001C4.04775 18.0239 3.89869 17.9481 3.82958 17.8118C3.76065 17.6756 3.78701 17.5105 3.89489 17.4026L4.4667 16.831C4.7676 16.5299 4.88461 15.3505 4.87151 14.6093C4.86996 14.5135 4.90719 14.4211 4.97491 14.3534L16.4172 2.91103C18.1735 1.15494 20.7606 0.453191 23.1684 1.07894C23.2924 1.11116 23.389 1.20784 23.4213 1.33175C24.0474 3.73996 23.3454 6.32687 21.5892 8.08296L10.1468 19.5255C10.0791 19.5932 9.98916 19.6342 9.89093 19.6287C9.14989 19.6164 7.97026 19.7324 7.66919 20.0335L7.09739 20.6053C7.02983 20.6729 6.93953 20.7087 6.84767 20.7087ZM5.03385 17.2546C5.59532 17.2937 6.05459 17.4705 6.40581 17.784C6.83665 18.1687 7.0948 18.7531 7.17718 19.5275C7.73658 18.9798 9.20332 18.9231 9.7522 18.9218L21.0901 7.58388C22.6206 6.0532 23.2612 3.82095 22.7874 1.71278C20.6794 1.23973 18.447 1.8796 16.9163 3.41011L5.57843 14.748C5.57705 15.2759 5.52449 16.6521 5.03385 17.2546Z" fill="#212121" style="fill:#212121;fill:color(display-p3 0.1294 0.1294 0.1294);fill-opacity:1;"/>
<path d="M2.84916 19.3008C2.75559 19.3008 2.6658 19.2635 2.59962 19.1974L0.633631 17.2314C0.495936 17.0937 0.495763 16.8703 0.633459 16.7325L2.50053 14.8619C2.61651 14.7458 2.77954 14.645 2.98496 14.5619C3.80476 14.2315 5.17344 14.2503 5.22997 14.2501C5.42022 14.2533 5.57395 14.4065 5.57739 14.5967C5.5836 14.9447 5.58394 16.7119 4.96578 17.3303L3.0987 19.1974C3.03253 19.2635 2.94274 19.3008 2.84916 19.3008ZM1.38208 16.9817L2.84916 18.4487L4.4667 16.8312C4.72313 16.5746 4.84618 15.6793 4.86875 14.9615C4.43912 14.9765 3.7117 15.0301 3.24915 15.2164C3.09595 15.2783 3.02719 15.3334 2.99978 15.3608L1.38208 16.9817Z" fill="#212121" style="fill:#212121;fill:color(display-p3 0.1294 0.1294 0.1294);fill-opacity:1;"/>
<path d="M7.51815 23.9698C7.42785 23.9698 7.33755 23.9354 7.26861 23.8664L5.30262 21.9004C5.16475 21.7626 5.16475 21.5392 5.30262 21.4014L7.16969 19.5343C7.78786 18.9159 9.55566 18.9178 9.90326 18.9227C10.0935 18.9261 10.2467 19.0798 10.2498 19.2701C10.2507 19.3278 10.2683 20.6955 9.93842 21.5146C9.93825 21.5147 9.93825 21.5149 9.93807 21.5151C9.85501 21.7205 9.75419 21.8835 9.63821 21.9994L7.76752 23.8666C7.69859 23.9355 7.60846 23.9698 7.51815 23.9698ZM6.05124 21.6509L7.51832 23.118L9.1393 21.5001C9.16636 21.4729 9.22151 21.4043 9.28355 21.2509C9.46984 20.7884 9.52344 20.0609 9.53843 19.6313C8.82066 19.6539 7.92538 19.7768 7.66877 20.0334L6.05124 21.6509Z" fill="#212121" style="fill:#212121;fill:color(display-p3 0.1294 0.1294 0.1294);fill-opacity:1;"/>
<path d="M18.2278 8.51531C18.1375 8.51531 18.0472 8.48084 17.9783 8.41191C17.8404 8.27421 17.8404 8.0507 17.9783 7.91283C18.3631 7.52783 18.3643 6.90243 17.9808 6.51899C17.5974 6.13554 16.9722 6.13692 16.5873 6.52192C16.4495 6.65978 16.2261 6.65978 16.0883 6.52192C15.9504 6.38405 15.9504 6.1607 16.0883 6.02284C16.7485 5.36279 17.8214 5.36124 18.4799 6.01991C19.1386 6.67857 19.1376 7.75152 18.4773 8.41191C18.4086 8.48084 18.3181 8.51531 18.2278 8.51531Z" fill="#212121" style="fill:#212121;fill:color(display-p3 0.1294 0.1294 0.1294);fill-opacity:1;"/>
</g>
<defs>
<clipPath id="clip0_14032_10139">
<rect width="24" height="24" fill="white" style="fill:white;fill-opacity:1;" transform="translate(0 0.5)"/>
</clipPath>
</defs>
</svg>
