<svg width="24" height="25" viewBox="0 0 24 25" fill="none" xmlns="http://www.w3.org/2000/svg">
<path d="M19 16.4176C19 11.9384 17.0529 7.87279 14.4104 6.09079C15.0035 4.98639 16.1734 2.50039 15.2694 1.43999C14.6722 0.731585 13.4696 0.876786 11.498 1.88879C9.53041 0.876786 8.33188 0.735985 7.73466 1.43999C6.83883 2.49599 8.00055 4.99079 8.58958 6.09079C5.9471 7.87279 4 11.9384 4 16.4132C4.00409 22.494 7.87374 23 11.502 23C15.1304 23 19 22.494 19 16.4176ZM8.34006 2.03399C8.4546 1.89759 9.01091 1.54999 11.3221 2.77319C11.4366 2.83479 11.5675 2.83479 11.682 2.77319C13.9973 1.54999 14.5536 1.89759 14.6681 2.03399C15.0526 2.48719 14.4759 4.21639 13.6946 5.67279C12.9951 5.32959 12.2588 5.14039 11.5061 5.14039C10.7494 5.14039 10.0131 5.32959 9.31361 5.67719C8.51595 4.18999 7.95146 2.48719 8.34006 2.03399ZM11.502 22.12C7.17017 22.12 4.8222 21.2092 4.8222 16.4132C4.8222 10.9704 8.00464 6.01599 11.502 6.01599C14.9995 6.01599 18.1819 10.9748 18.1819 16.4132C18.1819 21.2136 15.8339 22.12 11.502 22.12Z" fill="#212121" style="fill:#212121;fill:color(display-p3 0.1294 0.1294 0.1294);fill-opacity:1;"/>
<path d="M11.5 10.8182C12.3145 10.8182 12.9754 11.4258 12.9754 12.1748C12.9754 12.4338 13.2059 12.6458 13.4877 12.6458C13.7695 12.6458 14 12.4338 14 12.1748C14 11.0678 13.1445 10.1446 12.0123 9.92793V9.47103C12.0123 9.21196 11.7818 9 11.5 9C11.2182 9 10.9877 9.21196 10.9877 9.47103V9.92793C9.85553 10.1446 9 11.0725 9 12.1748C9 13.6444 10.5676 14.1813 11.3207 14.4404C12.6475 14.8973 12.9754 15.1705 12.9754 15.8252C12.9754 16.5742 12.3145 17.1818 11.5 17.1818C10.6855 17.1818 10.0246 16.5742 10.0246 15.8252C10.0246 15.5662 9.79406 15.3542 9.5123 15.3542C9.23053 15.3542 9 15.5662 9 15.8252C9 16.9322 9.85553 17.8554 10.9877 18.0721V18.529C10.9877 18.788 11.2182 19 11.5 19C11.7818 19 12.0123 18.788 12.0123 18.529V18.0721C13.1445 17.8554 14 16.9275 14 15.8252C14 14.4687 12.9498 13.9929 11.6793 13.5596C10.4754 13.1451 10.0246 12.7683 10.0246 12.1748C10.0246 11.4258 10.6855 10.8182 11.5 10.8182Z" fill="#212121" style="fill:#212121;fill:color(display-p3 0.1294 0.1294 0.1294);fill-opacity:1;"/>
</svg>
