<svg width="24" height="25" viewBox="0 0 24 25" fill="none" xmlns="http://www.w3.org/2000/svg">
<path d="M23.5894 12.135H21.5589C22.403 10.2187 22.3118 8.66737 21.9924 7.61794C21.4449 5.74722 19.597 3.7168 16.8593 3.7168C16.1293 3.7168 15.3992 3.85368 14.6464 4.12744C13.346 4.60653 12.4791 5.13125 12.0913 5.40501C11.7034 5.13125 10.8593 4.60653 9.53612 4.12744C8.78327 3.85368 8.03042 3.7168 7.32319 3.7168C4.58555 3.7168 2.73764 5.74722 2.19011 7.61794C1.87072 8.73581 1.75665 10.424 2.8289 12.5457H0.365019C0.159696 12.5457 0 12.7054 0 12.9107C0 13.116 0.159696 13.2757 0.365019 13.2757H3.26236C3.37643 13.4811 3.51331 13.6864 3.673 13.8917C6.04563 17.3138 11.2015 21.0324 12.1369 21.2605V21.2833C12.1369 21.2833 12.1597 21.2833 12.1825 21.2605C12.2053 21.2605 12.2281 21.2605 12.251 21.2605V21.2377C13.0494 20.8499 18 17.656 20.6008 13.8689C20.8517 13.5267 21.057 13.1845 21.2395 12.8423H23.635C23.8403 12.8423 24 12.6826 24 12.4773C24 12.2719 23.7947 12.135 23.5894 12.135ZM19.9392 13.4811C17.5209 17.0172 13.0722 19.8689 12.1141 20.4849C11.1331 19.8689 6.70722 16.9944 4.26616 13.4811C4.22053 13.4126 4.1749 13.3442 4.12928 13.2757H7.48289C7.61977 13.2757 7.75665 13.2073 7.82509 13.0704L9.35361 10.059L11.749 16.1959C11.7947 16.3328 11.9544 16.424 12.0913 16.424C12.0913 16.424 12.0913 16.424 12.1141 16.424C12.2738 16.424 12.4106 16.31 12.4563 16.1503L14.5551 8.96394L15.673 12.5913C15.7186 12.7282 15.8327 12.8195 15.9696 12.8423C16.1065 12.8651 16.2433 12.7966 16.3346 12.6826L17.2243 11.3822L17.9772 12.6598C18.0456 12.7738 18.1597 12.8423 18.2966 12.8423H20.3498C20.2129 13.0704 20.076 13.2757 19.9392 13.4811ZM20.7605 12.135H18.5247L17.5894 10.5381C17.5209 10.424 17.4068 10.3556 17.27 10.3556C17.1331 10.3556 17.019 10.4012 16.9506 10.5153L16.1749 11.656L14.9202 7.57231C14.8745 7.41261 14.7148 7.32136 14.5551 7.29855C14.3954 7.29855 14.2357 7.41261 14.1901 7.57231L12.0684 14.8955L9.76426 9.00957C9.71863 8.87269 9.58175 8.78144 9.44487 8.78144C9.28517 8.78144 9.1711 8.84988 9.10266 8.98676L7.30038 12.5229H3.673C2.76046 10.8575 2.50951 9.26052 2.92015 7.82326C3.39924 6.20349 4.97338 4.46965 7.34601 4.46965C7.98479 4.46965 8.64639 4.60653 9.30798 4.83467C10.9734 5.45064 11.8631 6.15786 11.8859 6.15786C12.0228 6.27193 12.2053 6.27193 12.3422 6.15786C12.3422 6.15786 13.2319 5.45064 14.9202 4.83467C15.5817 4.58372 16.2433 4.46965 16.8821 4.46965C19.2319 4.46965 20.8289 6.20349 21.308 7.82326C21.6958 9.14645 21.4905 10.6065 20.7605 12.135Z" fill="#212121" style="fill:#212121;fill:color(display-p3 0.1294 0.1294 0.1294);fill-opacity:1;"/>
</svg>
