<svg width="24" height="25" viewBox="0 0 24 25" fill="none" xmlns="http://www.w3.org/2000/svg">
<path d="M20.7566 11.586C21.4594 11.0922 21.9248 10.2706 21.9248 9.34465C21.9248 7.82981 20.6996 6.60464 19.1848 6.60464C17.67 6.60464 16.4448 7.82981 16.4448 9.34465C16.4448 10.2706 16.9054 11.0922 17.613 11.586C17.0099 11.795 16.459 12.1179 15.9937 12.5358C15.3526 11.9897 14.5975 11.5718 13.7713 11.3249C14.7732 10.717 15.4476 9.61058 15.4476 8.35217C15.4476 6.43369 13.8947 4.88086 11.9763 4.88086C10.0578 4.88086 8.50495 6.43844 8.50495 8.35217C8.50495 9.61058 9.17451 10.717 10.1812 11.3249C9.36446 11.5718 8.61892 11.9849 7.98259 12.5215C7.51721 12.1132 6.97586 11.795 6.38227 11.5908C7.08508 11.0969 7.55046 10.2754 7.55046 9.3494C7.55046 7.83456 6.32529 6.60939 4.81045 6.60939C3.29561 6.60939 2.07044 7.83456 2.07044 9.3494C2.07044 10.2754 2.53106 11.0969 3.23862 11.5908C1.35338 12.2414 0 14.0316 0 16.1353V16.4487C0 16.4582 0.00949743 16.4677 0.0189949 16.4677H5.82667C5.79343 16.7289 5.77444 16.9996 5.77444 17.2703V17.5932C5.77444 18.9893 6.90463 20.1195 8.30075 20.1195H15.6613C17.0574 20.1195 18.1876 18.9893 18.1876 17.5932V17.2703C18.1876 16.9996 18.1686 16.7289 18.1353 16.4677H23.981C23.9905 16.4677 24 16.4582 24 16.4487V16.1353C23.9905 14.0269 22.6419 12.2366 20.7566 11.586ZM17.2046 9.3399C17.2046 8.2477 18.0926 7.35969 19.1848 7.35969C20.277 7.35969 21.165 8.2477 21.165 9.3399C21.165 10.4179 20.296 11.2964 19.2228 11.3201C19.2085 11.3201 19.1991 11.3201 19.1848 11.3201C19.1706 11.3201 19.1611 11.3201 19.1468 11.3201C18.0689 11.3011 17.2046 10.4226 17.2046 9.3399ZM9.25524 8.35217C9.25524 6.85632 10.4709 5.64065 11.9668 5.64065C13.4626 5.64065 14.6783 6.85632 14.6783 8.35217C14.6783 9.79578 13.5433 10.9782 12.1235 11.0589C12.0712 11.0589 12.019 11.0589 11.9668 11.0589C11.9145 11.0589 11.8623 11.0589 11.8101 11.0589C10.3902 10.9782 9.25524 9.79578 9.25524 8.35217ZM2.81599 9.3399C2.81599 8.2477 3.704 7.35969 4.7962 7.35969C5.88841 7.35969 6.77641 8.2477 6.77641 9.3399C6.77641 10.4179 5.9074 11.2964 4.83419 11.3201C4.81994 11.3201 4.81045 11.3201 4.7962 11.3201C4.78195 11.3201 4.77246 11.3201 4.75821 11.3201C3.685 11.3011 2.81599 10.4226 2.81599 9.3399ZM5.95964 15.7032H0.769292C0.982984 13.6802 2.69252 12.0942 4.76771 12.0799C4.77721 12.0799 4.7867 12.0799 4.7962 12.0799C4.8057 12.0799 4.8152 12.0799 4.82469 12.0799C5.81243 12.0847 6.71468 12.4503 7.41274 13.0439C6.72893 13.7847 6.22082 14.6965 5.95964 15.7032ZM17.4183 17.5932C17.4183 18.5667 16.6252 19.3597 15.6518 19.3597H8.29125C7.31777 19.3597 6.52473 18.5667 6.52473 17.5932V17.2703C6.52473 14.3213 8.88009 11.909 11.8101 11.8235C11.8623 11.8282 11.9193 11.8282 11.9715 11.8282C12.0237 11.8282 12.0807 11.8282 12.133 11.8235C15.0629 11.909 17.4183 14.3213 17.4183 17.2703V17.5932ZM17.9834 15.7032C17.7222 14.7012 17.2236 13.8037 16.5445 13.0629C17.2473 12.4551 18.1591 12.0894 19.1563 12.0799C19.1658 12.0799 19.1753 12.0799 19.1848 12.0799C19.1943 12.0799 19.2038 12.0799 19.2133 12.0799C21.2885 12.0942 22.998 13.6802 23.2117 15.7032H17.9834Z" fill="#212121" style="fill:#212121;fill:color(display-p3 0.1294 0.1294 0.1294);fill-opacity:1;"/>
</svg>
