<svg width="24" height="25" viewBox="0 0 24 25" fill="none" xmlns="http://www.w3.org/2000/svg">
<path d="M21.5998 4.82002C21.5983 4.72133 21.5663 4.62552 21.5084 4.54564C21.4504 4.46575 21.3692 4.40569 21.2758 4.37362L12.1558 1.25362C12.055 1.21754 11.9447 1.21754 11.8438 1.25362L2.72384 4.37362C2.63049 4.40569 2.54929 4.46575 2.49131 4.54564C2.43334 4.62552 2.40139 4.72133 2.39984 4.82002L2.37584 6.23602C2.30384 10.5968 2.65664 13.7264 3.45824 15.8072C4.05927 17.374 4.96562 18.8057 6.12464 20.0192C7.51113 21.4293 9.15416 22.5616 10.9654 23.3552L11.8006 23.7368C11.8632 23.7653 11.9311 23.7801 11.9998 23.7801C12.0686 23.7801 12.1365 23.7653 12.199 23.7368L13.0342 23.3552C14.8455 22.5616 16.4885 21.4293 17.875 20.0192C19.0352 18.8052 19.9424 17.3726 20.5438 15.8048C21.3454 13.724 21.6982 10.5944 21.6262 6.23362L21.5998 4.82002ZM19.6486 15.4592C19.0933 16.9094 18.2545 18.2344 17.1814 19.3568C15.8782 20.6751 14.3365 21.7338 12.6382 22.4768L11.9998 22.772L11.3614 22.4816C9.66317 21.7386 8.12146 20.6799 6.81824 19.3616C5.7446 18.2378 4.90584 16.9111 4.35104 15.4592C3.59984 13.496 3.26144 10.484 3.33344 6.26002L3.35024 5.18002L11.9998 2.20642L20.6398 5.17042L20.6566 6.25042C20.7382 10.484 20.3998 13.496 19.6486 15.4592Z" fill="#212121" style="fill:#212121;fill:color(display-p3 0.1294 0.1294 0.1294);fill-opacity:1;"/>
<path d="M14.4526 9.17039L10.3071 13.3159L8.99309 12.0019C8.93907 11.9479 8.87494 11.905 8.80436 11.8758C8.73378 11.8465 8.65813 11.8315 8.58174 11.8315C8.50534 11.8315 8.4297 11.8465 8.35912 11.8758C8.28854 11.905 8.22441 11.9479 8.17039 12.0019C8.11637 12.0559 8.07352 12.12 8.04428 12.1906C8.01505 12.2612 8 12.3368 8 12.4132C8 12.4896 8.01505 12.5653 8.04428 12.6359C8.07352 12.7064 8.11637 12.7706 8.17039 12.8246L9.89428 14.5485C9.94837 14.6029 10.0127 14.6461 10.0835 14.6755C10.1544 14.7049 10.2304 14.7201 10.3071 14.72C10.461 14.7194 10.6085 14.6577 10.717 14.5485L15.2753 9.99309C15.3293 9.93907 15.3722 9.87494 15.4014 9.80436C15.4306 9.73378 15.4457 9.65813 15.4457 9.58174C15.4457 9.50534 15.4306 9.4297 15.4014 9.35912C15.3722 9.28854 15.3293 9.22441 15.2753 9.17039C15.2213 9.11637 15.1571 9.07352 15.0866 9.04428C15.016 9.01505 14.9403 9 14.8639 9C14.7875 9 14.7119 9.01505 14.6413 9.04428C14.5707 9.07352 14.5066 9.11637 14.4526 9.17039Z" fill="#212121" style="fill:#212121;fill:color(display-p3 0.1294 0.1294 0.1294);fill-opacity:1;"/>
</svg>
