<svg width="24" height="25" viewBox="0 0 24 25" fill="none" xmlns="http://www.w3.org/2000/svg">
<g clip-path="url(#clip0_14032_10300)">
<path d="M9.46904 17.3188C9.37838 17.3188 9.28706 17.2876 9.21255 17.2241L6.64858 15.0409C6.56013 14.9655 6.50928 14.8554 6.50928 14.7391C6.50928 14.623 6.56035 14.5129 6.64858 14.4375L9.21255 12.2543C9.37904 12.1123 9.62912 12.1324 9.77107 12.2989C9.9128 12.4657 9.8929 12.7157 9.72619 12.8575L7.51665 14.7391L9.72619 16.6207C9.8929 16.7627 9.9128 17.0128 9.77107 17.1792C9.69258 17.2714 9.58114 17.3188 9.46904 17.3188Z" fill="#212121" style="fill:#212121;fill:color(display-p3 0.1294 0.1294 0.1294);fill-opacity:1;"/>
<path d="M14.5307 17.3188C14.4186 17.3188 14.3072 17.2714 14.2289 17.1792C14.0869 17.0128 14.1071 16.7627 14.2736 16.6207L16.4831 14.7391L14.2736 12.8575C14.1071 12.7157 14.0869 12.4657 14.2289 12.2989C14.3706 12.1324 14.6209 12.1123 14.7872 12.2543L17.3512 14.4375C17.4396 14.5129 17.4905 14.623 17.4905 14.7391C17.4905 14.8554 17.4396 14.9655 17.3512 15.0409L14.7872 17.2241C14.7127 17.2876 14.6214 17.3188 14.5307 17.3188Z" fill="#212121" style="fill:#212121;fill:color(display-p3 0.1294 0.1294 0.1294);fill-opacity:1;"/>
<path d="M11.0922 18.9562C11.065 18.9562 11.0376 18.9533 11.0099 18.9476C10.7959 18.9025 10.6588 18.6922 10.7039 18.4782L12.3019 10.8913C12.347 10.6772 12.557 10.5401 12.7713 10.5852C12.9853 10.6304 13.1224 10.8404 13.0773 11.0547L11.4793 18.6416C11.44 18.8282 11.2755 18.9562 11.0922 18.9562Z" fill="#212121" style="fill:#212121;fill:color(display-p3 0.1294 0.1294 0.1294);fill-opacity:1;"/>
<path d="M21.3396 23.0897H2.66038C1.19354 23.0897 0 21.8964 0 20.4293V4.57542C0 3.10858 1.19354 1.91504 2.66038 1.91504H21.3396C22.8065 1.91504 24 3.10858 24 4.57542V20.4293C24 21.8964 22.8065 23.0897 21.3396 23.0897ZM2.66038 2.70749C1.63045 2.70749 0.792453 3.54549 0.792453 4.57542V20.4293C0.792453 21.4593 1.63045 22.2973 2.66038 22.2973H21.3396C22.3695 22.2973 23.2075 21.4593 23.2075 20.4293V4.57542C23.2075 3.54549 22.3695 2.70749 21.3396 2.70749H2.66038Z" fill="#212121" style="fill:#212121;fill:color(display-p3 0.1294 0.1294 0.1294);fill-opacity:1;"/>
<path d="M23.6038 8.25974H0.396226C0.177329 8.25974 0 8.08241 0 7.86351C0 7.64484 0.177329 7.46729 0.396226 7.46729H23.6038C23.8227 7.46729 24 7.64484 24 7.86351C24 8.08241 23.8227 8.25974 23.6038 8.25974Z" fill="#212121" style="fill:#212121;fill:color(display-p3 0.1294 0.1294 0.1294);fill-opacity:1;"/>
<path d="M6.77002 6.36377C6.07883 6.36377 5.51611 5.80105 5.51611 5.10986C5.51611 4.41846 6.07883 3.85596 6.77002 3.85596C7.46143 3.85596 8.02393 4.41846 8.02393 5.10986C8.02393 5.80105 7.46143 6.36377 6.77002 6.36377ZM6.77002 4.64841C6.51574 4.64841 6.30857 4.85537 6.30857 5.10986C6.30857 5.36436 6.51574 5.57132 6.77002 5.57132C7.02452 5.57132 7.23147 5.36436 7.23147 5.10986C7.23147 4.85537 7.02452 4.64841 6.77002 4.64841Z" fill="#212121" style="fill:#212121;fill:color(display-p3 0.1294 0.1294 0.1294);fill-opacity:1;"/>
<path d="M2.91748 6.35156C2.22607 6.35156 1.66357 5.78906 1.66357 5.09766C1.66357 4.40625 2.22607 3.84375 2.91748 3.84375C3.60889 3.84375 4.17139 4.40625 4.17139 5.09766C4.17139 5.78906 3.60889 6.35156 2.91748 6.35156ZM2.91748 4.6362C2.66321 4.6362 2.45603 4.84338 2.45603 5.09766C2.45603 5.35215 2.66321 5.55911 2.91748 5.55911C3.17198 5.55911 3.37893 5.35215 3.37893 5.09766C3.37893 4.84338 3.17198 4.6362 2.91748 4.6362Z" fill="#212121" style="fill:#212121;fill:color(display-p3 0.1294 0.1294 0.1294);fill-opacity:1;"/>
<path d="M10.6223 6.37576C9.93115 6.37576 9.36865 5.81326 9.36865 5.12185C9.36865 4.43066 9.93115 3.86816 10.6223 3.86816C11.3137 3.86816 11.8762 4.43066 11.8762 5.12185C11.8762 5.81326 11.3137 6.37576 10.6223 6.37576ZM10.6223 4.6604C10.3681 4.6604 10.1611 4.86735 10.1611 5.12185C10.1611 5.37635 10.3681 5.5833 10.6223 5.5833C10.8768 5.5833 11.0838 5.37635 11.0838 5.12185C11.0838 4.86735 10.8768 4.6604 10.6223 4.6604Z" fill="#212121" style="fill:#212121;fill:color(display-p3 0.1294 0.1294 0.1294);fill-opacity:1;"/>
</g>
<defs>
<clipPath id="clip0_14032_10300">
<rect width="24" height="24" fill="white" style="fill:white;fill-opacity:1;" transform="translate(0 0.5)"/>
</clipPath>
</defs>
</svg>
