<svg width="24" height="25" viewBox="0 0 24 25" fill="none" xmlns="http://www.w3.org/2000/svg">
<g clip-path="url(#clip0_14032_10071)">
<path d="M11.9995 5.61328C10.895 5.61328 9.99951 6.50863 9.99951 7.61326C9.99951 8.7177 10.895 9.61305 11.9995 9.61305C13.1039 9.61305 13.9995 8.7177 13.9995 7.61326C13.9982 6.50918 13.1034 5.61456 11.9995 5.61328ZM11.9995 8.81309C11.3369 8.81309 10.7995 8.27589 10.7995 7.61326C10.7995 6.95044 11.3369 6.41323 11.9995 6.41323C12.6621 6.41323 13.1995 6.95044 13.1995 7.61326C13.1988 8.2757 12.6619 8.81236 11.9995 8.81309Z" fill="#212121" style="fill:#212121;fill:color(display-p3 0.1294 0.1294 0.1294);fill-opacity:1;"/>
<path d="M17.9991 9.61305C18.4408 9.61268 18.7985 9.25472 18.7991 8.81309V6.41323C18.7985 5.9716 18.4408 5.61383 17.9991 5.61328H16.7988C16.6283 5.19948 16.4036 4.81021 16.1308 4.45537L16.7284 3.41904C16.8361 3.23557 16.8661 3.01659 16.8118 2.81079C16.7574 2.60517 16.6232 2.42958 16.439 2.32302L14.3593 1.12299L14.3553 1.12098C13.9732 0.903826 13.4874 1.03639 13.2686 1.4176L12.6695 2.45613C12.2244 2.39955 11.774 2.39955 11.3289 2.45613L10.7322 1.42144C10.5126 1.03767 10.0238 0.904193 9.63946 1.12299L7.55874 2.32375C7.37527 2.43013 7.24161 2.60535 7.18723 2.81042C7.13285 3.01549 7.16251 3.23374 7.26926 3.41702L7.86799 4.45537C7.59517 4.81021 7.37051 5.19948 7.20005 5.61328H5.99966C5.55803 5.61383 5.20026 5.9716 5.19971 6.41323V8.81309C5.20026 9.25472 5.55803 9.61268 5.99966 9.61305H7.20005C7.37051 10.0268 7.59517 10.4163 7.86799 10.7711L7.27036 11.8073C7.1627 11.9909 7.13267 12.2097 7.18705 12.4155C7.24143 12.6213 7.37564 12.7967 7.55983 12.9033L9.6433 14.1053C9.7636 14.1733 9.89964 14.209 10.0379 14.2088C10.3239 14.2104 10.5885 14.0574 10.7298 13.8087L11.3289 12.77C11.774 12.8268 12.2244 12.8268 12.6695 12.77L13.2664 13.8051C13.4862 14.1888 13.975 14.3221 14.3593 14.1031L16.4401 12.9026C16.6235 12.796 16.7572 12.621 16.8116 12.4159C16.866 12.2108 16.8363 11.9924 16.7295 11.8091L16.1308 10.7711C16.4036 10.4163 16.6283 10.0268 16.7988 9.61305H17.9991ZM16.1453 9.08206C15.9677 9.59199 15.6956 10.0637 15.3435 10.4729C15.2331 10.6016 15.2161 10.786 15.3008 10.9328L16.0393 12.2105L13.962 13.4092L13.226 12.1332C13.1416 11.9865 12.9737 11.9089 12.8072 11.9397C12.2731 12.0371 11.7259 12.0371 11.1918 11.9397C11.0251 11.9087 10.8572 11.9864 10.773 12.1332L10.0395 13.4105L7.9621 12.209L8.69797 10.933C8.78274 10.7862 8.76572 10.602 8.65549 10.4731C8.30321 10.064 8.03113 9.59217 7.85352 9.08225C7.79786 8.9213 7.64607 8.81309 7.47561 8.81309H5.99966V6.41323H7.47561C7.64589 6.41323 7.7975 6.30521 7.85334 6.14426C8.03113 5.63452 8.30321 5.16268 8.65549 4.75364C8.76572 4.62474 8.78293 4.44036 8.69815 4.29351L7.95954 3.01586L10.0368 1.81712L10.7728 3.09312C10.8569 3.24015 11.025 3.31797 11.1916 3.28666C11.7257 3.18943 12.2729 3.18943 12.807 3.28666C12.9735 3.3176 13.1414 3.24015 13.226 3.09331L13.9593 1.81748H13.96L13.9624 1.81803L16.0365 3.01787L15.3007 4.29388C15.2159 4.44072 15.2329 4.6251 15.3431 4.75382C15.6954 5.16304 15.9675 5.63489 16.1451 6.14463C16.2011 6.30557 16.3529 6.41342 16.5232 6.41323H17.9991V8.81309H16.5232C16.3527 8.81309 16.2011 8.92112 16.1453 9.08206Z" fill="#212121" style="fill:#212121;fill:color(display-p3 0.1294 0.1294 0.1294);fill-opacity:1;"/>
<path d="M1.20002 24.0125H3.19981C3.53928 24.0116 3.86226 23.8661 4.08784 23.6125H14.1194C14.7062 23.6127 15.2819 23.4512 15.783 23.1459L23.2807 18.582C23.6408 18.3627 23.8917 18.0016 23.9717 17.5876C24.0515 17.1865 23.9609 16.7703 23.7214 16.4389C23.7142 16.427 23.7066 16.4156 23.6983 16.4046C23.3123 15.8889 22.6393 15.6787 22.0285 15.883L14.6247 18.351C14.5022 18.3916 14.3739 18.4125 14.2448 18.4125H14.015C14.2051 17.8918 14.1505 17.3132 13.8662 16.8375L13.8303 16.7778C13.3945 16.0568 12.6145 15.6153 11.7721 15.6128H9.68019C8.9423 15.6118 8.22657 15.3608 7.64982 14.9005C6.93098 14.327 6.03892 14.0141 5.11923 14.0128H4.32605C4.15778 13.5348 3.70663 13.2145 3.19981 13.2129H1.20002C0.537575 13.2136 0.00073239 13.7505 0 14.4129V22.8125C0.00073239 23.475 0.537575 24.0118 1.20002 24.0125ZM7.14978 15.5252C7.86844 16.0987 8.76049 16.4116 9.68 16.4127H11.7719C12.3335 16.4144 12.8536 16.7086 13.1438 17.1892L13.1799 17.2489C13.3982 17.6129 13.3747 18.0729 13.1204 18.4127H10.6894C9.89954 18.4121 9.12741 18.6459 8.47064 19.0846L8.17769 19.28C8.05739 19.3586 7.98855 19.4959 7.99734 19.6393C8.00612 19.7828 8.09127 19.9106 8.22035 19.974C8.34943 20.0373 8.50269 20.0263 8.62152 19.9456L8.91447 19.7502C9.43978 19.3992 10.0576 19.2121 10.6894 19.2126H14.2446C14.4598 19.2126 14.6734 19.178 14.8774 19.1101L22.2815 16.6423C22.5525 16.5489 22.853 16.6328 23.0366 16.8529C23.0436 16.8646 23.0514 16.8758 23.0595 16.8869C23.1772 17.044 23.2232 17.2434 23.1862 17.436C23.1492 17.6287 23.0326 17.7967 22.865 17.8989L15.3674 22.4628C14.9913 22.6915 14.5596 22.8125 14.1194 22.8125H4.39984V14.8128H5.11923C5.85711 14.8137 6.57302 15.0649 7.14978 15.5252ZM0.799953 14.4129C0.800136 14.1921 0.979206 14.013 1.20002 14.0128H3.19981C3.42063 14.013 3.5997 14.1921 3.59988 14.4129V22.8125C3.5997 23.0333 3.42063 23.2122 3.19981 23.2124H1.20002C0.979206 23.2122 0.800136 23.0333 0.799953 22.8125V14.4129Z" fill="#212121" style="fill:#212121;fill:color(display-p3 0.1294 0.1294 0.1294);fill-opacity:1;"/>
</g>
<defs>
<clipPath id="clip0_14032_10071">
<rect width="24" height="24" fill="white" style="fill:white;fill-opacity:1;" transform="translate(0 0.5)"/>
</clipPath>
</defs>
</svg>
