<svg width="24" height="25" viewBox="0 0 24 25" fill="none" xmlns="http://www.w3.org/2000/svg">
<g clip-path="url(#clip0_14032_10271)">
<path d="M18.5 20.5C18.439 20.5 18.379 20.489 18.32 20.467L5.32 15.467C5.127 15.393 5 15.207 5 15V9C5 8.793 5.127 8.607 5.32 8.533L18.32 3.533C18.475 3.473 18.646 3.495 18.783 3.588C18.919 3.681 19 3.835 19 4V20C19 20.165 18.919 20.319 18.783 20.412C18.698 20.47 18.6 20.5 18.5 20.5ZM6 14.656L18 19.272V4.728L6 9.344V14.656Z" fill="#212121" style="fill:#212121;fill:color(display-p3 0.1294 0.1294 0.1294);fill-opacity:1;"/>
<path d="M5.5 15.5H2C0.897 15.5 0 14.603 0 13.5V10.5C0 9.397 0.897 8.5 2 8.5H5.5C5.776 8.5 6 8.724 6 9V15C6 15.276 5.776 15.5 5.5 15.5ZM2 9.5C1.448 9.5 1 9.948 1 10.5V13.5C1 14.052 1.448 14.5 2 14.5H5V9.5H2Z" fill="#212121" style="fill:#212121;fill:color(display-p3 0.1294 0.1294 0.1294);fill-opacity:1;"/>
<path d="M7.50007 22.5H4.50007C4.25107 22.5 4.04007 22.317 4.00507 22.07L3.00507 15.07C2.96607 14.797 3.15607 14.544 3.43007 14.505C3.69807 14.471 3.95607 14.656 3.99507 14.93L4.93407 21.5H6.94007L6.27207 15.546C6.24207 15.272 6.43907 15.025 6.71307 14.993C6.97807 14.964 7.23407 15.16 7.26607 15.434L7.99607 21.944C8.01207 22.086 7.96707 22.227 7.87208 22.333C7.77808 22.439 7.64307 22.5 7.50007 22.5Z" fill="#212121" style="fill:#212121;fill:color(display-p3 0.1294 0.1294 0.1294);fill-opacity:1;"/>
<path d="M20.4999 9.50022C20.3389 9.50022 20.1809 9.42222 20.0839 9.27722C19.9309 9.04822 19.9929 8.73722 20.2229 8.58422L23.2229 6.58422C23.4509 6.43222 23.7619 6.49222 23.9159 6.72322C24.0689 6.95222 24.0069 7.26322 23.7769 7.41622L20.7769 9.41622C20.6919 9.47322 20.5959 9.50022 20.4999 9.50022Z" fill="#212121" style="fill:#212121;fill:color(display-p3 0.1294 0.1294 0.1294);fill-opacity:1;"/>
<path d="M23.5001 18.5C23.4041 18.5 23.3081 18.473 23.2231 18.416L20.2231 16.416C19.9941 16.263 19.9311 15.952 20.0841 15.723C20.2381 15.493 20.5501 15.432 20.7771 15.584L23.7771 17.584C24.0061 17.737 24.0691 18.048 23.9161 18.277C23.8191 18.422 23.6611 18.5 23.5001 18.5Z" fill="#212121" style="fill:#212121;fill:color(display-p3 0.1294 0.1294 0.1294);fill-opacity:1;"/>
<path d="M23.5 13H20.5C20.224 13 20 12.776 20 12.5C20 12.224 20.224 12 20.5 12H23.5C23.776 12 24 12.224 24 12.5C24 12.776 23.776 13 23.5 13Z" fill="#212121" style="fill:#212121;fill:color(display-p3 0.1294 0.1294 0.1294);fill-opacity:1;"/>
</g>
<defs>
<clipPath id="clip0_14032_10271">
<rect width="24" height="24" fill="white" style="fill:white;fill-opacity:1;" transform="translate(0 0.5)"/>
</clipPath>
</defs>
</svg>
