<svg width="24" height="25" viewBox="0 0 24 25" fill="none" xmlns="http://www.w3.org/2000/svg">
<path d="M5.58044 15.8675C5.45704 15.8675 5.33863 15.9172 5.25134 16.0058L2.69129 18.6025C2.42734 18.4475 2.12137 18.3583 1.79512 18.3583C0.80528 18.3583 0 19.1751 0 20.1792C0 21.1832 0.80528 22 1.79512 22C2.78497 22 3.59025 21.1832 3.59025 20.1792C3.59025 19.8482 3.50229 19.5378 3.3495 19.2701L5.77325 16.8116H10.6259C10.6575 16.9939 10.742 17.1684 10.8805 17.309L11.8609 18.3034C12.0348 18.4798 12.2661 18.577 12.512 18.577C12.7579 18.577 12.9892 18.4798 13.1631 18.3034C13.5355 17.9256 14.009 17.9344 14.328 18.0684C14.647 18.2024 14.9879 18.536 14.9879 19.0701C14.9879 19.5851 15.401 20.0041 15.9086 20.0041H17.2951C17.8028 20.0041 18.2159 19.5851 18.2159 19.0701C18.2159 18.5369 18.557 18.2036 18.8763 18.0695C19.1955 17.9354 19.669 17.9264 20.0407 18.3034C20.2146 18.4798 20.4459 18.577 20.6919 18.577C20.9379 18.577 21.1691 18.4798 21.343 18.3034L22.3234 17.309C22.4973 17.1326 22.593 16.898 22.593 16.6485C22.593 16.399 22.4973 16.1645 22.3234 15.9881C21.9517 15.6111 21.9605 15.1308 22.0928 14.807C22.225 14.4832 22.5536 14.1372 23.0792 14.1372C23.5869 14.1372 24 13.7182 24 13.2032V11.7968C24 11.2819 23.5869 10.8629 23.0792 10.8629C22.5536 10.8629 22.225 10.5169 22.0928 10.1931C21.9605 9.86929 21.9517 9.38893 22.3234 9.01194C22.4973 8.83552 22.593 8.60097 22.593 8.35152C22.593 8.10199 22.4973 7.86738 22.3234 7.69109L21.343 6.69658C21.169 6.52016 20.9378 6.42305 20.6919 6.42305C20.4459 6.42305 20.2146 6.52016 20.0408 6.69658C19.6691 7.07356 19.1956 7.06466 18.8763 6.93045C18.5571 6.79632 18.216 6.46304 18.216 5.92987C18.216 5.41484 17.8029 4.99584 17.2952 4.99584H15.9087C15.401 4.99584 14.988 5.41484 14.988 5.92987C14.988 6.46304 14.6469 6.79632 14.3276 6.93045C14.0084 7.06452 13.5348 7.07356 13.1631 6.69651C12.8041 6.33241 12.2199 6.33241 11.8609 6.69651L10.8805 7.69096C10.7451 7.8282 10.6578 8.00091 10.6255 8.18832H5.77318L3.3495 5.72991C3.50229 5.46218 3.59025 5.15183 3.59025 4.82084C3.59025 3.81682 2.78497 3 1.79512 3C0.80528 3 0 3.81682 0 4.82084C0 5.82487 0.80528 6.64168 1.79512 6.64168C2.12137 6.64168 2.42734 6.55246 2.69129 6.39755L5.25134 8.99427C5.33857 9.08282 5.45698 9.13252 5.58044 9.13252H10.9832C11.248 9.48712 11.2296 9.90287 11.111 10.1931C10.9788 10.517 10.6502 10.8629 10.1246 10.8629C9.61687 10.8629 9.2038 11.2819 9.2038 11.7969V12.028H5.53231C5.32673 11.2522 4.62763 10.6792 3.79875 10.6792C2.8089 10.6792 2.00362 11.496 2.00362 12.5001C2.00362 13.5041 2.8089 14.3209 3.79875 14.3209C4.62763 14.3209 5.32673 13.7479 5.53231 12.9721H9.2038V13.2032C9.2038 13.7183 9.61687 14.1373 10.1246 14.1373C10.6502 14.1373 10.9788 14.4832 11.111 14.8071C11.2295 15.0973 11.248 15.513 10.9832 15.8676L5.58044 15.8675ZM1.79512 21.0559C1.31855 21.0559 0.930805 20.6626 0.930805 20.1792C0.930805 19.6958 1.31855 19.3025 1.79512 19.3025C2.2717 19.3025 2.65944 19.6958 2.65944 20.1792C2.65938 20.6626 2.2717 21.0559 1.79512 21.0559ZM1.79512 5.69754C1.31855 5.69754 0.930805 5.30424 0.930805 4.82084C0.930805 4.33744 1.31855 3.94414 1.79512 3.94414C2.2717 3.94414 2.65944 4.33744 2.65944 4.82084C2.65944 5.30424 2.2717 5.69754 1.79512 5.69754ZM3.79875 13.3768C3.32218 13.3768 2.93443 12.9835 2.93443 12.5001C2.93443 12.0167 3.32218 11.6234 3.79875 11.6234C4.27532 11.6234 4.66307 12.0167 4.66307 12.5001C4.66307 12.9835 4.27532 13.3768 3.79875 13.3768ZM10.1346 13.1931V11.807C10.9536 11.8031 11.6567 11.3239 11.971 10.5544C12.2853 9.78486 12.1221 8.94174 11.5457 8.35152L12.5121 7.3713C13.094 7.95606 13.9252 8.12142 14.6838 7.8027C15.4425 7.48392 15.915 6.77083 15.9188 5.93998H17.2852C17.289 6.77083 17.7615 7.48399 18.5202 7.8027C19.2788 8.12142 20.11 7.95606 20.6919 7.3713L21.6583 8.35152C21.0818 8.94174 20.9187 9.78479 21.233 10.5544C21.5472 11.3239 22.2503 11.8032 23.0693 11.807V13.1931C22.2503 13.197 21.5472 13.6763 21.233 14.4457C20.9187 15.2153 21.0818 16.0583 21.6583 16.6486L20.692 17.6288C20.1101 17.0441 19.2789 16.8786 18.5202 17.1974C17.7615 17.5162 17.289 18.2292 17.2852 19.0602H15.9188C15.915 18.2285 15.4427 17.515 14.6843 17.1964C13.9259 16.8777 13.0945 17.0435 12.5121 17.6289L11.5457 16.6487C12.1222 16.0585 12.2853 15.2153 11.971 14.4458C11.6568 13.6763 10.9537 13.197 10.1346 13.1931ZM16.6019 16.4086C18.7267 16.4086 20.4552 14.6553 20.4552 12.5001C20.4552 10.3449 18.7266 8.59153 16.6019 8.59153C14.4772 8.59153 12.7486 10.3449 12.7486 12.5001C12.7486 14.6553 14.4772 16.4086 16.6019 16.4086ZM16.6019 9.53574C18.2134 9.53574 19.5244 10.8656 19.5244 12.5001C19.5244 14.1347 18.2134 15.4645 16.6019 15.4645C14.9904 15.4645 13.6794 14.1347 13.6794 12.5001C13.6794 10.8656 14.9905 9.53574 16.6019 9.53574Z" fill="#212121" style="fill:#212121;fill:color(display-p3 0.1294 0.1294 0.1294);fill-opacity:1;"/>
</svg>
