<svg width="24" height="25" viewBox="0 0 24 25" fill="none" xmlns="http://www.w3.org/2000/svg">
<g clip-path="url(#clip0_14032_10080)">
<path d="M1.50008 11.5C1.52282 11.5 1.54554 11.4985 1.56808 11.4955C5.24105 10.9971 8.82333 9.9735 12.2051 8.456C15.6202 6.91947 18.7932 4.89352 21.6241 2.442L21.0151 4.879C20.983 5.00756 21.0033 5.14359 21.0714 5.25722C21.1396 5.37084 21.2501 5.45277 21.3786 5.485C21.4183 5.49484 21.4591 5.49987 21.5001 5.5C21.6115 5.49986 21.7197 5.46249 21.8075 5.39382C21.8953 5.32516 21.9576 5.22913 21.9846 5.121L22.9846 1.121C23.003 1.04735 23.0043 0.970484 22.9886 0.89623C22.9728 0.821976 22.9404 0.752283 22.8937 0.692436C22.847 0.632589 22.7873 0.584159 22.7191 0.550817C22.6509 0.517475 22.576 0.500097 22.5001 0.5H18.5001C18.3675 0.5 18.2403 0.552678 18.1465 0.646447C18.0528 0.740215 18.0001 0.867392 18.0001 1C18.0001 1.13261 18.0528 1.25979 18.1465 1.35355C18.2403 1.44732 18.3675 1.5 18.5001 1.5H21.1846C18.373 3.97078 15.2083 6.00791 11.7951 7.544C8.50061 9.02224 5.01076 10.0193 1.43258 10.5045C1.30687 10.5215 1.19232 10.5856 1.11212 10.6839C1.03192 10.7822 0.992076 10.9073 1.00066 11.0338C1.00924 11.1604 1.0656 11.279 1.15834 11.3655C1.25107 11.4521 1.37323 11.5001 1.50008 11.5Z" fill="#212121" style="fill:#212121;fill:color(display-p3 0.1294 0.1294 0.1294);fill-opacity:1;"/>
<path d="M22.5 22.5H22V10C22 9.86739 21.9473 9.74021 21.8536 9.64645C21.7598 9.55268 21.6326 9.5 21.5 9.5H16.5C16.3674 9.5 16.2402 9.55268 16.1464 9.64645C16.0527 9.74021 16 9.86739 16 10V22.5H15V13C15 12.8674 14.9473 12.7402 14.8536 12.6464C14.7598 12.5527 14.6326 12.5 14.5 12.5H9.5C9.36739 12.5 9.24021 12.5527 9.14645 12.6464C9.05268 12.7402 9 12.8674 9 13V22.5H8V16C8 15.8674 7.94732 15.7402 7.85355 15.6464C7.75979 15.5527 7.63261 15.5 7.5 15.5H2.5C2.36739 15.5 2.24021 15.5527 2.14645 15.6464C2.05268 15.7402 2 15.8674 2 16V22.5H1.5C1.36739 22.5 1.24021 22.5527 1.14645 22.6464C1.05268 22.7402 1 22.8674 1 23C1 23.1326 1.05268 23.2598 1.14645 23.3536C1.24021 23.4473 1.36739 23.5 1.5 23.5H22.5C22.6326 23.5 22.7598 23.4473 22.8536 23.3536C22.9473 23.2598 23 23.1326 23 23C23 22.8674 22.9473 22.7402 22.8536 22.6464C22.7598 22.5527 22.6326 22.5 22.5 22.5ZM17 10.5H21V22.5H17V10.5ZM10 13.5H14V22.5H10V13.5ZM3 16.5H7V22.5H3V16.5Z" fill="#212121" style="fill:#212121;fill:color(display-p3 0.1294 0.1294 0.1294);fill-opacity:1;"/>
</g>
<defs>
<clipPath id="clip0_14032_10080">
<rect width="24" height="24" fill="white" style="fill:white;fill-opacity:1;" transform="translate(0 0.5)"/>
</clipPath>
</defs>
</svg>
