<svg width="24" height="25" viewBox="0 0 24 25" fill="none" xmlns="http://www.w3.org/2000/svg">
<g clip-path="url(#clip0_14032_9982)">
<path d="M22.7944 23.7003V8.90809C22.7944 8.68731 22.6154 8.5083 22.3946 8.5083H18.3967C18.1759 8.5083 17.9969 8.68731 17.9969 8.90809V23.7003H17.1973V14.5052C17.1973 14.2844 17.0183 14.1054 16.7975 14.1054H12.7996C12.5788 14.1054 12.3998 14.2844 12.3998 14.5052V23.7003H11.6003V10.5073C11.6003 10.2865 11.4213 10.1075 11.2005 10.1075H7.20257C6.98179 10.1075 6.80278 10.2865 6.80278 10.5073V23.7003H6.0032V16.1043C6.0032 15.8835 5.82419 15.7045 5.60341 15.7045H1.60551C1.38472 15.7045 1.20572 15.8835 1.20572 16.1043V23.7003H0.00634766V24.4999H23.9938V23.7003H22.7944ZM5.20362 23.7003H2.0053V16.5041H5.20362V23.7003ZM10.8007 23.7003H7.60236V10.907H10.8007V23.7003ZM16.3977 23.7003H13.1994V14.9049H16.3977V23.7003ZM21.9948 23.7003H18.7965V9.30788H21.9948V23.7003Z" fill="#212121" style="fill:#212121;fill:color(display-p3 0.1294 0.1294 0.1294);fill-opacity:1;"/>
<path d="M2.50181 11.3753C2.82884 11.5915 3.21224 11.7068 3.60429 11.7067C4.70826 11.7067 5.60319 10.8117 5.60314 9.70767C5.60314 9.31577 5.4879 8.93247 5.27181 8.60554L8.10152 5.77543C8.42585 5.99247 8.8071 6.10876 9.19735 6.10965C9.31504 6.1097 9.43248 6.09941 9.54837 6.07887C9.92872 6.01221 10.2813 5.836 10.563 5.57194L12.935 7.39538C12.5391 8.42594 13.0536 9.58233 14.0841 9.97822C15.1147 10.3741 16.2711 9.85964 16.667 8.82908C16.8992 8.22469 16.8242 7.5453 16.4659 7.00598L19.2948 4.17707C20.2182 4.78825 21.4622 4.53513 22.0733 3.61177C22.6845 2.6884 22.4314 1.4444 21.508 0.833275C20.5847 0.222096 19.3407 0.475213 18.7295 1.39858C18.2855 2.06948 18.2855 2.94087 18.7295 3.61177L15.9006 6.44068C15.1083 5.91696 14.0568 6.02305 13.3852 6.69455C13.3776 6.70214 13.3732 6.71094 13.366 6.71814L11.0284 4.92148C11.4774 3.91291 11.0238 2.73133 10.0152 2.28231C9.00665 1.8333 7.82507 2.28691 7.37605 3.29548C7.09835 3.9193 7.15827 4.64178 7.53502 5.21128L4.70651 8.04019C3.78554 7.43136 2.54544 7.68443 1.93661 8.60539C1.32783 9.52636 1.58085 10.7665 2.50181 11.3753ZM20.3955 1.31217C21.0579 1.31217 21.5948 1.84914 21.5948 2.51154C21.5948 3.17395 21.0579 3.71091 20.3955 3.71091C19.7331 3.71091 19.1961 3.17395 19.1961 2.51154C19.1961 1.84914 19.7331 1.31217 20.3955 1.31217ZM13.9499 7.2608C14.1749 7.03567 14.4801 6.90918 14.7984 6.90923C15.4608 6.90913 15.9978 7.44605 15.9979 8.10845C15.998 8.42674 15.8715 8.73198 15.6464 8.95696C15.1716 9.40947 14.4252 9.40947 13.9505 8.95696C13.4819 8.48871 13.4817 7.7293 13.9499 7.2608ZM8.21896 3.42282L8.21906 3.42267C8.40087 3.1615 8.67952 2.98385 8.99306 2.92932C9.06267 2.91738 9.13313 2.91138 9.20375 2.91133C9.44917 2.91158 9.68854 2.98739 9.88939 3.12842C10.432 3.50842 10.5638 4.25628 10.1838 4.79884C9.80378 5.34141 9.05592 5.47319 8.51336 5.09324C7.97079 4.71324 7.83896 3.96538 8.21896 3.42282ZM2.75578 8.85996C2.75598 8.85976 2.75613 8.85961 2.75633 8.85941C3.22488 8.39111 3.98434 8.39126 4.45264 8.85981C4.92094 9.32836 4.92079 10.0878 4.45224 10.5561C3.97749 11.0086 3.23108 11.0086 2.75633 10.5561C2.28778 10.0879 2.28758 9.32846 2.75578 8.85996Z" fill="#212121" style="fill:#212121;fill:color(display-p3 0.1294 0.1294 0.1294);fill-opacity:1;"/>
</g>
<defs>
<clipPath id="clip0_14032_9982">
<rect width="24" height="24" fill="white" style="fill:white;fill-opacity:1;" transform="translate(0 0.5)"/>
</clipPath>
</defs>
</svg>
