<svg width="24" height="25" viewBox="0 0 24 25" fill="none" xmlns="http://www.w3.org/2000/svg">
<g clip-path="url(#clip0_14032_10403)">
<path d="M23.5998 14.5003H22.373L21.5998 3.27319C21.5853 3.06299 21.4106 2.9001 21.1998 2.90039H18.7998C18.589 2.9001 18.4142 3.06299 18.3997 3.27319L17.6266 14.5003H16.8V12.1003C16.8 11.8796 16.6208 11.7003 16.4001 11.7003C16.309 11.7001 16.2208 11.7312 16.1499 11.788L12.7999 14.468V12.1003C12.7999 11.8796 12.6209 11.7003 12.4 11.7003C12.3091 11.7001 12.2209 11.7312 12.15 11.788L8.80004 14.468V12.1003C8.80004 11.8796 8.62104 11.7003 8.40014 11.7003C8.30917 11.7001 8.22084 11.7312 8.15009 11.788L4.80014 14.468V12.1003C4.8 11.8796 4.62085 11.7004 4.40009 11.7004C4.32729 11.7004 4.25625 11.7202 4.19399 11.7576L0.193945 14.1576C0.0736816 14.2299 0 14.3599 0 14.5003V24.1003C0 24.3212 0.17915 24.5002 0.400049 24.5002H23.5998C23.8207 24.5002 23.9998 24.3212 23.9998 24.1003V14.9004C23.9998 14.6793 23.8207 14.5003 23.5998 14.5003ZM19.1733 3.70034H20.8263L21.5713 14.5003H18.4283L19.1733 3.70034ZM13.5997 23.7003V18.9003H15.9997V23.7003H13.5997ZM23.1999 23.7003H16.8V18.5002C16.8 18.2795 16.6207 18.1003 16.3998 18.1003H13.1998C12.9789 18.1003 12.7998 18.2795 12.7998 18.5002V23.7003H0.799951V14.7268L3.9999 12.8068V15.3003C3.9999 15.5213 4.1789 15.7003 4.3998 15.7006C4.49062 15.7006 4.57895 15.6696 4.65 15.6127L7.99995 12.9328V15.3003C7.99995 15.5213 8.1788 15.7003 8.39985 15.7006C8.49067 15.7006 8.57885 15.6696 8.6499 15.6129L11.9998 12.933V15.3004C11.9998 15.5213 12.1787 15.7006 12.3997 15.7006C12.4906 15.7006 12.5788 15.6696 12.6498 15.6129L15.9997 12.933V14.9004C15.9997 15.1214 16.1789 15.3004 16.3998 15.3004H23.1996V23.7003H23.1999Z" fill="#212121" style="fill:#212121;fill:color(display-p3 0.1294 0.1294 0.1294);fill-opacity:1;"/>
<path d="M13.597 1.3003C13.7424 1.37823 13.8738 1.47989 13.9859 1.60103C14.2102 1.87452 14.5295 2.05264 14.8797 2.10025C15.2487 2.05323 15.5856 1.86734 15.8222 1.58023C15.9234 1.47403 16.0367 1.38013 16.1599 1.3003C16.2422 1.30396 16.4578 1.50582 16.5738 1.61422C16.7896 1.88126 17.0996 2.05513 17.4397 2.10025C17.8326 2.05045 18.1916 1.85342 18.4446 1.54903C18.5426 1.45704 18.691 1.31744 18.7197 1.3003C18.9344 1.3003 18.9836 1.37149 19.1158 1.56192C19.2894 1.8899 19.6286 2.09659 19.9998 2.10025C20.2206 2.10025 20.3997 1.9211 20.3997 1.70035C20.3997 1.4793 20.2206 1.3003 19.9998 1.3003C19.9197 1.3003 19.9041 1.29473 19.7742 1.10709C19.5618 0.725495 19.1562 0.492145 18.7197 0.500202C18.3961 0.545173 18.1017 0.711579 17.8966 0.965876C17.7637 1.09112 17.5411 1.3003 17.4565 1.3022C17.3326 1.2272 17.2195 1.1358 17.1196 1.03077C16.8791 0.7378 16.5357 0.548102 16.1597 0.500202C15.813 0.547517 15.4972 0.724177 15.2752 0.994587C15.163 1.115 15.0334 1.21798 14.8909 1.3003C14.7576 1.22383 14.6363 1.12833 14.531 1.01627C14.2972 0.73238 13.9644 0.548102 13.5996 0.500202C13.3789 0.49947 13.199 0.677888 13.1982 0.898932C13.1975 1.11968 13.3761 1.29957 13.597 1.3003Z" fill="#212121" style="fill:#212121;fill:color(display-p3 0.1294 0.1294 0.1294);fill-opacity:1;"/>
</g>
<defs>
<clipPath id="clip0_14032_10403">
<rect width="24" height="24" fill="white" style="fill:white;fill-opacity:1;" transform="translate(0 0.5)"/>
</clipPath>
</defs>
</svg>
