<svg width="24" height="25" viewBox="0 0 24 25" fill="none" xmlns="http://www.w3.org/2000/svg">
<g clip-path="url(#clip0_14032_10383)">
<path d="M16.2507 23.1544H7.74898C7.181 23.1531 6.63663 22.9269 6.235 22.5253C5.83338 22.1237 5.6072 21.5793 5.60596 21.0113V8.13912C5.6072 7.57113 5.83338 7.02677 6.235 6.62514C6.63663 6.22351 7.181 5.99733 7.74898 5.99609H16.2507C16.8187 5.99733 17.3631 6.22351 17.7647 6.62514C18.1663 7.02677 18.3925 7.57113 18.3938 8.13912V21.0113C18.3925 21.5793 18.1663 22.1237 17.7647 22.5253C17.3631 22.9269 16.8187 23.1531 16.2507 23.1544ZM7.74898 6.84017C7.40448 6.84017 7.07409 6.97703 6.83049 7.22063C6.58689 7.46422 6.45004 7.79462 6.45004 8.13912V21.0113C6.45004 21.1819 6.48364 21.3508 6.54891 21.5084C6.61419 21.666 6.70987 21.8092 6.83049 21.9298C6.95111 22.0504 7.0943 22.1461 7.2519 22.2114C7.40949 22.2767 7.5784 22.3103 7.74898 22.3103H16.2507C16.4213 22.3103 16.5902 22.2767 16.7478 22.2114C16.9054 22.1461 17.0486 22.0504 17.1692 21.9298C17.2899 21.8092 17.3855 21.666 17.4508 21.5084C17.5161 21.3508 17.5497 21.1819 17.5497 21.0113V8.13912C17.5497 7.79462 17.4128 7.46422 17.1692 7.22063C16.9256 6.97703 16.5952 6.84017 16.2507 6.84017H7.74898Z" fill="#212121" style="fill:#212121;fill:color(display-p3 0.1294 0.1294 0.1294);fill-opacity:1;"/>
<path d="M8.91663 24.5C8.72118 24.5008 8.52896 24.4501 8.35935 24.353C8.18975 24.2558 8.04877 24.1157 7.95063 23.9466L7.36915 22.9431C7.33357 22.8787 7.31524 22.8062 7.31594 22.7327C7.31664 22.6591 7.33635 22.5869 7.37316 22.5232C7.40996 22.4595 7.46262 22.4064 7.52601 22.3691C7.58939 22.3317 7.66136 22.3114 7.73492 22.3101H10.0796C10.1532 22.3114 10.2251 22.3317 10.2885 22.3691C10.3519 22.4064 10.4045 22.4595 10.4414 22.5232C10.4782 22.5869 10.4979 22.6591 10.4986 22.7327C10.4993 22.8062 10.4809 22.8787 10.4454 22.9431L9.89202 23.9466C9.79236 24.1164 9.64974 24.2569 9.47851 24.3541C9.30728 24.4512 9.11349 24.5015 8.91663 24.5ZM8.4477 23.1541L8.65403 23.5152C8.67837 23.5583 8.71383 23.5941 8.75672 23.6189C8.79962 23.6436 8.84836 23.6564 8.89788 23.6559C8.9473 23.6559 8.99585 23.6429 9.03866 23.6182C9.08147 23.5936 9.11701 23.558 9.14172 23.5152L9.35743 23.1541H8.4477Z" fill="#212121" style="fill:#212121;fill:color(display-p3 0.1294 0.1294 0.1294);fill-opacity:1;"/>
<path d="M14.3659 24.5002C14.169 24.5017 13.9752 24.4514 13.804 24.3543C13.6328 24.2571 13.4901 24.1166 13.3905 23.9468L12.8184 22.9527C12.7828 22.8883 12.7645 22.8158 12.7652 22.7422C12.7659 22.6686 12.7856 22.5965 12.8224 22.5328C12.8592 22.4691 12.9118 22.416 12.9752 22.3786C13.0386 22.3413 13.1106 22.3209 13.1841 22.3196H15.5288C15.6034 22.3169 15.6774 22.3338 15.7435 22.3687C15.8095 22.4035 15.8652 22.4551 15.9051 22.5182C15.945 22.5813 15.9676 22.6538 15.9707 22.7284C15.9738 22.803 15.9572 22.8771 15.9227 22.9433L15.3412 23.9468C15.2416 24.1166 15.099 24.2571 14.9277 24.3543C14.7565 24.4514 14.5627 24.5017 14.3659 24.5002ZM13.8969 23.1543L14.1033 23.5154C14.1289 23.5541 14.1638 23.5858 14.2047 23.6078C14.2456 23.6297 14.2913 23.6412 14.3377 23.6412C14.3841 23.6412 14.4299 23.6297 14.4708 23.6078C14.5117 23.5858 14.5465 23.5541 14.5722 23.5154L14.7785 23.1543H13.8969Z" fill="#212121" style="fill:#212121;fill:color(display-p3 0.1294 0.1294 0.1294);fill-opacity:1;"/>
<path d="M13.9483 6.83998H10.0514C9.9395 6.83998 9.83216 6.79551 9.75301 6.71636C9.67386 6.63722 9.62939 6.52987 9.62939 6.41794V0.92204C9.62939 0.810108 9.67386 0.70276 9.75301 0.623613C9.83216 0.544465 9.9395 0.5 10.0514 0.5H13.9483C14.0602 0.5 14.1675 0.544465 14.2467 0.623613C14.3258 0.70276 14.3703 0.810108 14.3703 0.92204V6.41794C14.3703 6.52987 14.3258 6.63722 14.2467 6.71636C14.1675 6.79551 14.0602 6.83998 13.9483 6.83998ZM10.4735 5.9959H13.5262V1.34408H10.4735V5.9959Z" fill="#212121" style="fill:#212121;fill:color(display-p3 0.1294 0.1294 0.1294);fill-opacity:1;"/>
<path d="M15.4535 1.34408H8.56022C8.44829 1.34408 8.34094 1.29961 8.2618 1.22047C8.18265 1.14132 8.13818 1.03397 8.13818 0.92204C8.13818 0.810108 8.18265 0.70276 8.2618 0.623613C8.34094 0.544465 8.44829 0.5 8.56022 0.5H15.4535C15.5655 0.5 15.6728 0.544465 15.752 0.623613C15.8311 0.70276 15.8756 0.810108 15.8756 0.92204C15.8756 1.03397 15.8311 1.14132 15.752 1.22047C15.6728 1.29961 15.5655 1.34408 15.4535 1.34408Z" fill="#212121" style="fill:#212121;fill:color(display-p3 0.1294 0.1294 0.1294);fill-opacity:1;"/>
<path d="M12.0021 20.4437C11.8902 20.4437 11.7828 20.3992 11.7037 20.3201C11.6245 20.241 11.5801 20.1336 11.5801 20.0217V16.4601C11.5801 16.3482 11.6245 16.2408 11.7037 16.1617C11.7828 16.0826 11.8902 16.0381 12.0021 16.0381C12.1141 16.0381 12.2214 16.0826 12.3005 16.1617C12.3797 16.2408 12.4242 16.3482 12.4242 16.4601V20.0217C12.4242 20.0771 12.4132 20.132 12.392 20.1832C12.3708 20.2344 12.3397 20.2809 12.3005 20.3201C12.2614 20.3593 12.2148 20.3904 12.1636 20.4116C12.1124 20.4328 12.0575 20.4437 12.0021 20.4437Z" fill="#212121" style="fill:#212121;fill:color(display-p3 0.1294 0.1294 0.1294);fill-opacity:1;"/>
<path d="M15.0832 18.3993C14.9712 18.3993 14.8639 18.3548 14.7847 18.2757C14.7056 18.1965 14.6611 18.0892 14.6611 17.9772V13.4157C14.6611 13.3038 14.7056 13.1964 14.7847 13.1173C14.8639 13.0381 14.9712 12.9937 15.0832 12.9937C15.1951 12.9937 15.3025 13.0381 15.3816 13.1173C15.4607 13.1964 15.5052 13.3038 15.5052 13.4157V17.9772C15.5052 18.0892 15.4607 18.1965 15.3816 18.2757C15.3025 18.3548 15.1951 18.3993 15.0832 18.3993Z" fill="#212121" style="fill:#212121;fill:color(display-p3 0.1294 0.1294 0.1294);fill-opacity:1;"/>
</g>
<defs>
<clipPath id="clip0_14032_10383">
<rect width="24" height="24" fill="white" style="fill:white;fill-opacity:1;" transform="translate(0 0.5)"/>
</clipPath>
</defs>
</svg>
