<svg width="42" height="42" viewBox="0 0 42 42" fill="none" xmlns="http://www.w3.org/2000/svg">
<g clip-path="url(#clip0_530_681)">
<path d="M36.7444 15.9958C35.2921 14.8864 33.5847 14.1589 31.7786 13.8797H31.7864V8.89897C33.1321 8.27045 33.9947 6.92218 34.0012 5.43693V5.32052C33.9956 3.20371 32.2809 1.48901 30.1641 1.48335H30.0477C27.9308 1.48901 26.2161 3.20371 26.2105 5.32052V5.43693C26.217 6.92218 27.0796 8.27045 28.4253 8.89897V13.8902C26.5299 14.18 24.7447 14.9655 23.2505 16.1671L9.55247 5.49902C10.1753 3.1672 8.78983 0.771973 6.45801 0.14911C4.12619 -0.473754 1.73096 0.911672 1.10809 3.24349C0.48523 5.57531 1.87066 7.97054 4.20256 8.59341C5.31753 8.89118 6.50493 8.73598 7.50579 8.16143L20.9734 18.6458C18.4908 22.3912 18.5575 27.2755 21.1416 30.9516L17.0431 35.0501C16.714 34.9454 16.3715 34.8895 16.0262 34.8845C14.0613 34.8845 12.4685 36.4773 12.4685 38.4422C12.4685 40.4071 14.0613 42 16.0262 42C17.9911 42 19.5839 40.4071 19.5839 38.4422C19.5791 38.097 19.5233 37.7543 19.4183 37.4253L23.4728 33.3709C28.2709 37.0357 35.1313 36.1171 38.7962 31.3191C42.461 26.5211 41.5424 19.6607 36.7444 15.9958ZM30.1123 30.2918L30.0993 30.2892C27.0013 30.2821 24.4955 27.7648 24.5027 24.6667C24.5099 21.5686 27.0272 19.063 30.1253 19.07C33.2193 19.0772 35.7233 21.5881 35.7219 24.6822C35.7218 27.7804 33.2104 30.2918 30.1123 30.2918Z" fill="#FF7B57" style="fill:#FF7B57;fill:color(display-p3 1.0000 0.4824 0.3412);fill-opacity:1;"/>
</g>
<defs>
<clipPath id="clip0_530_681">
<rect width="42" height="42" fill="white" style="fill:white;fill-opacity:1;"/>
</clipPath>
</defs>
</svg>
