<svg width="60" height="60" viewBox="0 0 60 60" fill="none" xmlns="http://www.w3.org/2000/svg">
<g clip-path="url(#clip0_604_120)">
<path opacity="0.94" d="M30 60C46.5685 60 60 46.5685 60 30C60 13.4315 46.5685 0 30 0C13.4315 0 0 13.4315 0 30C0 46.5685 13.4315 60 30 60Z" fill="white" style="fill:white;fill-opacity:1;"/>
<path d="M24.9998 30.0092C24.9949 27.2482 27.2296 25.0053 29.99 25.0005C32.751 24.9951 34.9944 27.2287 34.9998 29.9903C35.0051 32.7518 32.7704 34.9942 30.009 34.9996C27.2485 35.0048 25.0051 32.7707 24.9998 30.0092ZM22.2981 30.0146C22.3064 34.2686 25.7614 37.7095 30.0144 37.7012C34.2678 37.693 37.7107 34.239 37.7024 29.9849C37.6941 25.7324 34.2387 22.2895 29.9847 22.2978C25.7317 22.306 22.2899 25.7615 22.2981 30.0146ZM36.191 21.9818C36.1929 22.9752 37.0006 23.7796 37.994 23.7777C38.9878 23.7757 39.7922 22.9684 39.7907 21.9751C39.7888 20.9817 38.9811 20.1768 37.9872 20.1788C36.9934 20.1807 36.189 20.9884 36.191 21.9818ZM23.9627 42.2201C22.5003 42.1565 21.7062 41.9135 21.1769 41.7099C20.4761 41.4387 19.976 41.1135 19.4497 40.5911C18.9243 40.0667 18.5982 39.568 18.3245 38.8686C18.119 38.3394 17.8716 37.5462 17.8031 36.0839C17.7287 34.5028 17.7117 34.0285 17.7044 30.0233C17.6966 26.0191 17.7112 25.5448 17.7803 23.9623C17.8429 22.5009 18.0874 21.7058 18.2906 21.177C18.5617 20.4752 18.8859 19.9761 19.4093 19.4498C19.9337 18.9234 20.4323 18.5983 21.1322 18.3247C21.661 18.1181 22.4541 17.8726 23.916 17.8032C25.4979 17.7283 25.9718 17.7123 29.976 17.7045C33.981 17.6967 34.4554 17.7108 36.0379 17.7803C37.4992 17.844 38.2943 18.086 38.8227 18.2906C39.5239 18.5618 40.024 18.885 40.5499 19.4094C41.0757 19.9338 41.4018 20.4315 41.6755 21.1328C41.882 21.6601 42.1275 22.4542 42.1965 23.9157C42.2718 25.4976 42.2888 25.972 42.2961 29.9762C42.3038 33.9813 42.2892 34.4557 42.2198 36.0372C42.1561 37.4995 41.9136 38.2942 41.7095 38.8239C41.4383 39.5243 41.1141 40.0244 40.5902 40.5508C40.0663 41.0751 39.5677 41.4022 38.8674 41.6758C38.3395 41.8819 37.5454 42.1278 36.0845 42.1973C34.5026 42.2717 34.0287 42.2887 30.0231 42.296C26.0189 42.3038 25.5451 42.2887 23.9627 42.2201ZM23.7877 15.1039C22.1917 15.1792 21.1016 15.4348 20.149 15.8081C19.1629 16.1925 18.327 16.7077 17.4955 17.5427C16.6629 18.3781 16.1516 19.2155 15.7701 20.2025C15.4008 21.1575 15.1505 22.2482 15.08 23.8452C15.0101 25.4452 14.994 25.9554 15.0018 30.0287C15.0096 34.1014 15.0275 34.6127 15.1038 36.2131C15.1801 37.8087 15.4348 38.8983 15.808 39.8513C16.193 40.8375 16.7076 41.6729 17.5431 42.505C18.378 43.337 19.2159 43.8478 20.2035 44.2299C21.1575 44.5986 22.2485 44.85 23.8451 44.9199C25.445 44.9904 25.9557 45.0059 30.028 44.9982C34.1021 44.9904 34.6129 44.9724 36.2128 44.8966C37.8089 44.8203 38.8979 44.5647 39.8515 44.1924C40.8376 43.8065 41.6735 43.2928 42.5051 42.4573C43.3366 41.6223 43.8479 40.7845 44.2294 39.7969C44.5988 38.8429 44.85 37.7518 44.9195 36.1563C44.9895 34.5553 45.0061 34.044 44.9982 29.9713C44.9904 25.8981 44.972 25.3878 44.8962 23.7884C44.8204 22.1913 44.5647 21.1022 44.192 20.1486C43.8066 19.1625 43.2924 18.3275 42.4575 17.495C41.6225 16.6635 40.7846 16.1512 39.7971 15.7707C38.8426 15.4013 37.752 15.1496 36.1555 15.0806C34.5555 15.0096 34.0447 14.9941 29.9711 15.0018C25.8984 15.0096 25.3876 15.0271 23.7877 15.1039Z" fill="#231F20" style="fill:#231F20;fill:color(display-p3 0.1373 0.1216 0.1255);fill-opacity:1;"/>
</g>
<defs>
<clipPath id="clip0_604_120">
<rect width="60" height="60" fill="white" style="fill:white;fill-opacity:1;"/>
</clipPath>
</defs>
</svg>
