<svg width="60" height="60" viewBox="0 0 60 60" fill="none" xmlns="http://www.w3.org/2000/svg">
<circle opacity="0.94" cx="30" cy="30" r="30" fill="white"/>
<path d="M45 44V32.0541C45 30.1053 44.2259 28.2364 42.8479 26.8584C41.4699 25.4804 39.6009 24.7062 37.6521 24.7062C35.7363 24.7062 33.5049 25.8783 32.423 27.6364V25.1345H26.1345V44H32.423V32.8881C32.423 31.1525 33.8204 29.7325 35.556 29.7325C36.3929 29.7325 37.1955 30.065 37.7873 30.6568C38.379 31.2485 38.7115 32.0512 38.7115 32.8881V44H45ZM18.8092 21.5958C19.8134 21.5958 20.7766 21.1968 21.4867 20.4867C22.1968 19.7766 22.5958 18.8134 22.5958 17.8092C22.5958 15.713 20.9053 14 18.8092 14C17.7989 14 16.83 14.4013 16.1157 15.1157C15.4013 15.83 15 16.7989 15 17.8092C15 19.9053 16.713 21.5958 18.8092 21.5958ZM21.9421 44V25.1345H15.6987V44H21.9421Z" fill="#231F20"/>
</svg>
