<svg width="79" height="78" viewBox="0 0 79 78" fill="none" xmlns="http://www.w3.org/2000/svg">
<g clip-path="url(#clip0_60_704)">
<path d="M23.2997 15.2196L8.95733 18.7457C6.9651 19.2355 5.44347 20.349 4.39157 22.086C3.34039 23.8231 3.05938 25.6876 3.54921 27.68L7.07524 42.0218C7.56504 44.0141 8.67809 45.5355 10.4152 46.5868C12.1525 47.638 14.0175 47.9191 16.0094 47.4294L24.3756 45.3726C25.3713 45.1278 26.3038 45.2683 27.1724 45.7939C28.0409 46.3191 28.5977 47.0805 28.8427 48.0769L29.1363 49.2714C29.7853 51.9109 29.4052 54.3932 27.9971 56.7201C26.5887 59.0462 24.5651 60.5339 21.9253 61.1829L19.5352 61.7705C18.8874 61.9298 18.3857 62.3046 18.0286 62.8938C17.6719 63.4828 17.5731 64.1014 17.7323 64.7489L18.9078 69.5301C19.0667 70.1765 19.4414 70.6798 20.0305 71.0364C20.6204 71.3926 21.2383 71.4924 21.8862 71.3331L24.2764 70.7454C26.8662 70.1087 29.2134 68.9962 31.3187 67.4095C33.4238 65.8228 35.124 63.9588 36.4197 61.8182C37.715 59.6776 38.5781 57.3073 39.0079 54.7063C39.4376 52.1054 39.3344 49.5102 38.6978 46.9208L32.2333 20.6273C31.7435 18.6349 30.63 17.1134 28.8931 16.062C27.1563 15.0107 25.2914 14.7299 23.2997 15.2196Z" fill="#5ECCF0"/>
<path d="M62.357 7.83492C60.6203 6.78352 58.7557 6.50253 56.7634 6.99234L42.4216 10.5184C40.4293 11.0082 38.9077 12.1217 37.8563 13.8586C36.8052 15.5958 36.5244 17.4601 37.0142 19.4524L40.5403 33.7943C41.0301 35.7865 42.1432 37.308 43.88 38.3594C45.6169 39.4106 47.4815 39.6919 49.4736 39.2021L57.8398 37.1452C58.8355 36.9004 59.7687 37.0408 60.6372 37.5664C61.505 38.0922 62.0625 38.853 62.3074 39.8494L62.6011 41.0439C63.2501 43.6834 62.87 46.1658 61.4615 48.4928C60.0532 50.8187 58.0301 52.3064 55.39 52.9554L52.9995 53.5432C52.3522 53.7023 51.8499 54.0773 51.4934 54.6663C51.1365 55.2554 51.0373 55.8741 51.1965 56.5215L52.372 61.3028C52.5309 61.9492 52.9059 62.4524 53.4953 62.809C54.0842 63.1654 54.7031 63.2649 55.3505 63.1057L57.741 62.518C60.3305 61.8814 62.6775 60.7689 64.783 59.1822C66.8878 57.5955 68.5877 55.7315 69.8836 53.5909C71.1793 51.4502 72.043 49.0793 72.4723 46.4789C72.902 43.8786 72.7989 41.2828 72.1623 38.6934L65.6978 12.3999C65.2076 10.4076 64.0948 8.88594 62.357 7.83492Z" fill="#5ECCF0"/>
</g>
<defs>
<clipPath id="clip0_60_704">
<rect width="64.0001" height="64" fill="white" transform="translate(0.610352 15.7275) rotate(-13.8125)"/>
</clipPath>
</defs>
</svg>
