<svg width="79" height="80" viewBox="0 0 79 80" fill="none" xmlns="http://www.w3.org/2000/svg">
<g clip-path="url(#clip0_60_724)">
<path d="M22.8051 16.5566L8.53888 20.3792C6.55723 20.9102 5.059 22.055 4.04333 23.8134C3.02837 25.572 2.78606 27.4419 3.31707 29.4236L7.13956 43.6894C7.67054 45.671 8.81488 47.1691 10.5734 48.1842C12.3321 49.1991 14.2026 49.4415 16.1839 48.9106L24.5056 46.6808C25.496 46.4155 26.4313 46.5367 27.3106 47.0441C28.1898 47.5512 28.7622 48.3009 29.0278 49.292L29.3462 50.4802C30.0497 53.1057 29.7211 55.5953 28.3616 57.9509C27.0016 60.3056 25.0093 61.835 22.3835 62.5386L20.0061 63.1756C19.3618 63.3482 18.8679 63.7334 18.5231 64.3298C18.1787 64.9261 18.0927 65.5467 18.2653 66.1906L19.5396 70.9465C19.7119 71.5895 20.0969 72.0849 20.6934 72.4292C21.2905 72.7731 21.9103 72.86 22.5548 72.6873L24.9323 72.0503C27.5083 71.36 29.8319 70.1991 31.9039 68.5692C33.9757 66.9392 35.6369 65.0403 36.888 62.8733C38.1387 60.7063 38.9524 58.3187 39.3282 55.7093C39.704 53.1001 39.547 50.5076 38.8568 47.9319L31.8489 21.778C31.3179 19.7962 30.1731 18.2981 28.4148 17.283C26.6565 16.2678 24.7862 16.0257 22.8051 16.5566Z" fill="#FBA8A8"/>
<path d="M61.6988 8.36448C59.9406 7.34929 58.0706 7.10701 56.089 7.63799L41.8233 11.4605C39.8416 11.9915 38.3434 13.1363 37.3282 14.8946C36.3133 16.6532 36.0712 18.5229 36.6022 20.5047L40.4247 34.7704C40.9557 36.7521 42.1002 38.2501 43.8583 39.2653C45.6166 40.2803 47.4867 40.5229 49.4682 39.9919L57.79 37.7621C58.7804 37.4967 59.7163 37.6178 60.5955 38.1253C61.474 38.6329 62.0471 39.382 62.3127 40.3731L62.6311 41.5613C63.3346 44.1868 63.006 46.6764 61.6461 49.0321C60.2863 51.3868 58.2944 52.916 55.6684 53.6197L53.2905 54.2568C52.6467 54.4294 52.1523 54.8147 51.808 55.4109C51.4634 56.0073 51.3771 56.6279 51.5496 57.2719L52.824 62.0278C52.9963 62.6707 53.3816 63.1661 53.9783 63.5104C54.5744 63.8545 55.1952 63.9412 55.8392 63.7686L58.2171 63.1315C60.7927 62.4413 63.1162 61.2804 65.1884 59.6504C67.2598 58.0205 68.9207 56.1217 70.172 53.9547C71.423 51.7876 72.2374 49.3993 72.6127 46.7905C72.9885 44.1818 72.8316 41.5888 72.1414 39.0131L65.1335 12.8592C64.6021 10.8775 63.458 9.37926 61.6988 8.36448Z" fill="#FBA8A8"/>
</g>
<defs>
<clipPath id="clip0_60_724">
<rect width="64.0001" height="64" fill="white" transform="translate(0.132324 17.5347) rotate(-15)"/>
</clipPath>
</defs>
</svg>
