<svg width="50" height="50" viewBox="0 0 50 50" fill="none" xmlns="http://www.w3.org/2000/svg">
<circle opacity="0.94" cx="25" cy="25" r="25" fill="white"/>
<path d="M34.534 19.737C34.5473 19.94 34.5473 20.1516 34.5473 20.3589C34.5473 26.698 29.5977 34 20.5529 34C17.7637 34 15.1782 33.2098 13 31.8495C13.3985 31.8927 13.7792 31.91 14.1865 31.91C16.4887 31.91 18.6049 31.15 20.2916 29.8632C18.1312 29.82 16.316 28.4382 15.6962 26.5382C16.4532 26.6461 17.135 26.6461 17.9142 26.4518C16.8018 26.2314 15.8019 25.6421 15.0844 24.7841C14.3669 23.926 13.9761 22.8522 13.9784 21.745V21.6845C14.6292 22.043 15.3951 22.2632 16.1965 22.2934C15.5228 21.8555 14.9704 21.2623 14.5881 20.5663C14.2058 19.8703 14.0055 19.093 14.005 18.3034C14.005 17.4095 14.2441 16.5934 14.6735 15.8852C15.9083 17.3678 17.4491 18.5804 19.1957 19.4441C20.9424 20.3079 22.8559 20.8034 24.8118 20.8986C24.1168 17.6384 26.6137 15 29.6154 15C31.0321 15 32.3071 15.5786 33.2059 16.5114C34.3171 16.3084 35.3796 15.9025 36.3271 15.3584C35.9596 16.4682 35.1893 17.4052 34.1666 17.9968C35.1583 17.8932 36.1146 17.6255 37 17.2498C36.3315 18.2084 35.4947 19.0591 34.534 19.737Z" fill="#231F20"/>
</svg>
