<svg width="50" height="50" viewBox="0 0 50 50" fill="none" xmlns="http://www.w3.org/2000/svg">
<circle opacity="0.94" cx="25" cy="25" r="25" fill="white" style="fill:white;fill-opacity:1;"/>
<path d="M36.4984 18.967C36.2224 17.7993 35.4091 16.8794 34.3765 16.5673C32.5051 16 25 16 25 16C25 16 17.4949 16 15.6235 16.5673C14.5909 16.8794 13.7776 17.7993 13.5016 18.967C13 21.0836 13 25.5 13 25.5C13 25.5 13 29.9164 13.5016 32.033C13.7776 33.2007 14.5909 34.1206 15.6235 34.4327C17.4949 35 25 35 25 35C25 35 32.5051 35 34.3765 34.4327C35.4091 34.1206 36.2224 33.2007 36.4984 32.033C37 29.9164 37 25.5 37 25.5C37 25.5 37 21.0836 36.4984 18.967ZM22.6 29.5714V21.4286L28.8352 25.5L22.6 29.5714Z" fill="#221F20" style="fill:#221F20;fill:color(display-p3 0.1333 0.1216 0.1255);fill-opacity:1;"/>
</svg>
