<svg width="83" height="83" viewBox="0 0 83 83" fill="none" xmlns="http://www.w3.org/2000/svg">
<g clip-path="url(#clip0_60_684)">
<path d="M41.5576 12.3518L27.7184 7.1928C25.7961 6.47618 23.9116 6.53998 22.0644 7.38353C20.2178 8.22757 18.936 9.6104 18.2193 11.5329L13.0605 25.3715C12.3438 27.2938 12.4073 29.1779 13.2513 31.0247C14.0955 32.8714 15.4787 34.1536 17.4007 34.8701L25.4734 37.8795C26.4341 38.2376 27.1257 38.8787 27.5478 39.8021C27.97 40.7251 28.0016 41.6677 27.6432 42.6292L27.2135 43.7818C26.2641 46.3287 24.5526 48.1664 22.079 49.2971C19.6055 50.4267 17.0955 50.5173 14.5483 49.5677L12.2421 48.708C11.617 48.475 10.9913 48.5024 10.3646 48.7883C9.73822 49.0744 9.30828 49.53 9.0754 50.1547L7.35555 54.7682C7.12305 55.3919 7.14943 56.0188 7.43564 56.6453C7.72269 57.2717 8.17721 57.7019 8.80242 57.935L11.1087 58.7948C13.6077 59.7263 16.1739 60.128 18.8071 60.0018C21.4402 59.8753 23.8947 59.2917 26.1706 58.2518C28.4462 57.2117 30.4938 55.7385 32.3132 53.8306C34.1324 51.9228 35.5079 49.7198 36.4394 47.2212L45.8973 21.8502C46.614 19.9278 46.5501 18.0435 45.7064 16.1968C44.8626 14.3501 43.4794 13.0683 41.5576 12.3518Z" fill="#EAE341"/>
<path d="M77.9943 28.2336C77.1506 26.3869 75.7677 25.1051 73.8454 24.3885L60.0067 19.2296C58.0844 18.513 56.1999 18.5768 54.3532 19.4205C52.5065 20.2647 51.225 21.6475 50.5084 23.57L45.3495 37.4086C44.6329 39.3309 44.6965 41.2151 45.5401 43.0617C46.3839 44.9083 47.7668 46.1904 49.689 46.9069L57.7617 49.9163C58.7224 50.2744 59.4147 50.9158 59.8366 51.8391C60.2579 52.7622 60.2904 53.7048 59.932 54.6662L59.5023 55.8188C58.5529 58.3657 56.8414 60.2035 54.3674 61.3339C51.8941 62.4636 49.3845 62.5544 46.8371 61.6047L44.5304 60.7448C43.9059 60.512 43.2797 60.5392 42.6534 60.8253C42.0268 61.1113 41.5966 61.5669 41.3637 62.1916L39.6439 66.8051C39.4114 67.4288 39.438 68.0558 39.7244 68.6823C40.0105 69.3083 40.466 69.739 41.0907 69.9718L43.3974 70.8317C45.896 71.7632 48.4621 72.1648 51.0955 72.0386C53.7283 71.9121 56.1825 71.3283 58.4586 70.2885C60.7345 69.2485 62.783 67.7751 64.6016 65.8675C66.4205 63.9602 67.7965 61.7567 68.7279 59.2582L78.1859 33.8872C78.9021 31.9646 78.8389 30.0805 77.9943 28.2336Z" fill="#EAE341"/>
</g>
<defs>
<clipPath id="clip0_60_684">
<rect width="64.0001" height="64" fill="white" transform="translate(22.5176) rotate(20.4447)"/>
</clipPath>
</defs>
</svg>
