<svg width="50" height="50" viewBox="0 0 50 50" fill="none" xmlns="http://www.w3.org/2000/svg">
<g clip-path="url(#clip0_313_1604)">
<path opacity="0.94" d="M25 50C38.8071 50 50 38.8071 50 25C50 11.1929 38.8071 0 25 0C11.1929 0 0 11.1929 0 25C0 38.8071 11.1929 50 25 50Z" fill="white"/>
<path d="M31.3263 14.9039H34.6998L27.3297 23.3274L36 34.7899H29.2112L23.894 27.838L17.8099 34.7899H14.4344L22.3174 25.78L14 14.9039H20.9611L25.7674 21.2583L31.3263 14.9039ZM30.1423 32.7707H32.0116L19.9454 16.8171H17.9395L30.1423 32.7707Z" fill="#231F20"/>
</g>
<defs>
<clipPath id="clip0_313_1604">
<rect width="50" height="50" fill="white"/>
</clipPath>
</defs>
</svg>
