<svg width="54" height="54" viewBox="0 0 54 54" fill="none" xmlns="http://www.w3.org/2000/svg">
<path d="M22.5 13.5H31.5C36 13.5 36 11.25 36 9C36 4.5 33.75 4.5 31.5 4.5H22.5C20.25 4.5 18 4.5 18 9C18 13.5 20.25 13.5 22.5 13.5Z" stroke="#212121" style="stroke:#212121;stroke:color(display-p3 0.1294 0.1294 0.1294);stroke-opacity:1;" stroke-width="2" stroke-miterlimit="10" stroke-linecap="round" stroke-linejoin="round"/>
<path d="M31.5 49.4999H20.25C9 49.4999 6.75 44.9999 6.75 35.9999V22.4999C6.75 12.2399 10.5075 9.44992 18 9.04492" stroke="#212121" style="stroke:#212121;stroke:color(display-p3 0.1294 0.1294 0.1294);stroke-opacity:1;" stroke-width="2" stroke-miterlimit="10" stroke-linecap="round" stroke-linejoin="round"/>
<path d="M36 9.04492C43.4925 9.44992 47.25 12.2174 47.25 22.4999V33.7499" stroke="#212121" style="stroke:#212121;stroke:color(display-p3 0.1294 0.1294 0.1294);stroke-opacity:1;" stroke-width="2" stroke-miterlimit="10" stroke-linecap="round" stroke-linejoin="round"/>
<path d="M33.75 42.75V36H40.5" stroke="#212121" style="stroke:#212121;stroke:color(display-p3 0.1294 0.1294 0.1294);stroke-opacity:1;" stroke-width="2" stroke-miterlimit="10" stroke-linecap="round" stroke-linejoin="round"/>
<path d="M47.2498 49.5001L33.8398 36.0901" stroke="#212121" style="stroke:#212121;stroke:color(display-p3 0.1294 0.1294 0.1294);stroke-opacity:1;" stroke-width="2" stroke-miterlimit="10" stroke-linecap="round" stroke-linejoin="round"/>
</svg>
