<svg width="54" height="54" viewBox="0 0 54 54" fill="none" xmlns="http://www.w3.org/2000/svg">
<path d="M15.75 18H9C6.525 18 4.5 15.975 4.5 13.5V9C4.5 6.525 6.525 4.5 9 4.5H15.75C18.225 4.5 20.25 6.525 20.25 9V13.5C20.25 15.975 18.225 18 15.75 18Z" stroke="#292D32" style="stroke:#292D32;stroke:color(display-p3 0.1608 0.1765 0.1961);stroke-opacity:1;" stroke-width="2" stroke-linecap="round" stroke-linejoin="round"/>
<path d="M46.8 15.75H38.7C37.215 15.75 36 14.535 36 13.05V9.45003C36 7.96503 37.215 6.75 38.7 6.75H46.8C48.285 6.75 49.5 7.96503 49.5 9.45003V13.05C49.5 14.535 48.285 15.75 46.8 15.75Z" stroke="#292D32" style="stroke:#292D32;stroke:color(display-p3 0.1608 0.1765 0.1961);stroke-opacity:1;" stroke-width="2" stroke-linecap="round" stroke-linejoin="round"/>
<path d="M46.8 32.625H38.7C37.215 32.625 36 31.41 36 29.925V26.325C36 24.84 37.215 23.625 38.7 23.625H46.8C48.285 23.625 49.5 24.84 49.5 26.325V29.925C49.5 31.41 48.285 32.625 46.8 32.625Z" stroke="#292D32" style="stroke:#292D32;stroke:color(display-p3 0.1608 0.1765 0.1961);stroke-opacity:1;" stroke-width="2" stroke-linecap="round" stroke-linejoin="round"/>
<path d="M20.25 11.25H36" stroke="#292D32" style="stroke:#292D32;stroke:color(display-p3 0.1608 0.1765 0.1961);stroke-opacity:1;" stroke-width="2" stroke-miterlimit="10" stroke-linecap="round" stroke-linejoin="round"/>
<path d="M28.125 11.25V40.5C28.125 42.975 30.15 45 32.625 45H36" fill="white" style="fill:white;fill-opacity:1;"/>
<path d="M28.125 11.25V40.5C28.125 42.975 30.15 45 32.625 45H36" stroke="#292D32" style="stroke:#292D32;stroke:color(display-p3 0.1608 0.1765 0.1961);stroke-opacity:1;" stroke-width="2" stroke-miterlimit="10" stroke-linecap="round" stroke-linejoin="round"/>
<path d="M28.125 28.125H36" stroke="#292D32" style="stroke:#292D32;stroke:color(display-p3 0.1608 0.1765 0.1961);stroke-opacity:1;" stroke-width="2" stroke-miterlimit="10" stroke-linecap="round" stroke-linejoin="round"/>
<path d="M46.8 49.5H38.7C37.215 49.5 36 48.285 36 46.8V43.2C36 41.715 37.215 40.5 38.7 40.5H46.8C48.285 40.5 49.5 41.715 49.5 43.2V46.8C49.5 48.285 48.285 49.5 46.8 49.5Z" stroke="#292D32" style="stroke:#292D32;stroke:color(display-p3 0.1608 0.1765 0.1961);stroke-opacity:1;" stroke-width="2" stroke-linecap="round" stroke-linejoin="round"/>
</svg>
