<svg width="54" height="54" viewBox="0 0 54 54" fill="none" xmlns="http://www.w3.org/2000/svg">
<path d="M12.3306 41.6023V35.0323C12.3306 32.8498 14.0406 30.8923 16.4706 30.8923C18.6531 30.8923 20.6105 32.6023 20.6105 35.0323V41.3548C20.6105 45.7423 16.9655 49.3874 12.578 49.3874C8.19053 49.3874 4.54552 45.7198 4.54552 41.3548V27.4948C4.29802 14.8498 14.288 4.6123 26.933 4.6123C39.578 4.6123 49.5455 14.8498 49.5455 27.2473V41.1074C49.5455 45.4949 45.9006 49.1399 41.5131 49.1399C37.1256 49.1399 33.4806 45.4949 33.4806 41.1074V34.7849C33.4806 32.6024 35.1905 30.6448 37.6205 30.6448C39.803 30.6448 41.7605 32.3549 41.7605 34.7849V41.6023" stroke="#212121" style="stroke:#212121;stroke:color(display-p3 0.1294 0.1294 0.1294);stroke-opacity:1;" stroke-width="2" stroke-linecap="round" stroke-linejoin="round"/>
<path d="M34.9427 20.52H33.1202C32.6252 20.52 32.1527 20.8125 31.9277 21.24L30.2402 24.615C29.9927 25.11 29.2952 25.11 29.0477 24.615L24.9077 16.3575C24.6602 15.885 23.9851 15.8625 23.7376 16.335L21.8477 19.8225C21.6227 20.25 21.1727 20.52 20.6777 20.52H19.0352" stroke="#212121" style="stroke:#212121;stroke:color(display-p3 0.1294 0.1294 0.1294);stroke-opacity:1;" stroke-width="2" stroke-linecap="round" stroke-linejoin="round"/>
</svg>
