<svg width="42" height="42" viewBox="0 0 42 42" fill="none" xmlns="http://www.w3.org/2000/svg">
<g clip-path="url(#clip0_530_703)">
<path d="M36.2727 0H5.72727C2.56419 0 0 2.56419 0 5.72727V36.2727C0 39.4358 2.56419 42 5.72727 42H36.2727C39.4358 42 42 39.4358 42 36.2727V5.72727C42 2.56419 39.4358 0 36.2727 0Z" fill="#0077B5" style="fill:#0077B5;fill:color(display-p3 0.0000 0.4667 0.7098);fill-opacity:1;"/>
<path d="M15.1298 11.4545C15.1298 12.1625 14.9199 12.8546 14.5265 13.4432C14.1332 14.0319 13.5742 14.4907 12.9201 14.7616C12.266 15.0325 11.5463 15.1034 10.8519 14.9653C10.1576 14.8272 9.51974 14.4863 9.01913 13.9857C8.51852 13.4851 8.1776 12.8472 8.03948 12.1529C7.90137 11.4585 7.97225 10.7388 8.24318 10.0847C8.51411 9.43064 8.97291 8.87159 9.56156 8.47826C10.1502 8.08494 10.8423 7.875 11.5503 7.875C12.4996 7.875 13.4101 8.25213 14.0814 8.92342C14.7527 9.59472 15.1298 10.5052 15.1298 11.4545Z" fill="white" style="fill:white;fill-opacity:1;"/>
<path d="M14.3194 17.4204V33.2349C14.32 33.3515 14.2975 33.4672 14.2533 33.5751C14.2091 33.6831 14.144 33.7813 14.0617 33.864C13.9795 33.9467 13.8816 34.0124 13.7739 34.0571C13.6662 34.1019 13.5507 34.125 13.434 34.125H9.66117C9.5445 34.1253 9.42892 34.1026 9.32108 34.0581C9.21323 34.0136 9.11524 33.9482 9.03275 33.8657C8.95025 33.7832 8.88488 33.6852 8.84037 33.5774C8.79587 33.4695 8.77313 33.3539 8.77344 33.2373V17.4204C8.77344 17.185 8.86697 16.9592 9.03345 16.7927C9.19993 16.6262 9.42573 16.5327 9.66117 16.5327H13.434C13.669 16.5333 13.8942 16.6272 14.0602 16.7936C14.2262 16.96 14.3194 17.1854 14.3194 17.4204Z" fill="white" style="fill:white;fill-opacity:1;"/>
<path d="M34.0388 25.6534V33.3089C34.0391 33.4162 34.0182 33.5224 33.9773 33.6216C33.9364 33.7208 33.8763 33.8109 33.8005 33.8867C33.7246 33.9625 33.6345 34.0226 33.5354 34.0636C33.4362 34.1045 33.3299 34.1254 33.2227 34.125H29.1658C29.0586 34.1254 28.9523 34.1045 28.8531 34.0636C28.754 34.0226 28.6639 33.9625 28.588 33.8867C28.5122 33.8109 28.4521 33.7208 28.4112 33.6216C28.3703 33.5224 28.3494 33.4162 28.3497 33.3089V25.8897C28.3497 24.7824 28.6742 21.0406 25.455 21.0406C22.9613 21.0406 22.453 23.6012 22.3528 24.7514V33.3089C22.3528 33.5233 22.2685 33.7291 22.118 33.8818C21.9675 34.0345 21.7629 34.1219 21.5486 34.125H17.6302C17.5231 34.125 17.4171 34.1039 17.3182 34.0629C17.2193 34.0218 17.1295 33.9617 17.0539 33.8858C16.9783 33.81 16.9184 33.72 16.8777 33.621C16.8369 33.522 16.8161 33.416 16.8164 33.3089V17.3513C16.8161 17.2442 16.8369 17.1381 16.8777 17.0391C16.9184 16.9401 16.9783 16.8502 17.0539 16.7743C17.1295 16.6985 17.2193 16.6384 17.3182 16.5973C17.4171 16.5563 17.5231 16.5351 17.6302 16.5352H21.5486C21.765 16.5352 21.9726 16.6211 22.1257 16.7742C22.2787 16.9272 22.3647 17.1348 22.3647 17.3513V18.7306C23.2906 17.3417 24.6628 16.2703 27.5908 16.2703C34.077 16.2703 34.0388 22.3269 34.0388 25.6534Z" fill="white" style="fill:white;fill-opacity:1;"/>
</g>
<defs>
<clipPath id="clip0_530_703">
<rect width="42" height="42" fill="white" style="fill:white;fill-opacity:1;"/>
</clipPath>
</defs>
</svg>
