<svg width="172" height="40" viewBox="0 0 172 40" fill="none" xmlns="http://www.w3.org/2000/svg">
<g clip-path="url(#clip0_60_106)">
<path d="M49.0352 29.0002H60.3879V25.7675H52.497V10.6729H49.0352V29.0002Z" fill="#979898"/>
<path d="M67.2108 29.3818C68.5854 29.3818 69.7945 29.0763 70.8381 28.4654C71.8902 27.846 72.709 26.9933 73.2945 25.9073C73.8884 24.8127 74.1854 23.5527 74.1854 22.1273C74.1854 20.7103 73.8926 19.4588 73.3072 18.3727C72.7217 17.2782 71.9029 16.4212 70.8508 15.8018C69.8072 15.1824 68.5939 14.8727 67.2108 14.8727C65.8532 14.8727 64.6526 15.1782 63.609 15.7891C62.5654 16.4 61.7466 17.2527 61.1526 18.3473C60.5587 19.4333 60.2617 20.6933 60.2617 22.1273C60.2617 23.5442 60.5502 24.8 61.1272 25.8945C61.7126 26.9806 62.5272 27.8333 63.5708 28.4527C64.6145 29.0721 65.8278 29.3818 67.2108 29.3818ZM67.2108 26.1491C66.1332 26.1491 65.3145 25.7885 64.7545 25.0673C64.2029 24.3376 63.9272 23.3576 63.9272 22.1273C63.9272 20.9309 64.1902 19.9636 64.7163 19.2254C65.2508 18.4788 66.0823 18.1054 67.2108 18.1054C68.3054 18.1054 69.1284 18.4703 69.6799 19.2C70.2399 19.9297 70.5199 20.9054 70.5199 22.1273C70.5199 23.3067 70.2442 24.2739 69.6926 25.0291C69.1496 25.7757 68.3223 26.1491 67.2108 26.1491Z" fill="#979898"/>
<path d="M81.0334 29.3818C81.6783 29.3818 82.2722 29.3054 82.8153 29.1527C83.3668 29 83.8674 28.7836 84.3171 28.5036V29.8909C84.3341 30.4 84.2025 30.8242 83.9225 31.1636C83.651 31.5115 83.2862 31.7703 82.828 31.94C82.3698 32.1182 81.8819 32.2073 81.3644 32.2073C80.8807 32.2073 80.431 32.1012 80.0153 31.8891C79.608 31.677 79.294 31.3673 79.0734 30.96L75.8662 32.5127C76.3922 33.4036 77.1431 34.1206 78.1189 34.6636C79.0947 35.2151 80.168 35.4909 81.3389 35.4909C82.3486 35.4909 83.2862 35.3551 84.1516 35.0836C85.0171 34.8206 85.7468 34.4176 86.3407 33.8745C86.9431 33.3315 87.3547 32.64 87.5753 31.8C87.6516 31.503 87.7025 31.2018 87.728 30.8963C87.7619 30.5994 87.7789 30.2812 87.7789 29.9418V15.2545H84.7498V16.0182C84.2831 15.6533 83.7528 15.3733 83.1589 15.1782C82.5734 14.9745 81.9244 14.8727 81.2116 14.8727C79.8965 14.8727 78.751 15.1867 77.7753 15.8145C76.7995 16.4424 76.0401 17.3036 75.4971 18.3982C74.9625 19.4842 74.6953 20.7273 74.6953 22.1273C74.6953 23.5018 74.9583 24.7363 75.4844 25.8309C76.0189 26.9254 76.7613 27.7909 77.7116 28.4273C78.6619 29.0636 79.7692 29.3818 81.0334 29.3818ZM81.5934 26.3018C80.8468 26.3018 80.2359 26.1151 79.7607 25.7418C79.2856 25.3685 78.9334 24.8679 78.7044 24.24C78.4753 23.6036 78.3607 22.8994 78.3607 22.1273C78.3607 21.3636 78.4795 20.6679 78.7171 20.04C78.9547 19.4036 79.3195 18.8988 79.8116 18.5254C80.3122 18.1436 80.9486 17.9527 81.7207 17.9527C82.8068 17.9527 83.5831 18.3388 84.0498 19.1109C84.5165 19.8745 84.7498 20.88 84.7498 22.1273C84.7498 23.3745 84.5122 24.3842 84.0371 25.1563C83.5704 25.92 82.7559 26.3018 81.5934 26.3018Z" fill="#979898"/>
<path d="M95.9998 29.3818C97.3744 29.3818 98.5835 29.0763 99.6271 28.4654C100.679 27.846 101.498 26.9933 102.083 25.9073C102.677 24.8127 102.974 23.5527 102.974 22.1273C102.974 20.7103 102.682 19.4588 102.096 18.3727C101.511 17.2782 100.692 16.4212 99.6398 15.8018C98.5962 15.1824 97.3828 14.8727 95.9998 14.8727C94.6422 14.8727 93.4416 15.1782 92.398 15.7891C91.3544 16.4 90.5356 17.2527 89.9416 18.3473C89.3477 19.4333 89.0507 20.6933 89.0507 22.1273C89.0507 23.5442 89.3392 24.8 89.9162 25.8945C90.5016 26.9806 91.3162 27.8333 92.3598 28.4527C93.4035 29.0721 94.6168 29.3818 95.9998 29.3818ZM95.9998 26.1491C94.9222 26.1491 94.1034 25.7885 93.5434 25.0673C92.9919 24.3376 92.7162 23.3576 92.7162 22.1273C92.7162 20.9309 92.9792 19.9636 93.5053 19.2254C94.0398 18.4788 94.8713 18.1054 95.9998 18.1054C97.0944 18.1054 97.9174 18.4703 98.4689 19.2C99.0289 19.9297 99.3089 20.9054 99.3089 22.1273C99.3089 23.3067 99.0331 24.2739 98.4816 25.0291C97.9386 25.7757 97.1113 26.1491 95.9998 26.1491Z" fill="#979898"/>
<path d="M104.5 13.3454H107.962V10.2909H104.5V13.3454ZM104.5 29H107.962V15.2545H104.5V29Z" fill="#979898"/>
<path d="M110.227 35.1091H113.714V28.5036C114.164 28.7836 114.66 29 115.203 29.1527C115.755 29.3054 116.353 29.3818 116.998 29.3818C118.262 29.3818 119.37 29.0636 120.32 28.4273C121.27 27.7909 122.008 26.9254 122.534 25.8309C123.069 24.7363 123.336 23.5018 123.336 22.1273C123.336 20.7273 123.065 19.4842 122.522 18.3982C121.987 17.3036 121.232 16.4424 120.256 15.8145C119.28 15.1867 118.135 14.8727 116.82 14.8727C116.107 14.8727 115.454 14.9745 114.86 15.1782C114.274 15.3733 113.748 15.6533 113.282 16.0182V15.2545H110.227V35.1091ZM116.438 26.3018C115.284 26.3018 114.47 25.92 113.994 25.1563C113.519 24.3842 113.282 23.3745 113.282 22.1273C113.282 20.88 113.515 19.8745 113.982 19.1109C114.457 18.3388 115.233 17.9527 116.311 17.9527C117.083 17.9527 117.715 18.1436 118.207 18.5254C118.708 18.8988 119.077 19.4036 119.314 20.04C119.552 20.6679 119.671 21.3636 119.671 22.1273C119.671 22.8994 119.556 23.6036 119.327 24.24C119.098 24.8679 118.746 25.3685 118.271 25.7418C117.796 26.1151 117.185 26.3018 116.438 26.3018Z" fill="#979898"/>
<path d="M129.604 29.3818C131.402 29.3818 132.811 28.9788 133.829 28.1727C134.847 27.3666 135.356 26.2594 135.356 24.8509C135.356 23.7818 135.025 22.9376 134.364 22.3182C133.71 21.6988 132.599 21.1854 131.029 20.7782C129.96 20.5066 129.162 20.286 128.636 20.1163C128.119 19.9467 127.775 19.7812 127.605 19.62C127.444 19.4588 127.364 19.2594 127.364 19.0218C127.364 18.623 127.554 18.3176 127.936 18.1054C128.327 17.8933 128.84 17.8085 129.476 17.8509C130.825 17.9527 131.564 18.5297 131.691 19.5818L135.229 18.9454C135.051 17.6982 134.44 16.7097 133.396 15.98C132.353 15.2418 131.021 14.8727 129.4 14.8727C127.737 14.8727 126.409 15.263 125.416 16.0436C124.424 16.8242 123.927 17.8763 123.927 19.2C123.927 20.2521 124.271 21.0836 124.958 21.6945C125.645 22.297 126.829 22.8145 128.509 23.2473C129.502 23.5103 130.231 23.7224 130.698 23.8836C131.173 24.0448 131.479 24.2103 131.614 24.38C131.75 24.5412 131.818 24.7576 131.818 25.0291C131.818 25.4618 131.648 25.8012 131.309 26.0473C130.97 26.2848 130.486 26.4036 129.858 26.4036C129.094 26.4036 128.462 26.2212 127.962 25.8563C127.47 25.4915 127.151 24.9867 127.007 24.3418L123.469 24.8763C123.698 26.3103 124.343 27.4218 125.404 28.2109C126.473 28.9915 127.873 29.3818 129.604 29.3818Z" fill="#979898"/>
<path d="M141.742 29.4073C142.735 29.4073 143.6 29.2418 144.339 28.9109C145.077 28.58 145.696 28.1388 146.197 27.5873V29H149.251V15.2545H145.764V22.2291C145.764 23.0776 145.666 23.7648 145.471 24.2909C145.285 24.8085 145.043 25.203 144.746 25.4745C144.449 25.7376 144.131 25.9157 143.791 26.0091C143.452 26.1024 143.134 26.1491 142.837 26.1491C142.099 26.1491 141.526 25.9836 141.119 25.6527C140.72 25.3218 140.431 24.9103 140.253 24.4182C140.075 23.926 139.969 23.4382 139.935 22.9545C139.901 22.4624 139.884 22.0594 139.884 21.7454V15.2545H136.371V22.9673C136.371 23.1963 136.388 23.5612 136.422 24.0618C136.456 24.5624 136.554 25.1182 136.715 25.7291C136.876 26.3315 137.143 26.9127 137.517 27.4727C137.899 28.0327 138.429 28.4951 139.108 28.86C139.786 29.2248 140.665 29.4073 141.742 29.4073Z" fill="#979898"/>
<path d="M151.258 29H154.745V20.6763C154.745 19.8873 154.961 19.2467 155.394 18.7545C155.835 18.2539 156.416 18.0036 157.138 18.0036C157.893 18.0036 158.483 18.2582 158.907 18.7673C159.339 19.2679 159.556 19.9721 159.556 20.88V29H163.018V20.6763C163.018 19.8873 163.234 19.2467 163.667 18.7545C164.108 18.2539 164.689 18.0036 165.41 18.0036C166.166 18.0036 166.755 18.2582 167.179 18.7673C167.612 19.2679 167.829 19.9721 167.829 20.88V29H171.29V19.9636C171.29 18.4618 170.887 17.2485 170.081 16.3236C169.284 15.3903 168.1 14.9236 166.53 14.9236C165.648 14.9236 164.838 15.1145 164.099 15.4963C163.361 15.8782 162.772 16.4 162.33 17.0618C161.974 16.417 161.465 15.8994 160.803 15.5091C160.141 15.1188 159.318 14.9236 158.334 14.9236C157.502 14.9236 156.739 15.0891 156.043 15.42C155.347 15.7424 154.77 16.1879 154.312 16.7563V15.2545H151.258V29Z" fill="#979898"/>
<path d="M20 0C8.9543 0 0 8.9543 0 20C11.0457 20 20 11.0457 20 0Z" fill="#979898"/>
<path d="M20 40C31.0457 40 40 31.0457 40 20C28.9543 20 20 28.9543 20 40Z" fill="#979898"/>
<path d="M20 0C31.0457 0 40 8.9543 40 20C28.9543 20 20 11.0457 20 0Z" fill="#979898"/>
<path d="M20 40C8.9543 40 -9.65645e-07 31.0457 0 20C11.0457 20 20 28.9543 20 40Z" fill="#979898"/>
</g>
<defs>
<clipPath id="clip0_60_106">
<rect width="172" height="40" fill="white"/>
</clipPath>
</defs>
</svg>
