<svg width="120" height="30" viewBox="0 0 120 30" fill="none" xmlns="http://www.w3.org/2000/svg">
<g id="Logo">
<path id="Vector" d="M3.44141 27.825H29.0914V2.175H3.44141V27.825ZM24.1544 12.532H18.7344V7.112H24.1544V12.532ZM8.37741 7.112H13.8004V17.468H24.1544V22.888H8.37741V7.112ZM45.7944 2.175C43.2578 2.175 40.7782 2.92718 38.6692 4.33641C36.5601 5.74564 34.9163 7.74863 33.9456 10.0921C32.9749 12.4356 32.721 15.0142 33.2158 17.502C33.7107 19.9898 34.9321 22.275 36.7257 24.0686C38.5193 25.8623 40.8045 27.0837 43.2923 27.5786C45.7802 28.0734 48.3588 27.8195 50.7023 26.8488C53.0458 25.8781 55.0487 24.2343 56.458 22.1252C57.8672 20.0161 58.6194 17.5365 58.6194 15C58.6154 11.5998 57.2629 8.34004 54.8586 5.93575C52.4543 3.53145 49.1946 2.17897 45.7944 2.175ZM45.7944 22.888C44.2343 22.888 42.7092 22.4254 41.412 21.5586C40.1149 20.6919 39.1038 19.46 38.5068 18.0186C37.9098 16.5773 37.7536 14.9913 38.0579 13.4611C38.3623 11.931 39.1136 10.5255 40.2167 9.42234C41.3199 8.31919 42.7254 7.56793 44.2555 7.26357C45.7856 6.95921 47.3716 7.11542 48.813 7.71244C50.2543 8.30946 51.4863 9.32049 52.353 10.6177C53.2198 11.9148 53.6824 13.4399 53.6824 15C53.6792 17.0911 52.8471 19.0956 51.3685 20.5742C49.8899 22.0528 47.8854 22.8848 45.7944 22.888ZM104.513 2.175C101.976 2.17481 99.4971 2.92681 97.3879 4.33592C95.2787 5.74503 93.6348 7.74795 92.6639 10.0914C91.6931 12.4348 91.4389 15.0136 91.9337 17.5014C92.4284 19.9893 93.6498 22.2746 95.4434 24.0683C97.2369 25.862 99.5221 27.0836 102.01 27.5785C104.497 28.0734 107.076 27.8195 109.42 26.8489C111.763 25.8782 113.766 24.2344 115.175 22.1253C116.585 20.0162 117.337 17.5366 117.337 15C117.333 11.6 115.981 8.34036 113.577 5.9361C111.173 3.53183 107.913 2.17924 104.513 2.175ZM104.513 22.888C102.953 22.8882 101.428 22.4257 100.131 21.5591C98.8335 20.6925 97.8223 19.4606 97.2251 18.0193C96.6279 16.578 96.4716 14.9919 96.7758 13.4617C97.0801 11.9316 97.8313 10.526 98.9344 9.4227C100.038 8.31944 101.443 7.56808 102.973 7.26364C104.503 6.9592 106.089 7.11535 107.53 7.71235C108.972 8.30934 110.204 9.32036 111.071 10.6176C111.937 11.9148 112.4 13.4399 112.4 15C112.397 17.0909 111.565 19.0952 110.086 20.5738C108.608 22.0524 106.604 22.8846 104.513 22.888ZM75.1534 2.175C72.6168 2.175 70.1372 2.92718 68.0282 4.33641C65.9191 5.74564 64.2753 7.74863 63.3046 10.0921C62.3339 12.4356 62.08 15.0142 62.5748 17.502C63.0697 19.9898 64.2911 22.275 66.0847 24.0686C67.8783 25.8623 70.1635 27.0837 72.6513 27.5786C75.1391 28.0734 77.7178 27.8195 80.0613 26.8488C82.4048 25.8781 84.4077 24.2343 85.817 22.1252C87.2262 20.0161 87.9784 17.5365 87.9784 15C87.9744 11.5998 86.6219 8.34004 84.2176 5.93575C81.8133 3.53145 78.5536 2.17897 75.1534 2.175ZM75.1534 22.888C73.6998 22.8887 72.2744 22.4878 71.0343 21.7295C69.7943 20.9712 68.7878 19.8851 68.1261 18.5909C67.4645 17.2967 67.1732 15.8448 67.2846 14.3956C67.396 12.9463 67.9056 11.556 68.7573 10.3781C69.609 9.20026 70.7696 8.28061 72.1109 7.72071C73.4523 7.1608 74.9223 6.98242 76.3586 7.20524C77.795 7.42807 79.1418 8.04343 80.2505 8.98342C81.3592 9.9234 82.1866 11.1515 82.6414 12.532H75.1534V17.468H82.6414C82.1205 19.0433 81.1169 20.4147 79.7728 21.3875C78.4288 22.3604 76.8126 22.8853 75.1534 22.888Z" fill="#2D677C"/>
</g>
</svg>
