<svg width="271" height="76" viewBox="0 0 271 76" fill="none" xmlns="http://www.w3.org/2000/svg">
<path d="M102.982 47.156C101.63 47.156 100.33 46.9393 99.0815 46.506C97.8508 46.0553 96.8975 45.4833 96.2215 44.79L96.9755 43.308C97.6168 43.932 98.4748 44.4607 99.5495 44.894C100.642 45.31 101.786 45.518 102.982 45.518C104.126 45.518 105.053 45.3793 105.764 45.102C106.492 44.8073 107.02 44.4173 107.35 43.932C107.696 43.4467 107.87 42.9093 107.87 42.32C107.87 41.6093 107.662 41.0373 107.246 40.604C106.847 40.1707 106.318 39.8327 105.66 39.59C105.001 39.33 104.273 39.1047 103.476 38.914C102.678 38.7233 101.881 38.524 101.084 38.316C100.286 38.0907 99.5495 37.796 98.8735 37.432C98.2148 37.068 97.6775 36.5913 97.2615 36.002C96.8628 35.3953 96.6635 34.6067 96.6635 33.636C96.6635 32.7347 96.8975 31.9113 97.3655 31.166C97.8508 30.4033 98.5875 29.7967 99.5755 29.346C100.564 28.878 101.829 28.644 103.372 28.644C104.394 28.644 105.408 28.7913 106.414 29.086C107.419 29.3633 108.286 29.7533 109.014 30.256L108.364 31.79C107.584 31.27 106.752 30.8887 105.868 30.646C105.001 30.4033 104.16 30.282 103.346 30.282C102.254 30.282 101.352 30.4293 100.642 30.724C99.9308 31.0187 99.4022 31.4173 99.0555 31.92C98.7262 32.4053 98.5615 32.96 98.5615 33.584C98.5615 34.2947 98.7608 34.8667 99.1595 35.3C99.5755 35.7333 100.113 36.0713 100.772 36.314C101.448 36.5567 102.184 36.7733 102.982 36.964C103.779 37.1547 104.568 37.3627 105.348 37.588C106.145 37.8133 106.873 38.108 107.532 38.472C108.208 38.8187 108.745 39.2867 109.144 39.876C109.56 40.4653 109.768 41.2367 109.768 42.19C109.768 43.074 109.525 43.8973 109.04 44.66C108.554 45.4053 107.809 46.012 106.804 46.48C105.816 46.9307 104.542 47.156 102.982 47.156ZM116.098 47L110.95 33.35H112.718L117.398 46.012H116.592L121.402 33.35H122.988L127.746 46.012H126.94L131.698 33.35H133.388L128.214 47H126.472L121.896 35.092H122.442L117.84 47H116.098ZM136.167 47V33.35H138.013V47H136.167ZM137.103 30.334C136.722 30.334 136.401 30.204 136.141 29.944C135.881 29.684 135.751 29.372 135.751 29.008C135.751 28.644 135.881 28.3407 136.141 28.098C136.401 27.838 136.722 27.708 137.103 27.708C137.485 27.708 137.805 27.8293 138.065 28.072C138.325 28.3147 138.455 28.618 138.455 28.982C138.455 29.3633 138.325 29.684 138.065 29.944C137.823 30.204 137.502 30.334 137.103 30.334ZM143.462 47V31.634C143.462 30.4207 143.817 29.4413 144.528 28.696C145.238 27.9507 146.261 27.578 147.596 27.578C148.116 27.578 148.618 27.6473 149.104 27.786C149.589 27.9247 149.996 28.1413 150.326 28.436L149.702 29.814C149.442 29.5887 149.138 29.424 148.792 29.32C148.445 29.1987 148.072 29.138 147.674 29.138C146.894 29.138 146.296 29.3547 145.88 29.788C145.464 30.2213 145.256 30.8627 145.256 31.712V33.792L145.308 34.65V47H143.462ZM141.018 34.884V33.35H149.468V34.884H141.018ZM156.276 47.13C154.994 47.13 154.006 46.7833 153.312 46.09C152.619 45.3967 152.272 44.4173 152.272 43.152V30.334H154.118V43.048C154.118 43.8453 154.318 44.4607 154.716 44.894C155.132 45.3273 155.722 45.544 156.484 45.544C157.299 45.544 157.975 45.31 158.512 44.842L159.162 46.168C158.798 46.4973 158.356 46.74 157.836 46.896C157.334 47.052 156.814 47.13 156.276 47.13ZM149.828 34.884V33.35H158.278V34.884H149.828ZM168.087 47.312C166.631 47.312 165.235 47.1213 163.901 46.74C162.566 46.3413 161.491 45.83 160.677 45.206L162.107 42.034C162.887 42.5887 163.805 43.048 164.863 43.412C165.937 43.7587 167.021 43.932 168.113 43.932C168.945 43.932 169.612 43.854 170.115 43.698C170.635 43.5247 171.016 43.2907 171.259 42.996C171.501 42.7013 171.623 42.3633 171.623 41.982C171.623 41.4967 171.432 41.1153 171.051 40.838C170.669 40.5433 170.167 40.3093 169.543 40.136C168.919 39.9453 168.225 39.772 167.463 39.616C166.717 39.4427 165.963 39.2347 165.201 38.992C164.455 38.7493 163.771 38.4373 163.147 38.056C162.523 37.6747 162.011 37.172 161.613 36.548C161.231 35.924 161.041 35.1267 161.041 34.156C161.041 33.116 161.318 32.1713 161.873 31.322C162.445 30.4553 163.294 29.7707 164.421 29.268C165.565 28.748 166.995 28.488 168.711 28.488C169.855 28.488 170.981 28.6267 172.091 28.904C173.2 29.164 174.179 29.5627 175.029 30.1L173.729 33.298C172.879 32.8127 172.03 32.4573 171.181 32.232C170.331 31.9893 169.499 31.868 168.685 31.868C167.87 31.868 167.203 31.9633 166.683 32.154C166.163 32.3447 165.79 32.596 165.565 32.908C165.339 33.2027 165.227 33.5493 165.227 33.948C165.227 34.416 165.417 34.7973 165.799 35.092C166.18 35.3693 166.683 35.5947 167.307 35.768C167.931 35.9413 168.615 36.1147 169.361 36.288C170.123 36.4613 170.877 36.6607 171.623 36.886C172.385 37.1113 173.079 37.4147 173.703 37.796C174.327 38.1773 174.829 38.68 175.211 39.304C175.609 39.928 175.809 40.7167 175.809 41.67C175.809 42.6927 175.523 43.6287 174.951 44.478C174.379 45.3273 173.521 46.012 172.377 46.532C171.25 47.052 169.82 47.312 168.087 47.312ZM184.303 47.208C183.141 47.208 182.101 46.9827 181.183 46.532C180.281 46.0813 179.579 45.3967 179.077 44.478C178.574 43.542 178.323 42.3547 178.323 40.916V33.012H182.379V40.318C182.379 41.4793 182.621 42.3373 183.107 42.892C183.609 43.4293 184.311 43.698 185.213 43.698C185.837 43.698 186.391 43.568 186.877 43.308C187.362 43.0307 187.743 42.6147 188.021 42.06C188.298 41.488 188.437 40.7773 188.437 39.928V33.012H192.493V47H188.645V43.152L189.347 44.27C188.879 45.2407 188.185 45.9773 187.267 46.48C186.365 46.9653 185.377 47.208 184.303 47.208ZM204.518 47.208C203.34 47.208 202.308 46.948 201.424 46.428C200.54 45.908 199.847 45.1193 199.344 44.062C198.859 42.9873 198.616 41.6353 198.616 40.006C198.616 38.3593 198.85 37.0073 199.318 35.95C199.786 34.8927 200.462 34.104 201.346 33.584C202.23 33.064 203.288 32.804 204.518 32.804C205.836 32.804 207.014 33.1073 208.054 33.714C209.112 34.3033 209.944 35.1353 210.55 36.21C211.174 37.2847 211.486 38.55 211.486 40.006C211.486 41.4793 211.174 42.7533 210.55 43.828C209.944 44.9027 209.112 45.7347 208.054 46.324C207.014 46.9133 205.836 47.208 204.518 47.208ZM196.25 52.044V33.012H200.124V35.872L200.046 40.032L200.306 44.166V52.044H196.25ZM203.816 43.88C204.492 43.88 205.09 43.724 205.61 43.412C206.148 43.1 206.572 42.658 206.884 42.086C207.214 41.4967 207.378 40.8033 207.378 40.006C207.378 39.1913 207.214 38.498 206.884 37.926C206.572 37.354 206.148 36.912 205.61 36.6C205.09 36.288 204.492 36.132 203.816 36.132C203.14 36.132 202.534 36.288 201.996 36.6C201.459 36.912 201.034 37.354 200.722 37.926C200.41 38.498 200.254 39.1913 200.254 40.006C200.254 40.8033 200.41 41.4967 200.722 42.086C201.034 42.658 201.459 43.1 201.996 43.412C202.534 43.724 203.14 43.88 203.816 43.88ZM222.47 47.208C221.291 47.208 220.26 46.948 219.376 46.428C218.492 45.908 217.798 45.1193 217.296 44.062C216.81 42.9873 216.568 41.6353 216.568 40.006C216.568 38.3593 216.802 37.0073 217.27 35.95C217.738 34.8927 218.414 34.104 219.298 33.584C220.182 33.064 221.239 32.804 222.47 32.804C223.787 32.804 224.966 33.1073 226.006 33.714C227.063 34.3033 227.895 35.1353 228.502 36.21C229.126 37.2847 229.438 38.55 229.438 40.006C229.438 41.4793 229.126 42.7533 228.502 43.828C227.895 44.9027 227.063 45.7347 226.006 46.324C224.966 46.9133 223.787 47.208 222.47 47.208ZM214.202 52.044V33.012H218.076V35.872L217.998 40.032L218.258 44.166V52.044H214.202ZM221.768 43.88C222.444 43.88 223.042 43.724 223.562 43.412C224.099 43.1 224.524 42.658 224.836 42.086C225.165 41.4967 225.33 40.8033 225.33 40.006C225.33 39.1913 225.165 38.498 224.836 37.926C224.524 37.354 224.099 36.912 223.562 36.6C223.042 36.288 222.444 36.132 221.768 36.132C221.092 36.132 220.485 36.288 219.948 36.6C219.41 36.912 218.986 37.354 218.674 37.926C218.362 38.498 218.206 39.1913 218.206 40.006C218.206 40.8033 218.362 41.4967 218.674 42.086C218.986 42.658 219.41 43.1 219.948 43.412C220.485 43.724 221.092 43.88 221.768 43.88ZM238.809 47.208C237.318 47.208 235.992 46.896 234.831 46.272C233.687 45.648 232.777 44.7987 232.101 43.724C231.442 42.632 231.113 41.3927 231.113 40.006C231.113 38.602 231.442 37.3627 232.101 36.288C232.777 35.196 233.687 34.3467 234.831 33.74C235.992 33.116 237.318 32.804 238.809 32.804C240.282 32.804 241.599 33.116 242.761 33.74C243.922 34.3467 244.832 35.1873 245.491 36.262C246.149 37.3367 246.479 38.5847 246.479 40.006C246.479 41.3927 246.149 42.632 245.491 43.724C244.832 44.7987 243.922 45.648 242.761 46.272C241.599 46.896 240.282 47.208 238.809 47.208ZM238.809 43.88C239.485 43.88 240.091 43.724 240.629 43.412C241.166 43.1 241.591 42.658 241.903 42.086C242.215 41.4967 242.371 40.8033 242.371 40.006C242.371 39.1913 242.215 38.498 241.903 37.926C241.591 37.354 241.166 36.912 240.629 36.6C240.091 36.288 239.485 36.132 238.809 36.132C238.133 36.132 237.526 36.288 236.989 36.6C236.451 36.912 236.018 37.354 235.689 37.926C235.377 38.498 235.221 39.1913 235.221 40.006C235.221 40.8033 235.377 41.4967 235.689 42.086C236.018 42.658 236.451 43.1 236.989 43.412C237.526 43.724 238.133 43.88 238.809 43.88ZM249.19 47V33.012H253.064V36.964L252.518 35.82C252.934 34.832 253.601 34.0867 254.52 33.584C255.439 33.064 256.557 32.804 257.874 32.804V36.548C257.701 36.5307 257.545 36.522 257.406 36.522C257.267 36.5047 257.12 36.496 256.964 36.496C255.855 36.496 254.953 36.8167 254.26 37.458C253.584 38.082 253.246 39.0613 253.246 40.396V47H249.19ZM266.488 47.208C264.841 47.208 263.559 46.792 262.64 45.96C261.721 45.1107 261.262 43.854 261.262 42.19V29.918H265.318V42.138C265.318 42.7273 265.474 43.1867 265.786 43.516C266.098 43.828 266.523 43.984 267.06 43.984C267.701 43.984 268.247 43.8107 268.698 43.464L269.79 46.324C269.374 46.6187 268.871 46.844 268.282 47C267.71 47.1387 267.112 47.208 266.488 47.208ZM259.104 36.444V33.324H268.802V36.444H259.104Z" fill="#293435"/>
<path d="M70.9239 30.7617H74.589C75.4316 30.7617 76.2658 30.9295 77.0441 31.2554C77.8224 31.5814 78.5295 32.0591 79.1249 32.6613C79.7203 33.2635 80.1923 33.9784 80.514 34.765C80.8357 35.5516 81.0007 36.3946 80.9997 37.2457V43.7699C80.9997 45.4874 80.3243 47.1346 79.1221 48.3491C77.9198 49.5635 76.2893 50.2458 74.589 50.2458H70.9239C70.0696 50.2458 69.2502 49.903 68.6461 49.2927C68.042 48.6824 67.7026 47.8548 67.7026 46.9917V34.0238C67.7016 33.5958 67.7841 33.1718 67.9456 32.7761C68.107 32.3804 68.3441 32.0207 68.6433 31.7177C68.9425 31.4146 69.298 31.1742 69.6893 31.0102C70.0807 30.8462 70.5002 30.7617 70.9239 30.7617Z" fill="#F2ED7B" stroke="#24282C" stroke-width="0.6" stroke-miterlimit="10"/>
<path d="M11.0732 50.2405H7.41069C6.56816 50.2405 5.73389 50.0727 4.9556 49.7468C4.1773 49.4208 3.47024 48.9431 2.87485 48.3409C2.27946 47.7387 1.80743 47.0238 1.48573 46.2372C1.16403 45.4506 0.998991 44.6076 1.00004 43.7565L1.00004 37.2323C1.00145 35.5157 1.67747 33.8699 2.87955 32.6566C4.08163 31.4433 5.7114 30.7618 7.41069 30.7618H11.0732C11.4964 30.7618 11.9155 30.846 12.3065 31.0097C12.6975 31.1734 13.0527 31.4134 13.3519 31.7158C13.651 32.0183 13.8883 32.3773 14.05 32.7724C14.2117 33.1675 14.2948 33.591 14.2944 34.0185L14.2944 46.9784C14.2955 47.4064 14.2129 47.8304 14.0515 48.2261C13.8901 48.6218 13.653 48.9815 13.3538 49.2845C13.0545 49.5876 12.6991 49.828 12.3077 49.992C11.9164 50.156 11.4968 50.2405 11.0732 50.2405Z" fill="#F2ED7B" stroke="#24282C" stroke-width="0.6" stroke-miterlimit="10"/>
<path d="M41.1085 26.5115H41.1111C42.212 26.5115 43.1045 25.6099 43.1045 24.4978V9.0491C43.1045 7.93699 42.212 7.03545 41.1111 7.03545H41.1085C40.0076 7.03545 39.1151 7.93699 39.1151 9.0491V24.4978C39.1151 25.6099 40.0076 26.5115 41.1085 26.5115Z" fill="#F2ED7B" stroke="#24282C" stroke-width="0.6" stroke-miterlimit="10"/>
<path d="M64.3431 60.8729C61.4913 63.1416 57.9298 64.3632 54.3577 64.9512C54.0441 65.0076 53.7305 65.0559 53.4168 65.0935C52.6913 65.1982 51.963 65.2788 51.2348 65.3405C50.3143 65.4211 49.4571 65.8476 48.8327 66.5355C48.2082 67.2235 47.8619 68.123 47.862 69.0564V74.1576C47.8624 74.3272 47.8121 74.493 47.7175 74.6331C47.6229 74.7732 47.4886 74.8812 47.3322 74.9427C47.1758 75.0043 47.0045 75.0167 46.8411 74.9781C46.6776 74.9396 46.5294 74.852 46.4162 74.7268C44.6142 72.6595 41.7171 70.8606 38.6793 69.3839C37.7916 68.949 36.8906 68.5436 35.9949 68.1704C32.8614 66.8599 29.6466 65.7577 26.3709 64.8707C25.6028 64.6881 24.84 64.4733 24.0932 64.2182C24.048 64.2021 24.0081 64.1968 23.9683 64.1806L23.349 63.9659L23.2613 63.9336C20.1118 62.7523 17.2121 60.9373 15.0699 58.3572C12.0533 54.7245 10.7802 49.924 10.3018 45.2013C9.68783 39.1255 10.3549 32.5234 13.6852 27.2691C17.0712 21.9289 22.7217 19.0427 28.8214 18.1406C34.0228 17.3539 39.3092 17.7915 44.5716 17.9016C50.9876 18.0439 57.8846 17.8211 63.2507 21.3919C66.3125 23.4324 68.5664 26.5737 69.9352 30.0184C71.3039 33.4631 71.8355 37.1897 71.9126 40.9055C72.08 48.2889 70.1159 56.3086 64.3431 60.8729Z" fill="url(#paint0_linear_1244_1677)" stroke="#24282C" stroke-width="0.6" stroke-miterlimit="10"/>
<path style="mix-blend-mode:multiply" opacity="0.51" d="M27.1261 54.4292C28.8244 55.7717 30.9374 56.4966 33.0663 56.8456C33.255 56.8778 33.441 56.9074 33.6271 56.9315H33.6616C34.5599 57.0447 35.3868 57.4837 35.9886 58.1667C36.5905 58.8497 36.9262 59.7303 36.9334 60.6447V61.4797C36.933 61.6425 36.9793 61.802 37.0669 61.9387C37.1545 62.0754 37.2795 62.1835 37.4268 62.2497C37.574 62.316 37.7372 62.3376 37.8963 62.312C38.0555 62.2863 38.2039 62.2145 38.3235 62.1053C39.3866 61.1038 40.8643 60.2258 42.3952 59.4741C42.9268 59.2056 43.4584 58.9747 43.9899 58.7519C45.8541 57.973 47.7664 57.3174 49.7148 56.7892C50.172 56.6791 50.6265 56.5529 51.0703 56.4026L51.1447 56.3784L51.5142 56.2496L51.5647 56.2308C53.4467 55.5766 55.1269 54.4373 56.4391 52.9257C58.2358 50.7617 58.9933 47.905 59.2777 45.102C59.6418 41.4747 59.2484 37.5521 57.263 34.427C55.2484 31.2481 51.8836 29.5298 48.2557 28.9874C45.162 28.5203 42.0178 28.7807 38.8843 28.8451C35.0676 28.931 30.964 28.7995 27.7719 30.9232C25.9487 32.1368 24.6065 34.0054 23.7852 36.0567C23.0103 38.1262 22.6114 40.32 22.6078 42.5326C22.5228 46.9304 23.6922 51.7041 27.1261 54.4292Z" fill="url(#paint1_linear_1244_1677)"/>
<path style="mix-blend-mode:multiply" opacity="0.51" d="M43.8967 65.6653L38.6794 69.3704C37.7917 68.9355 36.8907 68.5301 35.995 68.1569C32.8616 66.8465 29.6468 65.7442 26.3711 64.8572C26.3711 64.8572 31.3199 66.1647 43.8967 65.6653Z" fill="url(#paint2_linear_1244_1677)"/>
<path d="M41.1092 10.8506H41.1119C43.804 10.8506 45.9863 8.64602 45.9863 5.92654V5.92385C45.9863 3.20438 43.804 0.999809 41.1119 0.999809H41.1092C38.4172 0.999809 36.2348 3.20438 36.2348 5.92385V5.92654C36.2348 8.64602 38.4172 10.8506 41.1092 10.8506Z" fill="#83DEFC" stroke="#24282C" stroke-width="0.6" stroke-miterlimit="10"/>
<path d="M27.1259 52.3509C28.8242 53.6933 30.9372 54.4182 33.0661 54.7672C33.2548 54.7995 33.4409 54.829 33.6269 54.8531H33.6615C34.5617 54.9637 35.391 55.4026 35.9935 56.0874C36.596 56.7721 36.9301 57.6556 36.9332 58.5717V59.4067C36.9316 59.57 36.9772 59.7303 37.0646 59.8678C37.152 60.0053 37.2772 60.1139 37.425 60.1804C37.5727 60.2469 37.7364 60.2683 37.896 60.242C38.0556 60.2156 38.2041 60.1427 38.3233 60.0323C39.3864 59.0308 40.8641 58.1529 42.395 57.4038C42.9266 57.1353 43.4582 56.9017 43.9897 56.6815C45.8536 55.9012 47.766 55.2446 49.7147 54.7162C50.1718 54.6088 50.6263 54.48 51.0701 54.3296C51.0967 54.3296 51.1206 54.3296 51.1446 54.3054L51.514 54.1793L51.5645 54.1605C53.4465 53.5063 55.1267 52.367 56.4389 50.8554C58.2356 48.6914 58.9931 45.8374 59.2775 43.0317C59.6416 39.4044 59.2482 35.4818 57.2628 32.3567C55.2482 29.1805 51.8834 27.4595 48.2555 26.9171C45.1618 26.4499 42.0176 26.7104 38.8841 26.7775C35.0674 26.8607 30.9638 26.7292 27.7717 28.8529C25.9485 30.0665 24.6063 31.9378 23.785 33.9864C23.014 36.0584 22.6196 38.254 22.6209 40.4676C22.5226 44.8574 23.692 49.6311 27.1259 52.3509Z" fill="white"/>
<path style="mix-blend-mode:multiply" opacity="0.51" d="M39.293 55.1969L42.3946 57.4039C42.9262 57.1354 43.4578 56.9018 43.9893 56.6816C45.8532 55.9012 47.7656 55.2447 49.7143 54.7163C49.7143 54.7163 46.7667 55.503 39.293 55.1969Z" fill="url(#paint3_linear_1244_1677)"/>
<g style="mix-blend-mode:multiply">
<path d="M31.2776 45.1339C33.2402 45.1339 34.8311 43.5268 34.8311 41.5443C34.8311 39.5617 33.2402 37.9546 31.2776 37.9546C29.3151 37.9546 27.7241 39.5617 27.7241 41.5443C27.7241 43.5268 29.3151 45.1339 31.2776 45.1339Z" fill="#FBB8B8"/>
<path d="M31.2776 45.1339C33.2402 45.1339 34.8311 43.5268 34.8311 41.5443C34.8311 39.5617 33.2402 37.9546 31.2776 37.9546C29.3151 37.9546 27.7241 39.5617 27.7241 41.5443C27.7241 43.5268 29.3151 45.1339 31.2776 45.1339Z" stroke="#24282C" stroke-width="0.5" stroke-miterlimit="10"/>
</g>
<g style="mix-blend-mode:multiply">
<path d="M41.0105 45.1339C42.9731 45.1339 44.564 43.5268 44.564 41.5443C44.564 39.5617 42.9731 37.9546 41.0105 37.9546C39.048 37.9546 37.457 39.5617 37.457 41.5443C37.457 43.5268 39.048 45.1339 41.0105 45.1339Z" fill="#83DEFC"/>
<path d="M41.0105 45.1339C42.9731 45.1339 44.564 43.5268 44.564 41.5443C44.564 39.5617 42.9731 37.9546 41.0105 37.9546C39.048 37.9546 37.457 39.5617 37.457 41.5443C37.457 43.5268 39.048 45.1339 41.0105 45.1339Z" stroke="#24282C" stroke-width="0.5" stroke-miterlimit="10"/>
</g>
<g style="mix-blend-mode:multiply">
<path d="M50.7405 45.1339C52.7031 45.1339 54.294 43.5268 54.294 41.5443C54.294 39.5617 52.7031 37.9546 50.7405 37.9546C48.778 37.9546 47.187 39.5617 47.187 41.5443C47.187 43.5268 48.778 45.1339 50.7405 45.1339Z" fill="#F2ED7B"/>
<path d="M50.7405 45.1339C52.7031 45.1339 54.294 43.5268 54.294 41.5443C54.294 39.5617 52.7031 37.9546 50.7405 37.9546C48.778 37.9546 47.187 39.5617 47.187 41.5443C47.187 43.5268 48.778 45.1339 50.7405 45.1339Z" stroke="#24282C" stroke-width="0.5" stroke-miterlimit="10"/>
</g>
<defs>
<linearGradient id="paint0_linear_1244_1677" x1="21.0394" y1="99.8545" x2="45.0952" y2="31.1868" gradientUnits="userSpaceOnUse">
<stop offset="0.06" stop-color="#FBB8B8"/>
<stop offset="0.45" stop-color="#83DEFC"/>
<stop offset="1" stop-color="#F2ED7B"/>
</linearGradient>
<linearGradient id="paint1_linear_1244_1677" x1="40.8484" y1="34.776" x2="41.4966" y2="66.5001" gradientUnits="userSpaceOnUse">
<stop offset="0.61" stop-color="#17004D" stop-opacity="0.91"/>
<stop offset="0.64" stop-color="#452B81" stop-opacity="0.63"/>
<stop offset="0.71" stop-color="#9171D6" stop-opacity="0.17"/>
<stop offset="0.75" stop-color="#AE8CF7" stop-opacity="0"/>
</linearGradient>
<linearGradient id="paint2_linear_1244_1677" x1="33.7146" y1="61.3158" x2="37.3241" y2="71.1404" gradientUnits="userSpaceOnUse">
<stop offset="0.51" stop-color="#17004D" stop-opacity="0.91"/>
<stop offset="0.56" stop-color="#240C5C" stop-opacity="0.83"/>
<stop offset="0.63" stop-color="#482E85" stop-opacity="0.61"/>
<stop offset="0.71" stop-color="#8465C8" stop-opacity="0.25"/>
<stop offset="0.76" stop-color="#AE8CF7" stop-opacity="0"/>
</linearGradient>
<linearGradient id="paint3_linear_1244_1677" x1="45.3528" y1="52.6087" x2="43.2044" y2="58.4558" gradientUnits="userSpaceOnUse">
<stop offset="0.51" stop-color="#17004D" stop-opacity="0.91"/>
<stop offset="0.56" stop-color="#240C5C" stop-opacity="0.83"/>
<stop offset="0.63" stop-color="#482E85" stop-opacity="0.61"/>
<stop offset="0.71" stop-color="#8465C8" stop-opacity="0.25"/>
<stop offset="0.76" stop-color="#AE8CF7" stop-opacity="0"/>
</linearGradient>
</defs>
</svg>
