<svg width="345" height="96" viewBox="0 0 345 96" fill="none" xmlns="http://www.w3.org/2000/svg">
<g clip-path="url(#clip0_1244_1678)">
<path d="M90.9015 38.6094H95.6662C96.7614 38.6094 97.846 38.827 98.8578 39.2499C99.8695 39.6727 100.789 40.2925 101.563 41.0737C102.337 41.8549 102.95 42.7823 103.369 43.8028C103.787 44.8233 104.001 45.9169 104 47.021V55.4849C104 57.713 103.122 59.8499 101.559 61.4254C99.9962 63.001 97.8764 63.8861 95.6662 63.8861H90.9015C89.7909 63.8861 88.7257 63.4413 87.9404 62.6496C87.1551 61.8579 86.7139 60.7842 86.7139 59.6646V42.8413C86.7139 41.7217 87.1551 40.648 87.9404 39.8563C88.7257 39.0646 89.7909 38.6198 90.9015 38.6198V38.6094Z" fill="white" stroke="#24282C" stroke-width="0.693851" stroke-miterlimit="10"/>
<path d="M13.0946 63.8799H8.33338C7.2381 63.8799 6.15356 63.6622 5.14178 63.2394C4.13 62.8165 3.21082 62.1968 2.43682 61.4155C1.66282 60.6343 1.04917 59.7069 0.630968 58.6865C0.212765 57.666 -0.001791 56.5724 -0.000429153 55.4682L-0.000429153 47.0044C0.00140381 44.7774 0.880236 42.6424 2.44293 41.0683C4.00562 39.4943 6.12432 38.6102 8.33338 38.6102H13.0946C13.6448 38.6102 14.1896 38.7195 14.6979 38.9318C15.2062 39.1442 15.668 39.4555 16.0569 39.8478C16.4458 40.2402 16.7542 40.706 16.9644 41.2186C17.1747 41.7311 17.2827 42.2805 17.2822 42.8351L17.2822 59.6479C17.2836 60.2032 17.1763 60.7533 16.9664 61.2666C16.7566 61.78 16.4483 62.2466 16.0594 62.6397C15.6704 63.0329 15.2083 63.3447 14.6995 63.5575C14.1908 63.7703 13.6454 63.8799 13.0946 63.8799Z" fill="white" stroke="#24282C" stroke-width="0.693851" stroke-miterlimit="10"/>
<path d="M52.1415 33.0967H52.145C53.5761 33.0967 54.7363 31.9271 54.7363 30.4844V10.4427C54.7363 9 53.5761 7.83043 52.145 7.83043H52.1415C50.7103 7.83043 49.5502 9 49.5502 10.4427V30.4844C49.5502 31.9271 50.7103 33.0967 52.1415 33.0967Z" fill="#F2ED7B" stroke="#24282C" stroke-width="0.693851" stroke-miterlimit="10"/>
<path d="M82.3466 77.6726C78.6393 80.6158 74.0094 82.2006 69.3657 82.9634C68.9579 83.0366 68.5502 83.0993 68.1425 83.148C67.1993 83.2839 66.2526 83.3884 65.3059 83.4685C64.1092 83.5731 62.9949 84.1263 62.1831 85.0188C61.3714 85.9113 60.9211 87.0782 60.9213 88.289V94.9069C60.9218 95.1269 60.8563 95.3419 60.7334 95.5237C60.6105 95.7055 60.4359 95.8456 60.2325 95.9255C60.0292 96.0054 59.8066 96.0213 59.594 95.9713C59.3815 95.9213 59.1889 95.8077 59.0417 95.6453C56.6991 92.9633 52.933 90.6297 48.9837 88.714C47.8297 88.1497 46.6584 87.6238 45.494 87.1396C41.4206 85.4396 37.2413 84.0097 32.983 82.8589C31.9844 82.6221 30.9928 82.3434 30.0219 82.0125C29.9632 81.9916 29.9113 81.9847 29.8595 81.9638L29.051 81.6851L28.9404 81.6433C24.8461 80.1108 21.0765 77.7562 18.2917 74.409C14.3701 69.6964 12.7151 63.4686 12.0931 57.3419C11.295 49.4597 12.1622 40.8948 16.4915 34.0784C20.8934 27.1506 28.239 23.4063 36.1686 22.236C42.9303 21.2154 49.8026 21.7832 56.6438 21.926C64.9845 22.1106 73.9506 21.8215 80.9266 26.454C84.9069 29.1011 87.8369 33.1763 89.6163 37.6451C91.3957 42.1139 92.0867 46.9484 92.1869 51.769C92.4011 61.3474 89.8512 71.7514 82.3466 77.6726Z" fill="url(#paint0_linear_1244_1678)" stroke="#24282C" stroke-width="0.693851" stroke-miterlimit="10"/>
<path style="mix-blend-mode:multiply" opacity="0.51" d="M33.9643 69.3127C36.1721 71.0542 38.919 71.9947 41.6865 72.4475C41.9318 72.4893 42.1737 72.5276 42.4156 72.5589H42.4605C43.6282 72.7058 44.7032 73.2752 45.4856 74.1613C46.2679 75.0474 46.7044 76.1898 46.7138 77.376V78.4593C46.7132 78.6705 46.7735 78.8774 46.8873 79.0548C47.0012 79.2321 47.1637 79.3723 47.3551 79.4583C47.5466 79.5442 47.7586 79.5723 47.9656 79.539C48.1725 79.5057 48.3654 79.4126 48.5208 79.2708C49.9029 77.9716 51.8239 76.8327 53.8141 75.8574C54.5051 75.5091 55.1962 75.2096 55.8872 74.9205C58.3106 73.9101 60.7967 73.0596 63.3296 72.3743C63.9239 72.2315 64.5147 72.0678 65.0917 71.8728L65.1884 71.8414L65.6687 71.6742L65.7344 71.6499C68.1809 70.8012 70.3652 69.3232 72.0711 67.3622C74.4068 64.5548 75.3915 60.8488 75.7612 57.2125C76.2345 52.5069 75.7232 47.4181 73.1422 43.3638C70.5232 39.2398 66.149 37.0106 61.4327 36.3071C57.4109 35.701 53.3235 36.0389 49.2498 36.1225C44.2883 36.2339 38.9535 36.0632 34.8039 38.8184C32.4337 40.3927 30.6888 42.8169 29.6212 45.478C28.6137 48.1628 28.0952 51.0088 28.0905 53.8792C27.98 59.5845 29.5002 65.7774 33.9643 69.3127Z" fill="url(#paint1_linear_1244_1678)"/>
<path style="mix-blend-mode:multiply" opacity="0.51" d="M55.7661 83.8902L48.9837 88.6969C47.8297 88.1326 46.6584 87.6067 45.494 87.1225C41.4205 85.4225 37.2413 83.9926 32.9829 82.8418C32.9829 82.8418 39.4164 84.5381 55.7661 83.8902Z" fill="url(#paint2_linear_1244_1678)"/>
<path d="M52.1417 12.7793H52.1452C55.6449 12.7793 58.4819 9.91931 58.4819 6.39133V6.38785C58.4819 2.85987 55.6449 -0.000116348 52.1452 -0.000116348H52.1417C48.6421 -0.000116348 45.805 2.85987 45.805 6.38785V6.39133C45.805 9.91931 48.6421 12.7793 52.1417 12.7793Z" fill="#83DEFC" stroke="#24282C" stroke-width="0.693851" stroke-miterlimit="10"/>
<path d="M33.9644 66.6174C36.1723 68.3589 38.9191 69.2993 41.6867 69.7521C41.932 69.7939 42.1738 69.8323 42.4157 69.8636H42.4606C43.631 70.0071 44.709 70.5765 45.4923 71.4648C46.2755 72.3531 46.7099 73.4992 46.7139 74.6877V75.7709C46.7118 75.9828 46.7711 76.1908 46.8847 76.3691C46.9983 76.5474 47.1611 76.6884 47.3532 76.7747C47.5452 76.8609 47.7581 76.8887 47.9656 76.8545C48.173 76.8204 48.3661 76.7258 48.521 76.5825C49.903 75.2833 51.8241 74.1443 53.8142 73.1725C54.5053 72.8242 55.1963 72.5212 55.8873 72.2356C58.3104 71.2232 60.7965 70.3715 63.3297 69.686C63.924 69.5466 64.5148 69.3795 65.0918 69.1844C65.1264 69.1844 65.1575 69.1844 65.1886 69.1531L65.6688 68.9894L65.7345 68.965C68.1811 68.1164 70.3654 66.6384 72.0712 64.6773C74.4069 61.8699 75.3916 58.1674 75.7613 54.5276C76.2347 49.822 75.7233 44.7332 73.1423 40.6789C70.5233 36.5584 66.1491 34.3258 61.4328 33.6222C57.411 33.0161 53.3236 33.354 49.25 33.4411C44.2884 33.549 38.9537 33.3784 34.804 36.1335C32.4338 37.7078 30.6889 40.1355 29.6213 42.7931C28.6189 45.4812 28.1063 48.3296 28.1079 51.2013C27.9801 56.8961 29.5004 63.089 33.9644 66.6174Z" fill="white"/>
<path style="mix-blend-mode:multiply" opacity="0.51" d="M49.7817 70.309L53.8139 73.1721C54.5049 72.8238 55.196 72.5208 55.887 72.2352C58.31 71.2228 60.7961 70.3711 63.3294 69.6855C63.3294 69.6855 59.4976 70.7061 49.7817 70.309Z" fill="url(#paint3_linear_1244_1678)"/>
<g style="mix-blend-mode:multiply">
<path d="M39.3612 57.2552C41.9125 57.2552 43.9808 55.1702 43.9808 52.5983C43.9808 50.0264 41.9125 47.9414 39.3612 47.9414C36.8099 47.9414 34.7417 50.0264 34.7417 52.5983C34.7417 55.1702 36.8099 57.2552 39.3612 57.2552Z" fill="#FBB8B8"/>
<path d="M39.3612 57.2552C41.9125 57.2552 43.9808 55.1702 43.9808 52.5983C43.9808 50.0264 41.9125 47.9414 39.3612 47.9414C36.8099 47.9414 34.7417 50.0264 34.7417 52.5983C34.7417 55.1702 36.8099 57.2552 39.3612 57.2552Z" stroke="#24282C" stroke-width="0.6" stroke-miterlimit="10"/>
</g>
<g style="mix-blend-mode:multiply">
<path d="M52.0141 57.2552C54.5654 57.2552 56.6336 55.1702 56.6336 52.5983C56.6336 50.0264 54.5654 47.9414 52.0141 47.9414C49.4628 47.9414 47.3945 50.0264 47.3945 52.5983C47.3945 55.1702 49.4628 57.2552 52.0141 57.2552Z" fill="#83DEFC"/>
<path d="M52.0141 57.2552C54.5654 57.2552 56.6336 55.1702 56.6336 52.5983C56.6336 50.0264 54.5654 47.9414 52.0141 47.9414C49.4628 47.9414 47.3945 50.0264 47.3945 52.5983C47.3945 55.1702 49.4628 57.2552 52.0141 57.2552Z" stroke="#24282C" stroke-width="0.6" stroke-miterlimit="10"/>
</g>
<g style="mix-blend-mode:multiply">
<path d="M64.663 57.2552C67.2143 57.2552 69.2825 55.1702 69.2825 52.5983C69.2825 50.0264 67.2143 47.9414 64.663 47.9414C62.1117 47.9414 60.0435 50.0264 60.0435 52.5983C60.0435 55.1702 62.1117 57.2552 64.663 57.2552Z" fill="#F2ED7B"/>
<path d="M64.663 57.2552C67.2143 57.2552 69.2825 55.1702 69.2825 52.5983C69.2825 50.0264 67.2143 47.9414 64.663 47.9414C62.1117 47.9414 60.0435 50.0264 60.0435 52.5983C60.0435 55.1702 62.1117 57.2552 64.663 57.2552Z" stroke="#24282C" stroke-width="0.6" stroke-miterlimit="10"/>
</g>
<path d="M131.824 60.192C130.16 60.192 128.56 59.9253 127.024 59.392C125.509 58.8373 124.336 58.1333 123.504 57.28L124.432 55.456C125.221 56.224 126.277 56.8747 127.6 57.408C128.944 57.92 130.352 58.176 131.824 58.176C133.232 58.176 134.373 58.0053 135.248 57.664C136.144 57.3013 136.795 56.8213 137.2 56.224C137.627 55.6267 137.84 54.9653 137.84 54.24C137.84 53.3653 137.584 52.6613 137.072 52.128C136.581 51.5947 135.931 51.1787 135.12 50.88C134.309 50.56 133.413 50.2827 132.432 50.048C131.451 49.8133 130.469 49.568 129.488 49.312C128.507 49.0347 127.6 48.672 126.768 48.224C125.957 47.776 125.296 47.1893 124.784 46.464C124.293 45.7173 124.048 44.7467 124.048 43.552C124.048 42.4427 124.336 41.4293 124.912 40.512C125.509 39.5733 126.416 38.8267 127.632 38.272C128.848 37.696 130.405 37.408 132.304 37.408C133.563 37.408 134.811 37.5893 136.048 37.952C137.285 38.2933 138.352 38.7733 139.248 39.392L138.448 41.28C137.488 40.64 136.464 40.1707 135.376 39.872C134.309 39.5733 133.275 39.424 132.272 39.424C130.928 39.424 129.819 39.6053 128.944 39.968C128.069 40.3307 127.419 40.8213 126.992 41.44C126.587 42.0373 126.384 42.72 126.384 43.488C126.384 44.3627 126.629 45.0667 127.12 45.6C127.632 46.1333 128.293 46.5493 129.104 46.848C129.936 47.1467 130.843 47.4133 131.824 47.648C132.805 47.8827 133.776 48.1387 134.736 48.416C135.717 48.6933 136.613 49.056 137.424 49.504C138.256 49.9307 138.917 50.5067 139.408 51.232C139.92 51.9573 140.176 52.9067 140.176 54.08C140.176 55.168 139.877 56.1813 139.28 57.12C138.683 58.0373 137.765 58.784 136.528 59.36C135.312 59.9147 133.744 60.192 131.824 60.192ZM147.967 60L141.631 43.2H143.807L149.567 58.784H148.575L154.495 43.2H156.447L162.303 58.784H161.311L167.167 43.2H169.247L162.879 60H160.735L155.103 45.344H155.775L150.111 60H147.967ZM172.668 60V43.2H174.94V60H172.668ZM173.82 39.488C173.351 39.488 172.956 39.328 172.636 39.008C172.316 38.688 172.156 38.304 172.156 37.856C172.156 37.408 172.316 37.0347 172.636 36.736C172.956 36.416 173.351 36.256 173.82 36.256C174.289 36.256 174.684 36.4053 175.004 36.704C175.324 37.0027 175.484 37.376 175.484 37.824C175.484 38.2933 175.324 38.688 175.004 39.008C174.705 39.328 174.311 39.488 173.82 39.488ZM181.646 60V41.088C181.646 39.5947 182.083 38.3893 182.958 37.472C183.832 36.5547 185.091 36.096 186.734 36.096C187.374 36.096 187.992 36.1813 188.59 36.352C189.187 36.5227 189.688 36.7893 190.094 37.152L189.326 38.848C189.006 38.5707 188.632 38.368 188.206 38.24C187.779 38.0907 187.32 38.016 186.83 38.016C185.87 38.016 185.134 38.2827 184.622 38.816C184.11 39.3493 183.854 40.1387 183.854 41.184V43.744L183.918 44.8V60H181.646ZM178.638 45.088V43.2H189.038V45.088H178.638ZM197.418 60.16C195.839 60.16 194.623 59.7333 193.77 58.88C192.916 58.0267 192.49 56.8213 192.49 55.264V39.488H194.762V55.136C194.762 56.1173 195.007 56.8747 195.498 57.408C196.01 57.9413 196.735 58.208 197.674 58.208C198.676 58.208 199.508 57.92 200.17 57.344L200.97 58.976C200.522 59.3813 199.978 59.68 199.338 59.872C198.719 60.064 198.079 60.16 197.418 60.16ZM189.482 45.088V43.2H199.882V45.088H189.482ZM211.954 60.384C210.162 60.384 208.444 60.1493 206.802 59.68C205.159 59.1893 203.836 58.56 202.834 57.792L204.594 53.888C205.554 54.5707 206.684 55.136 207.986 55.584C209.308 56.0107 210.642 56.224 211.986 56.224C213.01 56.224 213.831 56.128 214.45 55.936C215.09 55.7227 215.559 55.4347 215.858 55.072C216.156 54.7093 216.306 54.2933 216.306 53.824C216.306 53.2267 216.071 52.7573 215.602 52.416C215.132 52.0533 214.514 51.7653 213.746 51.552C212.978 51.3173 212.124 51.104 211.186 50.912C210.268 50.6987 209.34 50.4427 208.402 50.144C207.484 49.8453 206.642 49.4613 205.874 48.992C205.106 48.5227 204.476 47.904 203.986 47.136C203.516 46.368 203.282 45.3867 203.282 44.192C203.282 42.912 203.623 41.7493 204.306 40.704C205.01 39.6373 206.055 38.7947 207.442 38.176C208.85 37.536 210.61 37.216 212.722 37.216C214.13 37.216 215.516 37.3867 216.882 37.728C218.247 38.048 219.452 38.5387 220.498 39.2L218.898 43.136C217.852 42.5387 216.807 42.1013 215.762 41.824C214.716 41.5253 213.692 41.376 212.69 41.376C211.687 41.376 210.866 41.4933 210.226 41.728C209.586 41.9627 209.127 42.272 208.85 42.656C208.572 43.0187 208.434 43.4453 208.434 43.936C208.434 44.512 208.668 44.9813 209.138 45.344C209.607 45.6853 210.226 45.9627 210.994 46.176C211.762 46.3893 212.604 46.6027 213.522 46.816C214.46 47.0293 215.388 47.2747 216.306 47.552C217.244 47.8293 218.098 48.2027 218.866 48.672C219.634 49.1413 220.252 49.76 220.722 50.528C221.212 51.296 221.458 52.2667 221.458 53.44C221.458 54.6987 221.106 55.8507 220.402 56.896C219.698 57.9413 218.642 58.784 217.234 59.424C215.847 60.064 214.087 60.384 211.954 60.384ZM231.912 60.256C230.482 60.256 229.202 59.9787 228.072 59.424C226.962 58.8693 226.098 58.0267 225.48 56.896C224.861 55.744 224.552 54.2827 224.552 52.512V42.784H229.544V51.776C229.544 53.2053 229.842 54.2613 230.44 54.944C231.058 55.6053 231.922 55.936 233.032 55.936C233.8 55.936 234.482 55.776 235.08 55.456C235.677 55.1147 236.146 54.6027 236.488 53.92C236.829 53.216 237 52.3413 237 51.296V42.784H241.992V60H237.256V55.264L238.12 56.64C237.544 57.8347 236.69 58.7413 235.56 59.36C234.45 59.9573 233.234 60.256 231.912 60.256ZM256.793 60.256C255.342 60.256 254.073 59.936 252.985 59.296C251.897 58.656 251.043 57.6853 250.425 56.384C249.827 55.0613 249.529 53.3973 249.529 51.392C249.529 49.3653 249.817 47.7013 250.393 46.4C250.969 45.0987 251.801 44.128 252.889 43.488C253.977 42.848 255.278 42.528 256.793 42.528C258.414 42.528 259.865 42.9013 261.145 43.648C262.446 44.3733 263.47 45.3973 264.217 46.72C264.985 48.0427 265.369 49.6 265.369 51.392C265.369 53.2053 264.985 54.7733 264.217 56.096C263.47 57.4187 262.446 58.4427 261.145 59.168C259.865 59.8933 258.414 60.256 256.793 60.256ZM246.617 66.208V42.784H251.385V46.304L251.289 51.424L251.609 56.512V66.208H246.617ZM255.929 56.16C256.761 56.16 257.497 55.968 258.137 55.584C258.798 55.2 259.321 54.656 259.705 53.952C260.11 53.2267 260.312 52.3733 260.312 51.392C260.312 50.3893 260.11 49.536 259.705 48.832C259.321 48.128 258.798 47.584 258.137 47.2C257.497 46.816 256.761 46.624 255.929 46.624C255.097 46.624 254.35 46.816 253.689 47.2C253.027 47.584 252.505 48.128 252.121 48.832C251.737 49.536 251.545 50.3893 251.545 51.392C251.545 52.3733 251.737 53.2267 252.121 53.952C252.505 54.656 253.027 55.2 253.689 55.584C254.35 55.968 255.097 56.16 255.929 56.16ZM278.886 60.256C277.436 60.256 276.166 59.936 275.078 59.296C273.99 58.656 273.137 57.6853 272.518 56.384C271.921 55.0613 271.622 53.3973 271.622 51.392C271.622 49.3653 271.91 47.7013 272.486 46.4C273.062 45.0987 273.894 44.128 274.982 43.488C276.07 42.848 277.372 42.528 278.886 42.528C280.508 42.528 281.958 42.9013 283.238 43.648C284.54 44.3733 285.564 45.3973 286.31 46.72C287.078 48.0427 287.462 49.6 287.462 51.392C287.462 53.2053 287.078 54.7733 286.31 56.096C285.564 57.4187 284.54 58.4427 283.238 59.168C281.958 59.8933 280.508 60.256 278.886 60.256ZM268.71 66.208V42.784H273.478V46.304L273.382 51.424L273.702 56.512V66.208H268.71ZM278.022 56.16C278.854 56.16 279.59 55.968 280.23 55.584C280.892 55.2 281.414 54.656 281.798 53.952C282.204 53.2267 282.406 52.3733 282.406 51.392C282.406 50.3893 282.204 49.536 281.798 48.832C281.414 48.128 280.892 47.584 280.23 47.2C279.59 46.816 278.854 46.624 278.022 46.624C277.19 46.624 276.444 46.816 275.782 47.2C275.121 47.584 274.598 48.128 274.214 48.832C273.83 49.536 273.638 50.3893 273.638 51.392C273.638 52.3733 273.83 53.2267 274.214 53.952C274.598 54.656 275.121 55.2 275.782 55.584C276.444 55.968 277.19 56.16 278.022 56.16ZM298.996 60.256C297.161 60.256 295.529 59.872 294.1 59.104C292.692 58.336 291.572 57.2907 290.74 55.968C289.929 54.624 289.524 53.0987 289.524 51.392C289.524 49.664 289.929 48.1387 290.74 46.816C291.572 45.472 292.692 44.4267 294.1 43.68C295.529 42.912 297.161 42.528 298.996 42.528C300.809 42.528 302.431 42.912 303.86 43.68C305.289 44.4267 306.409 45.4613 307.22 46.784C308.031 48.1067 308.436 49.6427 308.436 51.392C308.436 53.0987 308.031 54.624 307.22 55.968C306.409 57.2907 305.289 58.336 303.86 59.104C302.431 59.872 300.809 60.256 298.996 60.256ZM298.996 56.16C299.828 56.16 300.575 55.968 301.236 55.584C301.897 55.2 302.42 54.656 302.804 53.952C303.188 53.2267 303.38 52.3733 303.38 51.392C303.38 50.3893 303.188 49.536 302.804 48.832C302.42 48.128 301.897 47.584 301.236 47.2C300.575 46.816 299.828 46.624 298.996 46.624C298.164 46.624 297.417 46.816 296.756 47.2C296.095 47.584 295.561 48.128 295.156 48.832C294.772 49.536 294.58 50.3893 294.58 51.392C294.58 52.3733 294.772 53.2267 295.156 53.952C295.561 54.656 296.095 55.2 296.756 55.584C297.417 55.968 298.164 56.16 298.996 56.16ZM311.773 60V42.784H316.541V47.648L315.869 46.24C316.381 45.024 317.202 44.1067 318.333 43.488C319.463 42.848 320.839 42.528 322.461 42.528V47.136C322.247 47.1147 322.055 47.104 321.885 47.104C321.714 47.0827 321.533 47.072 321.341 47.072C319.975 47.072 318.866 47.4667 318.013 48.256C317.181 49.024 316.765 50.2293 316.765 51.872V60H311.773ZM333.063 60.256C331.036 60.256 329.457 59.744 328.327 58.72C327.196 57.6747 326.631 56.128 326.631 54.08V38.976H331.623V54.016C331.623 54.7413 331.815 55.3067 332.199 55.712C332.583 56.096 333.105 56.288 333.767 56.288C334.556 56.288 335.228 56.0747 335.783 55.648L337.127 59.168C336.615 59.5307 335.996 59.808 335.271 60C334.567 60.1707 333.831 60.256 333.063 60.256ZM323.975 47.008V43.168H335.911V47.008H323.975Z" fill="white"/>
</g>
<defs>
<linearGradient id="paint0_linear_1244_1678" x1="26.0519" y1="128.243" x2="57.209" y2="39.1205" gradientUnits="userSpaceOnUse">
<stop offset="0.06" stop-color="#FBB8B8"/>
<stop offset="0.45" stop-color="#83DEFC"/>
<stop offset="1" stop-color="#F2ED7B"/>
</linearGradient>
<linearGradient id="paint1_linear_1244_1678" x1="51.8032" y1="43.8166" x2="52.6424" y2="84.9724" gradientUnits="userSpaceOnUse">
<stop offset="0.61" stop-color="#17004D" stop-opacity="0.91"/>
<stop offset="0.64" stop-color="#452B81" stop-opacity="0.63"/>
<stop offset="0.71" stop-color="#9171D6" stop-opacity="0.17"/>
<stop offset="0.75" stop-color="#AE8CF7" stop-opacity="0"/>
</linearGradient>
<linearGradient id="paint2_linear_1244_1678" x1="42.5295" y1="78.2476" x2="47.2046" y2="90.9994" gradientUnits="userSpaceOnUse">
<stop offset="0.51" stop-color="#17004D" stop-opacity="0.91"/>
<stop offset="0.56" stop-color="#240C5C" stop-opacity="0.83"/>
<stop offset="0.63" stop-color="#482E85" stop-opacity="0.61"/>
<stop offset="0.71" stop-color="#8465C8" stop-opacity="0.25"/>
<stop offset="0.76" stop-color="#AE8CF7" stop-opacity="0"/>
</linearGradient>
<linearGradient id="paint3_linear_1244_1678" x1="57.6595" y1="66.9513" x2="54.8768" y2="74.5405" gradientUnits="userSpaceOnUse">
<stop offset="0.51" stop-color="#17004D" stop-opacity="0.91"/>
<stop offset="0.56" stop-color="#240C5C" stop-opacity="0.83"/>
<stop offset="0.63" stop-color="#482E85" stop-opacity="0.61"/>
<stop offset="0.71" stop-color="#8465C8" stop-opacity="0.25"/>
<stop offset="0.76" stop-color="#AE8CF7" stop-opacity="0"/>
</linearGradient>
<clipPath id="clip0_1244_1678">
<rect width="345" height="96" fill="white"/>
</clipPath>
</defs>
</svg>
