<svg width="154" height="28" viewBox="0 0 154 28" fill="none" xmlns="http://www.w3.org/2000/svg">
<path d="M23.1532 21.1943H31.1483L11.3428 1.38867H3.34766L23.1532 21.1943Z" fill="#979898"/>
<path d="M15.4492 1.38867L34.5414 20.4809V1.38867H29.3747V7.41644L23.3469 1.38867L15.4492 1.38867Z" fill="#979898"/>
<path d="M0 2.05188V21.1943H5.16667V15.1665L11.1944 21.1943H19.1425L0 2.05188Z" fill="#979898"/>
<path d="M47.0106 18.2165H51.6399V20.9445H43.4766V6.43652H47.0106V18.2165Z" fill="#979898"/>
<path d="M57.9559 21.1098C56.8261 21.1098 55.8065 20.8687 54.8972 20.3864C54.0016 19.9042 53.2921 19.2153 52.7685 18.3198C52.2588 17.4242 52.0039 16.3771 52.0039 15.1784C52.0039 13.9936 52.2656 12.9533 52.7892 12.0578C53.3128 11.1484 54.0292 10.4526 54.9385 9.9704C55.8479 9.48818 56.8674 9.24707 57.9972 9.24707C59.127 9.24707 60.1465 9.48818 61.0559 9.9704C61.9652 10.4526 62.6816 11.1484 63.2052 12.0578C63.7288 12.9533 63.9905 13.9936 63.9905 15.1784C63.9905 16.3633 63.7219 17.4104 63.1845 18.3198C62.661 19.2153 61.9376 19.9042 61.0145 20.3864C60.1052 20.8687 59.0856 21.1098 57.9559 21.1098ZM57.9559 18.0511C58.631 18.0511 59.2028 17.8031 59.6712 17.3071C60.1534 16.8111 60.3945 16.1016 60.3945 15.1784C60.3945 14.2553 60.1603 13.5458 59.6919 13.0498C59.2372 12.5538 58.6723 12.3058 57.9972 12.3058C57.3083 12.3058 56.7365 12.5538 56.2819 13.0498C55.8272 13.532 55.5999 14.2416 55.5999 15.1784C55.5999 16.1016 55.8203 16.8111 56.2612 17.3071C56.7159 17.8031 57.2808 18.0511 57.9559 18.0511Z" fill="#979898"/>
<path d="M69.6231 9.24707C70.436 9.24707 71.1456 9.4124 71.7518 9.74307C72.3718 10.0737 72.8471 10.5078 73.1778 11.0451V9.4124H76.7118V20.9238C76.7118 21.9847 76.4982 22.9422 76.0711 23.7964C75.6578 24.6644 75.0171 25.3533 74.1491 25.8631C73.2949 26.3729 72.2271 26.6278 70.9458 26.6278C69.2373 26.6278 67.8527 26.2213 66.7918 25.4084C65.7309 24.6093 65.1247 23.5209 64.9731 22.1431H68.4658C68.576 22.584 68.8378 22.9284 69.2511 23.1764C69.6645 23.4382 70.1742 23.5691 70.7805 23.5691C71.5107 23.5691 72.0893 23.3556 72.5165 22.9284C72.9573 22.5151 73.1778 21.8469 73.1778 20.9238V19.2911C72.8333 19.8284 72.358 20.2693 71.7518 20.6138C71.1456 20.9444 70.436 21.1098 69.6231 21.1098C68.6725 21.1098 67.8113 20.8687 67.0398 20.3864C66.2682 19.8904 65.6551 19.1947 65.2005 18.2991C64.7596 17.3898 64.5391 16.3427 64.5391 15.1578C64.5391 13.9729 64.7596 12.9327 65.2005 12.0371C65.6551 11.1416 66.2682 10.4526 67.0398 9.9704C67.8113 9.48818 68.6725 9.24707 69.6231 9.24707ZM73.1778 15.1784C73.1778 14.2967 72.9298 13.6009 72.4338 13.0911C71.9516 12.5813 71.3591 12.3264 70.6565 12.3264C69.9538 12.3264 69.3545 12.5813 68.8585 13.0911C68.3762 13.5871 68.1351 14.276 68.1351 15.1578C68.1351 16.0396 68.3762 16.7422 68.8585 17.2658C69.3545 17.7756 69.9538 18.0304 70.6565 18.0304C71.3591 18.0304 71.9516 17.7756 72.4338 17.2658C72.9298 16.756 73.1778 16.0602 73.1778 15.1784Z" fill="#979898"/>
<path d="M83.8973 21.1098C82.7675 21.1098 81.748 20.8687 80.8386 20.3864C79.9431 19.9042 79.2335 19.2153 78.71 18.3198C78.2002 17.4242 77.9453 16.3771 77.9453 15.1784C77.9453 13.9936 78.2071 12.9533 78.7306 12.0578C79.2542 11.1484 79.9706 10.4526 80.88 9.9704C81.7893 9.48818 82.8089 9.24707 83.9386 9.24707C85.0684 9.24707 86.088 9.48818 86.9973 9.9704C87.9066 10.4526 88.6231 11.1484 89.1466 12.0578C89.6702 12.9533 89.932 13.9936 89.932 15.1784C89.932 16.3633 89.6633 17.4104 89.126 18.3198C88.6024 19.2153 87.8791 19.9042 86.956 20.3864C86.0466 20.8687 85.0271 21.1098 83.8973 21.1098ZM83.8973 18.0511C84.5724 18.0511 85.1442 17.8031 85.6126 17.3071C86.0949 16.8111 86.336 16.1016 86.336 15.1784C86.336 14.2553 86.1018 13.5458 85.6333 13.0498C85.1786 12.5538 84.6138 12.3058 83.9386 12.3058C83.2498 12.3058 82.678 12.5538 82.2233 13.0498C81.7686 13.532 81.5413 14.2416 81.5413 15.1784C81.5413 16.1016 81.7618 16.8111 82.2026 17.3071C82.6573 17.8031 83.2222 18.0511 83.8973 18.0511Z" fill="#979898"/>
<path d="M92.9674 8.21396C92.3474 8.21396 91.8376 8.03484 91.438 7.67662C91.0523 7.30462 90.8594 6.84996 90.8594 6.31262C90.8594 5.76151 91.0523 5.30685 91.438 4.94863C91.8376 4.57663 92.3474 4.39062 92.9674 4.39062C93.5736 4.39062 94.0696 4.57663 94.4554 4.94863C94.8549 5.30685 95.0547 5.76151 95.0547 6.31262C95.0547 6.84996 94.8549 7.30462 94.4554 7.67662C94.0696 8.03484 93.5736 8.21396 92.9674 8.21396ZM94.724 9.41263V20.9446H91.19V9.41263H94.724Z" fill="#979898"/>
<path d="M100.198 11.0451C100.543 10.5078 101.018 10.0737 101.624 9.74307C102.23 9.4124 102.94 9.24707 103.753 9.24707C104.704 9.24707 105.565 9.48818 106.336 9.9704C107.108 10.4526 107.714 11.1416 108.155 12.0371C108.61 12.9327 108.837 13.9729 108.837 15.1578C108.837 16.3427 108.61 17.3898 108.155 18.2991C107.714 19.1947 107.108 19.8904 106.336 20.3864C105.565 20.8687 104.704 21.1098 103.753 21.1098C102.954 21.1098 102.244 20.9444 101.624 20.6138C101.018 20.2831 100.543 19.856 100.198 19.3324V26.4418H96.6642V9.4124H100.198V11.0451ZM105.241 15.1578C105.241 14.276 104.993 13.5871 104.497 13.0911C104.015 12.5813 103.415 12.3264 102.699 12.3264C101.996 12.3264 101.397 12.5813 100.901 13.0911C100.419 13.6009 100.178 14.2967 100.178 15.1784C100.178 16.0602 100.419 16.756 100.901 17.2658C101.397 17.7756 101.996 18.0304 102.699 18.0304C103.402 18.0304 104.001 17.7756 104.497 17.2658C104.993 16.7422 105.241 16.0396 105.241 15.1578Z" fill="#979898"/>
<path d="M114.76 21.1098C113.754 21.1098 112.859 20.9376 112.074 20.5931C111.288 20.2487 110.668 19.7802 110.214 19.1878C109.759 18.5816 109.504 17.9064 109.449 17.1624H112.942C112.983 17.562 113.169 17.8858 113.5 18.1338C113.83 18.3818 114.237 18.5058 114.719 18.5058C115.16 18.5058 115.497 18.4231 115.732 18.2578C115.98 18.0787 116.104 17.8513 116.104 17.5758C116.104 17.2451 115.931 17.004 115.587 16.8524C115.242 16.6871 114.684 16.508 113.913 16.3151C113.086 16.1222 112.397 15.9224 111.846 15.7158C111.295 15.4953 110.82 15.1578 110.42 14.7031C110.021 14.2347 109.821 13.6078 109.821 12.8224C109.821 12.1611 110 11.5618 110.358 11.0244C110.73 10.4733 111.268 10.0393 111.97 9.7224C112.687 9.40551 113.534 9.24707 114.512 9.24707C115.959 9.24707 117.096 9.60529 117.922 10.3217C118.763 11.0382 119.245 11.9889 119.369 13.1738H116.104C116.048 12.7742 115.869 12.4573 115.566 12.2231C115.277 11.9889 114.891 11.8718 114.409 11.8718C113.996 11.8718 113.679 11.9544 113.458 12.1198C113.238 12.2713 113.128 12.4849 113.128 12.7604C113.128 13.0911 113.3 13.3391 113.644 13.5044C114.002 13.6698 114.554 13.8351 115.298 14.0004C116.152 14.2209 116.848 14.4413 117.385 14.6618C117.922 14.8684 118.391 15.2129 118.79 15.6951C119.204 16.1636 119.417 16.7973 119.431 17.5964C119.431 18.2716 119.238 18.8778 118.852 19.4151C118.48 19.9387 117.936 20.352 117.22 20.6551C116.517 20.9582 115.697 21.1098 114.76 21.1098Z" fill="#979898"/>
<path d="M132.361 9.4126V20.9446H128.827V19.374C128.469 19.8838 127.98 20.2971 127.36 20.614C126.754 20.9171 126.079 21.0686 125.335 21.0686C124.453 21.0686 123.674 20.8758 122.999 20.49C122.324 20.0904 121.801 19.5186 121.429 18.7746C121.057 18.0306 120.871 17.1558 120.871 16.15V9.4126H124.384V15.6746C124.384 16.4462 124.584 17.0455 124.983 17.4726C125.383 17.8998 125.92 18.1133 126.595 18.1133C127.284 18.1133 127.828 17.8998 128.228 17.4726C128.628 17.0455 128.827 16.4462 128.827 15.6746V9.4126H132.361Z" fill="#979898"/>
<path d="M148.995 9.28845C150.428 9.28845 151.565 9.72245 152.405 10.5904C153.26 11.4584 153.687 12.664 153.687 14.2071V20.9444H150.173V14.6824C150.173 13.9384 149.974 13.3667 149.574 12.9671C149.188 12.5538 148.651 12.3471 147.962 12.3471C147.273 12.3471 146.729 12.5538 146.329 12.9671C145.944 13.3667 145.751 13.9384 145.751 14.6824V20.9444H142.237V14.6824C142.237 13.9384 142.038 13.3667 141.638 12.9671C141.252 12.5538 140.715 12.3471 140.026 12.3471C139.337 12.3471 138.793 12.5538 138.393 12.9671C138.008 13.3667 137.815 13.9384 137.815 14.6824V20.9444H134.281V9.41245H137.815V10.8591C138.173 10.3769 138.641 9.99801 139.22 9.72245C139.799 9.43312 140.453 9.28845 141.183 9.28845C142.051 9.28845 142.823 9.47445 143.498 9.84645C144.187 10.2185 144.724 10.7489 145.11 11.4378C145.51 10.804 146.054 10.2873 146.743 9.88779C147.432 9.48823 148.183 9.28845 148.995 9.28845Z" fill="#979898"/>
</svg>
