<svg width="133" height="36" viewBox="0 0 133 36" fill="none" xmlns="http://www.w3.org/2000/svg">
<g id="Logo">
<path id="Vector" d="M39.0117 11.76H42.2217V24.76H39.0117V11.76ZM43.5017 19.87C43.5017 16.65 45.5017 14.72 48.5017 14.72C51.5017 14.72 53.5017 16.65 53.5017 19.87C53.5017 23.09 51.5717 25.04 48.5017 25.04C45.4317 25.04 43.5017 23.16 43.5017 19.87ZM50.3217 19.87C50.3217 18.1 49.6317 17.06 48.5317 17.06C47.4317 17.06 46.7517 18.06 46.7517 19.87C46.7517 21.68 47.4317 22.67 48.5317 22.67C49.6317 22.67 50.3417 21.68 50.3417 19.88L50.3217 19.87ZM54.7817 25.43H57.8817C58.0228 25.7637 58.2693 26.0422 58.5835 26.2227C58.8977 26.4033 59.2623 26.4761 59.6217 26.43C60.8517 26.43 61.4917 25.77 61.4917 24.79V22.99H61.5017C61.2368 23.5505 60.8084 24.0176 60.273 24.33C59.7375 24.6424 59.12 24.7853 58.5017 24.74C56.1517 24.74 54.5917 22.95 54.5917 19.87C54.5917 16.79 56.0817 14.87 58.5917 14.87C59.2258 14.8361 59.8549 14.9996 60.3921 15.3381C60.9294 15.6766 61.3485 16.1734 61.5917 16.76H61.5017V14.95H64.6817V24.69C64.6817 27.04 62.6017 28.51 59.5417 28.51C56.7617 28.5 54.9817 27.23 54.8017 25.44L54.7817 25.43ZM61.5017 19.87C61.5017 18.3 60.7817 17.31 59.6417 17.31C58.5017 17.31 57.8017 18.31 57.8017 19.87C57.8017 21.43 58.4917 22.35 59.6417 22.35C60.7917 22.35 61.5017 21.5 61.5017 19.87ZM65.9517 19.87C65.9517 16.65 67.9517 14.72 70.9517 14.72C73.9517 14.72 75.9517 16.65 75.9517 19.87C75.9517 23.09 74.0117 25.04 70.9517 25.04C67.8917 25.04 65.9717 23.16 65.9717 19.87H65.9517ZM72.7717 19.87C72.7717 18.1 72.0717 17.06 70.9817 17.06C69.8917 17.06 69.2017 18.06 69.2017 19.87C69.2017 21.68 69.8817 22.67 70.9817 22.67C72.0817 22.67 72.7917 21.68 72.7917 19.88L72.7717 19.87ZM77.2517 12.58C77.2377 12.253 77.3219 11.9293 77.4934 11.6506C77.6649 11.3718 77.9159 11.1508 78.2141 11.0159C78.5123 10.8809 78.844 10.8383 79.1666 10.8935C79.4892 10.9486 79.7879 11.099 80.0243 11.3253C80.2607 11.5517 80.424 11.8435 80.4932 12.1634C80.5623 12.4833 80.5342 12.8166 80.4124 13.1203C80.2906 13.4241 80.0807 13.6845 79.8097 13.868C79.5387 14.0515 79.219 14.1497 78.8917 14.15C78.6826 14.1553 78.4744 14.119 78.2794 14.0433C78.0844 13.9675 77.9063 13.8537 77.7556 13.7086C77.6049 13.5635 77.4845 13.3899 77.4015 13.1978C77.3184 13.0058 77.2743 12.7992 77.2717 12.59L77.2517 12.58ZM77.2517 14.94H80.5017V24.8H77.3017L77.2517 14.94ZM92.1917 19.87C92.1917 23.08 90.7517 24.94 88.3017 24.94C87.6745 24.9787 87.0505 24.8239 86.514 24.4967C85.9775 24.1694 85.5544 23.6854 85.3017 23.11H85.2417V27.97H82.0317V14.97H85.2217V16.73H85.2817C85.5257 16.1433 85.9447 15.646 86.4815 15.306C87.0184 14.966 87.647 14.7998 88.2817 14.83C90.8017 14.81 92.2517 16.66 92.2517 19.88L92.1917 19.87ZM88.9217 19.87C88.9217 18.31 88.1917 17.3 87.0617 17.3C85.9317 17.3 85.2217 18.3 85.2117 19.87C85.2017 21.44 85.9317 22.43 87.0617 22.43C88.1917 22.43 88.9817 21.5 88.9817 19.88L88.9217 19.87ZM97.6717 14.71C100.362 14.71 102.032 15.98 102.052 18.02H99.1217C99.1217 17.31 98.5317 16.87 97.6517 16.87C96.7717 16.87 96.3517 17.21 96.3517 17.72C96.3517 18.23 96.7217 18.39 97.4617 18.54L99.5217 18.96C101.522 19.38 102.322 20.18 102.322 21.67C102.322 23.67 100.472 25.03 97.7217 25.03C94.9717 25.03 93.1817 23.71 93.0517 21.7H96.1617C96.2517 22.43 96.8317 22.86 97.7717 22.86C98.7117 22.86 99.1517 22.56 99.1517 22.03C99.1517 21.5 98.8517 21.41 98.0817 21.25L96.2217 20.86C94.2917 20.45 93.2817 19.44 93.2817 17.93C93.3417 15.97 95.0217 14.72 97.7317 14.72L97.6717 14.71ZM113.072 24.79H109.962V22.94H109.902C109.728 23.5571 109.349 24.0964 108.827 24.469C108.305 24.8417 107.672 25.0254 107.032 24.99C106.549 25.0057 106.067 24.9191 105.62 24.7357C105.173 24.5524 104.769 24.2765 104.436 23.9262C104.102 23.5758 103.847 23.1589 103.686 22.7029C103.525 22.2469 103.462 21.7619 103.502 21.28V14.95H106.712V20.59C106.712 21.75 107.322 22.38 108.322 22.38C108.557 22.3782 108.788 22.3261 109.001 22.2273C109.214 22.1284 109.403 21.985 109.555 21.8068C109.708 21.6286 109.821 21.4197 109.886 21.1943C109.95 20.9688 109.966 20.7321 109.932 20.5V14.95H113.132L113.072 24.79ZM114.622 14.94H117.742V16.84H117.812C117.984 16.2313 118.354 15.697 118.862 15.3206C119.371 14.9443 119.99 14.7471 120.622 14.76C121.257 14.7048 121.89 14.8884 122.396 15.2749C122.903 15.6614 123.247 16.2231 123.362 16.85H123.502C123.702 16.2197 124.104 15.6731 124.647 15.2952C125.189 14.9172 125.842 14.7291 126.502 14.76C126.941 14.7433 127.379 14.8195 127.786 14.9836C128.194 15.1476 128.562 15.3959 128.867 15.7122C129.172 16.0284 129.406 16.4055 129.555 16.8187C129.705 17.2319 129.765 17.6719 129.732 18.11V24.8H126.502V18.93C126.502 17.93 126.032 17.37 125.122 17.37C124.92 17.3667 124.72 17.4071 124.535 17.4883C124.35 17.5696 124.186 17.6899 124.052 17.8409C123.918 17.992 123.818 18.1701 123.759 18.3633C123.701 18.5565 123.685 18.76 123.712 18.96V24.8H120.652V18.9C120.652 17.9 120.162 17.37 119.282 17.37C119.078 17.3684 118.876 17.4104 118.69 17.4932C118.503 17.5761 118.337 17.6978 118.201 17.8503C118.066 18.0028 117.965 18.1825 117.905 18.3773C117.844 18.5722 117.826 18.7777 117.852 18.98V24.8H114.642L114.622 14.94Z" fill="#2D677C"/>
<path id="Vector_2" d="M32.6595 12.61C32.6596 10.6197 32.0586 8.67573 30.9352 7.03279C29.8118 5.38985 28.2183 4.1245 26.3636 3.4025C24.5089 2.68049 22.4793 2.53549 20.5408 2.98648C18.6022 3.43747 16.8451 4.46343 15.4995 5.92997H3.01953V32.27H29.3695V19.96C30.4037 19.035 31.2313 17.9023 31.7982 16.6358C32.3651 15.3693 32.6586 13.9976 32.6595 12.61ZM27.5895 12.61C27.5915 13.5637 27.3105 14.4966 26.7821 15.2906C26.2536 16.0845 25.5016 16.7039 24.621 17.0702C23.7404 17.4366 22.771 17.5335 21.8353 17.3486C20.8997 17.1638 20.0399 16.7055 19.3648 16.0318C18.6897 15.3581 18.2297 14.4993 18.0429 13.564C17.8561 12.6288 17.951 11.6591 18.3155 10.7778C18.68 9.89643 19.2978 9.14306 20.0906 8.61299C20.8835 8.08292 21.8158 7.79998 22.7695 7.79997C24.0461 7.79997 25.2706 8.30642 26.1742 9.20818C27.0779 10.1099 27.5869 11.3334 27.5895 12.61ZM24.2995 27.2H8.08953V11H13.0295C12.9341 11.5315 12.8839 12.0701 12.8795 12.61C12.8822 15.2322 13.925 17.7462 15.7792 19.6004C17.6333 21.4545 20.1473 22.4974 22.7695 22.5C23.2822 22.4973 23.7938 22.4538 24.2995 22.37V27.2Z" fill="#2D677C"/>
</g>
</svg>
