<svg width="134" height="34" viewBox="0 0 134 34" fill="none" xmlns="http://www.w3.org/2000/svg">
<path d="M15.4508 6.6499V2.3999H2.05078V31.5999H15.4508V27.3499C12.7058 27.3499 10.0732 26.2594 8.13222 24.3184C6.19122 22.3774 5.10078 19.7449 5.10078 16.9999C5.10078 14.2549 6.19122 11.6223 8.13222 9.68135C10.0732 7.74035 12.7058 6.6499 15.4508 6.6499Z" fill="#979898"/>
<path d="M15.4492 6.6499V27.3499C18.1942 27.3499 20.8268 26.2594 22.7678 24.3184C24.7088 22.3774 25.7992 19.7449 25.7992 16.9999C25.7992 14.2549 24.7088 11.6223 22.7678 9.68135C20.8268 7.74035 18.1942 6.6499 15.4492 6.6499Z" fill="#979898"/>
<path d="M33.3203 9.25H36.3203V23.7H33.3203V9.25Z" fill="#979898"/>
<path d="M38.0005 18.75C38.0005 17.7104 38.3092 16.6942 38.8874 15.8302C39.4656 14.9662 40.2873 14.2933 41.2484 13.8968C42.2095 13.5004 43.2666 13.3982 44.2858 13.6032C45.305 13.8082 46.2404 14.3112 46.9734 15.0484C47.7064 15.7857 48.2041 16.7239 48.4033 17.7443C48.6024 18.7647 48.4942 19.8212 48.0922 20.78C47.6902 21.7387 47.0127 22.5566 46.1454 23.1298C45.2781 23.7031 44.2601 24.0059 43.2205 24C42.531 24.0054 41.8473 23.8731 41.2096 23.6107C40.5719 23.3484 39.9929 22.9614 39.5067 22.4725C39.0205 21.9835 38.6369 21.4023 38.3782 20.7631C38.1196 20.1239 37.9912 19.4395 38.0005 18.75ZM45.5205 18.75C45.5087 18.3018 45.365 17.867 45.1074 17.5001C44.8498 17.1331 44.4898 16.8502 44.0722 16.6868C43.6547 16.5234 43.1983 16.4867 42.7601 16.5814C42.3218 16.676 41.9212 16.8977 41.6083 17.2189C41.2954 17.54 41.0841 17.9462 41.0009 18.3868C40.9177 18.8274 40.9662 19.2827 41.1404 19.6958C41.3146 20.1089 41.6067 20.4616 41.9803 20.7095C42.3538 20.9575 42.7921 21.0898 43.2405 21.09C43.5458 21.096 43.849 21.0389 44.1312 20.9223C44.4134 20.8058 44.6685 20.6323 44.8806 20.4127C45.0927 20.1931 45.2572 19.932 45.3639 19.646C45.4706 19.3599 45.5171 19.0549 45.5005 18.75H45.5205Z" fill="#979898"/>
<path d="M60.3113 13.8001V23.2101C60.3113 26.5301 57.7113 27.9401 55.0813 27.9401C54.1536 28.0162 53.2231 27.8319 52.3946 27.4079C51.566 26.9839 50.8722 26.337 50.3913 25.5401L52.9212 24.0801C53.1262 24.4935 53.4524 24.8345 53.8562 25.0578C54.26 25.2811 54.7222 25.3761 55.1813 25.3301C55.4738 25.3661 55.7705 25.3371 56.0504 25.2451C56.3304 25.153 56.5866 25.0003 56.8006 24.7977C57.0147 24.5951 57.1813 24.3478 57.2886 24.0733C57.3959 23.7989 57.4411 23.5041 57.4212 23.2101V22.3001C57.0721 22.7234 56.6292 23.0594 56.1276 23.2816C55.6259 23.5038 55.0793 23.606 54.5312 23.5801C53.2052 23.5801 51.9335 23.0533 50.9958 22.1156C50.0581 21.178 49.5312 19.9062 49.5312 18.5801C49.5312 17.254 50.0581 15.9823 50.9958 15.0446C51.9335 14.1069 53.2052 13.5801 54.5312 13.5801C55.0793 13.5542 55.6259 13.6564 56.1276 13.8786C56.6292 14.1008 57.0721 14.4368 57.4212 14.8601V13.8601L60.3113 13.8001ZM57.4212 18.5501C57.4411 18.0717 57.3175 17.5982 57.0662 17.1906C56.8149 16.783 56.4476 16.4599 56.0111 16.2628C55.5747 16.0657 55.0894 16.0037 54.6174 16.0847C54.1455 16.1657 53.7085 16.386 53.3628 16.7173C53.0171 17.0486 52.7784 17.4758 52.6774 17.9439C52.5764 18.412 52.6177 18.8995 52.796 19.3439C52.9744 19.7883 53.2816 20.1692 53.6781 20.4376C54.0747 20.706 54.5425 20.8497 55.0213 20.8501C55.3338 20.8726 55.6475 20.8293 55.9421 20.7231C56.2368 20.6168 56.506 20.4499 56.7321 20.2331C56.9583 20.0164 57.1364 19.7546 57.2551 19.4647C57.3738 19.1748 57.4304 18.8632 57.4212 18.5501Z" fill="#979898"/>
<path d="M62.0003 18.75C62.0003 17.7112 62.3085 16.6958 62.8858 15.8322C63.4631 14.9686 64.2837 14.2957 65.2436 13.8987C66.2035 13.5016 67.2595 13.3982 68.2782 13.6016C69.2969 13.805 70.2323 14.306 70.9662 15.0412C71.7 15.7765 72.1992 16.7129 72.4006 17.7319C72.6021 18.751 72.4968 19.8069 72.0979 20.766C71.699 21.7252 71.0244 22.5444 70.1598 23.1201C69.2951 23.6958 68.2791 24.002 67.2403 24C66.5495 24.0067 65.8643 23.8754 65.2249 23.6138C64.5855 23.3522 64.0046 22.9656 63.5166 22.4766C63.0285 21.9876 62.643 21.4061 62.3826 20.7662C62.1223 20.1263 61.9923 19.4408 62.0003 18.75ZM69.5203 18.75C69.5085 18.3014 69.3645 17.8662 69.1065 17.499C68.8485 17.1319 68.4878 16.849 68.0697 16.6859C67.6516 16.5228 67.1947 16.4867 66.7562 16.5822C66.3177 16.6776 65.9171 16.9004 65.6046 17.2225C65.2921 17.5446 65.0816 17.9518 64.9996 18.393C64.9175 18.8342 64.9674 19.2898 65.1431 19.7027C65.3188 20.1157 65.6125 20.4676 65.9874 20.7144C66.3622 20.9611 66.8015 21.0918 67.2503 21.09C67.5556 21.096 67.8588 21.0389 68.141 20.9223C68.4232 20.8058 68.6783 20.6323 68.8904 20.4127C69.1025 20.1931 69.267 19.932 69.3737 19.646C69.4804 19.3599 69.527 19.0549 69.5104 18.75H69.5203Z" fill="#979898"/>
<path d="M73.8672 11.1501C73.8672 10.7981 73.9716 10.4539 74.1672 10.1612C74.3628 9.86848 74.6408 9.64034 74.966 9.50561C75.2913 9.37089 75.6492 9.33564 75.9945 9.40432C76.3397 9.473 76.6569 9.64253 76.9059 9.89147C77.1548 10.1404 77.3243 10.4576 77.393 10.8028C77.4617 11.1481 77.4264 11.506 77.2917 11.8313C77.157 12.1565 76.9288 12.4345 76.6361 12.6301C76.3434 12.8257 75.9993 12.9301 75.6472 12.9301C75.1767 12.9249 74.727 12.7357 74.3943 12.403C74.0616 12.0703 73.8724 11.6206 73.8672 11.1501ZM74.1572 13.8001H77.1572V23.7001H74.1572V13.8001Z" fill="#979898"/>
<path d="M90.0005 18.75C90.0341 19.4084 89.9372 20.067 89.7153 20.6878C89.4935 21.3086 89.151 21.8794 88.7077 22.3673C88.2643 22.8553 87.7289 23.2507 87.1321 23.5309C86.5354 23.8111 85.8891 23.9705 85.2305 24C84.6716 24.0372 84.1115 23.9477 83.5921 23.7382C83.0726 23.5286 82.6072 23.2045 82.2305 22.79V27.68H79.2305V13.8H82.2305V14.73C82.6077 14.3167 83.0735 13.9941 83.593 13.7863C84.1125 13.5784 84.6723 13.4908 85.2305 13.53C85.8865 13.5595 86.5302 13.718 87.1249 13.9963C87.7196 14.2746 88.2537 14.6674 88.6966 15.1521C89.1396 15.6368 89.4827 16.204 89.7064 16.8214C89.9301 17.4387 90.0301 18.094 90.0005 18.75ZM87.0005 18.75C86.9887 18.2855 86.84 17.8349 86.5732 17.4546C86.3064 17.0743 85.9332 16.7811 85.5005 16.612C85.0678 16.4428 84.5948 16.4052 84.1407 16.5037C83.6867 16.6022 83.2719 16.8326 82.9482 17.1659C82.6245 17.4992 82.4064 17.9206 82.3213 18.3774C82.2361 18.8341 82.2876 19.3058 82.4694 19.7334C82.6512 20.1609 82.9551 20.5253 83.3431 20.7809C83.7311 21.0365 84.1859 21.1718 84.6505 21.17C84.9687 21.1835 85.2862 21.1296 85.5821 21.0118C85.8781 20.894 86.1458 20.715 86.3677 20.4865C86.5896 20.258 86.7606 19.9851 86.8697 19.6859C86.9788 19.3866 87.0233 19.0677 87.0005 18.75Z" fill="#979898"/>
<path d="M99.13 20.73C99.13 23.01 97.13 23.98 95.01 23.98C94.1453 24.0578 93.2772 23.8745 92.5178 23.4538C91.7584 23.0331 91.1426 22.3943 90.75 21.62L93.33 20.16C93.4322 20.5168 93.6538 20.8277 93.9578 21.0407C94.2618 21.2537 94.6297 21.3558 95 21.33C95.71 21.33 96.07 21.11 96.07 20.71C96.07 19.62 91.2 20.2 91.2 16.77C91.2 14.61 93.02 13.53 95.08 13.53C95.863 13.4949 96.641 13.6726 97.3311 14.0441C98.0213 14.4156 98.598 14.9671 99 15.64L96.42 17C96.306 16.742 96.1198 16.5226 95.8838 16.3682C95.6477 16.2138 95.372 16.1311 95.09 16.13C94.57 16.13 94.26 16.33 94.26 16.68C94.26 17.82 99.13 17.07 99.13 20.73Z" fill="#979898"/>
<path d="M109.999 13.7998V23.6998H106.999V22.7698C106.658 23.1815 106.225 23.5072 105.736 23.7209C105.246 23.9346 104.713 24.0301 104.179 23.9998C102.179 23.9998 100.469 22.5698 100.469 19.8998V13.7998H103.469V19.4498C103.445 19.686 103.473 19.9245 103.551 20.1489C103.629 20.3732 103.754 20.578 103.918 20.7492C104.083 20.9203 104.283 21.0537 104.504 21.1402C104.725 21.2266 104.962 21.264 105.199 21.2498C106.279 21.2498 107.039 20.6098 107.039 19.2498V13.7998H109.999Z" fill="#979898"/>
<path d="M126.999 17.6202V23.7002H123.999V17.8802C123.999 16.8802 123.529 16.2602 122.579 16.2602C121.629 16.2602 121.029 16.9502 121.029 18.1202V23.7002H118.029V17.8802C118.029 16.8802 117.559 16.2602 116.609 16.2602C115.659 16.2602 115.059 16.9502 115.059 18.1202V23.7002H112.059V13.8002H115.059V14.7102C115.37 14.3082 115.775 13.9898 116.24 13.7838C116.704 13.5778 117.213 13.4906 117.719 13.5302C118.226 13.5037 118.732 13.6097 119.186 13.8376C119.64 14.0655 120.027 14.4076 120.309 14.8302C120.639 14.3886 121.075 14.0378 121.577 13.8105C122.078 13.5831 122.63 13.4867 123.179 13.5302C125.519 13.5302 126.999 15.1502 126.999 17.6202Z" fill="#979898"/>
<path d="M129.52 13.74C130.735 13.74 131.72 12.755 131.72 11.54C131.72 10.325 130.735 9.33997 129.52 9.33997C128.305 9.33997 127.32 10.325 127.32 11.54C127.32 12.755 128.305 13.74 129.52 13.74Z" fill="#979898"/>
</svg>
