<svg width="173" height="40" viewBox="0 0 173 40" fill="none" xmlns="http://www.w3.org/2000/svg">
<g id="Logo" clip-path="url(#clip0_227_3716)">
<path id="Vector" d="M49.5352 29.0002H60.8879V25.7675H52.997V10.6729H49.5352V29.0002Z" fill="#2D677C"/>
<path id="Vector_2" d="M67.7108 29.3818C69.0854 29.3818 70.2945 29.0763 71.3381 28.4654C72.3902 27.846 73.209 26.9933 73.7945 25.9073C74.3884 24.8127 74.6854 23.5527 74.6854 22.1273C74.6854 20.7103 74.3926 19.4588 73.8072 18.3727C73.2217 17.2782 72.4029 16.4212 71.3508 15.8018C70.3072 15.1824 69.0939 14.8727 67.7108 14.8727C66.3532 14.8727 65.1526 15.1782 64.109 15.7891C63.0654 16.4 62.2466 17.2527 61.6526 18.3473C61.0587 19.4333 60.7617 20.6933 60.7617 22.1273C60.7617 23.5442 61.0502 24.8 61.6272 25.8945C62.2126 26.9806 63.0272 27.8333 64.0708 28.4527C65.1145 29.0721 66.3278 29.3818 67.7108 29.3818ZM67.7108 26.1491C66.6332 26.1491 65.8145 25.7885 65.2545 25.0673C64.7029 24.3376 64.4272 23.3576 64.4272 22.1273C64.4272 20.9309 64.6902 19.9636 65.2163 19.2254C65.7508 18.4788 66.5823 18.1054 67.7108 18.1054C68.8054 18.1054 69.6284 18.4703 70.1799 19.2C70.7399 19.9297 71.0199 20.9054 71.0199 22.1273C71.0199 23.3067 70.7442 24.2739 70.1926 25.0291C69.6496 25.7757 68.8223 26.1491 67.7108 26.1491Z" fill="#2D677C"/>
<path id="Vector_3" d="M81.5334 29.3818C82.1783 29.3818 82.7722 29.3054 83.3153 29.1527C83.8668 29 84.3674 28.7836 84.8171 28.5036V29.8909C84.8341 30.4 84.7025 30.8242 84.4225 31.1636C84.151 31.5115 83.7862 31.7703 83.328 31.94C82.8698 32.1182 82.3819 32.2073 81.8644 32.2073C81.3807 32.2073 80.931 32.1012 80.5153 31.8891C80.108 31.677 79.794 31.3673 79.5734 30.96L76.3662 32.5127C76.8922 33.4036 77.6431 34.1206 78.6189 34.6636C79.5947 35.2151 80.668 35.4909 81.8389 35.4909C82.8486 35.4909 83.7862 35.3551 84.6516 35.0836C85.5171 34.8206 86.2468 34.4176 86.8407 33.8745C87.4431 33.3315 87.8547 32.64 88.0753 31.8C88.1516 31.503 88.2025 31.2018 88.228 30.8963C88.2619 30.5994 88.2789 30.2812 88.2789 29.9418V15.2545H85.2498V16.0182C84.7831 15.6533 84.2528 15.3733 83.6589 15.1782C83.0734 14.9745 82.4244 14.8727 81.7116 14.8727C80.3965 14.8727 79.251 15.1867 78.2753 15.8145C77.2995 16.4424 76.5401 17.3036 75.9971 18.3982C75.4625 19.4842 75.1953 20.7273 75.1953 22.1273C75.1953 23.5018 75.4583 24.7363 75.9844 25.8309C76.5189 26.9254 77.2613 27.7909 78.2116 28.4273C79.1619 29.0636 80.2692 29.3818 81.5334 29.3818ZM82.0934 26.3018C81.3468 26.3018 80.7359 26.1151 80.2607 25.7418C79.7856 25.3685 79.4334 24.8679 79.2044 24.24C78.9753 23.6036 78.8607 22.8994 78.8607 22.1273C78.8607 21.3636 78.9795 20.6679 79.2171 20.04C79.4547 19.4036 79.8195 18.8988 80.3116 18.5254C80.8122 18.1436 81.4486 17.9527 82.2207 17.9527C83.3068 17.9527 84.0831 18.3388 84.5498 19.1109C85.0165 19.8745 85.2498 20.88 85.2498 22.1273C85.2498 23.3745 85.0122 24.3842 84.5371 25.1563C84.0704 25.92 83.2559 26.3018 82.0934 26.3018Z" fill="#2D677C"/>
<path id="Vector_4" d="M96.4999 29.3818C97.8745 29.3818 99.0836 29.0763 100.127 28.4654C101.179 27.846 101.998 26.9933 102.583 25.9073C103.177 24.8127 103.474 23.5527 103.474 22.1273C103.474 20.7103 103.182 19.4588 102.596 18.3727C102.011 17.2782 101.192 16.4212 100.14 15.8018C99.0963 15.1824 97.8829 14.8727 96.4999 14.8727C95.1423 14.8727 93.9417 15.1782 92.8981 15.7891C91.8545 16.4 91.0357 17.2527 90.4417 18.3473C89.8478 19.4333 89.5508 20.6933 89.5508 22.1273C89.5508 23.5442 89.8393 24.8 90.4163 25.8945C91.0017 26.9806 91.8163 27.8333 92.8599 28.4527C93.9036 29.0721 95.1169 29.3818 96.4999 29.3818ZM96.4999 26.1491C95.4223 26.1491 94.6035 25.7885 94.0435 25.0673C93.492 24.3376 93.2163 23.3576 93.2163 22.1273C93.2163 20.9309 93.4793 19.9636 94.0054 19.2254C94.5399 18.4788 95.3714 18.1054 96.4999 18.1054C97.5945 18.1054 98.4175 18.4703 98.969 19.2C99.529 19.9297 99.809 20.9054 99.809 22.1273C99.809 23.3067 99.5332 24.2739 98.9817 25.0291C98.4387 25.7757 97.6114 26.1491 96.4999 26.1491Z" fill="#2D677C"/>
<path id="Vector_5" d="M105 13.3454H108.462V10.2909H105V13.3454ZM105 29H108.462V15.2545H105V29Z" fill="#2D677C"/>
<path id="Vector_6" d="M110.727 35.1091H114.214V28.5036C114.664 28.7836 115.16 29 115.703 29.1527C116.255 29.3054 116.853 29.3818 117.498 29.3818C118.762 29.3818 119.87 29.0636 120.82 28.4273C121.77 27.7909 122.508 26.9254 123.034 25.8309C123.569 24.7363 123.836 23.5018 123.836 22.1273C123.836 20.7273 123.565 19.4842 123.022 18.3982C122.487 17.3036 121.732 16.4424 120.756 15.8145C119.78 15.1867 118.635 14.8727 117.32 14.8727C116.607 14.8727 115.954 14.9745 115.36 15.1782C114.774 15.3733 114.248 15.6533 113.782 16.0182V15.2545H110.727V35.1091ZM116.938 26.3018C115.784 26.3018 114.97 25.92 114.494 25.1563C114.019 24.3842 113.782 23.3745 113.782 22.1273C113.782 20.88 114.015 19.8745 114.482 19.1109C114.957 18.3388 115.733 17.9527 116.811 17.9527C117.583 17.9527 118.215 18.1436 118.707 18.5254C119.208 18.8988 119.577 19.4036 119.814 20.04C120.052 20.6679 120.171 21.3636 120.171 22.1273C120.171 22.8994 120.056 23.6036 119.827 24.24C119.598 24.8679 119.246 25.3685 118.771 25.7418C118.296 26.1151 117.685 26.3018 116.938 26.3018Z" fill="#2D677C"/>
<path id="Vector_7" d="M130.104 29.3818C131.902 29.3818 133.311 28.9788 134.329 28.1727C135.347 27.3666 135.856 26.2594 135.856 24.8509C135.856 23.7818 135.525 22.9376 134.864 22.3182C134.21 21.6988 133.099 21.1854 131.529 20.7782C130.46 20.5066 129.662 20.286 129.136 20.1163C128.619 19.9467 128.275 19.7812 128.105 19.62C127.944 19.4588 127.864 19.2594 127.864 19.0218C127.864 18.623 128.054 18.3176 128.436 18.1054C128.827 17.8933 129.34 17.8085 129.976 17.8509C131.325 17.9527 132.064 18.5297 132.191 19.5818L135.729 18.9454C135.551 17.6982 134.94 16.7097 133.896 15.98C132.853 15.2418 131.521 14.8727 129.9 14.8727C128.237 14.8727 126.909 15.263 125.916 16.0436C124.924 16.8242 124.427 17.8763 124.427 19.2C124.427 20.2521 124.771 21.0836 125.458 21.6945C126.145 22.297 127.329 22.8145 129.009 23.2473C130.002 23.5103 130.731 23.7224 131.198 23.8836C131.673 24.0448 131.979 24.2103 132.114 24.38C132.25 24.5412 132.318 24.7576 132.318 25.0291C132.318 25.4618 132.148 25.8012 131.809 26.0473C131.47 26.2848 130.986 26.4036 130.358 26.4036C129.594 26.4036 128.962 26.2212 128.462 25.8563C127.97 25.4915 127.651 24.9867 127.507 24.3418L123.969 24.8763C124.198 26.3103 124.843 27.4218 125.904 28.2109C126.973 28.9915 128.373 29.3818 130.104 29.3818Z" fill="#2D677C"/>
<path id="Vector_8" d="M142.242 29.4073C143.235 29.4073 144.1 29.2418 144.839 28.9109C145.577 28.58 146.196 28.1388 146.697 27.5873V29H149.751V15.2545H146.264V22.2291C146.264 23.0776 146.166 23.7648 145.971 24.2909C145.785 24.8085 145.543 25.203 145.246 25.4745C144.949 25.7376 144.631 25.9157 144.291 26.0091C143.952 26.1024 143.634 26.1491 143.337 26.1491C142.599 26.1491 142.026 25.9836 141.619 25.6527C141.22 25.3218 140.931 24.9103 140.753 24.4182C140.575 23.926 140.469 23.4382 140.435 22.9545C140.401 22.4624 140.384 22.0594 140.384 21.7454V15.2545H136.871V22.9673C136.871 23.1963 136.888 23.5612 136.922 24.0618C136.956 24.5624 137.054 25.1182 137.215 25.7291C137.376 26.3315 137.643 26.9127 138.017 27.4727C138.399 28.0327 138.929 28.4951 139.608 28.86C140.286 29.2248 141.165 29.4073 142.242 29.4073Z" fill="#2D677C"/>
<path id="Vector_9" d="M151.758 29H155.245V20.6763C155.245 19.8873 155.461 19.2467 155.894 18.7545C156.335 18.2539 156.916 18.0036 157.638 18.0036C158.393 18.0036 158.983 18.2582 159.407 18.7673C159.839 19.2679 160.056 19.9721 160.056 20.88V29H163.518V20.6763C163.518 19.8873 163.734 19.2467 164.167 18.7545C164.608 18.2539 165.189 18.0036 165.91 18.0036C166.666 18.0036 167.255 18.2582 167.679 18.7673C168.112 19.2679 168.329 19.9721 168.329 20.88V29H171.79V19.9636C171.79 18.4618 171.387 17.2485 170.581 16.3236C169.784 15.3903 168.6 14.9236 167.03 14.9236C166.148 14.9236 165.338 15.1145 164.599 15.4963C163.861 15.8782 163.272 16.4 162.83 17.0618C162.474 16.417 161.965 15.8994 161.303 15.5091C160.641 15.1188 159.818 14.9236 158.834 14.9236C158.002 14.9236 157.239 15.0891 156.543 15.42C155.847 15.7424 155.27 16.1879 154.812 16.7563V15.2545H151.758V29Z" fill="#2D677C"/>
<path id="Vector_10" d="M20.5 0C9.4543 0 0.5 8.9543 0.5 20C11.5457 20 20.5 11.0457 20.5 0Z" fill="#2D677C"/>
<path id="Vector_11" d="M20.5 40C31.5457 40 40.5 31.0457 40.5 20C29.4543 20 20.5 28.9543 20.5 40Z" fill="#2D677C"/>
<path id="Vector_12" d="M20.5 0C31.5457 0 40.5 8.9543 40.5 20C29.4543 20 20.5 11.0457 20.5 0Z" fill="#2D677C"/>
<path id="Vector_13" d="M20.5 40C9.4543 40 0.499999 31.0457 0.5 20C11.5457 20 20.5 28.9543 20.5 40Z" fill="#2D677C"/>
</g>
<defs>
<clipPath id="clip0_227_3716">
<rect width="172" height="40" fill="white" transform="translate(0.5)"/>
</clipPath>
</defs>
</svg>
