<svg width="132" height="36" viewBox="0 0 132 36" fill="none" xmlns="http://www.w3.org/2000/svg">
<path d="M38.5117 11.76H41.7217V24.76H38.5117V11.76ZM43.0017 19.87C43.0017 16.65 45.0017 14.72 48.0017 14.72C51.0017 14.72 53.0017 16.65 53.0017 19.87C53.0017 23.09 51.0717 25.04 48.0017 25.04C44.9317 25.04 43.0017 23.16 43.0017 19.87ZM49.8217 19.87C49.8217 18.1 49.1317 17.06 48.0317 17.06C46.9317 17.06 46.2517 18.06 46.2517 19.87C46.2517 21.68 46.9317 22.67 48.0317 22.67C49.1317 22.67 49.8417 21.68 49.8417 19.88L49.8217 19.87ZM54.2817 25.43H57.3817C57.5228 25.7637 57.7693 26.0422 58.0835 26.2227C58.3977 26.4033 58.7623 26.4761 59.1217 26.43C60.3517 26.43 60.9917 25.77 60.9917 24.79V22.99H61.0017C60.7368 23.5505 60.3084 24.0176 59.773 24.33C59.2375 24.6424 58.62 24.7853 58.0017 24.74C55.6517 24.74 54.0917 22.95 54.0917 19.87C54.0917 16.79 55.5817 14.87 58.0917 14.87C58.7258 14.8361 59.3549 14.9996 59.8921 15.3381C60.4294 15.6766 60.8485 16.1734 61.0917 16.76H61.0017V14.95H64.1817V24.69C64.1817 27.04 62.1017 28.51 59.0417 28.51C56.2617 28.5 54.4817 27.23 54.3017 25.44L54.2817 25.43ZM61.0017 19.87C61.0017 18.3 60.2817 17.31 59.1417 17.31C58.0017 17.31 57.3017 18.31 57.3017 19.87C57.3017 21.43 57.9917 22.35 59.1417 22.35C60.2917 22.35 61.0017 21.5 61.0017 19.87ZM65.4517 19.87C65.4517 16.65 67.4517 14.72 70.4517 14.72C73.4517 14.72 75.4517 16.65 75.4517 19.87C75.4517 23.09 73.5117 25.04 70.4517 25.04C67.3917 25.04 65.4717 23.16 65.4717 19.87H65.4517ZM72.2717 19.87C72.2717 18.1 71.5717 17.06 70.4817 17.06C69.3917 17.06 68.7017 18.06 68.7017 19.87C68.7017 21.68 69.3817 22.67 70.4817 22.67C71.5817 22.67 72.2917 21.68 72.2917 19.88L72.2717 19.87ZM76.7517 12.58C76.7377 12.253 76.8219 11.9293 76.9934 11.6506C77.1649 11.3718 77.4159 11.1508 77.7141 11.0159C78.0123 10.8809 78.344 10.8383 78.6666 10.8935C78.9892 10.9486 79.2879 11.099 79.5243 11.3253C79.7607 11.5517 79.924 11.8435 79.9932 12.1634C80.0623 12.4833 80.0342 12.8166 79.9124 13.1203C79.7906 13.4241 79.5807 13.6845 79.3097 13.868C79.0387 14.0515 78.719 14.1497 78.3917 14.15C78.1826 14.1553 77.9744 14.119 77.7794 14.0433C77.5844 13.9675 77.4063 13.8537 77.2556 13.7086C77.1049 13.5635 76.9845 13.3899 76.9015 13.1978C76.8184 13.0058 76.7743 12.7992 76.7717 12.59L76.7517 12.58ZM76.7517 14.94H80.0017V24.8H76.8017L76.7517 14.94ZM91.6917 19.87C91.6917 23.08 90.2517 24.94 87.8017 24.94C87.1745 24.9787 86.5505 24.8239 86.014 24.4967C85.4775 24.1694 85.0544 23.6854 84.8017 23.11H84.7417V27.97H81.5317V14.97H84.7217V16.73H84.7817C85.0257 16.1433 85.4447 15.646 85.9815 15.306C86.5184 14.966 87.147 14.7998 87.7817 14.83C90.3017 14.81 91.7517 16.66 91.7517 19.88L91.6917 19.87ZM88.4217 19.87C88.4217 18.31 87.6917 17.3 86.5617 17.3C85.4317 17.3 84.7217 18.3 84.7117 19.87C84.7017 21.44 85.4317 22.43 86.5617 22.43C87.6917 22.43 88.4817 21.5 88.4817 19.88L88.4217 19.87ZM97.1717 14.71C99.8617 14.71 101.532 15.98 101.552 18.02H98.6217C98.6217 17.31 98.0317 16.87 97.1517 16.87C96.2717 16.87 95.8517 17.21 95.8517 17.72C95.8517 18.23 96.2217 18.39 96.9617 18.54L99.0217 18.96C101.022 19.38 101.822 20.18 101.822 21.67C101.822 23.67 99.9717 25.03 97.2217 25.03C94.4717 25.03 92.6817 23.71 92.5517 21.7H95.6617C95.7517 22.43 96.3317 22.86 97.2717 22.86C98.2117 22.86 98.6517 22.56 98.6517 22.03C98.6517 21.5 98.3517 21.41 97.5817 21.25L95.7217 20.86C93.7917 20.45 92.7817 19.44 92.7817 17.93C92.8417 15.97 94.5217 14.72 97.2317 14.72L97.1717 14.71ZM112.572 24.79H109.462V22.94H109.402C109.228 23.5571 108.849 24.0964 108.327 24.469C107.805 24.8417 107.172 25.0254 106.532 24.99C106.049 25.0057 105.567 24.9191 105.12 24.7357C104.673 24.5524 104.269 24.2765 103.936 23.9262C103.602 23.5758 103.347 23.1589 103.186 22.7029C103.025 22.2469 102.962 21.7619 103.002 21.28V14.95H106.212V20.59C106.212 21.75 106.822 22.38 107.822 22.38C108.057 22.3782 108.288 22.3261 108.501 22.2273C108.714 22.1284 108.903 21.985 109.055 21.8068C109.208 21.6286 109.321 21.4197 109.386 21.1943C109.45 20.9688 109.466 20.7321 109.432 20.5V14.95H112.632L112.572 24.79ZM114.122 14.94H117.242V16.84H117.312C117.484 16.2313 117.854 15.697 118.362 15.3206C118.871 14.9443 119.49 14.7471 120.122 14.76C120.757 14.7048 121.39 14.8884 121.896 15.2749C122.403 15.6614 122.747 16.2231 122.862 16.85H123.002C123.202 16.2197 123.604 15.6731 124.147 15.2952C124.689 14.9172 125.342 14.7291 126.002 14.76C126.441 14.7433 126.879 14.8195 127.286 14.9836C127.694 15.1476 128.062 15.3959 128.367 15.7122C128.672 16.0284 128.906 16.4055 129.055 16.8187C129.205 17.2319 129.265 17.6719 129.232 18.11V24.8H126.002V18.93C126.002 17.93 125.532 17.37 124.622 17.37C124.42 17.3667 124.22 17.4071 124.035 17.4883C123.85 17.5696 123.686 17.6899 123.552 17.8409C123.418 17.992 123.318 18.1701 123.259 18.3633C123.201 18.5565 123.185 18.76 123.212 18.96V24.8H120.152V18.9C120.152 17.9 119.662 17.37 118.782 17.37C118.578 17.3684 118.376 17.4104 118.19 17.4932C118.003 17.5761 117.837 17.6978 117.701 17.8503C117.566 18.0028 117.465 18.1825 117.405 18.3773C117.344 18.5722 117.326 18.7777 117.352 18.98V24.8H114.142L114.122 14.94Z" fill="#979898"/>
<path d="M32.1595 12.61C32.1596 10.6197 31.5586 8.67573 30.4352 7.03279C29.3118 5.38985 27.7183 4.1245 25.8636 3.4025C24.0089 2.68049 21.9793 2.53549 20.0408 2.98648C18.1022 3.43747 16.3451 4.46343 14.9995 5.92997H2.51953V32.27H28.8695V19.96C29.9037 19.035 30.7313 17.9023 31.2982 16.6358C31.8651 15.3693 32.1586 13.9976 32.1595 12.61ZM27.0895 12.61C27.0915 13.5637 26.8105 14.4966 26.2821 15.2906C25.7536 16.0845 25.0016 16.7039 24.121 17.0702C23.2404 17.4366 22.271 17.5335 21.3353 17.3486C20.3997 17.1638 19.5399 16.7055 18.8648 16.0318C18.1897 15.3581 17.7297 14.4993 17.5429 13.564C17.3561 12.6288 17.451 11.6591 17.8155 10.7778C18.18 9.89643 18.7978 9.14306 19.5906 8.61299C20.3835 8.08292 21.3158 7.79998 22.2695 7.79997C23.5461 7.79997 24.7706 8.30642 25.6742 9.20818C26.5779 10.1099 27.0869 11.3334 27.0895 12.61ZM23.7995 27.2H7.58953V11H12.5295C12.4341 11.5315 12.3839 12.0701 12.3795 12.61C12.3822 15.2322 13.425 17.7462 15.2792 19.6004C17.1333 21.4545 19.6473 22.4974 22.2695 22.5C22.7822 22.4973 23.2938 22.4538 23.7995 22.37V27.2Z" fill="#979898"/>
</svg>
