<svg width="140" height="30" viewBox="0 0 140 30" fill="none" xmlns="http://www.w3.org/2000/svg">
<path d="M22.4191 13.371C22.0401 13.7523 21.7499 14.2125 21.569 14.7187C21.3882 15.225 21.3213 15.7649 21.373 16.3L21.355 16.282C21.4082 16.9119 21.3232 17.5457 21.1061 18.1394C20.889 18.733 20.5451 19.2721 20.0982 19.7191C19.6512 20.166 19.112 20.5101 18.5183 20.7271C17.9247 20.9442 17.2908 21.0292 16.661 20.976L16.6791 20.994C15.9257 20.9239 15.1689 21.0878 14.512 21.4635C13.8552 21.8392 13.3302 22.4083 13.0087 23.0933C12.6872 23.7783 12.5847 24.5457 12.7153 25.2911C12.846 26.0364 13.2033 26.7233 13.7386 27.2581C14.2739 27.7929 14.9611 28.1496 15.7065 28.2795C16.452 28.4095 17.2193 28.3063 17.904 27.9842C18.5887 27.662 19.1573 27.1366 19.5324 26.4794C19.9075 25.8222 20.0708 25.0654 20 24.312L20.019 24.33C19.9658 23.7002 20.0507 23.0663 20.2678 22.4726C20.4849 21.879 20.829 21.3399 21.2759 20.8929C21.7229 20.446 22.262 20.1019 22.8556 19.8849C23.4494 19.6678 24.0831 19.5828 24.713 19.636L24.694 19.618C25.3095 19.6733 25.929 19.5724 26.4951 19.3246C27.0611 19.0768 27.5554 18.6901 27.9322 18.2004C28.309 17.7107 28.5562 17.1337 28.6507 16.5231C28.7451 15.9124 28.684 15.2878 28.4727 14.707C28.2615 14.1263 27.9071 13.6083 27.4424 13.201C26.9777 12.7937 26.4178 12.5103 25.8144 12.3771C25.2109 12.2439 24.5837 12.2651 23.9907 12.4388C23.3976 12.6126 22.8582 12.9332 22.4221 13.371H22.4191Z" fill="#979898"/>
<path d="M15.0412 18.6362L15.0222 18.6182C15.5575 18.6721 16.0981 18.6064 16.605 18.4258C17.1118 18.2452 17.5722 17.9543 17.9528 17.574C18.3333 17.1937 18.6247 16.7335 18.8056 16.2268C18.9866 15.7201 19.0527 15.1796 18.9992 14.6442L19.0182 14.6622C18.965 14.0323 19.05 13.3985 19.267 12.8048C19.4841 12.2112 19.8282 11.6721 20.2751 11.2251C20.7221 10.7782 21.2612 10.4341 21.8548 10.2171C22.4485 10 23.0823 9.91507 23.7122 9.96824L23.6932 9.95024C24.4467 10.021 25.2036 9.8576 25.8608 9.48234C26.5181 9.10708 27.0435 8.53821 27.3655 7.85334C27.6875 7.16848 27.7904 6.40095 27.6602 5.65544C27.53 4.90993 27.173 4.22275 26.6378 3.68761C26.1027 3.15248 25.4155 2.79544 24.67 2.66522C23.9245 2.53499 23.157 2.6379 22.4721 2.95992C21.7872 3.28193 21.2184 3.80738 20.8431 4.46459C20.4678 5.12179 20.3044 5.87876 20.3752 6.63224L20.3572 6.61324C20.4105 7.24313 20.3257 7.87707 20.1087 8.47079C19.8917 9.06451 19.5476 9.6037 19.1007 10.0507C18.6537 10.4976 18.1145 10.8417 17.5208 11.0587C16.927 11.2757 16.2931 11.3605 15.6632 11.3072L15.6812 11.3262C15.1459 11.2723 14.6052 11.338 14.0984 11.5186C13.5916 11.6991 13.1312 11.9901 12.7506 12.3704C12.37 12.7507 12.0787 13.2109 11.8977 13.7176C11.7168 14.2243 11.6507 14.7648 11.7042 15.3002L11.6862 15.2822C11.7392 15.912 11.6541 16.5458 11.437 17.1394C11.2198 17.7329 10.8758 18.272 10.4289 18.7189C9.98194 19.1658 9.4429 19.5098 8.84934 19.727C8.25578 19.9441 7.62199 20.0292 6.99218 19.9762L7.01018 19.9942C6.2567 19.9234 5.49973 20.0868 4.84252 20.4621C4.18532 20.8374 3.65987 21.4062 3.33786 22.0911C3.01584 22.776 2.91292 23.5435 3.04315 24.289C3.17338 25.0345 3.53042 25.7217 4.06555 26.2568C4.60069 26.792 5.28787 27.149 6.03338 27.2792C6.77889 27.4094 7.54642 27.3065 8.23129 26.9845C8.91615 26.6625 9.48502 26.1371 9.86028 25.4799C10.2356 24.8226 10.399 24.0657 10.3282 23.3122L10.3472 23.3302C10.294 22.7003 10.379 22.0665 10.5961 21.4728C10.8131 20.8792 11.1572 20.3401 11.6041 19.8931C12.0511 19.4462 12.5902 19.1021 13.1838 18.8851C13.7775 18.668 14.4113 18.583 15.0412 18.6362Z" fill="#979898"/>
<path d="M8.33997 16.6289C8.71899 16.2477 9.00917 15.7875 9.18981 15.2812C9.37045 14.7749 9.43709 14.2349 9.38497 13.6999L9.40396 13.7179C9.35076 13.0879 9.43572 12.4538 9.65293 11.86C9.87014 11.2662 10.2144 10.727 10.6616 10.28C11.1088 9.83306 11.6481 9.48907 12.242 9.27212C12.8359 9.05516 13.47 8.97046 14.1 9.02394L14.081 9.00594C14.8342 9.07651 15.5909 8.91302 16.2478 8.53778C16.9047 8.16255 17.4298 7.59382 17.7517 6.90917C18.0735 6.22451 18.1763 5.45726 18.0461 4.71203C17.9159 3.9668 17.5589 3.27988 17.024 2.74494C16.4891 2.21 15.8021 1.85308 15.0569 1.72286C14.3117 1.59263 13.5444 1.69545 12.8598 2.01727C12.1751 2.33909 11.6064 2.86426 11.2312 3.52116C10.8559 4.17806 10.6924 4.93472 10.763 5.68794L10.745 5.66994C10.7982 6.29979 10.7132 6.93366 10.4961 7.5273C10.279 8.12094 9.93499 8.66005 9.48803 9.10701C9.04108 9.55397 8.50196 9.898 7.90832 10.115C7.31468 10.3321 6.68082 10.4171 6.05097 10.3639L6.06897 10.3819C5.45354 10.3267 4.83413 10.4278 4.26815 10.6757C3.70217 10.9236 3.20792 11.3104 2.83121 11.8002C2.4545 12.2899 2.20752 12.8669 2.11314 13.4775C2.01877 14.0882 2.08006 14.7128 2.29133 15.2934C2.5026 15.8741 2.85703 16.392 3.32176 16.7992C3.78649 17.2065 4.34649 17.4898 4.94987 17.623C5.55324 17.7561 6.18047 17.7348 6.77344 17.5611C7.3664 17.3873 7.9059 17.0667 8.34196 16.6289H8.33997Z" fill="#979898"/>
<path d="M39.3164 6.65479H42.2864V21.1078H39.3164V6.65479Z" fill="#979898"/>
<path d="M43.969 16.159C43.9649 15.1204 44.2691 14.1038 44.8431 13.2382C45.4171 12.3726 46.2351 11.6968 47.1935 11.2965C48.1519 10.8961 49.2075 10.7892 50.2267 10.9893C51.2459 11.1894 52.1828 11.6874 52.9187 12.4204C53.6546 13.1533 54.1564 14.0882 54.3606 15.1066C54.5648 16.125 54.4621 17.1811 54.0656 18.1411C53.6691 19.101 52.9966 19.9218 52.1333 20.4992C51.2699 21.0767 50.2547 21.385 49.216 21.385C48.5266 21.3929 47.8425 21.2632 47.2037 21.0036C46.5649 20.744 45.9843 20.3597 45.4958 19.8732C45.0072 19.3866 44.6206 18.8075 44.3585 18.1698C44.0963 17.5321 43.9639 16.8485 43.969 16.159ZM51.493 16.159C51.4806 15.7113 51.3365 15.2772 51.0788 14.9109C50.821 14.5447 50.461 14.2625 50.0438 14.0998C49.6265 13.937 49.1706 13.9008 48.7329 13.9958C48.2952 14.0908 47.8952 14.3126 47.5829 14.6337C47.2707 14.9547 47.0599 15.3607 46.9772 15.8009C46.8944 16.241 46.9431 16.6958 47.1174 17.1084C47.2917 17.521 47.5837 17.873 47.9569 18.1205C48.3302 18.368 48.7682 18.5 49.216 18.5C49.5227 18.5082 49.8278 18.4527 50.1121 18.3371C50.3963 18.2215 50.6535 18.0483 50.8674 17.8284C51.0813 17.6084 51.2474 17.3465 51.355 17.0592C51.4627 16.7719 51.5097 16.4654 51.493 16.159Z" fill="#979898"/>
<path d="M66.3028 11.2088V20.6088C66.3028 23.9348 63.7088 25.3408 61.0758 25.3408C60.1488 25.4102 59.2205 25.2229 58.3928 24.7996C57.5652 24.3762 56.8701 23.7331 56.3838 22.9408L58.9178 21.4758C59.1222 21.8888 59.4479 22.2295 59.8512 22.4524C60.2546 22.6752 60.7164 22.7696 61.1748 22.7228C61.4678 22.7634 61.7662 22.7376 62.0479 22.6473C62.3295 22.557 62.5873 22.4045 62.8021 22.2012C63.0169 21.9978 63.1832 21.7488 63.2888 21.4724C63.3943 21.1961 63.4363 20.8996 63.4118 20.6048V19.6998C63.064 20.1253 62.6214 20.4634 62.1193 20.6869C61.6172 20.9104 61.0698 21.0131 60.5208 20.9868C59.2146 20.9456 57.9757 20.3978 57.0663 19.4592C56.1569 18.5207 55.6484 17.2651 55.6484 15.9583C55.6484 14.6515 56.1569 13.3959 57.0663 12.4574C57.9757 11.5188 59.2146 10.971 60.5208 10.9298C61.0698 10.9035 61.6172 11.0062 62.1193 11.2297C62.6214 11.4532 63.064 11.7913 63.4118 12.2168V11.2068L66.3028 11.2088ZM63.4128 15.9598C63.4328 15.4812 63.309 15.0075 63.0575 14.5998C62.806 14.192 62.4382 13.8689 62.0015 13.672C61.5648 13.475 61.0792 13.4133 60.6071 13.4947C60.135 13.5761 59.6981 13.7969 59.3525 14.1288C59.007 14.4606 58.7687 14.8882 58.6682 15.3566C58.5678 15.825 58.6098 16.3128 58.789 16.7571C58.9681 17.2014 59.2761 17.582 59.6733 17.8498C60.0705 18.1176 60.5388 18.2604 61.0178 18.2598C61.3299 18.2816 61.643 18.2378 61.9371 18.1312C62.2312 18.0246 62.4997 17.8575 62.7253 17.6409C62.9509 17.4242 63.1287 17.1627 63.2471 16.8731C63.3655 16.5836 63.422 16.2725 63.4128 15.9598Z" fill="#979898"/>
<path d="M67.9806 16.1591C67.9765 15.1205 68.2806 14.1039 68.8547 13.2383C69.4287 12.3727 70.2467 11.6969 71.2051 11.2966C72.1635 10.8962 73.2191 10.7893 74.2383 10.9894C75.2575 11.1895 76.1944 11.6875 76.9303 12.4205C77.6662 13.1534 78.168 14.0883 78.3722 15.1067C78.5764 16.1251 78.4737 17.1812 78.0772 18.1412C77.6807 19.1011 77.0082 19.9219 76.1449 20.4993C75.2815 21.0768 74.2663 21.3851 73.2276 21.3851C72.5382 21.393 71.854 21.2633 71.2153 21.0037C70.5765 20.7441 69.9959 20.3598 69.5074 19.8733C69.0188 19.3867 68.6322 18.8076 68.3701 18.1699C68.1079 17.5322 67.9755 16.8486 67.9806 16.1591ZM75.5046 16.1591C75.4922 15.7114 75.3481 15.2773 75.0904 14.911C74.8326 14.5448 74.4726 14.2626 74.0554 14.0999C73.6381 13.9371 73.1821 13.9009 72.7445 13.9959C72.3068 14.0909 71.9068 14.3127 71.5945 14.6338C71.2823 14.9548 71.0715 15.3608 70.9887 15.801C70.9059 16.2411 70.9547 16.6959 71.129 17.1085C71.3033 17.5211 71.5953 17.8731 71.9685 18.1206C72.3418 18.3681 72.7797 18.5001 73.2276 18.5001C73.5343 18.5083 73.8394 18.4528 74.1236 18.3372C74.4079 18.2216 74.6651 18.0484 74.879 17.8285C75.0929 17.6085 75.259 17.3466 75.3666 17.0593C75.4743 16.772 75.5213 16.4655 75.5046 16.1591Z" fill="#979898"/>
<path d="M79.8594 8.55605C79.8594 8.2036 79.9639 7.85907 80.1597 7.56603C80.3555 7.27298 80.6339 7.04457 80.9595 6.9097C81.2851 6.77482 81.6434 6.73953 81.9891 6.80829C82.3347 6.87705 82.6523 7.04677 82.9015 7.29599C83.1507 7.5452 83.3204 7.86272 83.3892 8.2084C83.4579 8.55407 83.4226 8.91237 83.2878 9.23799C83.1529 9.56361 82.9245 9.84192 82.6314 10.0377C82.3384 10.2335 81.9939 10.3381 81.6414 10.3381C81.1703 10.3334 80.7197 10.1441 80.3865 9.81093C80.0534 9.47775 79.8641 9.02721 79.8594 8.55605ZM80.1594 11.209H83.1304V21.109H80.1554L80.1594 11.209Z" fill="#979898"/>
<path d="M95.9557 16.159C95.99 16.8133 95.8947 17.4679 95.6751 18.0852C95.4556 18.7025 95.1162 19.2703 94.6764 19.756C94.2367 20.2416 93.7052 20.6356 93.1127 20.9152C92.5201 21.1947 91.8782 21.3544 91.2237 21.385C90.6733 21.415 90.1232 21.3222 89.6131 21.1133C89.103 20.9043 88.6459 20.5845 88.2747 20.177V25.068H85.3047V11.209H88.2747V12.139C88.646 11.7318 89.1033 11.4122 89.6133 11.2035C90.1234 10.9947 90.6734 10.902 91.2237 10.932C91.8783 10.9625 92.5204 11.1221 93.1131 11.4017C93.7058 11.6813 94.2373 12.0753 94.6771 12.5611C95.1169 13.0469 95.4563 13.6149 95.6757 14.2324C95.8951 14.8498 95.9903 15.5046 95.9557 16.159ZM92.9857 16.159C92.9741 15.6957 92.8261 15.2461 92.5602 14.8664C92.2943 14.4868 91.9224 14.194 91.491 14.0248C91.0595 13.8555 90.5877 13.8172 90.1346 13.9148C89.6815 14.0123 89.2673 14.2413 88.9437 14.5731C88.6201 14.905 88.4016 15.3248 88.3155 15.7803C88.2294 16.2357 88.2795 16.7063 88.4596 17.1334C88.6396 17.5605 88.9417 17.9249 89.3279 18.1812C89.7141 18.4374 90.1672 18.5741 90.6307 18.574C90.9489 18.5882 91.2665 18.5349 91.5627 18.4177C91.8588 18.3006 92.1269 18.1221 92.3492 17.8941C92.5716 17.666 92.7432 17.3936 92.8529 17.0946C92.9626 16.7956 93.0079 16.4767 92.9857 16.159Z" fill="#979898"/>
<path d="M105.12 18.1379C105.12 20.4149 103.141 21.3849 101.003 21.3849C100.139 21.4631 99.2718 21.2805 98.5129 20.8604C97.754 20.4404 97.1386 19.8024 96.7461 19.0289L99.3191 17.5639C99.4232 17.9214 99.6468 18.2325 99.9525 18.445C100.258 18.6576 100.628 18.7589 100.999 18.7319C101.711 18.7319 102.068 18.5139 102.068 18.1189C102.068 17.0289 97.1971 17.6039 97.1971 14.1789C97.1971 12.0199 99.0191 10.9319 101.078 10.9319C101.852 10.9074 102.618 11.091 103.297 11.4635C103.976 11.8361 104.543 12.3839 104.938 13.0499L102.404 14.4159C102.293 14.1566 102.108 13.9357 101.872 13.7808C101.636 13.6259 101.36 13.5439 101.078 13.5449C100.563 13.5449 100.246 13.7449 100.246 14.0989C100.25 15.2279 105.12 14.4749 105.12 18.1379Z" fill="#979898"/>
<path d="M115.969 11.209V21.109H112.999V20.178C112.656 20.5888 112.221 20.9125 111.729 21.1225C111.237 21.3325 110.703 21.4228 110.169 21.386C108.169 21.386 106.469 19.961 106.469 17.286V11.209H109.439V16.851C109.414 17.0868 109.441 17.3252 109.518 17.5495C109.594 17.7739 109.719 17.9789 109.883 18.1502C110.047 18.3215 110.246 18.455 110.467 18.5415C110.687 18.628 110.924 18.6654 111.161 18.651C112.25 18.651 113.002 18.018 113.002 16.612V11.212L115.969 11.209Z" fill="#979898"/>
<path d="M133.001 15.0302V21.1082H130.031V15.2872C130.031 14.2972 129.556 13.6642 128.606 13.6642C127.616 13.6642 127.061 14.3572 127.061 15.5252V21.1082H124.092V15.2872C124.092 14.2972 123.617 13.6642 122.666 13.6642C121.676 13.6642 121.122 14.3572 121.122 15.5252V21.1082H118.152V11.2082H121.122V12.1182C121.43 11.7145 121.834 11.3943 122.297 11.187C122.761 10.9796 123.269 10.8917 123.775 10.9312C124.283 10.9063 124.789 11.0136 125.244 11.2425C125.698 11.4713 126.085 11.8141 126.368 12.2372C126.697 11.7945 127.133 11.4425 127.635 11.2141C128.137 10.9857 128.689 10.8884 129.239 10.9312C131.512 10.9322 133.001 12.5552 133.001 15.0302Z" fill="#979898"/>
<path d="M135.513 11.1482C136.73 11.1482 137.717 10.1614 137.717 8.94423C137.717 7.72699 136.73 6.74023 135.513 6.74023C134.296 6.74023 133.309 7.72699 133.309 8.94423C133.309 10.1614 134.296 11.1482 135.513 11.1482Z" fill="#979898"/>
</svg>
