<svg width="36" height="28" viewBox="0 0 36 28" fill="none" xmlns="http://www.w3.org/2000/svg">
<path d="M3.19601 25.2329C1.11648 23.0242 0 20.5469 0 16.5312C0 9.46486 4.96057 3.1314 12.1743 0L13.9772 2.78212C7.24401 6.42432 5.92765 11.1507 5.40273 14.1307C6.48691 13.5694 7.90623 13.3736 9.29729 13.5028C12.9395 13.8399 15.8104 16.83 15.8104 20.5469C15.8104 22.421 15.066 24.2184 13.7408 25.5436C12.4156 26.8688 10.6182 27.6133 8.7441 27.6133C7.70768 27.6042 6.68342 27.3891 5.73093 26.9804C4.77844 26.5718 3.91675 25.9777 3.19601 25.2329ZM23.3856 25.2329C21.306 23.0242 20.1896 20.5469 20.1896 16.5312C20.1896 9.46486 25.1501 3.1314 32.3639 0L34.1668 2.78212C27.4336 6.42432 26.1172 11.1507 25.5923 14.1307C26.6765 13.5694 28.0958 13.3736 29.4868 13.5028C33.129 13.8399 36 16.83 36 20.5469C36 22.421 35.2555 24.2184 33.9303 25.5436C32.6051 26.8688 30.8078 27.6133 28.9337 27.6133C27.8972 27.6042 26.873 27.3891 25.9205 26.9804C24.968 26.5718 24.1063 25.9777 23.3856 25.2329Z" fill="#212121" style="fill:#212121;fill:color(display-p3 0.1294 0.1294 0.1294);fill-opacity:1;"/>
</svg>
