<svg width="24" height="24" viewBox="0 0 24 24" fill="none" xmlns="http://www.w3.org/2000/svg">
<path d="M12.7288 17.9278C16.0027 17.9278 18.6568 15.2737 18.6568 11.9998C18.6568 8.72583 16.0027 6.07178 12.7288 6.07178C9.45484 6.07178 6.80078 8.72583 6.80078 11.9998C6.80078 15.2737 9.45484 17.9278 12.7288 17.9278Z" fill="white" style="fill:white;fill-opacity:1;"/>
<path d="M14.5618 14.0909C14.4185 14.0909 14.273 14.0451 14.15 13.9506L12.314 12.5346C12.1483 12.4071 12.0508 12.2091 12.0508 11.9999V9.21064C12.0508 8.83789 12.353 8.53564 12.7258 8.53564C13.0985 8.53564 13.4008 8.83789 13.4008 9.21064V11.6676L14.9743 12.8811C15.2698 13.1091 15.3245 13.5329 15.0965 13.8284C14.9638 14.0001 14.7643 14.0909 14.5618 14.0909Z" fill="#FF5454" style="fill:#FF5454;fill:color(display-p3 1.0000 0.3294 0.3294);fill-opacity:1;"/>
<path d="M12.7287 1.55322C7.67373 1.55322 3.39348 5.24622 2.47848 10.0717L2.02998 9.50547C1.79823 9.21447 1.37523 9.16422 1.08198 9.39597C0.789478 9.62772 0.740728 10.0522 0.972478 10.3447L2.44098 12.1987C2.57448 12.3667 2.77098 12.4545 2.97048 12.4545C3.11673 12.4545 3.26523 12.4072 3.38898 12.309L5.24298 10.8405C5.53548 10.6087 5.58423 10.1842 5.35248 9.89172C5.12148 9.60072 4.69773 9.55047 4.40448 9.78222L3.81648 10.248C4.64223 6.08247 8.35323 2.90472 12.7295 2.90472C17.7447 2.90322 21.8255 6.98397 21.8255 12C21.8255 17.016 17.7455 21.0967 12.7287 21.0967C9.36198 21.0967 6.28698 19.2517 4.70448 16.2825C4.52973 15.954 4.12173 15.8287 3.79173 16.0042C3.46248 16.1797 3.33798 16.5885 3.51348 16.9177C5.33148 20.3287 8.86248 22.4475 12.7287 22.4475C18.4895 22.4475 23.1762 17.7607 23.1762 12.0007C23.1762 6.24072 18.4887 1.55322 12.7287 1.55322Z" fill="#FF5454" style="fill:#FF5454;fill:color(display-p3 1.0000 0.3294 0.3294);fill-opacity:1;"/>
<path d="M12.728 18.603C16.3685 18.603 19.3317 15.6412 19.3317 12C19.3317 8.35872 16.3693 5.39697 12.728 5.39697C9.08675 5.39697 6.125 8.35947 6.125 12C6.125 15.6405 9.08675 18.603 12.728 18.603ZM12.728 6.74697C15.6245 6.74697 17.981 9.10347 17.981 12C17.981 14.8965 15.6245 17.253 12.728 17.253C9.83225 17.253 7.47575 14.8965 7.47575 12C7.47575 9.10347 9.8315 6.74697 12.728 6.74697Z" fill="#FF5454" style="fill:#FF5454;fill:color(display-p3 1.0000 0.3294 0.3294);fill-opacity:1;"/>
</svg>
