<svg width="16" height="12" viewBox="0 0 16 12" fill="none" xmlns="http://www.w3.org/2000/svg">
<path fill-rule="evenodd" clip-rule="evenodd" d="M9.14279 0.434796C9.35924 0.218349 9.71012 0.218349 9.92657 0.434796L15.0996 5.60777C15.2036 5.71168 15.262 5.85268 15.262 5.99967C15.262 6.14666 15.2036 6.28766 15.0996 6.39164L9.92657 11.5647C9.71012 11.7811 9.35924 11.7811 9.14279 11.5647C8.92633 11.3482 8.92633 10.9973 9.14279 10.7808L13.3696 6.55392L1.40563 6.55392C1.09953 6.55392 0.851379 6.30576 0.851379 5.99967C0.851379 5.69357 1.09953 5.44541 1.40563 5.44541L13.3696 5.44541L9.14279 1.21863C8.92633 1.00218 8.92633 0.65125 9.14279 0.434796Z" fill="#212121" style="fill:#212121;fill:color(display-p3 0.1294 0.1294 0.1294);fill-opacity:1;"/>
</svg>
