<svg width="47" height="46" viewBox="0 0 47 46" fill="none" xmlns="http://www.w3.org/2000/svg">
<path d="M12.0333 28.6717C11.8224 28.6717 11.6202 28.7554 11.471 28.9045L7.09762 33.2779C6.6467 33.0169 6.12401 32.8666 5.56667 32.8666C3.87568 32.8666 2.5 34.2423 2.5 35.9333C2.5 37.6243 3.87568 39 5.56667 39C7.25765 39 8.63334 37.6243 8.63334 35.9333C8.63334 35.3759 8.48307 34.8532 8.22206 34.4023L12.3626 30.2617H20.6525C20.7066 30.5687 20.8508 30.8626 21.0875 31.0993L22.7624 32.7742C23.0595 33.0713 23.4545 33.235 23.8747 33.235C24.2948 33.235 24.69 33.0713 24.987 32.7742C25.6231 32.1379 26.4321 32.1527 26.977 32.3784C27.522 32.604 28.1043 33.1658 28.1043 34.0654C28.1043 34.9328 28.81 35.6385 29.6773 35.6385H32.0459C32.9132 35.6385 33.6189 34.9328 33.6189 34.0654C33.6189 33.1674 34.2015 32.6061 34.7469 32.3803C35.2923 32.1544 36.1013 32.1392 36.7362 32.7742C37.0333 33.0713 37.4283 33.235 37.8486 33.235C38.2688 33.235 38.6639 33.0713 38.9609 32.7742L40.6357 31.0993C40.9329 30.8022 41.0964 30.4072 41.0964 29.987C41.0964 29.5668 40.9329 29.1717 40.6357 28.8747C40.0008 28.2398 40.0159 27.4308 40.2418 26.8855C40.4678 26.3402 41.0291 25.7574 41.927 25.7574C42.7943 25.7574 43.5 25.0517 43.5 24.1843V21.8157C43.5 20.9484 42.7943 20.2427 41.927 20.2427C41.0291 20.2427 40.4678 19.66 40.2418 19.1146C40.0159 18.5693 40.0008 17.7603 40.6357 17.1254C40.9329 16.8283 41.0964 16.4332 41.0964 16.0131C41.0964 15.5928 40.9329 15.1977 40.6357 14.9008L38.9609 13.2258C38.6637 12.9287 38.2687 12.7651 37.8486 12.7651C37.4284 12.7651 37.0333 12.9287 36.7363 13.2258C36.1014 13.8607 35.2925 13.8457 34.747 13.6197C34.2016 13.3938 33.619 12.8325 33.619 11.9345C33.619 11.0671 32.9133 10.3614 32.046 10.3614H29.6774C28.8101 10.3614 28.1044 11.0671 28.1044 11.9345C28.1044 12.8325 27.5217 13.3938 26.9763 13.6197C26.431 13.8455 25.622 13.8607 24.987 13.2257C24.3736 12.6125 23.3756 12.6125 22.7624 13.2257L21.0875 14.9006C20.8563 15.1317 20.7072 15.4226 20.6518 15.7382H12.3625L8.22206 11.5977C8.48307 11.1468 8.63334 10.6241 8.63334 10.0667C8.63334 8.37569 7.25765 7 5.56667 7C3.87568 7 2.5 8.37569 2.5 10.0667C2.5 11.7577 3.87568 13.1334 5.56667 13.1334C6.12401 13.1334 6.6467 12.9831 7.09762 12.7222L11.471 17.0956C11.62 17.2448 11.8223 17.3285 12.0333 17.3285H21.2629C21.7154 17.9257 21.6838 18.6259 21.4813 19.1147C21.2554 19.6602 20.6941 20.2428 19.7961 20.2428C18.9288 20.2428 18.2232 20.9485 18.2232 21.8158V22.205H11.951C11.5998 20.8984 10.4055 19.9334 8.98953 19.9334C7.29854 19.9334 5.92286 21.3091 5.92286 23.0001C5.92286 24.6911 7.29854 26.0668 8.98953 26.0668C10.4055 26.0668 11.5998 25.1018 11.951 23.7952H18.2232V24.1844C18.2232 25.0518 18.9288 25.7575 19.7961 25.7575C20.6941 25.7575 21.2554 26.3402 21.4813 26.8856C21.6837 27.3743 21.7153 28.0746 21.2629 28.6718L12.0333 28.6717ZM5.56667 37.41C4.75253 37.41 4.09012 36.7476 4.09012 35.9334C4.09012 35.1193 4.75253 34.4569 5.56667 34.4569C6.38081 34.4569 7.04321 35.1193 7.04321 35.9334C7.0431 36.7476 6.38081 37.41 5.56667 37.41ZM5.56667 11.5432C4.75253 11.5432 4.09012 10.8808 4.09012 10.0667C4.09012 9.25253 4.75253 8.59013 5.56667 8.59013C6.38081 8.59013 7.04321 9.25253 7.04321 10.0667C7.04321 10.8808 6.38081 11.5432 5.56667 11.5432ZM8.98953 24.4767C8.17538 24.4767 7.51298 23.8143 7.51298 23.0001C7.51298 22.186 8.17538 21.5236 8.98953 21.5236C9.80367 21.5236 10.4661 22.186 10.4661 23.0001C10.4661 23.8143 9.80367 24.4767 8.98953 24.4767ZM19.8133 24.1674V21.8328C21.2125 21.8263 22.4136 21.0192 22.9505 19.7232C23.4874 18.4271 23.2086 17.0071 22.2239 16.0131L23.8748 14.3622C24.8688 15.347 26.2888 15.6255 27.5849 15.0888C28.881 14.5519 29.6881 13.3509 29.6945 11.9516H32.029C32.0354 13.3509 32.8425 14.552 34.1386 15.0888C35.4345 15.6255 36.8546 15.347 37.8487 14.3622L39.4996 16.0131C38.5147 17.0071 38.2361 18.427 38.773 19.7232C39.3098 21.0193 40.5109 21.8264 41.9101 21.8328V24.1674C40.5109 24.174 39.3098 24.9811 38.773 26.277C38.2361 27.5731 38.5147 28.993 39.4996 29.9871L37.8488 31.638C36.8548 30.6532 35.4348 30.3746 34.1386 30.9115C32.8425 31.4484 32.0354 32.6492 32.029 34.0487H29.6945C29.6881 32.648 28.8813 31.4463 27.5857 30.9096C26.2901 30.373 24.8698 30.6523 23.8748 31.6382L22.2239 29.9873C23.2088 28.9932 23.4874 27.5732 22.9505 26.2771C22.4137 24.9811 21.2126 24.174 19.8133 24.1674ZM30.8616 29.5829C34.4914 29.5829 37.4444 26.6299 37.4444 23.0001C37.4444 19.3703 34.4913 16.4173 30.8616 16.4173C27.2319 16.4173 24.2788 19.3703 24.2788 23.0001C24.2788 26.6299 27.2319 29.5829 30.8616 29.5829ZM30.8616 18.0076C33.6145 18.0076 35.8542 20.2473 35.8542 23.0002C35.8542 25.7532 33.6145 27.9929 30.8616 27.9929C28.1086 27.9929 25.8689 25.7532 25.8689 23.0002C25.8689 20.2473 28.1087 18.0076 30.8616 18.0076Z" fill="#212121" style="fill:#212121;fill:color(display-p3 0.1294 0.1294 0.1294);fill-opacity:1;"/>
</svg>
