<svg width="227" height="23" viewBox="0 0 227 23" fill="none" xmlns="http://www.w3.org/2000/svg">
<path d="M0.522991 15.1237C0.378503 15.9394 0.922652 16.7178 1.73838 16.8623L15.0315 19.2169C15.8472 19.3614 16.6256 18.8172 16.7701 18.0015C16.9146 17.1858 16.3704 16.4074 15.5547 16.2629L3.73863 14.1699L5.83157 2.35386C5.97606 1.53813 5.43191 0.759717 4.61618 0.61523C3.80045 0.470742 3.02204 1.01489 2.87755 1.83062L0.522991 15.1237ZM94.1754 13.8406C94.9151 13.4676 95.2124 12.5656 94.8394 11.8259C94.4664 11.0862 93.5643 10.7889 92.8246 11.1619L94.1754 13.8406ZM2.85941 16.6147C15.6533 7.67115 23.8058 5.07373 29.716 5.39276C35.5832 5.70947 39.5706 8.89817 44.1751 12.6658C48.7184 16.3833 53.7853 20.5848 61.5302 21.8154C69.2658 23.0446 79.4123 21.285 94.1754 13.8406L92.8246 11.1619C78.3377 18.467 68.8592 19.9424 62.001 18.8526C55.1522 17.7643 50.6566 14.093 46.0749 10.344C41.5544 6.6451 36.8543 2.77372 29.8777 2.39712C22.9442 2.02285 14.0967 5.09889 1.14059 14.1559L2.85941 16.6147Z" fill="#E43C3C"/>
<path d="M104.64 16.143C103.886 16.143 103.236 16.0217 102.69 15.779C102.153 15.5277 101.659 15.1507 101.208 14.648L102.534 13.335C102.829 13.673 103.154 13.9373 103.509 14.128C103.873 14.31 104.293 14.401 104.77 14.401C105.203 14.401 105.537 14.323 105.771 14.167C106.014 14.011 106.135 13.7943 106.135 13.517C106.135 13.2657 106.057 13.062 105.901 12.906C105.745 12.75 105.537 12.6157 105.277 12.503C105.026 12.3903 104.744 12.282 104.432 12.178C104.129 12.074 103.825 11.957 103.522 11.827C103.219 11.6883 102.937 11.5193 102.677 11.32C102.426 11.112 102.222 10.8563 102.066 10.553C101.91 10.241 101.832 9.851 101.832 9.383C101.832 8.81967 101.966 8.33433 102.235 7.927C102.512 7.51967 102.894 7.212 103.379 7.004C103.864 6.78733 104.423 6.679 105.056 6.679C105.697 6.679 106.282 6.79167 106.811 7.017C107.348 7.24233 107.79 7.55 108.137 7.94L106.811 9.253C106.534 8.967 106.252 8.75467 105.966 8.616C105.689 8.47733 105.372 8.408 105.017 8.408C104.662 8.408 104.38 8.47733 104.172 8.616C103.964 8.746 103.86 8.93667 103.86 9.188C103.86 9.422 103.938 9.61267 104.094 9.76C104.25 9.89867 104.454 10.02 104.705 10.124C104.965 10.228 105.247 10.332 105.55 10.436C105.862 10.54 106.17 10.6613 106.473 10.8C106.776 10.9387 107.054 11.1163 107.305 11.333C107.565 11.541 107.773 11.8097 107.929 12.139C108.085 12.4597 108.163 12.8583 108.163 13.335C108.163 14.2103 107.851 14.8993 107.227 15.402C106.603 15.896 105.741 16.143 104.64 16.143ZM111.882 16.13C111.301 16.13 110.781 15.987 110.322 15.701C109.871 15.415 109.512 15.025 109.243 14.531C108.983 14.037 108.853 13.4737 108.853 12.841C108.853 12.2083 108.983 11.645 109.243 11.151C109.512 10.657 109.871 10.267 110.322 9.981C110.781 9.695 111.301 9.552 111.882 9.552C112.307 9.552 112.688 9.63433 113.026 9.799C113.373 9.96367 113.654 10.1933 113.871 10.488C114.088 10.774 114.209 11.1033 114.235 11.476V14.206C114.209 14.5787 114.088 14.9123 113.871 15.207C113.663 15.493 113.386 15.7183 113.039 15.883C112.692 16.0477 112.307 16.13 111.882 16.13ZM112.285 14.336C112.71 14.336 113.052 14.1973 113.312 13.92C113.572 13.634 113.702 13.2743 113.702 12.841C113.702 12.5463 113.641 12.2863 113.52 12.061C113.407 11.8357 113.243 11.6623 113.026 11.541C112.818 11.411 112.575 11.346 112.298 11.346C112.021 11.346 111.774 11.411 111.557 11.541C111.349 11.6623 111.18 11.8357 111.05 12.061C110.929 12.2863 110.868 12.5463 110.868 12.841C110.868 13.127 110.929 13.3827 111.05 13.608C111.171 13.8333 111.34 14.011 111.557 14.141C111.774 14.271 112.016 14.336 112.285 14.336ZM113.624 16V14.297L113.923 12.763L113.624 11.229V9.682H115.574V16H113.624ZM118.963 16L116.285 9.682H118.43L120.25 14.947H119.314L121.134 9.682H123.24L120.562 15.987L118.963 16ZM126.912 16.143C126.227 16.143 125.616 16.0043 125.079 15.727C124.55 15.441 124.134 15.0467 123.831 14.544C123.528 14.0413 123.376 13.4737 123.376 12.841C123.376 12.2083 123.523 11.645 123.818 11.151C124.121 10.6483 124.529 10.254 125.04 9.968C125.551 9.682 126.128 9.539 126.769 9.539C127.393 9.539 127.943 9.67333 128.42 9.942C128.897 10.2107 129.269 10.5833 129.538 11.06C129.815 11.5367 129.954 12.0827 129.954 12.698C129.954 12.8107 129.945 12.932 129.928 13.062C129.919 13.1833 129.898 13.3263 129.863 13.491L124.416 13.504V12.139L129.018 12.126L128.16 12.698C128.151 12.334 128.095 12.035 127.991 11.801C127.887 11.5583 127.731 11.3763 127.523 11.255C127.324 11.125 127.077 11.06 126.782 11.06C126.47 11.06 126.197 11.1337 125.963 11.281C125.738 11.4197 125.56 11.619 125.43 11.879C125.309 12.139 125.248 12.4553 125.248 12.828C125.248 13.2007 125.313 13.5213 125.443 13.79C125.582 14.05 125.772 14.2537 126.015 14.401C126.266 14.5397 126.561 14.609 126.899 14.609C127.211 14.609 127.493 14.557 127.744 14.453C127.995 14.3403 128.216 14.1757 128.407 13.959L129.499 15.051C129.187 15.415 128.81 15.688 128.368 15.87C127.926 16.052 127.441 16.143 126.912 16.143ZM133 14.856L136.523 11.216C136.739 10.9993 136.913 10.8 137.043 10.618C137.173 10.436 137.268 10.267 137.329 10.111C137.389 9.94633 137.42 9.78167 137.42 9.617C137.42 9.26167 137.303 8.98433 137.069 8.785C136.843 8.577 136.544 8.473 136.172 8.473C135.808 8.473 135.478 8.57267 135.184 8.772C134.898 8.96267 134.62 9.279 134.352 9.721L132.987 8.538C133.351 7.92267 133.814 7.459 134.378 7.147C134.941 6.835 135.587 6.679 136.315 6.679C136.947 6.679 137.493 6.796 137.953 7.03C138.421 7.264 138.78 7.59767 139.032 8.031C139.292 8.46433 139.422 8.97133 139.422 9.552C139.422 9.916 139.374 10.254 139.279 10.566C139.183 10.8693 139.027 11.1727 138.811 11.476C138.603 11.7707 138.321 12.0957 137.966 12.451L135.522 14.882L133 14.856ZM133 16V14.856L134.729 14.258H139.604V16H133ZM144.367 16.143C143.631 16.143 142.963 15.9437 142.365 15.545C141.767 15.1463 141.295 14.5917 140.948 13.881C140.61 13.1617 140.441 12.334 140.441 11.398C140.441 10.4533 140.61 9.63 140.948 8.928C141.286 8.21733 141.75 7.667 142.339 7.277C142.929 6.87833 143.596 6.679 144.341 6.679C145.095 6.679 145.767 6.87833 146.356 7.277C146.946 7.667 147.409 8.21733 147.747 8.928C148.094 9.63867 148.267 10.4663 148.267 11.411C148.267 12.3557 148.094 13.1833 147.747 13.894C147.409 14.6047 146.946 15.1593 146.356 15.558C145.776 15.948 145.113 16.143 144.367 16.143ZM144.354 14.336C144.736 14.336 145.065 14.2277 145.342 14.011C145.62 13.7857 145.832 13.4563 145.979 13.023C146.135 12.581 146.213 12.0437 146.213 11.411C146.213 10.7697 146.135 10.2323 145.979 9.799C145.832 9.36567 145.62 9.04067 145.342 8.824C145.065 8.59867 144.731 8.486 144.341 8.486C143.969 8.486 143.639 8.59433 143.353 8.811C143.076 9.02767 142.864 9.35267 142.716 9.786C142.569 10.2193 142.495 10.7567 142.495 11.398C142.495 12.0393 142.569 12.5767 142.716 13.01C142.864 13.4433 143.076 13.7727 143.353 13.998C143.639 14.2233 143.973 14.336 144.354 14.336ZM151.037 10.514C150.681 10.514 150.356 10.4317 150.062 10.267C149.776 10.0937 149.546 9.864 149.373 9.578C149.199 9.28333 149.113 8.954 149.113 8.59C149.113 8.23467 149.199 7.914 149.373 7.628C149.546 7.342 149.776 7.11667 150.062 6.952C150.348 6.77867 150.668 6.692 151.024 6.692C151.396 6.692 151.726 6.77867 152.012 6.952C152.306 7.11667 152.54 7.342 152.714 7.628C152.887 7.914 152.974 8.23467 152.974 8.59C152.974 8.954 152.887 9.28333 152.714 9.578C152.54 9.864 152.306 10.0937 152.012 10.267C151.726 10.4317 151.401 10.514 151.037 10.514ZM151.037 9.162C151.201 9.162 151.336 9.11 151.44 9.006C151.544 8.902 151.596 8.76767 151.596 8.603C151.596 8.43833 151.544 8.304 151.44 8.2C151.336 8.096 151.201 8.044 151.037 8.044C150.881 8.044 150.751 8.096 150.647 8.2C150.543 8.304 150.491 8.43833 150.491 8.603C150.491 8.76767 150.543 8.902 150.647 9.006C150.751 9.11 150.881 9.162 151.037 9.162ZM155.223 16.13C154.867 16.13 154.542 16.0433 154.248 15.87C153.962 15.6967 153.732 15.467 153.559 15.181C153.385 14.8863 153.299 14.5613 153.299 14.206C153.299 13.842 153.385 13.5213 153.559 13.244C153.732 12.958 153.962 12.7283 154.248 12.555C154.534 12.3817 154.854 12.295 155.21 12.295C155.582 12.295 155.912 12.3817 156.198 12.555C156.492 12.7283 156.726 12.958 156.9 13.244C157.073 13.5213 157.16 13.842 157.16 14.206C157.16 14.5613 157.073 14.8863 156.9 15.181C156.726 15.4757 156.492 15.7097 156.198 15.883C155.912 16.0477 155.587 16.13 155.223 16.13ZM155.223 14.778C155.387 14.778 155.522 14.726 155.626 14.622C155.73 14.518 155.782 14.3793 155.782 14.206C155.782 14.05 155.73 13.92 155.626 13.816C155.522 13.7033 155.387 13.647 155.223 13.647C155.067 13.647 154.937 13.7033 154.833 13.816C154.729 13.92 154.677 14.05 154.677 14.206C154.677 14.3793 154.729 14.518 154.833 14.622C154.937 14.726 155.067 14.778 155.223 14.778ZM149.477 16L154.976 6.822H156.796L151.297 16H149.477ZM162.308 16L160.124 9.682H162.074L163.426 14.271L162.854 14.284L164.349 9.682H165.961L167.469 14.284L166.884 14.271L168.249 9.682H170.199L168.015 16H166.39L164.921 11.632H165.415L163.92 16H162.308ZM170.866 16V9.682H172.855V16H170.866ZM171.867 8.811C171.555 8.811 171.295 8.707 171.087 8.499C170.888 8.28233 170.788 8.02233 170.788 7.719C170.788 7.407 170.888 7.147 171.087 6.939C171.295 6.731 171.555 6.627 171.867 6.627C172.179 6.627 172.435 6.731 172.634 6.939C172.833 7.147 172.933 7.407 172.933 7.719C172.933 8.02233 172.833 8.28233 172.634 8.499C172.435 8.707 172.179 8.811 171.867 8.811ZM175.153 16V7.069H177.142V16H175.153ZM173.723 11.372V9.682H178.572V11.372H173.723ZM183.621 16V12.399C183.621 12.0697 183.517 11.8053 183.309 11.606C183.11 11.398 182.854 11.294 182.542 11.294C182.325 11.294 182.135 11.3417 181.97 11.437C181.805 11.5237 181.675 11.6537 181.58 11.827C181.485 11.9917 181.437 12.1823 181.437 12.399L180.67 12.022C180.67 11.528 180.774 11.0947 180.982 10.722C181.19 10.3493 181.48 10.0633 181.853 9.864C182.226 9.656 182.655 9.552 183.14 9.552C183.634 9.552 184.067 9.656 184.44 9.864C184.813 10.0633 185.099 10.345 185.298 10.709C185.506 11.0643 185.61 11.4803 185.61 11.957V16H183.621ZM179.448 16V6.562H181.437V16H179.448ZM191.313 16.026L188.713 9.682H190.858L192.509 14.713H191.716L193.406 9.682H195.551L192.847 16.026H191.313ZM189.688 18.665L191.586 14.57L192.847 16.026L191.729 18.665H189.688ZM199.199 16.143C198.514 16.143 197.903 16.0043 197.366 15.727C196.837 15.441 196.421 15.0467 196.118 14.544C195.815 14.0413 195.663 13.4737 195.663 12.841C195.663 12.2083 195.81 11.645 196.105 11.151C196.408 10.6483 196.816 10.254 197.327 9.968C197.838 9.682 198.415 9.539 199.056 9.539C199.68 9.539 200.23 9.67333 200.707 9.942C201.184 10.2107 201.556 10.5833 201.825 11.06C202.102 11.5367 202.241 12.0827 202.241 12.698C202.241 12.8107 202.232 12.932 202.215 13.062C202.206 13.1833 202.185 13.3263 202.15 13.491L196.703 13.504V12.139L201.305 12.126L200.447 12.698C200.438 12.334 200.382 12.035 200.278 11.801C200.174 11.5583 200.018 11.3763 199.81 11.255C199.611 11.125 199.364 11.06 199.069 11.06C198.757 11.06 198.484 11.1337 198.25 11.281C198.025 11.4197 197.847 11.619 197.717 11.879C197.596 12.139 197.535 12.4553 197.535 12.828C197.535 13.2007 197.6 13.5213 197.73 13.79C197.869 14.05 198.059 14.2537 198.302 14.401C198.553 14.5397 198.848 14.609 199.186 14.609C199.498 14.609 199.78 14.557 200.031 14.453C200.282 14.3403 200.503 14.1757 200.694 13.959L201.786 15.051C201.474 15.415 201.097 15.688 200.655 15.87C200.213 16.052 199.728 16.143 199.199 16.143ZM205.84 16.13C205.259 16.13 204.739 15.987 204.28 15.701C203.829 15.415 203.47 15.025 203.201 14.531C202.941 14.037 202.811 13.4737 202.811 12.841C202.811 12.2083 202.941 11.645 203.201 11.151C203.47 10.657 203.829 10.267 204.28 9.981C204.739 9.695 205.259 9.552 205.84 9.552C206.265 9.552 206.646 9.63433 206.984 9.799C207.331 9.96367 207.612 10.1933 207.829 10.488C208.046 10.774 208.167 11.1033 208.193 11.476V14.206C208.167 14.5787 208.046 14.9123 207.829 15.207C207.621 15.493 207.344 15.7183 206.997 15.883C206.65 16.0477 206.265 16.13 205.84 16.13ZM206.243 14.336C206.668 14.336 207.01 14.1973 207.27 13.92C207.53 13.634 207.66 13.2743 207.66 12.841C207.66 12.5463 207.599 12.2863 207.478 12.061C207.365 11.8357 207.201 11.6623 206.984 11.541C206.776 11.411 206.533 11.346 206.256 11.346C205.979 11.346 205.732 11.411 205.515 11.541C205.307 11.6623 205.138 11.8357 205.008 12.061C204.887 12.2863 204.826 12.5463 204.826 12.841C204.826 13.127 204.887 13.3827 205.008 13.608C205.129 13.8333 205.298 14.011 205.515 14.141C205.732 14.271 205.974 14.336 206.243 14.336ZM207.582 16V14.297L207.881 12.763L207.582 11.229V9.682H209.532V16H207.582ZM210.932 16V9.682H212.921V16H210.932ZM212.921 12.529L212.089 11.879C212.254 11.1423 212.531 10.5703 212.921 10.163C213.311 9.75567 213.853 9.552 214.546 9.552C214.85 9.552 215.114 9.59967 215.339 9.695C215.573 9.78167 215.777 9.92033 215.95 10.111L214.767 11.606C214.681 11.5107 214.572 11.437 214.442 11.385C214.312 11.333 214.165 11.307 214 11.307C213.671 11.307 213.407 11.411 213.207 11.619C213.017 11.8183 212.921 12.1217 212.921 12.529ZM216.48 16V6.562H218.469V16H216.48ZM221.82 16.026L219.22 9.682H221.365L223.016 14.713H222.223L223.913 9.682H226.058L223.354 16.026H221.82ZM220.195 18.665L222.093 14.57L223.354 16.026L222.236 18.665H220.195Z" fill="#E43C3C"/>
</svg>
