<svg width="42" height="42" viewBox="0 0 42 42" fill="none" xmlns="http://www.w3.org/2000/svg">
<path d="M36.1758 11.5255V39.2521C36.1758 40.745 34.9699 41.9509 33.477 41.9509H8.52305C7.03008 41.9509 5.82422 40.745 5.82422 39.2521V2.74814C5.82422 1.25518 7.03008 0.0493164 8.52305 0.0493164H24.6996L36.1758 11.5255Z" fill="#23A566" style="fill:#23A566;fill:color(display-p3 0.1373 0.6471 0.4000);fill-opacity:1;"/>
<path d="M27.6359 20.9097H14.3633C13.8875 20.9097 13.502 21.2952 13.502 21.771V33.3292C13.502 33.805 13.8875 34.1905 14.3633 34.1905H27.6441C28.1199 34.1905 28.5055 33.805 28.5055 33.3292V21.7792C28.4973 21.3034 28.1117 20.9097 27.6359 20.9097ZM15.2246 26.455H20.1383V28.6452H15.2246V26.455ZM21.8609 26.455H26.7746V28.6452H21.8609V26.455ZM26.7746 24.7323H21.8609V22.6405H26.7746V24.7323ZM20.1383 22.6405V24.7323H15.2246V22.6405H20.1383ZM15.2246 30.3761H20.1383V32.4679H15.2246V30.3761ZM21.8609 32.4679V30.3761H26.7746V32.4679H21.8609Z" fill="white" style="fill:white;fill-opacity:1;"/>
<path opacity="0.19" d="M26.2422 11.107L36.1762 19.1543V11.5992L30.5406 8.32617L26.2422 11.107Z" fill="black" style="fill:black;fill-opacity:1;"/>
<path d="M36.1754 11.5255H27.398C25.9051 11.5255 24.6992 10.3196 24.6992 8.82666V0.0493164L36.1754 11.5255Z" fill="#8ED1B1" style="fill:#8ED1B1;fill:color(display-p3 0.5569 0.8196 0.6941);fill-opacity:1;"/>
</svg>
