<svg width="42" height="42" viewBox="0 0 42 42" fill="none" xmlns="http://www.w3.org/2000/svg">
<path d="M34.9318 8.08742C34.9028 7.87537 34.7171 7.75807 34.5639 7.74527C34.4107 7.73247 31.421 7.68703 31.421 7.68703C31.421 7.68703 28.9206 5.25866 28.6736 5.0115C28.4266 4.76434 27.9441 4.83931 27.7569 4.89444C27.7541 4.89526 27.2876 5.03971 26.5004 5.28343C26.3691 4.8567 26.1753 4.3326 25.8992 3.80596C25.0088 2.10759 23.7054 1.20861 22.13 1.20631C22.1282 1.20631 22.1266 1.20631 22.1247 1.20631C22.0155 1.20631 21.9066 1.21657 21.7977 1.22649C21.7514 1.17071 21.7046 1.11542 21.6553 1.06267C20.9694 0.328577 20.0887 -0.0290791 19.0345 0.00184672C16.9995 0.0601709 14.9739 1.5296 13.3308 4.13917C12.1743 5.97585 11.2957 8.28315 11.0458 10.0689C8.7097 10.7923 7.07523 11.2985 7.03987 11.3096C5.86068 11.6797 5.8236 11.7167 5.66897 12.8277C5.55191 13.6687 2.4668 37.5282 2.4668 37.5282L28.3258 41.9999L39.5333 39.2142C39.5333 39.2142 34.9608 8.29947 34.9318 8.08742ZM12.4945 9.62017C13.1937 6.35074 15.9332 1.44584 19.0736 1.35553C19.5514 1.34552 19.9537 1.45035 20.2974 1.67651C19.7477 1.9619 19.2161 2.37206 18.7174 2.9069C17.4249 4.29339 16.4349 6.44622 16.0401 8.52219C14.808 8.90371 13.603 9.27687 12.4945 9.62017ZM21.8455 6.72464C20.4909 7.14406 19.0119 7.60204 17.5283 8.06142C17.946 6.46361 18.7366 4.87278 19.7082 3.83057C20.0696 3.44289 20.5753 3.01026 21.1739 2.76326C21.7372 3.93689 21.8591 5.60064 21.8455 6.72464ZM23.1982 6.30578C23.1832 5.27539 23.0602 3.84222 22.5802 2.6033C24.1241 2.89583 24.8843 4.64276 25.2051 5.6844C24.6101 5.86856 23.9324 6.07839 23.1982 6.30578Z" fill="#95BF47" style="fill:#95BF47;fill:color(display-p3 0.5843 0.7490 0.2784);fill-opacity:1;"/>
<path d="M34.5636 7.7453C34.4104 7.7325 31.4207 7.68705 31.4207 7.68705C31.4207 7.68705 28.9203 5.25868 28.6733 5.01152C28.5812 4.91932 28.4563 4.87215 28.3262 4.85181L28.3268 41.9997L39.533 39.2142C39.533 39.2142 34.9605 8.2995 34.9315 8.08745C34.9025 7.8754 34.7167 7.75809 34.5636 7.7453Z" fill="#5E8E3E" style="fill:#5E8E3E;fill:color(display-p3 0.3686 0.5569 0.2431);fill-opacity:1;"/>
<path d="M22.115 13.5078L20.8133 18.3772C20.8133 18.3772 19.3613 17.716 17.6399 17.8247C15.1159 17.9841 15.089 19.5763 15.1142 19.9753C15.2517 22.1531 20.9809 22.629 21.303 27.7298C21.5564 31.743 19.1744 34.4881 15.7421 34.7048C11.6234 34.9648 9.35547 32.5345 9.35547 32.5345L10.2282 28.8214C10.2282 28.8214 12.5106 30.5434 14.3376 30.428C15.5309 30.3526 15.9573 29.382 15.914 28.6956C15.7346 25.8547 11.0693 26.022 10.7746 21.3542C10.5265 17.4256 13.1063 13.4457 18.7986 13.0862C20.9918 12.9478 22.115 13.5078 22.115 13.5078Z" fill="white" style="fill:white;fill-opacity:1;"/>
</svg>
