<svg width="60" height="60" viewBox="0 0 60 60" fill="none" xmlns="http://www.w3.org/2000/svg">
<path d="M29.5312 57.6562C29.4398 57.6562 29.347 57.6497 29.2538 57.6361C28.5361 57.5283 27.9436 57.0155 27.735 56.3194L16.485 18.8194C16.2872 18.1594 16.4677 17.4431 16.9556 16.9552C17.4445 16.4672 18.165 16.2858 18.8198 16.4845L56.3198 27.7345C57.0155 27.9431 57.5283 28.5356 57.6366 29.2533C57.7439 29.9719 57.4261 30.6881 56.8219 31.0908L47.4755 37.3219L57.1078 46.9552C57.8405 47.6878 57.8405 48.8742 57.1078 49.6064L49.6078 57.1064C48.8752 57.8391 47.6888 57.8391 46.9566 57.1064L37.3233 47.4741L31.0922 56.8205C30.7406 57.3478 30.1519 57.6562 29.5312 57.6562ZM37.0312 42.6562C37.5267 42.6562 38.0034 42.8522 38.3569 43.2056L48.2812 53.13L53.1295 48.2812L43.2056 38.3569C42.8081 37.9594 42.6103 37.4058 42.6656 36.8461C42.7205 36.2878 43.0237 35.782 43.4916 35.4708L51.4256 30.1819L21.0787 21.0778L30.1828 51.4247L35.4717 43.4906C35.783 43.0228 36.2883 42.7195 36.847 42.6647C36.9084 42.6591 36.9698 42.6562 37.0312 42.6562ZM12.1069 12.1069C12.8395 11.3742 12.8395 10.1878 12.1069 9.45563L8.35687 5.70562C7.62422 4.97297 6.43781 4.97297 5.70562 5.70562C4.97344 6.43828 4.97297 7.62469 5.70562 8.35687L9.45563 12.1069C9.82172 12.473 10.3012 12.6562 10.7812 12.6562C11.2613 12.6562 11.7408 12.473 12.1069 12.1069ZM10.7812 18.2812C10.7812 17.2458 9.94172 16.4062 8.90625 16.4062H3.28125C2.24578 16.4062 1.40625 17.2458 1.40625 18.2812C1.40625 19.3167 2.24578 20.1562 3.28125 20.1562H8.90625C9.94172 20.1562 10.7812 19.3167 10.7812 18.2812ZM8.35687 30.8569L12.1069 27.1069C12.8395 26.3742 12.8395 25.1878 12.1069 24.4556C11.3742 23.7234 10.1878 23.723 9.45563 24.4556L5.70562 28.2056C4.97297 28.9383 4.97297 30.1247 5.70562 30.8569C6.07172 31.223 6.55125 31.4062 7.03125 31.4062C7.51125 31.4062 7.99078 31.223 8.35687 30.8569ZM27.1069 12.1069L30.8569 8.35687C31.5895 7.62422 31.5895 6.43781 30.8569 5.70562C30.1242 4.97344 28.9378 4.97297 28.2056 5.70562L24.4556 9.45563C23.723 10.1883 23.723 11.3747 24.4556 12.1069C24.8217 12.473 25.3012 12.6562 25.7812 12.6562C26.2613 12.6562 26.7408 12.473 27.1069 12.1069ZM20.1562 8.90625V3.28125C20.1562 2.24578 19.3167 1.40625 18.2812 1.40625C17.2458 1.40625 16.4062 2.24578 16.4062 3.28125V8.90625C16.4062 9.94172 17.2458 10.7812 18.2812 10.7812C19.3167 10.7812 20.1562 9.94172 20.1562 8.90625Z" fill="#24282C"/>
</svg>
