<svg width="42" height="42" viewBox="0 0 42 42" fill="none" xmlns="http://www.w3.org/2000/svg">
<g clip-path="url(#clip0_530_670)">
<path d="M15.3747 22.2305C12.9517 22.2305 10.9805 24.2017 10.9805 26.6247V37.6057C10.9805 40.0287 12.9517 41.9999 15.3747 41.9999C17.7978 42 19.769 40.0288 19.769 37.6058V26.6247C19.769 24.2017 17.7978 22.2305 15.3747 22.2305Z" fill="#FF4340" style="fill:#FF4340;fill:color(display-p3 1.0000 0.2627 0.2510);fill-opacity:1;"/>
<path d="M8.52 22.2305H4.26586C1.92009 22.2305 0.0117188 24.1389 0.0117188 26.4846C0.0117188 28.8304 1.92018 30.7387 4.26586 30.7387C6.61154 30.7387 8.52 28.8303 8.52 26.4846V22.2305Z" fill="#FF4340" style="fill:#FF4340;fill:color(display-p3 1.0000 0.2627 0.2510);fill-opacity:1;"/>
<path d="M0 15.3752C0 17.7982 1.97121 19.7695 4.39425 19.7695H15.3752C17.7983 19.7695 19.7695 17.7982 19.7695 15.3752C19.7695 12.9522 17.7983 10.981 15.3753 10.981H4.39425C1.97121 10.9809 0 12.9522 0 15.3752Z" fill="#36C6FF" style="fill:#36C6FF;fill:color(display-p3 0.2118 0.7765 1.0000);fill-opacity:1;"/>
<path d="M15.5159 8.52H19.77V4.26586C19.77 1.92009 17.8615 0.0117188 15.5159 0.0117188C13.1701 0.0117188 11.2617 1.92018 11.2617 4.26586C11.2617 6.61154 13.1701 8.52 15.5159 8.52Z" fill="#36C6FF" style="fill:#36C6FF;fill:color(display-p3 0.2118 0.7765 1.0000);fill-opacity:1;"/>
<path d="M26.6247 19.7695C29.0478 19.7695 31.019 17.7983 31.019 15.3753V4.39425C31.019 1.97121 29.0478 0 26.6247 0C24.2017 0 22.2305 1.97121 22.2305 4.39425V15.3752C22.2305 17.7983 24.2017 19.7695 26.6247 19.7695Z" fill="#0DC46E" style="fill:#0DC46E;fill:color(display-p3 0.0510 0.7686 0.4314);fill-opacity:1;"/>
<path d="M33.4805 19.7695H37.7346C40.0804 19.7695 41.9887 17.8611 41.9887 15.5154C41.9887 13.1696 40.0803 11.2612 37.7346 11.2612C35.3889 11.2612 33.4805 13.1697 33.4805 15.5154V19.7695Z" fill="#0DC46E" style="fill:#0DC46E;fill:color(display-p3 0.0510 0.7686 0.4314);fill-opacity:1;"/>
<path d="M42 26.6247C42 24.2017 40.0288 22.2305 37.6058 22.2305H26.6247C24.2017 22.2305 22.2305 24.2017 22.2305 26.6247C22.2305 29.0478 24.2017 31.019 26.6247 31.019H37.6057C40.0288 31.019 42 29.0478 42 26.6247Z" fill="#FDCB02" style="fill:#FDCB02;fill:color(display-p3 0.9922 0.7961 0.0078);fill-opacity:1;"/>
<path d="M26.4846 33.48H22.2305V37.7341C22.2305 40.0799 24.1389 41.9883 26.4846 41.9883C28.8304 41.9883 30.7387 40.0798 30.7387 37.7341C30.7387 35.3884 28.8304 33.48 26.4846 33.48Z" fill="#FDCB02" style="fill:#FDCB02;fill:color(display-p3 0.9922 0.7961 0.0078);fill-opacity:1;"/>
</g>
<defs>
<clipPath id="clip0_530_670">
<rect width="42" height="42" fill="white" style="fill:white;fill-opacity:1;"/>
</clipPath>
</defs>
</svg>
