<svg width="1022" height="382" viewBox="0 0 1022 382" fill="none" xmlns="http://www.w3.org/2000/svg">
<path d="M822.354 36.8536C822.549 36.6583 822.549 36.3417 822.354 36.1464L819.172 32.9645C818.976 32.7692 818.66 32.7692 818.464 32.9645C818.269 33.1597 818.269 33.4763 818.464 33.6716L821.293 36.5L818.464 39.3284C818.269 39.5237 818.269 39.8403 818.464 40.0355C818.66 40.2308 818.976 40.2308 819.172 40.0355L822.354 36.8536ZM572 37H822V36H572V37Z" fill="#A5A5A5"/>
<rect x="0.5" y="36.5" width="132" height="77" rx="10.5" fill="white"/>
<rect x="0.5" y="36.5" width="132" height="77" rx="10.5" stroke="#1D4ED8"/>
<path d="M55.666 56.2082C55.666 52.4165 57.8327 50.7915 61.0827 50.7915H71.916C75.166 50.7915 77.3327 52.4165 77.3327 56.2082V63.7915C77.3327 67.5832 75.166 69.2082 71.916 69.2082H61.0827" stroke="#1D4ED8" stroke-width="2" stroke-miterlimit="10" stroke-linecap="round" stroke-linejoin="round"/>
<path d="M71.9173 56.75L68.5265 59.4583C67.4106 60.3467 65.5798 60.3467 64.464 59.4583L61.084 56.75" stroke="#1D4ED8" stroke-width="2" stroke-miterlimit="10" stroke-linecap="round" stroke-linejoin="round"/>
<path d="M55.666 64.875H62.166" stroke="#1D4ED8" stroke-width="2" stroke-miterlimit="10" stroke-linecap="round" stroke-linejoin="round"/>
<path d="M55.666 60.5415H58.916" stroke="#1D4ED8" stroke-width="2" stroke-miterlimit="10" stroke-linecap="round" stroke-linejoin="round"/>
<path d="M43.8992 99V85H52.4892V86.68H45.5792V90.66H51.2392V92.34H45.5792V97.32H52.4892V99H43.8992ZM54.6805 99V89H56.3605V90.25C56.7138 89.7833 57.1571 89.4133 57.6905 89.14C58.2305 88.86 58.8171 88.72 59.4505 88.72C60.1905 88.72 60.8671 88.9 61.4805 89.26C62.0938 89.62 62.5771 90.0967 62.9305 90.69C63.2838 90.0967 63.7638 89.62 64.3705 89.26C64.9838 88.9 65.6571 88.72 66.3905 88.72C67.1438 88.72 67.8271 88.9033 68.4405 89.27C69.0538 89.63 69.5405 90.1167 69.9005 90.73C70.2671 91.3433 70.4505 92.0267 70.4505 92.78V99H68.7705V93.18C68.7705 92.6867 68.6505 92.23 68.4105 91.81C68.1705 91.39 67.8471 91.0533 67.4405 90.8C67.0338 90.5467 66.5838 90.42 66.0905 90.42C65.5971 90.42 65.1471 90.54 64.7405 90.78C64.3338 91.0133 64.0105 91.34 63.7705 91.76C63.5305 92.1733 63.4105 92.6467 63.4105 93.18V99H61.7305V93.18C61.7305 92.6467 61.6105 92.1733 61.3705 91.76C61.1305 91.34 60.8038 91.0133 60.3905 90.78C59.9838 90.54 59.5338 90.42 59.0405 90.42C58.5538 90.42 58.1038 90.5467 57.6905 90.8C57.2838 91.0533 56.9605 91.39 56.7205 91.81C56.4805 92.23 56.3605 92.6867 56.3605 93.18V99H54.6805ZM80.2986 89H81.9786V99H80.2986L80.2286 97.31C79.9153 97.89 79.4819 98.36 78.9286 98.72C78.3819 99.08 77.7286 99.26 76.9686 99.26C76.2353 99.26 75.5486 99.1233 74.9086 98.85C74.2686 98.57 73.7019 98.1867 73.2086 97.7C72.7219 97.2067 72.3419 96.64 72.0686 96C71.7953 95.36 71.6586 94.67 71.6586 93.93C71.6586 93.2167 71.7919 92.5433 72.0586 91.91C72.3253 91.2767 72.6953 90.7233 73.1686 90.25C73.6486 89.77 74.2019 89.3967 74.8286 89.13C75.4553 88.8567 76.1286 88.72 76.8486 88.72C77.6353 88.72 78.3253 88.9067 78.9186 89.28C79.5119 89.6467 79.9919 90.1233 80.3586 90.71L80.2986 89ZM76.9386 97.63C77.5986 97.63 78.1686 97.47 78.6486 97.15C79.1353 96.8233 79.5086 96.3833 79.7686 95.83C80.0353 95.2767 80.1686 94.6667 80.1686 94C80.1686 93.32 80.0353 92.7067 79.7686 92.16C79.5019 91.6067 79.1253 91.17 78.6386 90.85C78.1586 90.5233 77.5919 90.36 76.9386 90.36C76.2786 90.36 75.6786 90.5233 75.1386 90.85C74.5986 91.1767 74.1686 91.6167 73.8486 92.17C73.5353 92.7167 73.3786 93.3267 73.3786 94C73.3786 94.6733 73.5419 95.2867 73.8686 95.84C74.1953 96.3867 74.6286 96.8233 75.1686 97.15C75.7086 97.47 76.2986 97.63 76.9386 97.63ZM83.9773 89H85.6573V99H83.9773V89ZM84.8373 87.37C84.5707 87.37 84.3473 87.2833 84.1673 87.11C83.9873 86.9367 83.8973 86.72 83.8973 86.46C83.8973 86.2 83.9873 85.9833 84.1673 85.81C84.3473 85.6367 84.5673 85.55 84.8273 85.55C85.0873 85.55 85.3073 85.6367 85.4873 85.81C85.6673 85.9833 85.7573 86.2 85.7573 86.46C85.7573 86.72 85.6673 86.9367 85.4873 87.11C85.314 87.2833 85.0973 87.37 84.8373 87.37ZM88.118 99V84H89.798V99H88.118Z" fill="#1D4ED8"/>
<rect x="0.5" y="160.5" width="132" height="75" rx="10.5" fill="white"/>
<rect x="0.5" y="160.5" width="132" height="75" rx="10.5" stroke="#059669"/>
<g clip-path="url(#clip0_471_3563)">
<path fill-rule="evenodd" clip-rule="evenodd" d="M74.9626 174.488C72.7166 172.24 69.7306 171.001 66.5496 171C59.9946 171 54.6596 176.334 54.6566 182.892C54.6556 184.988 55.2036 187.034 56.2446 188.838L54.5566 195L60.8606 193.346C62.5976 194.294 64.5536 194.793 66.5436 194.794H66.5486C73.1026 194.794 78.4386 189.459 78.4416 182.901C78.4436 179.724 77.2076 176.735 74.9626 174.488ZM66.5496 192.785H66.5456C64.7716 192.785 63.0326 192.308 61.5146 191.407L61.1536 191.193L57.4126 192.174L58.4116 188.526L58.1766 188.152C57.1866 186.578 56.6646 184.759 56.6656 182.892C56.6676 177.442 61.1026 173.008 66.5546 173.008C69.1946 173.008 71.6766 174.038 73.5426 175.906C75.4086 177.775 76.4356 180.258 76.4346 182.899C76.4316 188.351 71.9976 192.785 66.5496 192.785ZM71.9716 185.382C71.6746 185.233 70.2136 184.514 69.9406 184.415C69.6686 184.316 69.4706 184.266 69.2716 184.563C69.0726 184.86 68.5046 185.53 68.3306 185.729C68.1576 185.927 67.9836 185.952 67.6866 185.803C67.3896 185.654 66.4316 185.341 65.2966 184.328C64.4136 183.54 63.8166 182.567 63.6436 182.269C63.4706 181.971 63.6256 181.811 63.7736 181.663C63.9076 181.53 64.0706 181.316 64.2196 181.142C64.3696 180.97 64.4186 180.846 64.5186 180.647C64.6176 180.449 64.5686 180.275 64.4936 180.126C64.4186 179.978 63.8246 178.515 63.5776 177.92C63.3366 177.34 63.0916 177.419 62.9086 177.41C62.7356 177.401 62.5376 177.4 62.3386 177.4C62.1406 177.4 61.8186 177.474 61.5466 177.772C61.2746 178.07 60.5066 178.789 60.5066 180.251C60.5066 181.714 61.5716 183.127 61.7196 183.325C61.8676 183.523 63.8146 186.525 66.7956 187.812C67.5046 188.118 68.0586 188.301 68.4896 188.438C69.2016 188.664 69.8496 188.632 70.3616 188.556C70.9326 188.471 72.1196 187.837 72.3676 187.143C72.6156 186.449 72.6156 185.853 72.5406 185.73C72.4666 185.605 72.2686 185.531 71.9716 185.382Z" fill="#059669"/>
</g>
<path d="M25.1439 221L21.5639 207H23.2939L26.1139 218.05L28.9239 207H30.4339L33.2539 218.05L36.0639 207H37.7939L34.2339 221H32.2739L29.6839 210.86L27.0939 221H25.1439ZM48.4463 214.78V221H46.7663V215.15C46.7663 214.643 46.6429 214.183 46.3963 213.77C46.1496 213.357 45.8196 213.03 45.4063 212.79C44.9929 212.543 44.5329 212.42 44.0263 212.42C43.5263 212.42 43.0663 212.543 42.6463 212.79C42.2329 213.03 41.9029 213.357 41.6563 213.77C41.4096 214.183 41.2863 214.643 41.2863 215.15V221H39.6063V206H41.2863V212.25C41.6396 211.783 42.0863 211.413 42.6263 211.14C43.1663 210.86 43.7529 210.72 44.3863 210.72C45.1329 210.72 45.8129 210.903 46.4263 211.27C47.0463 211.63 47.5363 212.117 47.8963 212.73C48.2629 213.343 48.4463 214.027 48.4463 214.78ZM58.2908 211H59.9708V221H58.2908L58.2208 219.31C57.9074 219.89 57.4741 220.36 56.9208 220.72C56.3741 221.08 55.7208 221.26 54.9608 221.26C54.2274 221.26 53.5408 221.123 52.9008 220.85C52.2608 220.57 51.6941 220.187 51.2008 219.7C50.7141 219.207 50.3341 218.64 50.0608 218C49.7874 217.36 49.6508 216.67 49.6508 215.93C49.6508 215.217 49.7841 214.543 50.0508 213.91C50.3174 213.277 50.6874 212.723 51.1608 212.25C51.6408 211.77 52.1941 211.397 52.8208 211.13C53.4474 210.857 54.1208 210.72 54.8408 210.72C55.6274 210.72 56.3174 210.907 56.9108 211.28C57.5041 211.647 57.9841 212.123 58.3508 212.71L58.2908 211ZM54.9308 219.63C55.5908 219.63 56.1608 219.47 56.6408 219.15C57.1274 218.823 57.5008 218.383 57.7608 217.83C58.0274 217.277 58.1608 216.667 58.1608 216C58.1608 215.32 58.0274 214.707 57.7608 214.16C57.4941 213.607 57.1174 213.17 56.6308 212.85C56.1508 212.523 55.5841 212.36 54.9308 212.36C54.2708 212.36 53.6708 212.523 53.1308 212.85C52.5908 213.177 52.1608 213.617 51.8408 214.17C51.5274 214.717 51.3708 215.327 51.3708 216C51.3708 216.673 51.5341 217.287 51.8608 217.84C52.1874 218.387 52.6208 218.823 53.1608 219.15C53.7008 219.47 54.2908 219.63 54.9308 219.63ZM67.1495 212.68H64.8795L64.8695 221H63.1895L63.1995 212.68H61.4795V211H63.1995L63.1895 207.86H64.8695L64.8795 211H67.1495V212.68ZM71.8945 221.19C71.3545 221.17 70.8279 221.07 70.3145 220.89C69.8079 220.703 69.3612 220.453 68.9745 220.14C68.5945 219.82 68.3179 219.453 68.1445 219.04L69.5845 218.42C69.6845 218.647 69.8645 218.86 70.1245 219.06C70.3845 219.26 70.6845 219.42 71.0245 219.54C71.3645 219.66 71.7079 219.72 72.0545 219.72C72.4212 219.72 72.7645 219.663 73.0845 219.55C73.4045 219.437 73.6645 219.27 73.8645 219.05C74.0712 218.823 74.1745 218.553 74.1745 218.24C74.1745 217.907 74.0612 217.647 73.8345 217.46C73.6145 217.267 73.3345 217.117 72.9945 217.01C72.6612 216.897 72.3212 216.79 71.9745 216.69C71.2879 216.517 70.6745 216.31 70.1345 216.07C69.5945 215.823 69.1679 215.513 68.8545 215.14C68.5479 214.76 68.3945 214.277 68.3945 213.69C68.3945 213.07 68.5645 212.533 68.9045 212.08C69.2512 211.627 69.7045 211.277 70.2645 211.03C70.8245 210.783 71.4245 210.66 72.0645 210.66C72.8712 210.66 73.6079 210.833 74.2745 211.18C74.9412 211.527 75.4379 211.997 75.7645 212.59L74.4145 213.38C74.3012 213.14 74.1279 212.93 73.8945 212.75C73.6612 212.563 73.3945 212.417 73.0945 212.31C72.7945 212.203 72.4879 212.147 72.1745 212.14C71.7879 212.127 71.4245 212.177 71.0845 212.29C70.7512 212.403 70.4812 212.577 70.2745 212.81C70.0745 213.037 69.9745 213.32 69.9745 213.66C69.9745 213.993 70.0812 214.247 70.2945 214.42C70.5145 214.593 70.7979 214.733 71.1445 214.84C71.4979 214.94 71.8812 215.057 72.2945 215.19C72.9012 215.383 73.4679 215.607 73.9945 215.86C74.5212 216.113 74.9445 216.43 75.2645 216.81C75.5912 217.19 75.7512 217.66 75.7445 218.22C75.7445 218.833 75.5612 219.37 75.1945 219.83C74.8279 220.283 74.3512 220.63 73.7645 220.87C73.1845 221.11 72.5612 221.217 71.8945 221.19ZM85.4002 211H87.0802V221H85.4002L85.3302 219.31C85.0168 219.89 84.5835 220.36 84.0302 220.72C83.4835 221.08 82.8302 221.26 82.0702 221.26C81.3368 221.26 80.6502 221.123 80.0102 220.85C79.3702 220.57 78.8035 220.187 78.3102 219.7C77.8235 219.207 77.4435 218.64 77.1702 218C76.8968 217.36 76.7602 216.67 76.7602 215.93C76.7602 215.217 76.8935 214.543 77.1602 213.91C77.4268 213.277 77.7968 212.723 78.2702 212.25C78.7502 211.77 79.3035 211.397 79.9302 211.13C80.5568 210.857 81.2302 210.72 81.9502 210.72C82.7368 210.72 83.4268 210.907 84.0202 211.28C84.6135 211.647 85.0935 212.123 85.4602 212.71L85.4002 211ZM82.0402 219.63C82.7002 219.63 83.2702 219.47 83.7502 219.15C84.2368 218.823 84.6102 218.383 84.8702 217.83C85.1368 217.277 85.2702 216.667 85.2702 216C85.2702 215.32 85.1368 214.707 84.8702 214.16C84.6035 213.607 84.2268 213.17 83.7402 212.85C83.2602 212.523 82.6935 212.36 82.0402 212.36C81.3802 212.36 80.7802 212.523 80.2402 212.85C79.7002 213.177 79.2702 213.617 78.9502 214.17C78.6368 214.717 78.4802 215.327 78.4802 216C78.4802 216.673 78.6435 217.287 78.9702 217.84C79.2968 218.387 79.7302 218.823 80.2702 219.15C80.8102 219.47 81.4002 219.63 82.0402 219.63ZM90.7589 226H89.0789V211H90.7589V212.71C91.0989 212.123 91.5522 211.65 92.1189 211.29C92.6856 210.923 93.3589 210.74 94.1389 210.74C94.8656 210.74 95.5456 210.877 96.1789 211.15C96.8189 211.423 97.3789 211.803 97.8589 212.29C98.3389 212.77 98.7156 213.327 98.9889 213.96C99.2622 214.593 99.3989 215.273 99.3989 216C99.3989 216.727 99.2622 217.41 98.9889 218.05C98.7156 218.69 98.3389 219.253 97.8589 219.74C97.3789 220.22 96.8189 220.597 96.1789 220.87C95.5456 221.143 94.8656 221.28 94.1389 221.28C93.3589 221.28 92.6856 221.1 92.1189 220.74C91.5522 220.373 91.0989 219.897 90.7589 219.31V226ZM94.1189 212.37C93.4722 212.37 92.9056 212.533 92.4189 212.86C91.9322 213.187 91.5556 213.623 91.2889 214.17C91.0289 214.717 90.8989 215.327 90.8989 216C90.8989 216.667 91.0289 217.277 91.2889 217.83C91.5556 218.383 91.9289 218.823 92.4089 219.15C92.8956 219.477 93.4656 219.64 94.1189 219.64C94.7656 219.64 95.3589 219.48 95.8989 219.16C96.4389 218.833 96.8722 218.397 97.1989 217.85C97.5256 217.297 97.6889 216.68 97.6889 216C97.6889 215.333 97.5289 214.727 97.2089 214.18C96.8889 213.627 96.4589 213.187 95.9189 212.86C95.3789 212.533 94.7789 212.37 94.1189 212.37ZM102.751 226H101.071V211H102.751V212.71C103.091 212.123 103.544 211.65 104.111 211.29C104.678 210.923 105.351 210.74 106.131 210.74C106.858 210.74 107.538 210.877 108.171 211.15C108.811 211.423 109.371 211.803 109.851 212.29C110.331 212.77 110.708 213.327 110.981 213.96C111.254 214.593 111.391 215.273 111.391 216C111.391 216.727 111.254 217.41 110.981 218.05C110.708 218.69 110.331 219.253 109.851 219.74C109.371 220.22 108.811 220.597 108.171 220.87C107.538 221.143 106.858 221.28 106.131 221.28C105.351 221.28 104.678 221.1 104.111 220.74C103.544 220.373 103.091 219.897 102.751 219.31V226ZM106.111 212.37C105.464 212.37 104.898 212.533 104.411 212.86C103.924 213.187 103.548 213.623 103.281 214.17C103.021 214.717 102.891 215.327 102.891 216C102.891 216.667 103.021 217.277 103.281 217.83C103.548 218.383 103.921 218.823 104.401 219.15C104.888 219.477 105.458 219.64 106.111 219.64C106.758 219.64 107.351 219.48 107.891 219.16C108.431 218.833 108.864 218.397 109.191 217.85C109.518 217.297 109.681 216.68 109.681 216C109.681 215.333 109.521 214.727 109.201 214.18C108.881 213.627 108.451 213.187 107.911 212.86C107.371 212.533 106.771 212.37 106.111 212.37Z" fill="#059669"/>
<rect x="0.5" y="296.5" width="132" height="77" rx="10.5" fill="white"/>
<rect x="0.5" y="296.5" width="132" height="77" rx="10.5" stroke="#F59E0B"/>
<path d="M66.4993 330.833C72.4824 330.833 77.3327 325.983 77.3327 320C77.3327 314.017 72.4824 309.167 66.4993 309.167C60.5163 309.167 55.666 314.017 55.666 320C55.666 325.983 60.5163 330.833 66.4993 330.833Z" stroke="#F59E0B" stroke-width="1.5" stroke-linecap="round" stroke-linejoin="round"/>
<path d="M62.1671 310.25H63.2504C61.1379 316.577 61.1379 323.423 63.2504 329.75H62.1671" stroke="#F59E0B" stroke-width="1.5" stroke-linecap="round" stroke-linejoin="round"/>
<path d="M69.75 310.25C71.8625 316.577 71.8625 323.423 69.75 329.75" stroke="#F59E0B" stroke-width="1.5" stroke-linecap="round" stroke-linejoin="round"/>
<path d="M56.75 324.333V323.25C63.0767 325.363 69.9233 325.363 76.25 323.25V324.333" stroke="#F59E0B" stroke-width="1.5" stroke-linecap="round" stroke-linejoin="round"/>
<path d="M56.75 316.75C63.0767 314.637 69.9233 314.637 76.25 316.75" stroke="#F59E0B" stroke-width="1.5" stroke-linecap="round" stroke-linejoin="round"/>
<path d="M51.3822 359L47.8022 345H49.5322L52.3522 356.05L55.1622 345H56.6722L59.4922 356.05L62.3022 345H64.0322L60.4722 359H58.5122L55.9222 348.86L53.3322 359H51.3822ZM69.0336 359.26C68.1136 359.26 67.2736 359.023 66.5136 358.55C65.7603 358.077 65.1569 357.443 64.7036 356.65C64.2569 355.85 64.0336 354.967 64.0336 354C64.0336 353.267 64.1636 352.583 64.4236 351.95C64.6836 351.31 65.0403 350.75 65.4936 350.27C65.9536 349.783 66.4869 349.403 67.0936 349.13C67.7003 348.857 68.3469 348.72 69.0336 348.72C69.7869 348.72 70.4769 348.873 71.1036 349.18C71.7369 349.48 72.2769 349.9 72.7236 350.44C73.1769 350.98 73.5136 351.607 73.7336 352.32C73.9603 353.033 74.0436 353.797 73.9836 354.61H65.8236C65.9036 355.177 66.0903 355.683 66.3836 356.13C66.6769 356.57 67.0503 356.92 67.5036 357.18C67.9636 357.44 68.4736 357.573 69.0336 357.58C69.6336 357.58 70.1769 357.427 70.6636 357.12C71.1503 356.807 71.5436 356.38 71.8436 355.84L73.5536 356.24C73.1536 357.127 72.5503 357.853 71.7436 358.42C70.9369 358.98 70.0336 359.26 69.0336 359.26ZM65.7736 353.29H72.2936C72.2403 352.73 72.0603 352.22 71.7536 351.76C71.4469 351.293 71.0569 350.92 70.5836 350.64C70.1103 350.36 69.5936 350.22 69.0336 350.22C68.4736 350.22 67.9603 350.357 67.4936 350.63C67.0269 350.903 66.6403 351.273 66.3336 351.74C66.0336 352.2 65.8469 352.717 65.7736 353.29ZM80.6311 348.72C81.6044 348.72 82.4878 348.957 83.2811 349.43C84.0811 349.903 84.7178 350.54 85.1911 351.34C85.6644 352.133 85.9011 353.017 85.9011 353.99C85.9011 354.717 85.7644 355.4 85.4911 356.04C85.2178 356.673 84.8378 357.233 84.3511 357.72C83.8711 358.2 83.3111 358.577 82.6711 358.85C82.0378 359.123 81.3578 359.26 80.6311 359.26C79.8578 359.26 79.1844 359.08 78.6111 358.72C78.0444 358.353 77.5911 357.877 77.2511 357.29V359H75.5711V344H77.2511V350.69C77.5911 350.103 78.0444 349.63 78.6111 349.27C79.1844 348.903 79.8578 348.72 80.6311 348.72ZM80.6111 357.62C81.2711 357.62 81.8711 357.457 82.4111 357.13C82.9511 356.803 83.3811 356.367 83.7011 355.82C84.0211 355.267 84.1811 354.657 84.1811 353.99C84.1811 353.31 84.0178 352.697 83.6911 352.15C83.3644 351.597 82.9311 351.16 82.3911 350.84C81.8511 350.513 81.2578 350.35 80.6111 350.35C79.9578 350.35 79.3878 350.513 78.9011 350.84C78.4211 351.167 78.0478 351.607 77.7811 352.16C77.5211 352.713 77.3911 353.323 77.3911 353.99C77.3911 354.663 77.5211 355.277 77.7811 355.83C78.0478 356.377 78.4244 356.813 78.9111 357.14C79.3978 357.46 79.9644 357.62 80.6111 357.62Z" fill="#F59E0B"/>
<line x1="572.5" y1="355" x2="572.5" y2="37" stroke="#A5A5A5"/>
<path d="M346.839 164.374L343.466 159.688L341.095 164.952L346.839 164.374ZM143.795 73.4559L342.531 162.981L342.941 162.069L144.205 72.5441L143.795 73.4559Z" fill="#1D4ED8"/>
<path d="M347 199L342 196.113L342 201.887L347 199ZM144 199.5L342.5 199.5L342.5 198.5L144 198.5L144 199.5Z" fill="#A5A5A5"/>
<path d="M822.354 117.354C822.549 117.158 822.549 116.842 822.354 116.646L819.172 113.464C818.976 113.269 818.66 113.269 818.464 113.464C818.269 113.66 818.269 113.976 818.464 114.172L821.293 117L818.464 119.828C818.269 120.024 818.269 120.34 818.464 120.536C818.66 120.731 818.976 120.731 819.172 120.536L822.354 117.354ZM572 117.5L822 117.5L822 116.5L572 116.5L572 117.5Z" fill="#A5A5A5"/>
<path d="M822.354 198.854C822.549 198.658 822.549 198.342 822.354 198.146L819.172 194.964C818.976 194.769 818.66 194.769 818.464 194.964C818.269 195.16 818.269 195.476 818.464 195.672L821.293 198.5L818.464 201.328C818.269 201.524 818.269 201.84 818.464 202.036C818.66 202.231 818.976 202.231 819.172 202.036L822.354 198.854ZM572 199L822 199L822 198L572 198L572 199Z" fill="#A5A5A5"/>
<line x1="443" y1="198.5" x2="573" y2="198.5" stroke="#A5A5A5"/>
<path d="M347.065 233L341.295 232.799L344.006 237.896L347.065 233ZM144.235 341.441L343.326 235.554L342.857 234.671L143.765 340.559L144.235 341.441Z" fill="#A5A5A5"/>
<path d="M822.354 279.354C822.549 279.158 822.549 278.842 822.354 278.646L819.172 275.464C818.976 275.269 818.66 275.269 818.464 275.464C818.269 275.66 818.269 275.976 818.464 276.172L821.293 279L818.464 281.828C818.269 282.024 818.269 282.34 818.464 282.536C818.66 282.731 818.976 282.731 819.172 282.536L822.354 279.354ZM572 279.5H822V278.5H572V279.5Z" fill="#A5A5A5"/>
<path d="M822.354 355.354C822.549 355.158 822.549 354.842 822.354 354.646L819.172 351.464C818.976 351.269 818.66 351.269 818.464 351.464C818.269 351.66 818.269 351.976 818.464 352.172L821.293 355L818.464 357.828C818.269 358.024 818.269 358.34 818.464 358.536C818.66 358.731 818.976 358.731 819.172 358.536L822.354 355.354ZM572 355.5H822V354.5H572V355.5Z" fill="#A5A5A5"/>
<path fill-rule="evenodd" clip-rule="evenodd" d="M369.199 195.671C368.865 195.094 369.004 194.374 369.526 193.961C370.639 193.082 371.872 192.367 373.188 191.841C373.807 191.594 374.502 191.837 374.835 192.414C375.615 193.771 377.073 194.617 378.638 194.617C380.203 194.617 381.661 193.771 382.442 192.414C382.774 191.837 383.469 191.594 384.088 191.841C385.404 192.367 386.638 193.082 387.75 193.961C388.272 194.373 388.41 195.095 388.077 195.671C387.294 197.025 387.29 198.708 388.073 200.063C388.855 201.417 390.311 202.256 391.875 202.256H391.882C392.55 202.256 393.104 202.737 393.199 203.398C393.299 204.097 393.351 204.804 393.351 205.51C393.351 206.217 393.299 206.925 393.199 207.625C393.104 208.285 392.549 208.765 391.882 208.765C391.88 208.765 391.878 208.765 391.875 208.765C390.311 208.765 388.855 209.604 388.073 210.959C387.291 212.314 387.293 213.997 388.077 215.351C388.41 215.926 388.271 216.649 387.75 217.061C386.637 217.939 385.404 218.653 384.088 219.179C383.469 219.427 382.774 219.186 382.442 218.608C381.662 217.251 380.204 216.405 378.638 216.405C377.072 216.405 375.615 217.25 374.835 218.608C374.502 219.186 373.807 219.427 373.188 219.179C371.873 218.653 370.638 217.939 369.526 217.061C369.004 216.648 368.866 215.927 369.199 215.351C369.982 213.996 369.986 212.315 369.203 210.959C368.422 209.605 366.966 208.765 365.402 208.765C365.4 208.765 365.397 208.765 365.394 208.765C364.727 208.765 364.173 208.285 364.078 207.625C363.977 206.926 363.926 206.217 363.926 205.51C363.926 204.804 363.978 204.097 364.078 203.398C364.173 202.738 364.725 202.256 365.393 202.256H365.401C366.965 202.256 368.421 201.417 369.204 200.063C369.986 198.708 369.983 197.025 369.199 195.671ZM372.87 205.51C372.87 208.691 375.457 211.28 378.638 211.28C381.819 211.28 384.407 208.691 384.407 205.51C384.407 202.329 381.819 199.742 378.638 199.742C375.457 199.742 372.87 202.329 372.87 205.51Z" fill="#FFD266"/>
<path fill-rule="evenodd" clip-rule="evenodd" d="M397.527 187.98C397.273 187.541 397.379 186.993 397.777 186.679C398.695 185.954 399.713 185.362 400.8 184.929C401.271 184.74 401.8 184.926 402.053 185.365C402.718 186.525 403.963 187.245 405.3 187.245C406.637 187.245 407.882 186.524 408.549 185.365C408.801 184.926 409.331 184.741 409.802 184.929C410.889 185.362 411.908 185.953 412.826 186.679C413.223 186.993 413.328 187.543 413.075 187.98C412.406 189.136 412.402 190.573 413.07 191.731C413.738 192.887 414.982 193.604 416.317 193.604H416.324C416.831 193.604 417.253 193.969 417.325 194.472C417.408 195.049 417.45 195.634 417.45 196.217C417.45 196.801 417.408 197.385 417.325 197.963C417.253 198.465 416.831 198.831 416.324 198.831C416.322 198.831 416.32 198.831 416.317 198.831C414.982 198.831 413.738 199.547 413.07 200.704C412.402 201.861 412.405 203.298 413.075 204.455C413.328 204.892 413.223 205.442 412.826 205.756C411.908 206.482 410.889 207.072 409.802 207.506C409.331 207.694 408.802 207.508 408.549 207.069C407.882 205.911 406.637 205.19 405.3 205.19C403.963 205.19 402.718 205.91 402.053 207.069C401.8 207.509 401.271 207.694 400.8 207.506C399.713 207.072 398.694 206.482 397.775 205.756C397.379 205.442 397.274 204.892 397.527 204.454C398.196 203.298 398.199 201.861 397.531 200.704C396.863 199.547 395.619 198.831 394.284 198.831C394.282 198.831 394.28 198.831 394.278 198.831C393.77 198.831 393.349 198.465 393.276 197.963C393.193 197.385 393.15 196.801 393.15 196.217C393.15 195.633 393.193 195.049 393.276 194.471C393.349 193.969 393.77 193.604 394.278 193.604H394.284C395.62 193.604 396.863 192.887 397.531 191.73C398.199 190.573 398.196 189.136 397.527 187.98ZM400.404 196.217C400.404 198.917 402.6 201.115 405.3 201.115C408.001 201.115 410.197 198.918 410.197 196.217C410.197 193.517 408 191.32 405.3 191.32C402.601 191.32 400.404 193.518 400.404 196.217Z" fill="#60B7FF"/>
<path fill-rule="evenodd" clip-rule="evenodd" d="M401.289 213.252C401.472 212.935 401.859 212.799 402.199 212.935C403.087 213.29 403.919 213.773 404.67 214.366C404.958 214.593 405.035 214.994 404.851 215.311C404.281 216.296 404.278 217.519 404.847 218.504C405.416 219.489 406.475 220.099 407.612 220.099H407.618C407.986 220.099 408.293 220.365 408.345 220.73C408.412 221.202 408.446 221.68 408.446 222.156C408.446 222.633 408.412 223.11 408.345 223.582C408.293 223.946 407.986 224.213 407.618 224.213C407.616 224.213 407.614 224.213 407.612 224.213C406.475 224.213 405.416 224.823 404.847 225.807C404.278 226.793 404.281 228.017 404.851 229.002C405.034 229.32 404.958 229.718 404.67 229.946C403.92 230.539 403.087 231.022 402.199 231.376C401.857 231.512 401.473 231.378 401.289 231.059C400.722 230.072 399.662 229.458 398.524 229.458C397.384 229.458 396.325 230.072 395.758 231.059C395.574 231.378 395.19 231.512 394.848 231.376C393.96 231.022 393.128 230.538 392.378 229.946C392.09 229.719 392.013 229.319 392.196 229.002C392.766 228.016 392.769 226.793 392.2 225.807C391.631 224.823 390.572 224.212 389.435 224.212C389.433 224.212 389.432 224.212 389.43 224.212C389.062 224.212 388.755 223.946 388.702 223.582C388.635 223.11 388.602 222.633 388.602 222.156C388.602 221.679 388.634 221.202 388.702 220.73C388.755 220.365 389.062 220.099 389.43 220.099H389.435C390.572 220.099 391.631 219.489 392.2 218.504C392.769 217.519 392.766 216.296 392.196 215.311C392.012 214.993 392.089 214.594 392.378 214.365C393.128 213.772 393.96 213.29 394.848 212.935C395.189 212.799 395.575 212.934 395.758 213.252C396.326 214.239 397.384 214.854 398.524 214.854C399.663 214.854 400.722 214.239 401.289 213.252ZM398.524 218.017C396.241 218.017 394.385 219.874 394.385 222.156C394.385 224.438 396.242 226.295 398.524 226.295C400.805 226.295 402.662 224.438 402.662 222.156C402.662 219.874 400.806 218.017 398.524 218.017Z" fill="#FD4755"/>
<path fill-rule="evenodd" clip-rule="evenodd" d="M417.19 226.685L420.254 227.223C420.64 227.29 420.89 227.654 420.824 228.038C420.765 228.379 420.469 228.62 420.133 228.62C420.093 228.62 420.052 228.615 420.011 228.608L415.198 227.762C414.823 227.696 414.568 227.344 414.624 226.967L415.332 222.131C415.389 221.747 415.746 221.481 416.13 221.537C416.514 221.594 416.779 221.951 416.723 222.335L416.244 225.609C424.116 221.028 427.796 211.587 425.018 202.839C424.899 202.469 425.103 202.074 425.472 201.957C425.847 201.839 426.242 202.043 426.354 202.414C429.31 211.704 425.466 221.723 417.19 226.685ZM367.091 187.131C371.764 178.576 381.662 174.43 390.968 176.981L389.238 174.392C389.023 174.07 389.11 173.632 389.432 173.417C389.756 173.201 390.193 173.288 390.408 173.611L393.122 177.675C393.333 177.992 393.255 178.418 392.945 178.639L388.961 181.469C388.644 181.694 388.206 181.62 387.981 181.303C387.756 180.987 387.831 180.547 388.147 180.324L390.844 178.407C382.094 175.884 372.726 179.75 368.326 187.806C368.198 188.039 367.957 188.171 367.709 188.171C367.595 188.171 367.48 188.144 367.373 188.086C367.03 187.899 366.905 187.473 367.091 187.131ZM398.525 225.024C396.944 225.024 395.658 223.737 395.658 222.156C395.658 220.574 396.944 219.288 398.525 219.288C400.107 219.288 401.392 220.574 401.392 222.156C401.392 223.737 400.107 225.024 398.525 225.024ZM398.525 217.882C396.168 217.882 394.251 219.8 394.251 222.156C394.251 224.512 396.168 226.43 398.525 226.43C400.882 226.43 402.798 224.512 402.798 222.156C402.798 219.8 400.882 217.882 398.525 217.882ZM408.213 223.563C408.278 223.1 408.313 222.628 408.313 222.156C408.313 221.685 408.279 221.211 408.213 220.749C408.17 220.451 407.92 220.234 407.619 220.234C407.616 220.234 407.615 220.234 407.614 220.234C406.428 220.234 405.324 219.598 404.732 218.572C404.139 217.545 404.14 216.27 404.735 215.244C404.885 214.983 404.823 214.658 404.588 214.472C403.844 213.885 403.025 213.411 402.15 213.061C401.872 212.95 401.558 213.058 401.408 213.319C400.816 214.349 399.712 214.989 398.525 214.989C397.338 214.989 396.234 214.349 395.642 213.319C395.492 213.058 395.179 212.95 394.899 213.061C394.025 213.411 393.205 213.885 392.463 214.472C392.226 214.658 392.164 214.982 392.314 215.244C392.91 216.27 392.911 217.545 392.318 218.572C391.726 219.598 390.622 220.234 389.436 220.234C389.435 220.234 389.434 220.234 389.431 220.234C389.13 220.234 388.881 220.451 388.837 220.749C388.771 221.211 388.738 221.684 388.738 222.156C388.738 222.626 388.771 223.1 388.837 223.563C388.881 223.861 389.13 224.078 389.431 224.078H389.436C390.622 224.078 391.726 224.714 392.318 225.74C392.911 226.766 392.91 228.041 392.314 229.069C392.164 229.33 392.226 229.654 392.463 229.84C393.205 230.427 394.025 230.902 394.899 231.25C395.179 231.361 395.492 231.254 395.642 230.991C396.234 229.963 397.338 229.323 398.525 229.323C399.712 229.323 400.816 229.963 401.408 230.991C401.558 231.253 401.871 231.361 402.15 231.25C403.025 230.902 403.844 230.427 404.588 229.84C404.823 229.653 404.885 229.33 404.735 229.069C404.14 228.041 404.139 226.766 404.732 225.74C405.325 224.714 406.428 224.078 407.614 224.078H407.619C407.92 224.078 408.171 223.861 408.213 223.563ZM407.619 218.828C407.616 218.828 407.615 218.828 407.614 218.828C406.929 218.828 406.291 218.461 405.95 217.868C405.608 217.277 405.608 216.54 405.951 215.947C406.456 215.076 406.248 213.991 405.459 213.367C404.611 212.698 403.673 212.155 402.672 211.756C401.735 211.382 400.692 211.744 400.189 212.619C399.847 213.213 399.21 213.583 398.525 213.583C397.84 213.583 397.203 213.213 396.861 212.619C396.358 211.744 395.315 211.382 394.378 211.756C393.376 212.155 392.44 212.698 391.59 213.367C390.802 213.991 390.594 215.077 391.099 215.947C391.442 216.54 391.442 217.277 391.1 217.868C390.758 218.461 390.121 218.828 389.436 218.828C389.435 218.829 389.434 218.828 389.431 218.828C388.424 218.828 387.588 219.552 387.445 220.549C387.369 221.077 387.332 221.618 387.332 222.156C387.332 222.693 387.369 223.233 387.445 223.763C387.588 224.761 388.424 225.484 389.431 225.484H389.436C390.121 225.484 390.758 225.85 391.1 226.442C391.442 227.035 391.442 227.771 391.099 228.364C390.594 229.235 390.802 230.32 391.59 230.944C392.44 231.615 393.376 232.156 394.378 232.556C395.315 232.93 396.358 232.567 396.861 231.693C397.203 231.099 397.84 230.729 398.525 230.729C399.21 230.729 399.847 231.099 400.189 231.693C400.559 232.336 401.222 232.702 401.919 232.702C402.17 232.702 402.424 232.655 402.672 232.556C403.673 232.156 404.609 231.615 405.459 230.944C406.248 230.32 406.456 229.235 405.951 228.364C405.608 227.771 405.608 227.035 405.95 226.442C406.292 225.85 406.929 225.484 407.614 225.484H407.619C408.626 225.484 409.461 224.761 409.605 223.763C409.681 223.235 409.719 222.693 409.719 222.156C409.719 221.618 409.681 221.078 409.605 220.549C409.461 219.552 408.626 218.828 407.619 218.828ZM412.954 200.637C413.646 199.438 414.935 198.696 416.318 198.696H416.325C416.765 198.696 417.129 198.38 417.193 197.944C417.274 197.375 417.316 196.796 417.316 196.217C417.316 195.64 417.274 195.059 417.193 194.491C417.129 194.055 416.765 193.739 416.325 193.739C416.322 193.739 416.321 193.739 416.318 193.739C414.934 193.739 413.646 192.997 412.954 191.798C412.262 190.6 412.264 189.111 412.959 187.913C413.178 187.531 413.088 187.058 412.744 186.785C411.832 186.065 410.827 185.483 409.753 185.054C409.343 184.891 408.888 185.049 408.667 185.433C407.976 186.633 406.687 187.38 405.301 187.38C403.916 187.38 402.627 186.633 401.936 185.433C401.717 185.049 401.26 184.891 400.851 185.054C399.778 185.483 398.771 186.065 397.861 186.785C397.515 187.058 397.426 187.531 397.645 187.913C398.339 189.111 398.341 190.6 397.649 191.798C396.957 192.997 395.669 193.739 394.285 193.739C394.282 193.739 394.281 193.739 394.278 193.739C393.838 193.739 393.474 194.055 393.411 194.491C393.329 195.058 393.286 195.638 393.286 196.217C393.286 196.795 393.329 197.375 393.411 197.944C393.474 198.38 393.838 198.696 394.278 198.696H394.285C395.669 198.696 396.957 199.438 397.649 200.637C398.341 201.835 398.339 203.324 397.645 204.522C397.426 204.903 397.515 205.377 397.86 205.65C398.771 206.37 399.778 206.952 400.851 207.381C401.26 207.544 401.717 207.386 401.937 207.002C402.627 205.802 403.916 205.055 405.301 205.055C406.687 205.055 407.976 205.802 408.667 207.002C408.888 207.386 409.343 207.544 409.753 207.381C410.826 206.952 411.833 206.37 412.744 205.65C413.088 205.377 413.178 204.903 412.959 204.522C412.264 203.324 412.262 201.835 412.954 200.637ZM416.318 200.102H416.325C417.471 200.102 418.422 199.279 418.585 198.145C418.677 197.51 418.723 196.862 418.723 196.217C418.723 195.574 418.677 194.926 418.585 194.29C418.421 193.156 417.471 192.333 416.325 192.333C416.322 192.333 416.321 192.333 416.318 192.333C415.435 192.333 414.614 191.859 414.172 191.095C413.732 190.331 413.732 189.381 414.175 188.616C414.749 187.626 414.513 186.391 413.615 185.681C412.597 184.878 411.474 184.227 410.274 183.749C409.208 183.322 408.02 183.736 407.448 184.731C407.007 185.498 406.185 185.974 405.301 185.974C404.419 185.974 403.596 185.498 403.156 184.731C402.583 183.737 401.395 183.322 400.33 183.749C399.13 184.227 398.006 184.878 396.989 185.683C396.091 186.391 395.855 187.626 396.428 188.616C396.871 189.381 396.871 190.331 396.431 191.095C395.99 191.859 395.168 192.333 394.285 192.333C394.284 192.333 394.281 192.333 394.279 192.333C393.132 192.333 392.183 193.156 392.018 194.29C391.927 194.924 391.88 195.573 391.88 196.217C391.88 196.862 391.927 197.51 392.018 198.145C392.183 199.279 393.132 200.102 394.279 200.102H394.285C395.168 200.102 395.99 200.576 396.431 201.34C396.871 202.104 396.871 203.054 396.428 203.819C395.855 204.809 396.091 206.044 396.989 206.752C398.006 207.557 399.13 208.208 400.33 208.686C400.612 208.798 400.902 208.853 401.187 208.853C401.98 208.852 402.734 208.436 403.156 207.704C403.596 206.938 404.419 206.461 405.301 206.461C406.185 206.461 407.007 206.938 407.449 207.704C408.02 208.699 409.208 209.112 410.274 208.686C411.474 208.208 412.597 207.557 413.615 206.752C414.512 206.044 414.749 204.809 414.175 203.817C413.732 203.054 413.732 202.103 414.172 201.34C414.614 200.576 415.435 200.102 416.318 200.102ZM405.301 199.843C403.302 199.843 401.676 198.216 401.676 196.217C401.676 194.218 403.302 192.592 405.301 192.592C407.301 192.592 408.927 194.218 408.927 196.217C408.927 198.217 407.301 199.843 405.301 199.843ZM405.301 191.185C408.076 191.185 410.333 193.443 410.333 196.217C410.333 198.993 408.076 201.25 405.301 201.25C402.527 201.25 400.27 198.993 400.27 196.217C400.27 193.443 402.527 191.185 405.301 191.185ZM387.666 216.955C386.56 217.828 385.34 218.534 384.038 219.054C383.479 219.278 382.858 219.061 382.558 218.541C381.754 217.14 380.251 216.27 378.638 216.27C377.024 216.27 375.522 217.14 374.717 218.541C374.418 219.061 373.796 219.278 373.238 219.054C371.936 218.534 370.714 217.828 369.61 216.955C369.138 216.583 369.016 215.938 369.315 215.419C370.125 214.021 370.126 212.288 369.32 210.891C368.514 209.496 367.014 208.63 365.402 208.63C365.399 208.63 365.395 208.63 365.394 208.63C364.793 208.63 364.295 208.199 364.211 207.606C364.111 206.917 364.06 206.211 364.06 205.51C364.06 204.809 364.111 204.104 364.211 203.417C364.295 202.822 364.793 202.391 365.392 202.391H365.401C367.014 202.391 368.514 201.525 369.32 200.13C370.126 198.735 370.125 197 369.315 195.603C369.016 195.085 369.138 194.439 369.61 194.067C370.715 193.193 371.936 192.487 373.238 191.966C373.796 191.745 374.418 191.961 374.717 192.481C375.522 193.88 377.025 194.751 378.638 194.751C380.251 194.751 381.754 193.88 382.558 192.481C382.858 191.961 383.479 191.745 384.038 191.966C385.34 192.487 386.562 193.193 387.666 194.067C388.137 194.438 388.259 195.085 387.959 195.603C387.151 197 387.15 198.735 387.956 200.13C388.761 201.525 390.262 202.391 391.875 202.391H391.882C392.483 202.391 392.98 202.822 393.064 203.417C393.165 204.104 393.215 204.809 393.215 205.51C393.215 206.212 393.164 206.917 393.064 207.606C392.98 208.199 392.482 208.63 391.882 208.63C391.879 208.63 391.877 208.63 391.875 208.63C390.262 208.63 388.761 209.495 387.956 210.891C387.15 212.288 387.151 214.022 387.959 215.419C388.259 215.936 388.137 216.583 387.666 216.955ZM389.176 214.714C389.83 215.844 389.561 217.25 388.538 218.059C387.326 219.016 385.987 219.79 384.559 220.36C383.344 220.846 381.991 220.375 381.339 219.241C380.785 218.277 379.749 217.676 378.638 217.676C377.525 217.676 376.49 218.277 375.937 219.241C375.457 220.075 374.598 220.55 373.693 220.55C373.368 220.55 373.038 220.489 372.716 220.36C371.287 219.789 369.948 219.015 368.737 218.059C367.714 217.25 367.445 215.844 368.099 214.714C368.656 213.751 368.658 212.556 368.102 211.594C367.546 210.632 366.513 210.036 365.402 210.036C365.4 210.036 365.396 210.036 365.394 210.036C364.088 210.036 363.004 209.099 362.819 207.805C362.709 207.05 362.654 206.278 362.654 205.51C362.654 204.743 362.709 203.97 362.819 203.215C363.004 201.923 364.087 200.985 365.392 200.985H365.401C366.511 200.985 367.546 200.389 368.102 199.427C368.658 198.465 368.656 197.27 368.099 196.308C367.445 195.179 367.714 193.773 368.737 192.964C369.948 192.006 371.287 191.231 372.716 190.661C373.929 190.177 375.283 190.647 375.937 191.78C376.49 192.746 377.525 193.345 378.638 193.345C379.749 193.345 380.785 192.746 381.339 191.78C381.991 190.648 383.346 190.177 384.559 190.661C385.988 191.231 387.327 192.006 388.538 192.964C389.561 193.773 389.83 195.179 389.176 196.308C388.619 197.27 388.618 198.465 389.173 199.427C389.729 200.389 390.764 200.985 391.875 200.985H391.882C393.188 200.985 394.271 201.923 394.457 203.215C394.566 203.971 394.621 204.743 394.621 205.51C394.621 206.278 394.566 207.052 394.457 207.805C394.271 209.099 393.188 210.036 391.882 210.036C391.879 210.036 391.876 210.036 391.875 210.036C390.762 210.036 389.729 210.632 389.173 211.594C388.618 212.556 388.619 213.751 389.176 214.714ZM378.638 210.009C381.118 210.009 383.135 207.991 383.135 205.51C383.135 203.031 381.118 201.013 378.638 201.013C376.157 201.013 374.141 203.031 374.141 205.51C374.141 207.991 376.157 210.009 378.638 210.009ZM378.638 199.607C375.382 199.607 372.734 202.255 372.734 205.511C372.734 208.766 375.382 211.415 378.638 211.415C381.893 211.415 384.541 208.766 384.541 205.511C384.541 202.255 381.893 199.607 378.638 199.607Z" fill="#212121"/>
<rect x="407.5" y="161.5" width="23" height="23" rx="3.5" fill="white"/>
<rect x="407.5" y="161.5" width="23" height="23" rx="3.5" stroke="#212121"/>
<path d="M415.13 177.5H414.022L417.226 168.773H418.317L421.522 177.5H420.414L417.806 170.153H417.738L415.13 177.5ZM415.539 174.091H420.005V175.028H415.539V174.091ZM423.938 168.773V177.5H422.881V168.773H423.938Z" fill="#212121"/>
<rect x="849.5" y="82.5" width="146" height="53" rx="26.5" fill="white"/>
<rect x="849.5" y="82.5" width="146" height="53" rx="26.5" stroke="#F1F1F1"/>
<g clip-path="url(#clip1_471_3563)">
<path d="M887 126C896.389 126 904 118.389 904 109C904 99.6112 896.389 92 887 92C877.611 92 870 99.6112 870 109C870 118.389 877.611 126 887 126Z" fill="url(#paint0_linear_471_3563)"/>
<path d="M903.999 108.999C903.999 118.389 896.389 125.999 886.999 125.999C884.197 126.001 881.438 125.309 878.968 123.986C876.498 122.663 874.394 120.749 872.844 118.415C882.568 118.268 886.432 112.399 886.432 112.399C891.965 104.032 898.727 102.246 902.475 101.955C903.483 104.166 904.003 106.569 903.999 108.999Z" fill="url(#paint1_linear_471_3563)"/>
<path d="M902.117 116.783C900.697 119.538 898.552 121.852 895.912 123.476C893.273 125.101 890.24 125.973 887.141 125.998C884.042 126.024 880.995 125.203 878.329 123.623C875.663 122.043 873.479 119.765 872.014 117.034C875.467 117.924 881.39 118.846 885.391 116.177C885.391 116.177 895.61 108.493 902.117 116.783Z" fill="url(#paint2_linear_471_3563)"/>
<path d="M895.586 99.3242H878.424C878.136 99.3242 877.86 99.4387 877.656 99.6424C877.452 99.8462 877.338 100.122 877.338 100.411V106.465C877.338 106.608 877.366 106.749 877.421 106.881C877.475 107.012 877.555 107.132 877.656 107.233C877.757 107.334 877.877 107.414 878.009 107.469C878.14 107.523 878.282 107.551 878.424 107.551H895.586C895.874 107.551 896.151 107.437 896.354 107.233C896.558 107.029 896.673 106.753 896.673 106.465V100.411C896.673 100.123 896.558 99.8463 896.354 99.6426C896.151 99.4389 895.874 99.3244 895.586 99.3242ZM882.402 105.629C881.969 105.629 881.545 105.501 881.185 105.26C880.824 105.019 880.543 104.677 880.377 104.277C880.212 103.876 880.168 103.436 880.253 103.011C880.337 102.585 880.546 102.195 880.852 101.889C881.159 101.582 881.549 101.373 881.975 101.289C882.4 101.204 882.84 101.248 883.241 101.413C883.641 101.579 883.983 101.86 884.224 102.221C884.465 102.581 884.593 103.005 884.593 103.438C884.593 104.019 884.363 104.577 883.952 104.988C883.541 105.399 882.983 105.629 882.402 105.629Z" fill="white"/>
<path d="M895.586 110.432H878.424C878.282 110.432 878.14 110.46 878.008 110.514C877.877 110.569 877.757 110.649 877.656 110.75C877.555 110.851 877.475 110.97 877.42 111.102C877.366 111.234 877.338 111.375 877.338 111.518V117.572C877.338 117.714 877.366 117.856 877.42 117.987C877.475 118.119 877.555 118.239 877.656 118.34C877.757 118.441 877.877 118.521 878.008 118.576C878.14 118.63 878.282 118.658 878.424 118.658H895.586C895.874 118.658 896.151 118.544 896.355 118.34C896.558 118.136 896.673 117.86 896.673 117.572V111.518C896.673 111.23 896.558 110.954 896.355 110.75C896.151 110.546 895.874 110.432 895.586 110.432ZM882.402 116.736C881.969 116.736 881.545 116.608 881.185 116.367C880.824 116.126 880.543 115.784 880.377 115.383C880.212 114.983 880.168 114.542 880.253 114.117C880.337 113.692 880.546 113.302 880.852 112.995C881.159 112.689 881.549 112.48 881.975 112.396C882.4 112.311 882.84 112.354 883.241 112.52C883.641 112.686 883.983 112.967 884.224 113.327C884.465 113.688 884.593 114.111 884.593 114.545C884.593 115.126 884.363 115.683 883.952 116.094C883.541 116.505 882.983 116.736 882.402 116.736Z" fill="white"/>
</g>
<path d="M916.402 114H913.26V103.818H916.542C917.529 103.818 918.374 104.022 919.077 104.43C919.78 104.834 920.318 105.416 920.693 106.175C921.067 106.93 921.255 107.835 921.255 108.889C921.255 109.95 921.066 110.863 920.688 111.629C920.31 112.391 919.76 112.978 919.037 113.388C918.315 113.796 917.436 114 916.402 114ZM914.493 112.906H916.323C917.165 112.906 917.862 112.744 918.416 112.419C918.969 112.094 919.382 111.632 919.654 111.032C919.926 110.432 920.061 109.718 920.061 108.889C920.061 108.067 919.927 107.36 919.659 106.766C919.39 106.17 918.989 105.712 918.456 105.394C917.922 105.073 917.257 104.912 916.462 104.912H914.493V112.906ZM925.411 114.179C924.927 114.179 924.488 114.088 924.093 113.906C923.699 113.72 923.386 113.453 923.154 113.105C922.922 112.754 922.806 112.33 922.806 111.832C922.806 111.395 922.892 111.04 923.064 110.768C923.237 110.493 923.467 110.278 923.755 110.122C924.044 109.966 924.362 109.85 924.71 109.774C925.061 109.695 925.414 109.632 925.769 109.585C926.233 109.526 926.609 109.481 926.897 109.451C927.189 109.418 927.401 109.363 927.534 109.287C927.67 109.211 927.738 109.078 927.738 108.889V108.849C927.738 108.359 927.603 107.978 927.335 107.706C927.07 107.434 926.667 107.298 926.127 107.298C925.567 107.298 925.127 107.421 924.809 107.666C924.491 107.911 924.267 108.173 924.138 108.452L923.025 108.054C923.223 107.59 923.489 107.229 923.82 106.97C924.155 106.708 924.519 106.526 924.914 106.423C925.311 106.317 925.703 106.264 926.087 106.264C926.332 106.264 926.614 106.294 926.932 106.354C927.254 106.41 927.564 106.528 927.862 106.707C928.163 106.886 928.414 107.156 928.613 107.517C928.811 107.878 928.911 108.362 928.911 108.969V114H927.738V112.966H927.678C927.598 113.132 927.466 113.309 927.28 113.498C927.095 113.687 926.848 113.848 926.539 113.98C926.231 114.113 925.855 114.179 925.411 114.179ZM925.59 113.125C926.054 113.125 926.445 113.034 926.763 112.852C927.085 112.669 927.327 112.434 927.489 112.146C927.655 111.857 927.738 111.554 927.738 111.236V110.162C927.688 110.222 927.578 110.276 927.409 110.326C927.244 110.372 927.051 110.414 926.833 110.45C926.617 110.483 926.407 110.513 926.201 110.54C925.999 110.563 925.835 110.583 925.709 110.599C925.404 110.639 925.119 110.704 924.854 110.793C924.592 110.879 924.38 111.01 924.218 111.186C924.059 111.358 923.979 111.594 923.979 111.892C923.979 112.3 924.13 112.608 924.431 112.817C924.736 113.022 925.123 113.125 925.59 113.125ZM934.373 106.364V107.358H930.416V106.364H934.373ZM931.569 104.534H932.743V111.812C932.743 112.144 932.791 112.393 932.887 112.558C932.986 112.721 933.112 112.83 933.265 112.886C933.421 112.939 933.585 112.966 933.757 112.966C933.886 112.966 933.992 112.959 934.075 112.946C934.158 112.929 934.224 112.916 934.274 112.906L934.513 113.96C934.433 113.99 934.322 114.02 934.18 114.05C934.037 114.083 933.856 114.099 933.638 114.099C933.306 114.099 932.981 114.028 932.663 113.886C932.348 113.743 932.086 113.526 931.878 113.234C931.672 112.943 931.569 112.575 931.569 112.131V104.534ZM938.385 114.179C937.902 114.179 937.462 114.088 937.068 113.906C936.674 113.72 936.36 113.453 936.128 113.105C935.896 112.754 935.78 112.33 935.78 111.832C935.78 111.395 935.867 111.04 936.039 110.768C936.211 110.493 936.442 110.278 936.73 110.122C937.018 109.966 937.336 109.85 937.684 109.774C938.036 109.695 938.389 109.632 938.743 109.585C939.207 109.526 939.584 109.481 939.872 109.451C940.164 109.418 940.376 109.363 940.508 109.287C940.644 109.211 940.712 109.078 940.712 108.889V108.849C940.712 108.359 940.578 107.978 940.309 107.706C940.044 107.434 939.642 107.298 939.101 107.298C938.541 107.298 938.102 107.421 937.784 107.666C937.466 107.911 937.242 108.173 937.113 108.452L935.999 108.054C936.198 107.59 936.463 107.229 936.795 106.97C937.129 106.708 937.494 106.526 937.888 106.423C938.286 106.317 938.677 106.264 939.062 106.264C939.307 106.264 939.589 106.294 939.907 106.354C940.228 106.41 940.538 106.528 940.836 106.707C941.138 106.886 941.388 107.156 941.587 107.517C941.786 107.878 941.885 108.362 941.885 108.969V114H940.712V112.966H940.653C940.573 113.132 940.44 113.309 940.255 113.498C940.069 113.687 939.822 113.848 939.514 113.98C939.206 114.113 938.83 114.179 938.385 114.179ZM938.564 113.125C939.028 113.125 939.42 113.034 939.738 112.852C940.059 112.669 940.301 112.434 940.464 112.146C940.629 111.857 940.712 111.554 940.712 111.236V110.162C940.662 110.222 940.553 110.276 940.384 110.326C940.218 110.372 940.026 110.414 939.807 110.45C939.592 110.483 939.381 110.513 939.176 110.54C938.974 110.563 938.81 110.583 938.684 110.599C938.379 110.639 938.094 110.704 937.829 110.793C937.567 110.879 937.355 111.01 937.192 111.186C937.033 111.358 936.954 111.594 936.954 111.892C936.954 112.3 937.104 112.608 937.406 112.817C937.711 113.022 938.097 113.125 938.564 113.125ZM944.186 114V103.818H945.359V107.577H945.459C945.545 107.444 945.664 107.275 945.817 107.07C945.973 106.861 946.195 106.675 946.483 106.513C946.775 106.347 947.169 106.264 947.666 106.264C948.309 106.264 948.876 106.425 949.366 106.746C949.857 107.068 950.24 107.524 950.515 108.114C950.79 108.704 950.928 109.4 950.928 110.202C950.928 111.01 950.79 111.711 950.515 112.305C950.24 112.895 949.859 113.352 949.371 113.677C948.884 113.998 948.322 114.159 947.686 114.159C947.196 114.159 946.803 114.078 946.508 113.915C946.213 113.75 945.986 113.562 945.827 113.354C945.668 113.142 945.545 112.966 945.459 112.827H945.32V114H944.186ZM945.339 110.182C945.339 110.759 945.424 111.267 945.593 111.708C945.762 112.146 946.009 112.489 946.334 112.737C946.659 112.982 947.056 113.105 947.527 113.105C948.018 113.105 948.427 112.976 948.755 112.717C949.086 112.455 949.335 112.104 949.501 111.663C949.67 111.219 949.754 110.725 949.754 110.182C949.754 109.645 949.671 109.161 949.506 108.73C949.343 108.296 949.096 107.953 948.765 107.701C948.437 107.446 948.024 107.318 947.527 107.318C947.05 107.318 946.649 107.439 946.324 107.681C945.999 107.92 945.754 108.254 945.588 108.685C945.422 109.113 945.339 109.612 945.339 110.182ZM954.969 114.179C954.486 114.179 954.046 114.088 953.652 113.906C953.258 113.72 952.944 113.453 952.712 113.105C952.48 112.754 952.364 112.33 952.364 111.832C952.364 111.395 952.451 111.04 952.623 110.768C952.795 110.493 953.026 110.278 953.314 110.122C953.602 109.966 953.92 109.85 954.268 109.774C954.62 109.695 954.973 109.632 955.327 109.585C955.791 109.526 956.168 109.481 956.456 109.451C956.748 109.418 956.96 109.363 957.092 109.287C957.228 109.211 957.296 109.078 957.296 108.889V108.849C957.296 108.359 957.162 107.978 956.893 107.706C956.628 107.434 956.226 107.298 955.685 107.298C955.125 107.298 954.686 107.421 954.368 107.666C954.05 107.911 953.826 108.173 953.697 108.452L952.583 108.054C952.782 107.59 953.047 107.229 953.379 106.97C953.713 106.708 954.078 106.526 954.472 106.423C954.87 106.317 955.261 106.264 955.646 106.264C955.891 106.264 956.173 106.294 956.491 106.354C956.812 106.41 957.122 106.528 957.42 106.707C957.722 106.886 957.972 107.156 958.171 107.517C958.37 107.878 958.469 108.362 958.469 108.969V114H957.296V112.966H957.237C957.157 113.132 957.024 113.309 956.839 113.498C956.653 113.687 956.406 113.848 956.098 113.98C955.79 114.113 955.414 114.179 954.969 114.179ZM955.148 113.125C955.612 113.125 956.004 113.034 956.322 112.852C956.643 112.669 956.885 112.434 957.048 112.146C957.213 111.857 957.296 111.554 957.296 111.236V110.162C957.246 110.222 957.137 110.276 956.968 110.326C956.802 110.372 956.61 110.414 956.391 110.45C956.176 110.483 955.965 110.513 955.76 110.54C955.558 110.563 955.394 110.583 955.268 110.599C954.963 110.639 954.678 110.704 954.413 110.793C954.151 110.879 953.939 111.01 953.776 111.186C953.617 111.358 953.538 111.594 953.538 111.892C953.538 112.3 953.688 112.608 953.99 112.817C954.295 113.022 954.681 113.125 955.148 113.125ZM966.02 108.074L964.966 108.372C964.9 108.196 964.802 108.026 964.673 107.86C964.547 107.691 964.374 107.552 964.156 107.442C963.937 107.333 963.657 107.278 963.316 107.278C962.848 107.278 962.459 107.386 962.147 107.602C961.839 107.814 961.685 108.084 961.685 108.412C961.685 108.704 961.791 108.934 962.003 109.103C962.215 109.272 962.547 109.413 962.997 109.526L964.131 109.804C964.814 109.97 965.322 110.223 965.657 110.565C965.992 110.903 966.159 111.339 966.159 111.872C966.159 112.31 966.033 112.701 965.781 113.045C965.533 113.39 965.185 113.662 964.737 113.861C964.29 114.06 963.77 114.159 963.176 114.159C962.397 114.159 961.753 113.99 961.242 113.652C960.732 113.314 960.409 112.82 960.273 112.17L961.387 111.892C961.493 112.303 961.693 112.611 961.988 112.817C962.286 113.022 962.676 113.125 963.156 113.125C963.703 113.125 964.137 113.009 964.459 112.777C964.784 112.542 964.946 112.26 964.946 111.932C964.946 111.667 964.853 111.445 964.668 111.266C964.482 111.083 964.197 110.947 963.813 110.858L962.54 110.56C961.841 110.394 961.327 110.137 960.999 109.789C960.674 109.438 960.512 108.999 960.512 108.472C960.512 108.041 960.633 107.66 960.874 107.328C961.12 106.997 961.453 106.737 961.874 106.548C962.298 106.359 962.779 106.264 963.316 106.264C964.071 106.264 964.664 106.43 965.095 106.761C965.53 107.093 965.838 107.53 966.02 108.074ZM971.127 114.159C970.391 114.159 969.757 113.997 969.223 113.672C968.693 113.344 968.283 112.886 967.995 112.3C967.71 111.71 967.567 111.024 967.567 110.241C967.567 109.459 967.71 108.77 967.995 108.173C968.283 107.573 968.684 107.106 969.198 106.771C969.715 106.433 970.318 106.264 971.008 106.264C971.406 106.264 971.798 106.33 972.186 106.463C972.574 106.596 972.927 106.811 973.245 107.109C973.563 107.404 973.817 107.795 974.006 108.283C974.195 108.77 974.289 109.37 974.289 110.082V110.58H968.403V109.565H973.096C973.096 109.134 973.01 108.75 972.837 108.412C972.668 108.074 972.426 107.807 972.112 107.612C971.8 107.416 971.432 107.318 971.008 107.318C970.54 107.318 970.136 107.434 969.795 107.666C969.457 107.895 969.196 108.193 969.014 108.561C968.832 108.929 968.741 109.323 968.741 109.744V110.42C968.741 110.997 968.84 111.486 969.039 111.887C969.241 112.285 969.521 112.588 969.879 112.797C970.237 113.002 970.653 113.105 971.127 113.105C971.435 113.105 971.714 113.062 971.962 112.976C972.214 112.886 972.431 112.754 972.614 112.578C972.796 112.399 972.937 112.177 973.036 111.912L974.17 112.23C974.05 112.615 973.85 112.953 973.568 113.244C973.286 113.533 972.938 113.758 972.524 113.92C972.11 114.08 971.644 114.159 971.127 114.159Z" fill="#212121"/>
<rect x="849.5" y="164.5" width="172" height="53" rx="26.5" fill="white"/>
<rect x="849.5" y="164.5" width="172" height="53" rx="26.5" stroke="#F1F1F1"/>
<path d="M898.688 176.125H875.312C873.552 176.125 872.125 177.552 872.125 179.312V194.188C872.125 195.948 873.552 197.375 875.312 197.375H898.688C900.448 197.375 901.875 195.948 901.875 194.188V179.312C901.875 177.552 900.448 176.125 898.688 176.125Z" fill="#F0446A"/>
<path d="M900.812 201.625H873.188C872.601 201.625 872.125 202.1 872.125 202.688C872.125 203.275 872.601 203.75 873.188 203.75H900.812C901.399 203.75 901.875 203.275 901.875 202.688C901.875 202.1 901.399 201.625 900.812 201.625Z" fill="#D5EAF7"/>
<path d="M877.438 205.875C879.198 205.875 880.625 204.448 880.625 202.688C880.625 200.927 879.198 199.5 877.438 199.5C875.677 199.5 874.25 200.927 874.25 202.688C874.25 204.448 875.677 205.875 877.438 205.875Z" fill="#B5D4E5"/>
<path d="M891.239 184.942L885.992 181.696C885.338 181.292 884.513 181.272 883.84 181.647C883.168 182.023 882.75 182.733 882.75 183.504V189.996C882.75 190.766 883.169 191.478 883.84 191.852C884.162 192.031 884.518 192.119 884.874 192.119C885.263 192.119 885.651 192.013 885.992 191.803L891.239 188.556C891.869 188.166 892.246 187.49 892.246 186.749C892.246 186.007 891.869 185.332 891.238 184.941L891.239 184.942Z" fill="#EAF6FD"/>
<path d="M914.508 185.818L917.531 194.389H917.65L920.673 185.818H921.965L918.227 196H916.954L913.215 185.818H914.508ZM923.392 196V188.364H924.566V196H923.392ZM923.989 187.091C923.76 187.091 923.563 187.013 923.397 186.857C923.235 186.701 923.154 186.514 923.154 186.295C923.154 186.077 923.235 185.889 923.397 185.734C923.563 185.578 923.76 185.5 923.989 185.5C924.218 185.5 924.413 185.578 924.575 185.734C924.741 185.889 924.824 186.077 924.824 186.295C924.824 186.514 924.741 186.701 924.575 186.857C924.413 187.013 924.218 187.091 923.989 187.091ZM929.598 196.159C928.962 196.159 928.4 195.998 927.913 195.677C927.425 195.352 927.044 194.895 926.769 194.305C926.494 193.711 926.357 193.01 926.357 192.202C926.357 191.4 926.494 190.704 926.769 190.114C927.044 189.524 927.427 189.068 927.918 188.746C928.408 188.425 928.975 188.264 929.618 188.264C930.115 188.264 930.508 188.347 930.796 188.513C931.088 188.675 931.31 188.861 931.462 189.07C931.618 189.275 931.739 189.444 931.825 189.577H931.925V185.818H933.098V196H931.964V194.827H931.825C931.739 194.966 931.616 195.142 931.457 195.354C931.298 195.562 931.071 195.75 930.776 195.915C930.481 196.078 930.089 196.159 929.598 196.159ZM929.757 195.105C930.228 195.105 930.625 194.982 930.95 194.737C931.275 194.489 931.522 194.146 931.691 193.708C931.86 193.267 931.945 192.759 931.945 192.182C931.945 191.612 931.862 191.113 931.696 190.685C931.53 190.254 931.285 189.92 930.96 189.681C930.635 189.439 930.234 189.318 929.757 189.318C929.26 189.318 928.846 189.446 928.514 189.701C928.186 189.953 927.939 190.296 927.773 190.73C927.611 191.161 927.53 191.645 927.53 192.182C927.53 192.725 927.613 193.219 927.778 193.663C927.947 194.104 928.196 194.455 928.524 194.717C928.856 194.976 929.267 195.105 929.757 195.105ZM938.612 196.159C937.876 196.159 937.241 195.997 936.707 195.672C936.177 195.344 935.768 194.886 935.479 194.3C935.194 193.71 935.052 193.024 935.052 192.241C935.052 191.459 935.194 190.77 935.479 190.173C935.768 189.573 936.169 189.106 936.683 188.771C937.2 188.433 937.803 188.264 938.492 188.264C938.89 188.264 939.283 188.33 939.67 188.463C940.058 188.596 940.411 188.811 940.729 189.109C941.048 189.404 941.301 189.795 941.49 190.283C941.679 190.77 941.773 191.37 941.773 192.082V192.58H935.887V191.565H940.58C940.58 191.134 940.494 190.75 940.322 190.412C940.153 190.074 939.911 189.807 939.596 189.612C939.284 189.416 938.916 189.318 938.492 189.318C938.025 189.318 937.621 189.434 937.279 189.666C936.941 189.895 936.681 190.193 936.499 190.561C936.316 190.929 936.225 191.323 936.225 191.744V192.42C936.225 192.997 936.325 193.486 936.523 193.887C936.726 194.285 937.006 194.588 937.364 194.797C937.722 195.002 938.138 195.105 938.612 195.105C938.92 195.105 939.198 195.062 939.447 194.976C939.699 194.886 939.916 194.754 940.098 194.578C940.28 194.399 940.421 194.177 940.521 193.912L941.654 194.23C941.535 194.615 941.334 194.953 941.053 195.244C940.771 195.533 940.423 195.758 940.009 195.92C939.594 196.08 939.129 196.159 938.612 196.159ZM946.661 196.159C945.971 196.159 945.366 195.995 944.846 195.667C944.329 195.339 943.924 194.88 943.633 194.29C943.344 193.7 943.2 193.01 943.2 192.222C943.2 191.426 943.344 190.732 943.633 190.138C943.924 189.545 944.329 189.085 944.846 188.756C945.366 188.428 945.971 188.264 946.661 188.264C947.35 188.264 947.953 188.428 948.47 188.756C948.991 189.085 949.395 189.545 949.683 190.138C949.975 190.732 950.121 191.426 950.121 192.222C950.121 193.01 949.975 193.7 949.683 194.29C949.395 194.88 948.991 195.339 948.47 195.667C947.953 195.995 947.35 196.159 946.661 196.159ZM946.661 195.105C947.184 195.105 947.615 194.971 947.953 194.702C948.291 194.434 948.541 194.081 948.704 193.643C948.866 193.206 948.947 192.732 948.947 192.222C948.947 191.711 948.866 191.236 948.704 190.795C948.541 190.354 948.291 189.998 947.953 189.726C947.615 189.454 947.184 189.318 946.661 189.318C946.137 189.318 945.706 189.454 945.368 189.726C945.03 189.998 944.78 190.354 944.617 190.795C944.455 191.236 944.374 191.711 944.374 192.222C944.374 192.732 944.455 193.206 944.617 193.643C944.78 194.081 945.03 194.434 945.368 194.702C945.706 194.971 946.137 195.105 946.661 195.105ZM956.008 196V185.818H957.241V194.906H961.974V196H956.008ZM963.724 196V188.364H964.898V196H963.724ZM964.321 187.091C964.092 187.091 963.895 187.013 963.729 186.857C963.567 186.701 963.486 186.514 963.486 186.295C963.486 186.077 963.567 185.889 963.729 185.734C963.895 185.578 964.092 185.5 964.321 185.5C964.55 185.5 964.745 185.578 964.907 185.734C965.073 185.889 965.156 186.077 965.156 186.295C965.156 186.514 965.073 186.701 964.907 186.857C964.745 187.013 964.55 187.091 964.321 187.091ZM967.206 196V185.818H968.379V189.577H968.478C968.565 189.444 968.684 189.275 968.836 189.07C968.992 188.861 969.214 188.675 969.502 188.513C969.794 188.347 970.189 188.264 970.686 188.264C971.329 188.264 971.895 188.425 972.386 188.746C972.877 189.068 973.259 189.524 973.534 190.114C973.81 190.704 973.947 191.4 973.947 192.202C973.947 193.01 973.81 193.711 973.534 194.305C973.259 194.895 972.878 195.352 972.391 195.677C971.904 195.998 971.342 196.159 970.706 196.159C970.215 196.159 969.822 196.078 969.527 195.915C969.232 195.75 969.005 195.562 968.846 195.354C968.687 195.142 968.565 194.966 968.478 194.827H968.339V196H967.206ZM968.359 192.182C968.359 192.759 968.444 193.267 968.613 193.708C968.782 194.146 969.029 194.489 969.353 194.737C969.678 194.982 970.076 195.105 970.547 195.105C971.037 195.105 971.446 194.976 971.775 194.717C972.106 194.455 972.355 194.104 972.52 193.663C972.689 193.219 972.774 192.725 972.774 192.182C972.774 191.645 972.691 191.161 972.525 190.73C972.363 190.296 972.116 189.953 971.784 189.701C971.456 189.446 971.044 189.318 970.547 189.318C970.069 189.318 969.668 189.439 969.343 189.681C969.019 189.92 968.773 190.254 968.608 190.685C968.442 191.113 968.359 191.612 968.359 192.182ZM975.742 196V188.364H976.875V189.517H976.955C977.094 189.139 977.346 188.833 977.711 188.597C978.075 188.362 978.486 188.244 978.944 188.244C979.03 188.244 979.137 188.246 979.267 188.249C979.396 188.253 979.494 188.258 979.56 188.264V189.457C979.52 189.447 979.429 189.433 979.287 189.413C979.147 189.389 979 189.378 978.844 189.378C978.473 189.378 978.141 189.456 977.85 189.612C977.561 189.764 977.333 189.976 977.164 190.248C976.998 190.516 976.915 190.823 976.915 191.168V196H975.742ZM983.198 196.179C982.714 196.179 982.275 196.088 981.881 195.906C981.486 195.72 981.173 195.453 980.941 195.105C980.709 194.754 980.593 194.33 980.593 193.832C980.593 193.395 980.679 193.04 980.851 192.768C981.024 192.493 981.254 192.278 981.542 192.122C981.831 191.966 982.149 191.85 982.497 191.774C982.848 191.695 983.201 191.632 983.556 191.585C984.02 191.526 984.396 191.481 984.684 191.451C984.976 191.418 985.188 191.363 985.321 191.287C985.457 191.211 985.525 191.078 985.525 190.889V190.849C985.525 190.359 985.39 189.978 985.122 189.706C984.857 189.434 984.454 189.298 983.914 189.298C983.354 189.298 982.915 189.421 982.596 189.666C982.278 189.911 982.055 190.173 981.925 190.452L980.812 190.054C981.01 189.59 981.276 189.229 981.607 188.97C981.942 188.708 982.306 188.526 982.701 188.423C983.099 188.317 983.49 188.264 983.874 188.264C984.119 188.264 984.401 188.294 984.719 188.354C985.041 188.41 985.351 188.528 985.649 188.707C985.951 188.886 986.201 189.156 986.4 189.517C986.599 189.878 986.698 190.362 986.698 190.969V196H985.525V194.966H985.465C985.385 195.132 985.253 195.309 985.067 195.498C984.882 195.687 984.635 195.848 984.327 195.98C984.018 196.113 983.642 196.179 983.198 196.179ZM983.377 195.125C983.841 195.125 984.232 195.034 984.55 194.852C984.872 194.669 985.114 194.434 985.276 194.146C985.442 193.857 985.525 193.554 985.525 193.236V192.162C985.475 192.222 985.366 192.276 985.197 192.326C985.031 192.372 984.839 192.414 984.62 192.45C984.404 192.483 984.194 192.513 983.988 192.54C983.786 192.563 983.622 192.583 983.496 192.599C983.191 192.639 982.906 192.704 982.641 192.793C982.379 192.879 982.167 193.01 982.005 193.186C981.846 193.358 981.766 193.594 981.766 193.892C981.766 194.3 981.917 194.608 982.219 194.817C982.523 195.022 982.91 195.125 983.377 195.125ZM988.839 196V188.364H989.973V189.517H990.053C990.192 189.139 990.444 188.833 990.808 188.597C991.173 188.362 991.584 188.244 992.041 188.244C992.127 188.244 992.235 188.246 992.364 188.249C992.494 188.253 992.591 188.258 992.658 188.264V189.457C992.618 189.447 992.527 189.433 992.384 189.413C992.245 189.389 992.098 189.378 991.942 189.378C991.571 189.378 991.239 189.456 990.947 189.612C990.659 189.764 990.43 189.976 990.261 190.248C990.096 190.516 990.013 190.823 990.013 191.168V196H988.839ZM995.037 198.864C994.838 198.864 994.66 198.847 994.505 198.814C994.349 198.784 994.241 198.754 994.181 198.724L994.48 197.69C994.765 197.763 995.017 197.79 995.235 197.77C995.454 197.75 995.648 197.652 995.817 197.477C995.989 197.304 996.147 197.024 996.289 196.636L996.508 196.04L993.684 188.364H994.957L997.065 194.449H997.145L999.252 188.364H1000.53L997.284 197.114C997.138 197.508 996.957 197.835 996.742 198.093C996.526 198.355 996.276 198.549 995.991 198.675C995.709 198.801 995.391 198.864 995.037 198.864Z" fill="#212121"/>
<rect x="849.5" y="246.5" width="172" height="53" rx="26.5" fill="white"/>
<rect x="849.5" y="246.5" width="172" height="53" rx="26.5" stroke="#F1F1F1"/>
<g clip-path="url(#clip2_471_3563)">
<path d="M888.636 259.649L878.993 266.359L878.798 266.872H876.885V279.043H878.829L878.993 279.641L888.636 286.352C889.166 286.721 889.894 286.341 889.894 285.694V273V260.306C889.894 259.659 889.166 259.279 888.636 259.649Z" fill="#B6C4CF"/>
<path d="M892.772 270.162C892.488 270.513 892.507 270.989 892.807 271.329C893.216 271.793 893.462 272.381 893.465 273.021C893.468 273.661 893.228 274.251 892.823 274.718C892.527 275.061 892.512 275.538 892.799 275.886C893.21 276.383 894.033 276.401 894.46 275.915C895.16 275.117 895.577 274.107 895.572 273.011C895.567 271.915 895.14 270.909 894.433 270.117C894.001 269.635 893.178 269.661 892.772 270.162Z" fill="#F79595"/>
<path d="M895.306 267.045L895.306 267.046C894.99 267.436 895.052 267.974 895.438 268.308C896.811 269.494 897.67 271.162 897.679 273.012C897.688 274.862 896.844 276.539 895.483 277.737C895.099 278.075 895.042 278.613 895.362 279.001L895.363 279.001C895.743 279.461 896.483 279.514 896.939 279.114C898.703 277.565 899.797 275.396 899.786 273.002C899.775 270.609 898.66 268.45 896.882 266.918C896.422 266.522 895.682 266.581 895.306 267.045Z" fill="#FD8087"/>
<path d="M897.815 263.963L897.814 263.964C897.492 264.362 897.556 264.918 897.966 265.242C900.36 267.131 901.881 269.908 901.895 273.004C901.91 276.1 900.416 278.89 898.04 280.802C897.632 281.13 897.573 281.686 897.899 282.081L897.9 282.082C898.268 282.528 898.98 282.596 899.439 282.226C902.251 279.962 904.019 276.659 904.002 272.994C903.985 269.329 902.186 266.043 899.353 263.805C898.89 263.439 898.178 263.514 897.815 263.963Z" fill="#FE646F"/>
<path d="M888.635 283.716L878.992 277.006V279.641L888.635 286.352C889.166 286.721 889.893 286.341 889.893 285.694V283.059C889.893 283.706 889.166 284.086 888.635 283.716Z" fill="#9FACBA"/>
<path d="M878.992 279.642H872.032C870.91 279.642 870 278.732 870 277.609V268.392C870 267.269 870.91 266.359 872.032 266.359H878.992V279.642Z" fill="#596C76"/>
<path d="M870 274.974V277.609C870 278.731 870.91 279.641 872.032 279.641H878.992V277.006H872.032C870.91 277.006 870 276.096 870 274.974Z" fill="#465A61"/>
</g>
<path d="M914.522 278H913.229L916.968 267.818H918.24L921.979 278H920.686L917.644 269.429H917.564L914.522 278ZM914.999 274.023H920.209V275.116H914.999V274.023ZM928.218 274.878V270.364H929.392V278H928.218V276.707H928.139C927.96 277.095 927.681 277.425 927.304 277.697C926.926 277.965 926.449 278.099 925.872 278.099C925.395 278.099 924.97 277.995 924.599 277.786C924.228 277.574 923.936 277.256 923.724 276.832C923.512 276.404 923.406 275.866 923.406 275.216V270.364H924.579V275.136C924.579 275.693 924.735 276.137 925.047 276.469C925.361 276.8 925.762 276.966 926.25 276.966C926.541 276.966 926.838 276.891 927.14 276.742C927.444 276.593 927.7 276.364 927.905 276.056C928.114 275.748 928.218 275.355 928.218 274.878ZM934.424 278.159C933.788 278.159 933.226 277.998 932.739 277.677C932.252 277.352 931.87 276.895 931.595 276.305C931.32 275.711 931.183 275.01 931.183 274.202C931.183 273.4 931.32 272.704 931.595 272.114C931.87 271.524 932.253 271.068 932.744 270.746C933.234 270.425 933.801 270.264 934.444 270.264C934.941 270.264 935.334 270.347 935.622 270.513C935.914 270.675 936.136 270.861 936.289 271.07C936.444 271.275 936.565 271.444 936.651 271.577H936.751V267.818H937.924V278H936.791V276.827H936.651C936.565 276.966 936.443 277.142 936.284 277.354C936.124 277.562 935.897 277.75 935.602 277.915C935.307 278.078 934.915 278.159 934.424 278.159ZM934.583 277.105C935.054 277.105 935.452 276.982 935.776 276.737C936.101 276.489 936.348 276.146 936.517 275.708C936.686 275.267 936.771 274.759 936.771 274.182C936.771 273.612 936.688 273.113 936.522 272.685C936.356 272.254 936.111 271.92 935.786 271.681C935.462 271.439 935.061 271.318 934.583 271.318C934.086 271.318 933.672 271.446 933.34 271.701C933.012 271.953 932.765 272.296 932.6 272.73C932.437 273.161 932.356 273.645 932.356 274.182C932.356 274.725 932.439 275.219 932.605 275.663C932.774 276.104 933.022 276.455 933.35 276.717C933.682 276.976 934.093 277.105 934.583 277.105ZM940.236 278V270.364H941.409V278H940.236ZM940.833 269.091C940.604 269.091 940.407 269.013 940.241 268.857C940.079 268.701 939.997 268.514 939.997 268.295C939.997 268.077 940.079 267.889 940.241 267.734C940.407 267.578 940.604 267.5 940.833 267.5C941.061 267.5 941.257 267.578 941.419 267.734C941.585 267.889 941.668 268.077 941.668 268.295C941.668 268.514 941.585 268.701 941.419 268.857C941.257 269.013 941.061 269.091 940.833 269.091ZM946.661 278.159C945.971 278.159 945.366 277.995 944.846 277.667C944.329 277.339 943.924 276.88 943.633 276.29C943.344 275.7 943.2 275.01 943.2 274.222C943.2 273.426 943.344 272.732 943.633 272.138C943.924 271.545 944.329 271.085 944.846 270.756C945.366 270.428 945.971 270.264 946.661 270.264C947.35 270.264 947.953 270.428 948.47 270.756C948.991 271.085 949.395 271.545 949.683 272.138C949.975 272.732 950.121 273.426 950.121 274.222C950.121 275.01 949.975 275.7 949.683 276.29C949.395 276.88 948.991 277.339 948.47 277.667C947.953 277.995 947.35 278.159 946.661 278.159ZM946.661 277.105C947.184 277.105 947.615 276.971 947.953 276.702C948.291 276.434 948.541 276.081 948.704 275.643C948.866 275.206 948.947 274.732 948.947 274.222C948.947 273.711 948.866 273.236 948.704 272.795C948.541 272.354 948.291 271.998 947.953 271.726C947.615 271.454 947.184 271.318 946.661 271.318C946.137 271.318 945.706 271.454 945.368 271.726C945.03 271.998 944.78 272.354 944.617 272.795C944.455 273.236 944.374 273.711 944.374 274.222C944.374 274.732 944.455 275.206 944.617 275.643C944.78 276.081 945.03 276.434 945.368 276.702C945.706 276.971 946.137 277.105 946.661 277.105ZM956.008 278V267.818H957.241V276.906H961.974V278H956.008ZM963.724 278V270.364H964.898V278H963.724ZM964.321 269.091C964.092 269.091 963.895 269.013 963.729 268.857C963.567 268.701 963.486 268.514 963.486 268.295C963.486 268.077 963.567 267.889 963.729 267.734C963.895 267.578 964.092 267.5 964.321 267.5C964.55 267.5 964.745 267.578 964.907 267.734C965.073 267.889 965.156 268.077 965.156 268.295C965.156 268.514 965.073 268.701 964.907 268.857C964.745 269.013 964.55 269.091 964.321 269.091ZM967.206 278V267.818H968.379V271.577H968.478C968.565 271.444 968.684 271.275 968.836 271.07C968.992 270.861 969.214 270.675 969.502 270.513C969.794 270.347 970.189 270.264 970.686 270.264C971.329 270.264 971.895 270.425 972.386 270.746C972.877 271.068 973.259 271.524 973.534 272.114C973.81 272.704 973.947 273.4 973.947 274.202C973.947 275.01 973.81 275.711 973.534 276.305C973.259 276.895 972.878 277.352 972.391 277.677C971.904 277.998 971.342 278.159 970.706 278.159C970.215 278.159 969.822 278.078 969.527 277.915C969.232 277.75 969.005 277.562 968.846 277.354C968.687 277.142 968.565 276.966 968.478 276.827H968.339V278H967.206ZM968.359 274.182C968.359 274.759 968.444 275.267 968.613 275.708C968.782 276.146 969.029 276.489 969.353 276.737C969.678 276.982 970.076 277.105 970.547 277.105C971.037 277.105 971.446 276.976 971.775 276.717C972.106 276.455 972.355 276.104 972.52 275.663C972.689 275.219 972.774 274.725 972.774 274.182C972.774 273.645 972.691 273.161 972.525 272.73C972.363 272.296 972.116 271.953 971.784 271.701C971.456 271.446 971.044 271.318 970.547 271.318C970.069 271.318 969.668 271.439 969.343 271.681C969.019 271.92 968.773 272.254 968.608 272.685C968.442 273.113 968.359 273.612 968.359 274.182ZM975.742 278V270.364H976.875V271.517H976.955C977.094 271.139 977.346 270.833 977.711 270.597C978.075 270.362 978.486 270.244 978.944 270.244C979.03 270.244 979.137 270.246 979.267 270.249C979.396 270.253 979.494 270.258 979.56 270.264V271.457C979.52 271.447 979.429 271.433 979.287 271.413C979.147 271.389 979 271.378 978.844 271.378C978.473 271.378 978.141 271.456 977.85 271.612C977.561 271.764 977.333 271.976 977.164 272.248C976.998 272.516 976.915 272.823 976.915 273.168V278H975.742ZM983.198 278.179C982.714 278.179 982.275 278.088 981.881 277.906C981.486 277.72 981.173 277.453 980.941 277.105C980.709 276.754 980.593 276.33 980.593 275.832C980.593 275.395 980.679 275.04 980.851 274.768C981.024 274.493 981.254 274.278 981.542 274.122C981.831 273.966 982.149 273.85 982.497 273.774C982.848 273.695 983.201 273.632 983.556 273.585C984.02 273.526 984.396 273.481 984.684 273.451C984.976 273.418 985.188 273.363 985.321 273.287C985.457 273.211 985.525 273.078 985.525 272.889V272.849C985.525 272.359 985.39 271.978 985.122 271.706C984.857 271.434 984.454 271.298 983.914 271.298C983.354 271.298 982.915 271.421 982.596 271.666C982.278 271.911 982.055 272.173 981.925 272.452L980.812 272.054C981.01 271.59 981.276 271.229 981.607 270.97C981.942 270.708 982.306 270.526 982.701 270.423C983.099 270.317 983.49 270.264 983.874 270.264C984.119 270.264 984.401 270.294 984.719 270.354C985.041 270.41 985.351 270.528 985.649 270.707C985.951 270.886 986.201 271.156 986.4 271.517C986.599 271.878 986.698 272.362 986.698 272.969V278H985.525V276.966H985.465C985.385 277.132 985.253 277.309 985.067 277.498C984.882 277.687 984.635 277.848 984.327 277.98C984.018 278.113 983.642 278.179 983.198 278.179ZM983.377 277.125C983.841 277.125 984.232 277.034 984.55 276.852C984.872 276.669 985.114 276.434 985.276 276.146C985.442 275.857 985.525 275.554 985.525 275.236V274.162C985.475 274.222 985.366 274.276 985.197 274.326C985.031 274.372 984.839 274.414 984.62 274.45C984.404 274.483 984.194 274.513 983.988 274.54C983.786 274.563 983.622 274.583 983.496 274.599C983.191 274.639 982.906 274.704 982.641 274.793C982.379 274.879 982.167 275.01 982.005 275.186C981.846 275.358 981.766 275.594 981.766 275.892C981.766 276.3 981.917 276.608 982.219 276.817C982.523 277.022 982.91 277.125 983.377 277.125ZM988.839 278V270.364H989.973V271.517H990.053C990.192 271.139 990.444 270.833 990.808 270.597C991.173 270.362 991.584 270.244 992.041 270.244C992.127 270.244 992.235 270.246 992.364 270.249C992.494 270.253 992.591 270.258 992.658 270.264V271.457C992.618 271.447 992.527 271.433 992.384 271.413C992.245 271.389 992.098 271.378 991.942 271.378C991.571 271.378 991.239 271.456 990.947 271.612C990.659 271.764 990.43 271.976 990.261 272.248C990.096 272.516 990.013 272.823 990.013 273.168V278H988.839ZM995.037 280.864C994.838 280.864 994.66 280.847 994.505 280.814C994.349 280.784 994.241 280.754 994.181 280.724L994.48 279.69C994.765 279.763 995.017 279.79 995.235 279.77C995.454 279.75 995.648 279.652 995.817 279.477C995.989 279.304 996.147 279.024 996.289 278.636L996.508 278.04L993.684 270.364H994.957L997.065 276.449H997.145L999.252 270.364H1000.53L997.284 279.114C997.138 279.508 996.957 279.835 996.742 280.093C996.526 280.355 996.276 280.549 995.991 280.675C995.709 280.801 995.391 280.864 995.037 280.864Z" fill="#212121"/>
<rect x="849.5" y="0.5" width="106" height="53" rx="26.5" fill="white"/>
<rect x="849.5" y="0.5" width="106" height="53" rx="26.5" stroke="#F1F1F1"/>
<path d="M892.454 10H874.834C874.343 10 873.945 10.3977 873.945 11.1694V43.3929C873.945 43.6023 874.343 44 874.834 44H899.164C899.655 44 900.052 43.6023 900.052 43.3929V17.8795C900.052 17.4569 899.996 17.3209 899.896 17.2207L892.832 10.156C892.732 10.0565 892.596 10 892.454 10Z" fill="#E9E9E0"/>
<path d="M892.766 10.0918V17.2858H899.96L892.766 10.0918Z" fill="#D9D7CA"/>
<path d="M881.847 30.2326C881.635 30.2326 881.433 30.164 881.26 30.0347C880.628 29.5605 880.543 29.0329 880.583 28.6735C880.693 27.6851 881.915 26.6505 884.216 25.5965C885.129 23.5953 885.998 21.1297 886.516 19.0697C885.91 17.751 885.321 16.0401 885.751 15.0364C885.901 14.6849 886.089 14.4153 886.439 14.2988C886.578 14.2526 886.927 14.1943 887.056 14.1943C887.362 14.1943 887.631 14.5884 887.822 14.8312C888.001 15.0595 888.407 15.5434 887.595 18.961C888.414 20.6513 889.573 22.3732 890.684 23.5522C891.48 23.4083 892.165 23.3349 892.723 23.3349C893.674 23.3349 894.25 23.5565 894.485 24.0131C894.679 24.3907 894.6 24.8321 894.248 25.3245C893.91 25.7974 893.444 26.0476 892.9 26.0476C892.162 26.0476 891.302 25.5813 890.344 24.6603C888.621 25.0203 886.61 25.6627 884.984 26.3736C884.476 27.4507 883.99 28.3183 883.537 28.9546C882.915 29.8258 882.378 30.2326 881.847 30.2326ZM883.463 27.1204C882.165 27.8496 881.637 28.4488 881.598 28.7864C881.592 28.8423 881.576 28.9892 881.86 29.2066C881.95 29.178 882.479 28.937 883.463 27.1204ZM891.742 24.4235C892.237 24.8042 892.358 24.9966 892.682 24.9966C892.824 24.9966 893.229 24.9906 893.416 24.7289C893.507 24.602 893.542 24.5206 893.556 24.4769C893.481 24.4374 893.382 24.3573 892.843 24.3573C892.536 24.3579 892.15 24.3713 891.742 24.4235ZM887.207 20.4273C886.773 21.9293 886.2 23.551 885.584 25.0197C886.853 24.5273 888.232 24.0974 889.528 23.7933C888.708 22.8413 887.889 21.6525 887.207 20.4273ZM886.839 15.2896C886.779 15.3097 886.031 16.3564 886.897 17.2422C887.473 15.9581 886.865 15.2811 886.839 15.2896Z" fill="#CC4B4C"/>
<path d="M899.164 43.9992H874.834C874.343 43.9992 873.945 43.6015 873.945 43.1109V33.6777H900.052V43.1109C900.052 43.6015 899.655 43.9992 899.164 43.9992Z" fill="#CC4B4C"/>
<path d="M880.553 42.1791H879.557V36.0615H881.316C881.576 36.0615 881.833 36.1028 882.088 36.186C882.342 36.2692 882.57 36.3936 882.773 36.5594C882.975 36.7251 883.138 36.9261 883.263 37.1611C883.387 37.396 883.45 37.6601 883.45 37.954C883.45 38.2642 883.397 38.5447 883.292 38.7967C883.187 39.0487 883.04 39.2606 882.852 39.4318C882.663 39.603 882.436 39.736 882.171 39.8301C881.906 39.9242 881.612 39.9709 881.291 39.9709H880.552L880.553 42.1791ZM880.553 36.8168V39.2405H881.466C881.588 39.2405 881.708 39.2199 881.827 39.178C881.946 39.1367 882.056 39.0687 882.155 38.9746C882.255 38.8805 882.335 38.7493 882.396 38.5806C882.456 38.4118 882.487 38.2029 882.487 37.954C882.487 37.8544 882.473 37.7391 882.445 37.6097C882.417 37.4798 882.361 37.3553 882.275 37.2363C882.189 37.1173 882.069 37.0178 881.914 36.9376C881.759 36.8575 881.554 36.8174 881.3 36.8174L880.553 36.8168Z" fill="white"/>
<path d="M889.56 38.9503C889.56 39.4536 889.506 39.8841 889.398 40.2411C889.29 40.5981 889.153 40.8968 888.987 41.1378C888.821 41.3789 888.634 41.5683 888.427 41.7067C888.219 41.8452 888.019 41.9484 887.825 42.0182C887.631 42.0874 887.454 42.1317 887.294 42.1512C887.133 42.1694 887.014 42.1791 886.937 42.1791H884.621V36.0615H886.464C886.979 36.0615 887.431 36.1435 887.821 36.3062C888.211 36.4689 888.535 36.6869 888.792 36.9577C889.05 37.2285 889.241 37.5375 889.369 37.883C889.496 38.229 889.56 38.5848 889.56 38.9503ZM886.605 41.4487C887.28 41.4487 887.767 41.2332 888.066 40.8015C888.365 40.3698 888.514 39.7445 888.514 38.9254C888.514 38.671 888.484 38.4191 888.423 38.1701C888.362 37.9212 888.245 37.696 888.07 37.4938C887.896 37.2916 887.659 37.1283 887.361 37.0038C887.062 36.8793 886.674 36.8168 886.198 36.8168H885.617V41.4487H886.605Z" fill="white"/>
<path d="M892.017 36.8168V38.7427H894.573V39.4233H892.017V42.1791H891.004V36.0615H894.83V36.8168H892.017Z" fill="white"/>
<path d="M913.688 32V21.8182H917.128C917.927 21.8182 918.58 21.9624 919.087 22.2507C919.598 22.5357 919.975 22.9219 920.221 23.4091C920.466 23.8963 920.589 24.4399 920.589 25.0398C920.589 25.6397 920.466 26.1849 920.221 26.6754C919.979 27.166 919.604 27.5571 919.097 27.8487C918.59 28.1371 917.94 28.2812 917.148 28.2812H914.682V27.1875H917.108C917.655 27.1875 918.095 27.093 918.426 26.9041C918.757 26.7152 918.998 26.46 919.147 26.1385C919.299 25.8137 919.376 25.4474 919.376 25.0398C919.376 24.6321 919.299 24.2675 919.147 23.946C918.998 23.6245 918.756 23.3726 918.421 23.1903C918.086 23.0047 917.642 22.9119 917.089 22.9119H914.921V32H913.688ZM925.217 32.1591C924.581 32.1591 924.019 31.9983 923.532 31.6768C923.045 31.352 922.663 30.8946 922.388 30.3047C922.113 29.7114 921.976 29.0104 921.976 28.2017C921.976 27.3996 922.113 26.7036 922.388 26.1136C922.663 25.5237 923.046 25.0679 923.537 24.7464C924.027 24.425 924.594 24.2642 925.237 24.2642C925.734 24.2642 926.127 24.3471 926.415 24.5128C926.707 24.6752 926.929 24.8608 927.081 25.0696C927.237 25.2751 927.358 25.4441 927.444 25.5767H927.544V21.8182H928.717V32H927.584V30.8267H927.444C927.358 30.9659 927.236 31.1416 927.077 31.3537C926.917 31.5625 926.69 31.7498 926.395 31.9155C926.1 32.0779 925.708 32.1591 925.217 32.1591ZM925.376 31.1051C925.847 31.1051 926.245 30.9825 926.569 30.7372C926.894 30.4886 927.141 30.1456 927.31 29.7081C927.479 29.2673 927.564 28.7585 927.564 28.1818C927.564 27.6117 927.481 27.1129 927.315 26.6854C927.149 26.2545 926.904 25.9197 926.579 25.6811C926.255 25.4392 925.854 25.3182 925.376 25.3182C924.879 25.3182 924.465 25.4458 924.133 25.701C923.805 25.9529 923.558 26.2959 923.393 26.7301C923.23 27.161 923.149 27.6449 923.149 28.1818C923.149 28.7254 923.232 29.2192 923.398 29.6634C923.567 30.1042 923.815 30.4555 924.143 30.7173C924.475 30.9759 924.886 31.1051 925.376 31.1051ZM934.43 24.3636V25.358H930.313V24.3636H934.43ZM931.546 32V23.3097C931.546 22.8722 931.649 22.5076 931.854 22.2159C932.06 21.9242 932.327 21.7055 932.655 21.5597C932.983 21.4138 933.329 21.3409 933.694 21.3409C933.982 21.3409 934.217 21.3641 934.4 21.4105C934.582 21.4569 934.718 21.5 934.807 21.5398L934.469 22.554C934.41 22.5341 934.327 22.5092 934.221 22.4794C934.118 22.4496 933.982 22.4347 933.813 22.4347C933.425 22.4347 933.145 22.5324 932.973 22.728C932.804 22.9235 932.719 23.2102 932.719 23.5881V32H931.546Z" fill="#212121"/>
<rect x="849.5" y="328.5" width="110" height="53" rx="26.5" fill="white"/>
<rect x="849.5" y="328.5" width="110" height="53" rx="26.5" stroke="#F1F1F1"/>
<path d="M890.336 367.531H875.795V369.388C875.795 370.081 876.07 370.745 876.56 371.235C877.049 371.725 877.714 372 878.406 372H898.117C898.81 372 899.474 371.725 899.963 371.235C900.453 370.745 900.728 370.081 900.728 369.389V347.161L891.567 338H878.406C877.714 338 877.049 338.275 876.56 338.765C876.07 339.254 875.795 339.919 875.795 340.611V353.991H890.336C890.497 353.991 890.658 354.023 890.807 354.085C890.956 354.146 891.092 354.237 891.207 354.352C891.321 354.466 891.412 354.602 891.473 354.751C891.535 354.901 891.567 355.061 891.567 355.223V366.299C891.567 366.461 891.535 366.621 891.473 366.77C891.412 366.92 891.321 367.055 891.206 367.17C891.092 367.284 890.956 367.375 890.807 367.437C890.657 367.499 890.497 367.531 890.336 367.531Z" fill="#EAEAE4"/>
<path d="M900.729 347.161L891.568 338V344.55C891.568 345.242 891.844 345.906 892.333 346.396C892.823 346.885 893.487 347.161 894.18 347.161H900.729Z" fill="#BABAB9"/>
<path d="M890.336 353.991H871.232C870.551 353.991 870 354.543 870 355.223V366.299C870 366.979 870.551 367.531 871.232 367.531H890.336C891.016 367.531 891.567 366.979 891.567 366.299V355.223C891.567 354.543 891.016 353.991 890.336 353.991Z" fill="#2568EF"/>
<path d="M877.293 360.757C877.293 359.163 875.992 358.037 874.16 358.037H872.209V363.486H874.16C875.992 363.486 877.293 362.352 877.293 360.757ZM874.311 362.423H873.375V359.098H874.311C874.537 359.085 874.764 359.117 874.978 359.195C875.192 359.272 875.387 359.392 875.552 359.548C875.718 359.704 875.849 359.892 875.94 360.1C876.03 360.309 876.076 360.533 876.076 360.761C876.076 360.988 876.03 361.212 875.94 361.421C875.849 361.629 875.718 361.817 875.552 361.973C875.387 362.129 875.192 362.249 874.978 362.326C874.764 362.404 874.537 362.436 874.311 362.423Z" fill="#FFFCEE"/>
<path d="M883.853 360.757C883.867 360.181 883.71 359.614 883.4 359.129C883.091 358.643 882.644 358.261 882.116 358.031C881.588 357.8 881.004 357.733 880.438 357.836C879.871 357.94 879.349 358.21 878.936 358.612C878.524 359.014 878.241 359.53 878.124 360.093C878.006 360.657 878.059 361.243 878.276 361.776C878.493 362.309 878.864 362.766 879.342 363.087C879.82 363.409 880.382 363.58 880.958 363.58C881.714 363.583 882.442 363.289 882.983 362.761C883.524 362.233 883.837 361.513 883.853 360.757ZM879.269 360.757C879.282 360.425 879.392 360.104 879.586 359.834C879.781 359.564 880.05 359.357 880.361 359.239C880.672 359.121 881.01 359.097 881.335 359.17C881.659 359.243 881.955 359.41 882.185 359.65C882.415 359.89 882.57 360.192 882.629 360.519C882.689 360.847 882.651 361.184 882.52 361.49C882.389 361.795 882.172 362.056 881.894 362.239C881.616 362.422 881.291 362.519 880.958 362.518C880.503 362.502 880.072 362.309 879.757 361.98C879.441 361.651 879.266 361.213 879.269 360.757Z" fill="#FFFCEE"/>
<path d="M887.48 359.005C887.723 359.01 887.962 359.067 888.181 359.172C888.399 359.278 888.593 359.429 888.749 359.615L889.598 358.854C889.283 358.491 888.883 358.213 888.433 358.047C887.983 357.88 887.498 357.829 887.023 357.899C886.548 357.969 886.099 358.158 885.716 358.448C885.333 358.737 885.03 359.119 884.834 359.557C884.637 359.995 884.555 360.475 884.593 360.954C884.632 361.432 884.79 361.893 885.054 362.294C885.318 362.695 885.678 363.023 886.102 363.248C886.526 363.473 887 363.587 887.48 363.58C887.876 363.579 888.268 363.497 888.632 363.34C888.996 363.184 889.324 362.956 889.598 362.669L888.749 361.908C888.593 362.095 888.4 362.246 888.181 362.351C887.962 362.456 887.723 362.513 887.48 362.518C887.027 362.499 886.598 362.306 886.284 361.979C885.97 361.651 885.795 361.215 885.795 360.761C885.795 360.308 885.97 359.872 886.284 359.544C886.598 359.217 887.027 359.024 887.48 359.005Z" fill="#FFFCEE"/>
<path d="M917.139 360H913.997V349.818H917.278C918.266 349.818 919.111 350.022 919.813 350.43C920.516 350.834 921.055 351.416 921.429 352.175C921.804 352.93 921.991 353.835 921.991 354.889C921.991 355.95 921.802 356.863 921.424 357.629C921.046 358.391 920.496 358.978 919.774 359.388C919.051 359.796 918.173 360 917.139 360ZM915.23 358.906H917.059C917.901 358.906 918.599 358.744 919.152 358.419C919.706 358.094 920.118 357.632 920.39 357.032C920.662 356.432 920.798 355.718 920.798 354.889C920.798 354.067 920.664 353.36 920.395 352.766C920.127 352.17 919.726 351.712 919.192 351.394C918.658 351.073 917.994 350.912 917.198 350.912H915.23V358.906ZM927.002 360.159C926.313 360.159 925.708 359.995 925.188 359.667C924.671 359.339 924.266 358.88 923.975 358.29C923.686 357.7 923.542 357.01 923.542 356.222C923.542 355.426 923.686 354.732 923.975 354.138C924.266 353.545 924.671 353.085 925.188 352.756C925.708 352.428 926.313 352.264 927.002 352.264C927.692 352.264 928.295 352.428 928.812 352.756C929.332 353.085 929.737 353.545 930.025 354.138C930.317 354.732 930.463 355.426 930.463 356.222C930.463 357.01 930.317 357.7 930.025 358.29C929.737 358.88 929.332 359.339 928.812 359.667C928.295 359.995 927.692 360.159 927.002 360.159ZM927.002 359.105C927.526 359.105 927.957 358.971 928.295 358.702C928.633 358.434 928.883 358.081 929.046 357.643C929.208 357.206 929.289 356.732 929.289 356.222C929.289 355.711 929.208 355.236 929.046 354.795C928.883 354.354 928.633 353.998 928.295 353.726C927.957 353.454 927.526 353.318 927.002 353.318C926.479 353.318 926.048 353.454 925.71 353.726C925.372 353.998 925.121 354.354 924.959 354.795C924.797 355.236 924.715 355.711 924.715 356.222C924.715 356.732 924.797 357.206 924.959 357.643C925.121 358.081 925.372 358.434 925.71 358.702C926.048 358.971 926.479 359.105 927.002 359.105ZM935.356 360.159C934.64 360.159 934.023 359.99 933.506 359.652C932.989 359.314 932.592 358.848 932.313 358.255C932.035 357.662 931.896 356.984 931.896 356.222C931.896 355.446 932.038 354.762 932.323 354.168C932.612 353.572 933.013 353.106 933.526 352.771C934.043 352.433 934.647 352.264 935.336 352.264C935.873 352.264 936.357 352.364 936.788 352.562C937.219 352.761 937.571 353.04 937.847 353.398C938.122 353.756 938.292 354.173 938.359 354.651H937.185C937.096 354.303 936.897 353.994 936.589 353.726C936.284 353.454 935.873 353.318 935.356 353.318C934.898 353.318 934.497 353.437 934.153 353.676C933.811 353.911 933.545 354.245 933.352 354.675C933.163 355.103 933.069 355.605 933.069 356.182C933.069 356.772 933.162 357.286 933.347 357.723C933.536 358.161 933.801 358.5 934.143 358.742C934.487 358.984 934.892 359.105 935.356 359.105C935.661 359.105 935.938 359.052 936.186 358.946C936.435 358.84 936.645 358.688 936.817 358.489C936.99 358.29 937.112 358.051 937.185 357.773H938.359C938.292 358.223 938.128 358.629 937.866 358.991C937.608 359.349 937.265 359.634 936.837 359.846C936.413 360.055 935.919 360.159 935.356 360.159Z" fill="#212121"/>
<defs>
<linearGradient id="paint0_linear_471_3563" x1="878.848" y1="94.9272" x2="895.052" y2="122.899" gradientUnits="userSpaceOnUse">
<stop stop-color="#FAAD5F"/>
<stop offset="0.09" stop-color="#FBA659"/>
<stop offset="0.69" stop-color="#FE7E35"/>
<stop offset="1" stop-color="#FF6F27"/>
</linearGradient>
<linearGradient id="paint1_linear_471_3563" x1="881.582" y1="124.509" x2="897.915" y2="106.568" gradientUnits="userSpaceOnUse">
<stop stop-color="#FF6F27"/>
<stop offset="1" stop-color="#FF5E1F"/>
</linearGradient>
<linearGradient id="paint2_linear_471_3563" x1="879.741" y1="124.028" x2="893.196" y2="112.453" gradientUnits="userSpaceOnUse">
<stop stop-color="#FF6B2C"/>
<stop offset="1" stop-color="#FF2D0F"/>
</linearGradient>
<clipPath id="clip0_471_3563">
<rect width="24" height="24" fill="white" transform="translate(54.5 171)"/>
</clipPath>
<clipPath id="clip1_471_3563">
<rect width="34" height="34" fill="white" transform="translate(870 92)"/>
</clipPath>
<clipPath id="clip2_471_3563">
<rect width="34" height="34" fill="white" transform="translate(870 256)"/>
</clipPath>
</defs>
</svg>
