<svg width="595" height="456" viewBox="0 0 595 456" fill="none" xmlns="http://www.w3.org/2000/svg">
<rect y="35" width="595" height="421" rx="30" fill="#F2ED7B"/>
<rect x="135.5" y="0.5" width="288" height="399" rx="13.5" fill="white" stroke="#83DEFC"/>
<path d="M135 14C135 6.26801 141.268 0 149 0H410C417.732 0 424 6.26801 424 14V49H135V14Z" fill="#83DEFC"/>
<g clip-path="url(#clip0_710_5206)">
<path d="M158.445 25.3701C159.118 25.3701 159.664 24.8245 159.664 24.1514C159.664 23.4783 159.118 22.9326 158.445 22.9326C157.772 22.9326 157.227 23.4783 157.227 24.1514C157.227 24.8245 157.772 25.3701 158.445 25.3701Z" fill="#24282C"/>
<path d="M163 25.3701C163.673 25.3701 164.219 24.8245 164.219 24.1514C164.219 23.4783 163.673 22.9326 163 22.9326C162.327 22.9326 161.781 23.4783 161.781 24.1514C161.781 24.8245 162.327 25.3701 163 25.3701Z" fill="#24282C"/>
<path d="M167.555 25.3701C168.228 25.3701 168.773 24.8245 168.773 24.1514C168.773 23.4783 168.228 22.9326 167.555 22.9326C166.882 22.9326 166.336 23.4783 166.336 24.1514C166.336 24.8245 166.882 25.3701 167.555 25.3701Z" fill="#24282C"/>
<path d="M175.031 14.2893C175.032 13.8169 174.846 13.3634 174.512 13.0285C174.347 12.8628 174.151 12.7311 173.935 12.6411C173.72 12.5511 173.488 12.5045 173.254 12.5039C172.782 12.5028 172.328 12.6894 171.993 13.0227C171.659 13.356 171.47 13.8086 171.469 14.281C171.469 14.7043 171.621 15.1135 171.896 15.4353C172.17 15.7572 172.551 15.9708 172.969 16.0379V21.1739C172.969 21.2503 172.985 21.3258 173.016 21.3957C173.465 22.4325 173.697 23.5505 173.696 24.6805C173.697 26.1475 173.315 27.5892 172.587 28.8629C172.56 28.9107 172.547 28.9654 172.551 29.0201C172.555 29.0749 172.575 29.1273 172.608 29.171C172.641 29.2147 172.686 29.2477 172.738 29.266C172.79 29.2843 172.846 29.287 172.899 29.2739C173.423 29.1525 173.895 28.8712 174.252 28.469C175.05 27.5778 175.013 26.4796 174.962 24.9597C174.911 23.4398 174.874 22.339 174.008 21.4763C173.863 21.3344 173.703 21.2078 173.531 21.0983V16.0379C173.948 15.971 174.327 15.7586 174.602 15.4384C174.876 15.1183 175.029 14.7111 175.031 14.2893Z" fill="#24282C"/>
<path d="M152.466 16.0382V21.0986C152.294 21.208 152.134 21.3347 151.988 21.4766C151.123 22.3393 151.086 23.4386 151.035 24.96C150.984 26.4813 150.947 27.578 151.745 28.4692C152.101 28.8714 152.574 29.1528 153.098 29.2742C153.151 29.2873 153.207 29.2845 153.259 29.2662C153.311 29.248 153.356 29.2149 153.389 29.1713C153.422 29.1276 153.442 29.0751 153.446 29.0204C153.449 28.9656 153.437 28.911 153.41 28.8632C152.682 27.5895 152.3 26.1478 152.3 24.6808C152.3 23.5508 152.532 22.4327 152.981 21.396C153.012 21.3261 153.028 21.2505 153.028 21.1742V16.0382C153.475 15.967 153.879 15.7281 154.156 15.37C154.433 15.0119 154.564 14.5615 154.521 14.1107C154.477 13.6598 154.264 13.2424 153.924 12.9433C153.584 12.6442 153.143 12.486 152.69 12.501C152.228 12.5202 151.79 12.7168 151.469 13.0498C151.148 13.3829 150.967 13.8268 150.965 14.2895C150.968 14.7115 151.12 15.1187 151.395 15.4389C151.67 15.7591 152.049 15.9714 152.466 16.0382Z" fill="#24282C"/>
<path d="M158.229 35.8345C158.375 36.0713 158.595 36.2538 158.855 36.3541C159.115 36.4544 159.401 36.4671 159.668 36.3902C161.625 35.8709 163.399 34.8213 164.797 33.3572C169.634 32.6147 173.135 28.9799 173.135 24.6807C173.135 19.8214 168.603 15.8682 163.032 15.8682C157.461 15.8682 152.93 19.8214 152.93 24.6807C152.93 28.3356 155.517 31.6022 159.405 32.9059C159.101 33.3572 158.766 33.7862 158.402 34.1899C158.189 34.4024 158.055 34.6819 158.023 34.9814C157.992 35.2809 158.064 35.5821 158.229 35.8345ZM163.032 31.5246C162.865 31.5246 162.702 31.4751 162.563 31.3824C162.424 31.2897 162.316 31.1579 162.252 31.0037C162.189 30.8496 162.172 30.6799 162.204 30.5162C162.237 30.3526 162.317 30.2022 162.435 30.0842C162.553 29.9662 162.704 29.8859 162.867 29.8533C163.031 29.8208 163.201 29.8375 163.355 29.9013C163.509 29.9652 163.641 30.0733 163.734 30.2121C163.826 30.3508 163.876 30.514 163.876 30.6809C163.876 30.9046 163.787 31.1192 163.629 31.2775C163.47 31.4357 163.256 31.5246 163.032 31.5246ZM158.761 29.4621C157.952 29.4596 157.173 29.1572 156.574 28.6135C155.976 28.0697 155.6 27.3232 155.519 26.5184C155.391 25.4012 155.498 24.2694 155.835 23.1963C156.171 22.1233 156.729 21.1329 157.473 20.2892C158.172 19.509 159.03 18.8868 159.988 18.4639C160.947 18.0411 161.984 17.8273 163.032 17.8369C164.08 17.8273 165.117 18.0411 166.076 18.4639C167.034 18.8868 167.892 19.509 168.591 20.2892C169.335 21.1328 169.893 22.123 170.229 23.1959C170.566 24.2688 170.673 25.4004 170.545 26.5174C170.464 27.3223 170.089 28.0688 169.49 28.6126C168.891 29.1563 168.112 29.4587 167.303 29.4612C166.595 29.4773 165.898 29.2823 165.301 28.9011C164.623 28.4724 163.834 28.2537 163.032 28.2724C162.231 28.2537 161.441 28.4724 160.764 28.9011C160.167 29.2828 159.469 29.4781 158.761 29.4619L158.761 29.4621Z" fill="#24282C"/>
</g>
<path d="M190.52 32.2C189.387 32.2 188.413 32.0067 187.6 31.62C186.8 31.2333 186.073 30.6533 185.42 29.88L187.22 28.08C187.633 28.6267 188.113 29.0533 188.66 29.36C189.207 29.6533 189.873 29.8 190.66 29.8C191.367 29.8 191.927 29.66 192.34 29.38C192.767 29.1 192.98 28.7133 192.98 28.22C192.98 27.7933 192.86 27.4467 192.62 27.18C192.38 26.9133 192.06 26.6867 191.66 26.5C191.273 26.3133 190.84 26.1467 190.36 26C189.893 25.84 189.42 25.66 188.94 25.46C188.473 25.26 188.04 25.0133 187.64 24.72C187.253 24.4133 186.94 24.0267 186.7 23.56C186.46 23.08 186.34 22.48 186.34 21.76C186.34 20.9067 186.547 20.18 186.96 19.58C187.373 18.98 187.94 18.52 188.66 18.2C189.38 17.88 190.193 17.72 191.1 17.72C192.06 17.72 192.927 17.9 193.7 18.26C194.473 18.62 195.107 19.0867 195.6 19.66L193.8 21.46C193.387 21.0067 192.96 20.6733 192.52 20.46C192.093 20.2467 191.607 20.14 191.06 20.14C190.433 20.14 189.94 20.26 189.58 20.5C189.22 20.74 189.04 21.0867 189.04 21.54C189.04 21.9267 189.16 22.24 189.4 22.48C189.64 22.72 189.953 22.9267 190.34 23.1C190.74 23.2733 191.173 23.44 191.64 23.6C192.12 23.76 192.593 23.94 193.06 24.14C193.54 24.34 193.973 24.6 194.36 24.92C194.76 25.24 195.08 25.6533 195.32 26.16C195.56 26.6533 195.68 27.2667 195.68 28C195.68 29.3067 195.22 30.3333 194.3 31.08C193.38 31.8267 192.12 32.2 190.52 32.2ZM199.951 32L196.331 22.34H198.971L201.331 29.36L200.531 29.38L202.951 22.34H204.851L207.271 29.38L206.471 29.36L208.831 22.34H211.471L207.871 32H205.971L203.531 25.32H204.271L201.831 32H199.951ZM212.586 32V22.34H215.226V32H212.586ZM213.906 20.78C213.479 20.78 213.126 20.64 212.846 20.36C212.566 20.0667 212.426 19.7067 212.426 19.28C212.426 18.8667 212.566 18.5133 212.846 18.22C213.126 17.9267 213.479 17.78 213.906 17.78C214.346 17.78 214.699 17.9267 214.966 18.22C215.246 18.5133 215.386 18.8667 215.386 19.28C215.386 19.7067 215.246 20.0667 214.966 20.36C214.699 20.64 214.346 20.78 213.906 20.78ZM218.827 32V21.3C218.827 20.5267 218.993 19.8467 219.327 19.26C219.66 18.66 220.133 18.1867 220.747 17.84C221.36 17.4933 222.08 17.32 222.907 17.32C223.533 17.32 224.073 17.4267 224.527 17.64C224.98 17.8533 225.387 18.1467 225.747 18.52L224.087 20.2C223.94 20.0533 223.78 19.94 223.607 19.86C223.433 19.78 223.213 19.74 222.947 19.74C222.467 19.74 222.093 19.8733 221.827 20.14C221.573 20.3933 221.447 20.76 221.447 21.24V32H218.827ZM216.587 24.64V22.34H224.307V24.64H216.587ZM226.779 32V18.32H229.399V32H226.779ZM224.519 24.64V22.34H231.659V24.64H224.519ZM237.493 32.2C236.359 32.2 235.386 32.0067 234.573 31.62C233.773 31.2333 233.046 30.6533 232.393 29.88L234.193 28.08C234.606 28.6267 235.086 29.0533 235.633 29.36C236.179 29.6533 236.846 29.8 237.633 29.8C238.339 29.8 238.899 29.66 239.313 29.38C239.739 29.1 239.953 28.7133 239.953 28.22C239.953 27.7933 239.833 27.4467 239.593 27.18C239.353 26.9133 239.033 26.6867 238.633 26.5C238.246 26.3133 237.813 26.1467 237.333 26C236.866 25.84 236.393 25.66 235.913 25.46C235.446 25.26 235.013 25.0133 234.613 24.72C234.226 24.4133 233.913 24.0267 233.673 23.56C233.433 23.08 233.313 22.48 233.313 21.76C233.313 20.9067 233.519 20.18 233.933 19.58C234.346 18.98 234.913 18.52 235.633 18.2C236.353 17.88 237.166 17.72 238.073 17.72C239.033 17.72 239.899 17.9 240.673 18.26C241.446 18.62 242.079 19.0867 242.573 19.66L240.773 21.46C240.359 21.0067 239.933 20.6733 239.493 20.46C239.066 20.2467 238.579 20.14 238.033 20.14C237.406 20.14 236.913 20.26 236.553 20.5C236.193 20.74 236.013 21.0867 236.013 21.54C236.013 21.9267 236.133 22.24 236.373 22.48C236.613 22.72 236.926 22.9267 237.313 23.1C237.713 23.2733 238.146 23.44 238.613 23.6C239.093 23.76 239.566 23.94 240.033 24.14C240.513 24.34 240.946 24.6 241.333 24.92C241.733 25.24 242.053 25.6533 242.293 26.16C242.533 26.6533 242.653 27.2667 242.653 28C242.653 29.3067 242.193 30.3333 241.273 31.08C240.353 31.8267 239.093 32.2 237.493 32.2ZM248.639 32.2C247.786 32.2 247.026 32.02 246.359 31.66C245.706 31.3 245.193 30.8 244.819 30.16C244.446 29.52 244.259 28.78 244.259 27.94V22.34H246.899V27.88C246.899 28.28 246.966 28.6267 247.099 28.92C247.233 29.2 247.433 29.4133 247.699 29.56C247.966 29.7067 248.279 29.78 248.639 29.78C249.186 29.78 249.613 29.6133 249.919 29.28C250.226 28.9467 250.379 28.48 250.379 27.88V22.34H252.999V27.94C252.999 28.7933 252.813 29.54 252.439 30.18C252.079 30.82 251.566 31.32 250.899 31.68C250.246 32.0267 249.493 32.2 248.639 32.2ZM260.446 32.2C259.752 32.2 259.126 32.06 258.566 31.78C258.006 31.4867 257.559 31.0933 257.226 30.6C256.892 30.1067 256.712 29.54 256.686 28.9V25.48C256.712 24.84 256.892 24.2733 257.226 23.78C257.572 23.2733 258.019 22.8733 258.566 22.58C259.126 22.2867 259.752 22.14 260.446 22.14C261.339 22.14 262.139 22.36 262.846 22.8C263.552 23.24 264.106 23.84 264.506 24.6C264.919 25.36 265.126 26.22 265.126 27.18C265.126 28.1267 264.919 28.98 264.506 29.74C264.106 30.5 263.552 31.1 262.846 31.54C262.139 31.98 261.339 32.2 260.446 32.2ZM259.986 29.78C260.466 29.78 260.892 29.6733 261.266 29.46C261.639 29.2333 261.926 28.9267 262.126 28.54C262.339 28.14 262.446 27.68 262.446 27.16C262.446 26.6533 262.339 26.2067 262.126 25.82C261.926 25.42 261.639 25.1133 261.266 24.9C260.892 24.6733 260.466 24.56 259.986 24.56C259.519 24.56 259.099 24.6733 258.726 24.9C258.352 25.1133 258.059 25.42 257.846 25.82C257.646 26.2067 257.546 26.6533 257.546 27.16C257.546 27.68 257.646 28.14 257.846 28.54C258.059 28.9267 258.346 29.2333 258.706 29.46C259.079 29.6733 259.506 29.78 259.986 29.78ZM255.086 36.04V22.34H257.706V24.88L257.266 27.22L257.686 29.56V36.04H255.086ZM272.204 32.2C271.51 32.2 270.884 32.06 270.324 31.78C269.764 31.4867 269.317 31.0933 268.984 30.6C268.65 30.1067 268.47 29.54 268.444 28.9V25.48C268.47 24.84 268.65 24.2733 268.984 23.78C269.33 23.2733 269.777 22.8733 270.324 22.58C270.884 22.2867 271.51 22.14 272.204 22.14C273.097 22.14 273.897 22.36 274.604 22.8C275.31 23.24 275.864 23.84 276.264 24.6C276.677 25.36 276.884 26.22 276.884 27.18C276.884 28.1267 276.677 28.98 276.264 29.74C275.864 30.5 275.31 31.1 274.604 31.54C273.897 31.98 273.097 32.2 272.204 32.2ZM271.744 29.78C272.224 29.78 272.65 29.6733 273.024 29.46C273.397 29.2333 273.684 28.9267 273.884 28.54C274.097 28.14 274.204 27.68 274.204 27.16C274.204 26.6533 274.097 26.2067 273.884 25.82C273.684 25.42 273.397 25.1133 273.024 24.9C272.65 24.6733 272.224 24.56 271.744 24.56C271.277 24.56 270.857 24.6733 270.484 24.9C270.11 25.1133 269.817 25.42 269.604 25.82C269.404 26.2067 269.304 26.6533 269.304 27.16C269.304 27.68 269.404 28.14 269.604 28.54C269.817 28.9267 270.104 29.2333 270.464 29.46C270.837 29.6733 271.264 29.78 271.744 29.78ZM266.844 36.04V22.34H269.464V24.88L269.024 27.22L269.444 29.56V36.04H266.844ZM283.141 32.2C282.168 32.2 281.288 31.98 280.501 31.54C279.728 31.0867 279.108 30.48 278.641 29.72C278.188 28.9467 277.961 28.0867 277.961 27.14C277.961 26.1933 278.188 25.3467 278.641 24.6C279.095 23.84 279.715 23.24 280.501 22.8C281.288 22.3467 282.161 22.12 283.121 22.12C284.108 22.12 284.988 22.3467 285.761 22.8C286.548 23.24 287.168 23.84 287.621 24.6C288.075 25.3467 288.301 26.1933 288.301 27.14C288.301 28.0867 288.075 28.9467 287.621 29.72C287.168 30.48 286.548 31.0867 285.761 31.54C284.988 31.98 284.115 32.2 283.141 32.2ZM283.121 29.76C283.615 29.76 284.048 29.6533 284.421 29.44C284.808 29.2133 285.101 28.9067 285.301 28.52C285.515 28.12 285.621 27.6667 285.621 27.16C285.621 26.6533 285.515 26.2067 285.301 25.82C285.088 25.4333 284.795 25.1333 284.421 24.92C284.048 24.6933 283.615 24.58 283.121 24.58C282.641 24.58 282.215 24.6933 281.841 24.92C281.468 25.1333 281.175 25.4333 280.961 25.82C280.748 26.2067 280.641 26.6533 280.641 27.16C280.641 27.6667 280.748 28.12 280.961 28.52C281.175 28.9067 281.468 29.2133 281.841 29.44C282.215 29.6533 282.641 29.76 283.121 29.76ZM289.988 32V22.34H292.608V32H289.988ZM292.608 26.66L291.588 25.98C291.708 24.7933 292.055 23.86 292.628 23.18C293.201 22.4867 294.028 22.14 295.108 22.14C295.575 22.14 295.995 22.22 296.368 22.38C296.741 22.5267 297.081 22.7733 297.388 23.12L295.748 25C295.601 24.84 295.421 24.72 295.208 24.64C295.008 24.56 294.775 24.52 294.508 24.52C293.948 24.52 293.488 24.7 293.128 25.06C292.781 25.4067 292.608 25.94 292.608 26.66ZM299.807 32V18.32H302.427V32H299.807ZM297.547 24.64V22.34H304.687V24.64H297.547Z" fill="#24282C"/>
<rect x="159.5" y="327.5" width="298" height="49" rx="15.5" fill="white"/>
<rect x="159.5" y="327.5" width="298" height="49" rx="15.5" stroke="#A6A8A8"/>
<path d="M177.256 358V347.216H178.76V358H177.256ZM173.48 348.272V346.896H182.52V348.272H173.48ZM184.646 358.064L181.35 350.4H182.95L185.398 356.4H184.886L187.462 350.4H189.062L185.51 358.064H184.646ZM182.47 361.184L184.71 356.592L185.51 358.064L184.07 361.184H182.47ZM194.181 358.16C193.605 358.16 193.082 358.043 192.613 357.808C192.154 357.563 191.786 357.227 191.509 356.8C191.232 356.373 191.077 355.888 191.045 355.344V353.056C191.077 352.501 191.232 352.016 191.509 351.6C191.797 351.173 192.17 350.843 192.629 350.608C193.098 350.363 193.616 350.24 194.181 350.24C194.874 350.24 195.498 350.416 196.053 350.768C196.618 351.12 197.061 351.595 197.381 352.192C197.701 352.789 197.861 353.461 197.861 354.208C197.861 354.955 197.701 355.627 197.381 356.224C197.061 356.821 196.618 357.296 196.053 357.648C195.498 357.989 194.874 358.16 194.181 358.16ZM193.941 356.8C194.421 356.8 194.842 356.688 195.205 356.464C195.568 356.24 195.856 355.936 196.069 355.552C196.282 355.157 196.389 354.704 196.389 354.192C196.389 353.691 196.282 353.243 196.069 352.848C195.856 352.453 195.568 352.149 195.205 351.936C194.842 351.712 194.426 351.6 193.957 351.6C193.477 351.6 193.056 351.712 192.693 351.936C192.33 352.149 192.048 352.453 191.845 352.848C191.642 353.243 191.541 353.696 191.541 354.208C191.541 354.709 191.637 355.157 191.829 355.552C192.032 355.936 192.314 356.24 192.677 356.464C193.05 356.688 193.472 356.8 193.941 356.8ZM190.181 361.184V350.4H191.621V352.4L191.349 354.24L191.621 356.096V361.184H190.181ZM203.014 358.16C202.256 358.16 201.574 357.989 200.966 357.648C200.358 357.296 199.878 356.821 199.526 356.224C199.174 355.627 198.998 354.949 198.998 354.192C198.998 353.445 199.168 352.773 199.51 352.176C199.862 351.579 200.331 351.109 200.918 350.768C201.515 350.416 202.182 350.24 202.918 350.24C203.622 350.24 204.24 350.4 204.774 350.72C205.318 351.04 205.739 351.483 206.038 352.048C206.347 352.613 206.502 353.253 206.502 353.968C206.502 354.075 206.496 354.192 206.486 354.32C206.475 354.437 206.454 354.576 206.422 354.736H200.006V353.536H205.654L205.126 354C205.126 353.488 205.035 353.056 204.854 352.704C204.672 352.341 204.416 352.064 204.086 351.872C203.755 351.669 203.355 351.568 202.886 351.568C202.395 351.568 201.963 351.675 201.59 351.888C201.216 352.101 200.928 352.4 200.726 352.784C200.523 353.168 200.422 353.621 200.422 354.144C200.422 354.677 200.528 355.147 200.742 355.552C200.955 355.947 201.259 356.256 201.654 356.48C202.048 356.693 202.502 356.8 203.014 356.8C203.44 356.8 203.83 356.725 204.182 356.576C204.544 356.427 204.854 356.203 205.11 355.904L206.038 356.848C205.675 357.275 205.227 357.6 204.694 357.824C204.171 358.048 203.611 358.16 203.014 358.16ZM213.816 358.16C213.389 358.16 212.984 358.107 212.6 358C212.226 357.883 211.88 357.723 211.56 357.52C211.24 357.307 210.962 357.056 210.728 356.768L211.656 355.84C211.933 356.181 212.253 356.437 212.616 356.608C212.978 356.768 213.384 356.848 213.832 356.848C214.28 356.848 214.626 356.773 214.872 356.624C215.117 356.464 215.24 356.245 215.24 355.968C215.24 355.691 215.138 355.477 214.936 355.328C214.744 355.168 214.493 355.04 214.184 354.944C213.874 354.837 213.544 354.736 213.192 354.64C212.85 354.533 212.525 354.4 212.216 354.24C211.906 354.08 211.65 353.861 211.448 353.584C211.256 353.307 211.16 352.939 211.16 352.48C211.16 352.021 211.272 351.627 211.496 351.296C211.72 350.955 212.029 350.693 212.424 350.512C212.829 350.331 213.314 350.24 213.88 350.24C214.477 350.24 215.005 350.347 215.464 350.56C215.933 350.763 216.317 351.072 216.616 351.488L215.688 352.416C215.474 352.139 215.208 351.925 214.888 351.776C214.578 351.627 214.226 351.552 213.832 351.552C213.416 351.552 213.096 351.627 212.872 351.776C212.658 351.915 212.552 352.112 212.552 352.368C212.552 352.624 212.648 352.821 212.84 352.96C213.032 353.099 213.282 353.216 213.592 353.312C213.912 353.408 214.242 353.509 214.584 353.616C214.925 353.712 215.25 353.845 215.56 354.016C215.869 354.187 216.12 354.416 216.312 354.704C216.514 354.992 216.616 355.371 216.616 355.84C216.616 356.555 216.36 357.12 215.848 357.536C215.346 357.952 214.669 358.16 213.816 358.16ZM221.7 358.16C220.953 358.16 220.281 357.984 219.684 357.632C219.087 357.28 218.612 356.805 218.26 356.208C217.908 355.6 217.732 354.923 217.732 354.176C217.732 353.44 217.908 352.779 218.26 352.192C218.612 351.595 219.087 351.12 219.684 350.768C220.281 350.416 220.953 350.24 221.7 350.24C222.436 350.24 223.103 350.416 223.7 350.768C224.308 351.109 224.788 351.579 225.14 352.176C225.492 352.773 225.668 353.44 225.668 354.176C225.668 354.923 225.492 355.6 225.14 356.208C224.788 356.805 224.308 357.28 223.7 357.632C223.103 357.984 222.436 358.16 221.7 358.16ZM221.7 356.768C222.18 356.768 222.607 356.656 222.98 356.432C223.353 356.208 223.647 355.904 223.86 355.52C224.073 355.125 224.18 354.677 224.18 354.176C224.18 353.685 224.068 353.248 223.844 352.864C223.631 352.48 223.337 352.181 222.964 351.968C222.601 351.744 222.18 351.632 221.7 351.632C221.22 351.632 220.793 351.744 220.42 351.968C220.047 352.181 219.753 352.48 219.54 352.864C219.327 353.248 219.22 353.685 219.22 354.176C219.22 354.677 219.327 355.125 219.54 355.52C219.753 355.904 220.047 356.208 220.42 356.432C220.793 356.656 221.22 356.768 221.7 356.768ZM227.29 358V350.4H228.73V358H227.29ZM232.426 358V353.408C232.426 352.843 232.25 352.4 231.898 352.08C231.557 351.749 231.125 351.584 230.602 351.584C230.25 351.584 229.936 351.659 229.658 351.808C229.381 351.957 229.157 352.165 228.986 352.432C228.816 352.699 228.73 353.019 228.73 353.392L228.138 353.104C228.138 352.528 228.261 352.027 228.506 351.6C228.762 351.173 229.109 350.843 229.546 350.608C229.984 350.363 230.474 350.24 231.018 350.24C231.552 350.24 232.032 350.357 232.458 350.592C232.896 350.827 233.237 351.157 233.482 351.584C233.738 352.011 233.866 352.517 233.866 353.104V358H232.426ZM237.562 358V353.408C237.562 352.843 237.386 352.4 237.034 352.08C236.693 351.749 236.266 351.584 235.754 351.584C235.402 351.584 235.082 351.659 234.794 351.808C234.517 351.957 234.293 352.165 234.122 352.432C233.952 352.699 233.866 353.019 233.866 353.392L233.05 353.104C233.082 352.517 233.237 352.016 233.514 351.6C233.802 351.173 234.17 350.843 234.618 350.608C235.066 350.363 235.557 350.24 236.09 350.24C236.645 350.24 237.141 350.357 237.578 350.592C238.016 350.827 238.362 351.157 238.618 351.584C238.885 352.011 239.018 352.523 239.018 353.12V358H237.562ZM244.498 358.16C243.741 358.16 243.058 357.989 242.45 357.648C241.842 357.296 241.362 356.821 241.01 356.224C240.658 355.627 240.482 354.949 240.482 354.192C240.482 353.445 240.653 352.773 240.994 352.176C241.346 351.579 241.815 351.109 242.402 350.768C242.999 350.416 243.666 350.24 244.402 350.24C245.106 350.24 245.725 350.4 246.258 350.72C246.802 351.04 247.223 351.483 247.522 352.048C247.831 352.613 247.986 353.253 247.986 353.968C247.986 354.075 247.981 354.192 247.97 354.32C247.959 354.437 247.938 354.576 247.906 354.736H241.49V353.536H247.138L246.61 354C246.61 353.488 246.519 353.056 246.338 352.704C246.157 352.341 245.901 352.064 245.57 351.872C245.239 351.669 244.839 351.568 244.37 351.568C243.879 351.568 243.447 351.675 243.074 351.888C242.701 352.101 242.413 352.4 242.21 352.784C242.007 353.168 241.906 353.621 241.906 354.144C241.906 354.677 242.013 355.147 242.226 355.552C242.439 355.947 242.743 356.256 243.138 356.48C243.533 356.693 243.986 356.8 244.498 356.8C244.925 356.8 245.314 356.725 245.666 356.576C246.029 356.427 246.338 356.203 246.594 355.904L247.522 356.848C247.159 357.275 246.711 357.6 246.178 357.824C245.655 358.048 245.095 358.16 244.498 358.16ZM250.505 358V347.216H251.945V358H250.505ZM248.633 351.712V350.4H253.817V351.712H248.633ZM260.604 358V353.568C260.604 352.992 260.423 352.517 260.06 352.144C259.697 351.771 259.228 351.584 258.652 351.584C258.268 351.584 257.927 351.669 257.628 351.84C257.329 352.011 257.095 352.245 256.924 352.544C256.753 352.843 256.668 353.184 256.668 353.568L256.076 353.232C256.076 352.656 256.204 352.144 256.46 351.696C256.716 351.248 257.073 350.896 257.532 350.64C257.991 350.373 258.508 350.24 259.084 350.24C259.66 350.24 260.167 350.368 260.604 350.624C261.052 350.88 261.404 351.237 261.66 351.696C261.916 352.155 262.044 352.683 262.044 353.28V358H260.604ZM255.228 358V346.576H256.668V358H255.228ZM264.01 358V350.4H265.45V358H264.01ZM264.73 348.88C264.463 348.88 264.244 348.795 264.074 348.624C263.903 348.443 263.818 348.219 263.818 347.952C263.818 347.696 263.903 347.483 264.074 347.312C264.244 347.131 264.463 347.04 264.73 347.04C264.996 347.04 265.215 347.131 265.386 347.312C265.556 347.483 265.642 347.696 265.642 347.952C265.642 348.219 265.556 348.443 265.386 348.624C265.215 348.795 264.996 348.88 264.73 348.88ZM272.948 358V353.568C272.948 352.992 272.766 352.517 272.404 352.144C272.041 351.771 271.572 351.584 270.996 351.584C270.612 351.584 270.27 351.669 269.972 351.84C269.673 352.011 269.438 352.245 269.268 352.544C269.097 352.843 269.012 353.184 269.012 353.568L268.42 353.232C268.42 352.656 268.548 352.144 268.804 351.696C269.06 351.248 269.417 350.896 269.876 350.64C270.334 350.373 270.852 350.24 271.428 350.24C272.004 350.24 272.51 350.384 272.948 350.672C273.396 350.96 273.748 351.339 274.004 351.808C274.26 352.267 274.388 352.757 274.388 353.28V358H272.948ZM267.572 358V350.4H269.012V358H267.572ZM279.489 361.344C278.711 361.344 278.017 361.2 277.409 360.912C276.812 360.624 276.332 360.219 275.969 359.696L276.897 358.752C277.207 359.147 277.575 359.445 278.001 359.648C278.428 359.861 278.935 359.968 279.521 359.968C280.3 359.968 280.913 359.76 281.361 359.344C281.82 358.939 282.049 358.389 282.049 357.696V355.808L282.305 354.096L282.049 352.4V350.4H283.489V357.696C283.489 358.421 283.319 359.056 282.977 359.6C282.647 360.144 282.177 360.571 281.569 360.88C280.972 361.189 280.279 361.344 279.489 361.344ZM279.489 357.872C278.796 357.872 278.172 357.707 277.617 357.376C277.073 357.045 276.641 356.592 276.321 356.016C276.001 355.429 275.841 354.773 275.841 354.048C275.841 353.323 276.001 352.677 276.321 352.112C276.641 351.536 277.073 351.083 277.617 350.752C278.172 350.411 278.796 350.24 279.489 350.24C280.087 350.24 280.615 350.357 281.073 350.592C281.532 350.827 281.895 351.157 282.161 351.584C282.439 352 282.588 352.491 282.609 353.056V355.072C282.577 355.627 282.423 356.117 282.145 356.544C281.879 356.96 281.516 357.285 281.057 357.52C280.599 357.755 280.076 357.872 279.489 357.872ZM279.777 356.512C280.247 356.512 280.657 356.411 281.009 356.208C281.372 356.005 281.649 355.723 281.841 355.36C282.033 354.987 282.129 354.555 282.129 354.064C282.129 353.573 282.028 353.147 281.825 352.784C281.633 352.411 281.361 352.123 281.009 351.92C280.657 351.707 280.241 351.6 279.761 351.6C279.281 351.6 278.86 351.707 278.497 351.92C278.135 352.123 277.847 352.411 277.633 352.784C277.431 353.147 277.329 353.568 277.329 354.048C277.329 354.528 277.431 354.955 277.633 355.328C277.847 355.701 278.135 355.995 278.497 356.208C278.871 356.411 279.297 356.512 279.777 356.512ZM286.867 358.16C286.568 358.16 286.318 358.059 286.115 357.856C285.923 357.643 285.827 357.392 285.827 357.104C285.827 356.805 285.923 356.56 286.115 356.368C286.318 356.165 286.568 356.064 286.867 356.064C287.166 356.064 287.411 356.165 287.603 356.368C287.806 356.56 287.907 356.805 287.907 357.104C287.907 357.392 287.806 357.643 287.603 357.856C287.411 358.059 287.166 358.16 286.867 358.16ZM291.508 358.16C291.209 358.16 290.958 358.059 290.756 357.856C290.564 357.643 290.468 357.392 290.468 357.104C290.468 356.805 290.564 356.56 290.756 356.368C290.958 356.165 291.209 356.064 291.508 356.064C291.806 356.064 292.052 356.165 292.244 356.368C292.446 356.56 292.548 356.805 292.548 357.104C292.548 357.392 292.446 357.643 292.244 357.856C292.052 358.059 291.806 358.16 291.508 358.16ZM296.148 358.16C295.849 358.16 295.599 358.059 295.396 357.856C295.204 357.643 295.108 357.392 295.108 357.104C295.108 356.805 295.204 356.56 295.396 356.368C295.599 356.165 295.849 356.064 296.148 356.064C296.447 356.064 296.692 356.165 296.884 356.368C297.087 356.56 297.188 356.805 297.188 357.104C297.188 357.392 297.087 357.643 296.884 357.856C296.692 358.059 296.447 358.16 296.148 358.16Z" fill="#A6A8A8"/>
<rect x="470" y="327" width="50" height="50" rx="12" fill="#2D677C"/>
<g clip-path="url(#clip1_710_5206)">
<path fill-rule="evenodd" clip-rule="evenodd" d="M500.276 346.724L492.191 352.337L483.735 349.518C483.144 349.321 482.747 348.767 482.75 348.145C482.753 347.523 483.156 346.972 483.748 346.782L505.369 339.819C505.883 339.654 506.447 339.79 506.829 340.171C507.21 340.553 507.346 341.117 507.181 341.631L500.218 363.252C500.028 363.844 499.477 364.247 498.855 364.25C498.233 364.253 497.679 363.856 497.482 363.265L494.649 354.768L500.276 346.724Z" fill="white"/>
</g>
<path d="M39 88H315C323.284 88 330 94.7157 330 103V127C330 135.284 323.284 142 315 142H54C45.7157 142 39 135.284 39 127V88Z" fill="#E0F3FA"/>
<path d="M55.476 122V109.508H57.168V122H55.476ZM63.54 122V109.508H65.232V122H63.54ZM56.628 116.312V114.764H63.954V116.312H56.628ZM67.915 122V113.45H69.535V122H67.915ZM68.725 111.74C68.425 111.74 68.179 111.644 67.987 111.452C67.795 111.248 67.699 110.996 67.699 110.696C67.699 110.408 67.795 110.168 67.987 109.976C68.179 109.772 68.425 109.67 68.725 109.67C69.025 109.67 69.271 109.772 69.463 109.976C69.655 110.168 69.751 110.408 69.751 110.696C69.751 110.996 69.655 111.248 69.463 111.452C69.271 111.644 69.025 111.74 68.725 111.74ZM72.0124 123.98L73.1284 121.838L73.7044 121.694C73.6444 121.826 73.5664 121.934 73.4704 122.018C73.3864 122.102 73.2784 122.144 73.1464 122.144C72.8944 122.144 72.6604 122.042 72.4444 121.838C72.2404 121.622 72.1384 121.358 72.1384 121.046C72.1384 120.698 72.2524 120.41 72.4804 120.182C72.7084 119.942 72.9964 119.822 73.3444 119.822C73.6564 119.822 73.9324 119.942 74.1724 120.182C74.4124 120.41 74.5324 120.698 74.5324 121.046C74.5324 121.178 74.5024 121.34 74.4424 121.532C74.3944 121.712 74.2924 121.946 74.1364 122.234L72.9484 124.484L72.0124 123.98ZM80.9115 122V109.508H82.6035V122H80.9115ZM88.9755 122V109.508H90.6675V122H88.9755ZM82.0635 116.312V114.764H89.3895V116.312H82.0635ZM97.2385 122.18C96.3985 122.18 95.6425 121.982 94.9705 121.586C94.2985 121.19 93.7645 120.656 93.3685 119.984C92.9725 119.3 92.7745 118.538 92.7745 117.698C92.7745 116.87 92.9725 116.126 93.3685 115.466C93.7645 114.794 94.2985 114.26 94.9705 113.864C95.6425 113.468 96.3985 113.27 97.2385 113.27C98.0665 113.27 98.8165 113.468 99.4885 113.864C100.173 114.248 100.713 114.776 101.109 115.448C101.505 116.12 101.703 116.87 101.703 117.698C101.703 118.538 101.505 119.3 101.109 119.984C100.713 120.656 100.173 121.19 99.4885 121.586C98.8165 121.982 98.0665 122.18 97.2385 122.18ZM97.2385 120.614C97.7785 120.614 98.2585 120.488 98.6785 120.236C99.0985 119.984 99.4285 119.642 99.6685 119.21C99.9085 118.766 100.029 118.262 100.029 117.698C100.029 117.146 99.9025 116.654 99.6505 116.222C99.4105 115.79 99.0805 115.454 98.6605 115.214C98.2525 114.962 97.7785 114.836 97.2385 114.836C96.6985 114.836 96.2185 114.962 95.7985 115.214C95.3785 115.454 95.0485 115.79 94.8085 116.222C94.5685 116.654 94.4485 117.146 94.4485 117.698C94.4485 118.262 94.5685 118.766 94.8085 119.21C95.0485 119.642 95.3785 119.984 95.7985 120.236C96.2185 120.488 96.6985 120.614 97.2385 120.614ZM105.73 122L102.346 113.45H104.038L106.486 120.11H105.946L108.376 113.45H109.312L111.742 120.11H111.202L113.65 113.45H115.342L111.976 122H111.022L108.556 115.538H109.15L106.666 122H105.73ZM124.432 122.18C123.592 122.18 122.83 121.982 122.146 121.586C121.474 121.19 120.94 120.656 120.544 119.984C120.16 119.3 119.968 118.544 119.968 117.716C119.968 116.876 120.16 116.12 120.544 115.448C120.94 114.776 121.474 114.248 122.146 113.864C122.83 113.468 123.592 113.27 124.432 113.27C125.092 113.27 125.704 113.396 126.268 113.648C126.832 113.888 127.318 114.242 127.726 114.71L126.646 115.79C126.382 115.478 126.058 115.244 125.674 115.088C125.302 114.92 124.888 114.836 124.432 114.836C123.892 114.836 123.412 114.962 122.992 115.214C122.572 115.454 122.242 115.79 122.002 116.222C121.762 116.654 121.642 117.152 121.642 117.716C121.642 118.28 121.762 118.778 122.002 119.21C122.242 119.642 122.572 119.984 122.992 120.236C123.412 120.488 123.892 120.614 124.432 120.614C124.888 120.614 125.302 120.536 125.674 120.38C126.058 120.212 126.388 119.972 126.664 119.66L127.726 120.74C127.33 121.196 126.844 121.55 126.268 121.802C125.704 122.054 125.092 122.18 124.432 122.18ZM132.81 122.18C132.03 122.18 131.322 121.988 130.686 121.604C130.05 121.208 129.546 120.674 129.174 120.002C128.814 119.33 128.634 118.574 128.634 117.734C128.634 116.894 128.814 116.138 129.174 115.466C129.546 114.794 130.044 114.26 130.668 113.864C131.304 113.468 132.018 113.27 132.81 113.27C133.458 113.27 134.034 113.408 134.538 113.684C135.054 113.948 135.468 114.32 135.78 114.8C136.092 115.268 136.266 115.814 136.302 116.438V119.012C136.266 119.624 136.092 120.17 135.78 120.65C135.48 121.13 135.072 121.508 134.556 121.784C134.052 122.048 133.47 122.18 132.81 122.18ZM133.08 120.65C133.884 120.65 134.532 120.38 135.024 119.84C135.516 119.288 135.762 118.586 135.762 117.734C135.762 117.146 135.648 116.636 135.42 116.204C135.204 115.76 134.892 115.418 134.484 115.178C134.076 114.926 133.602 114.8 133.062 114.8C132.522 114.8 132.042 114.926 131.622 115.178C131.214 115.43 130.89 115.778 130.65 116.222C130.422 116.654 130.308 117.152 130.308 117.716C130.308 118.292 130.422 118.802 130.65 119.246C130.89 119.678 131.22 120.02 131.64 120.272C132.06 120.524 132.54 120.65 133.08 120.65ZM135.654 122V119.696L135.96 117.608L135.654 115.538V113.45H137.292V122H135.654ZM145.699 122V117.014C145.699 116.366 145.495 115.832 145.087 115.412C144.679 114.992 144.151 114.782 143.503 114.782C143.071 114.782 142.687 114.878 142.351 115.07C142.015 115.262 141.751 115.526 141.559 115.862C141.367 116.198 141.271 116.582 141.271 117.014L140.605 116.636C140.605 115.988 140.749 115.412 141.037 114.908C141.325 114.404 141.727 114.008 142.243 113.72C142.759 113.42 143.341 113.27 143.989 113.27C144.637 113.27 145.207 113.432 145.699 113.756C146.203 114.08 146.599 114.506 146.887 115.034C147.175 115.55 147.319 116.102 147.319 116.69V122H145.699ZM139.651 122V113.45H141.271V122H139.651ZM153.544 122V109.508H155.236V122H153.544ZM167.689 122V117.014C167.689 116.366 167.485 115.832 167.077 115.412C166.669 114.992 166.141 114.782 165.493 114.782C165.061 114.782 164.677 114.878 164.341 115.07C164.005 115.262 163.741 115.526 163.549 115.862C163.357 116.198 163.261 116.582 163.261 117.014L162.595 116.636C162.595 115.988 162.739 115.412 163.027 114.908C163.315 114.404 163.717 114.008 164.233 113.72C164.749 113.42 165.331 113.27 165.979 113.27C166.627 113.27 167.197 113.414 167.689 113.702C168.193 113.99 168.589 114.392 168.877 114.908C169.165 115.424 169.309 116.018 169.309 116.69V122H167.689ZM161.641 122V109.148H163.261V122H161.641ZM175.462 122.18C174.61 122.18 173.842 121.988 173.158 121.604C172.474 121.208 171.934 120.674 171.538 120.002C171.142 119.33 170.944 118.568 170.944 117.716C170.944 116.876 171.136 116.12 171.52 115.448C171.916 114.776 172.444 114.248 173.104 113.864C173.776 113.468 174.526 113.27 175.354 113.27C176.146 113.27 176.842 113.45 177.442 113.81C178.054 114.17 178.528 114.668 178.864 115.304C179.212 115.94 179.386 116.66 179.386 117.464C179.386 117.584 179.38 117.716 179.368 117.86C179.356 117.992 179.332 118.148 179.296 118.328H172.078V116.978H178.432L177.838 117.5C177.838 116.924 177.736 116.438 177.532 116.042C177.328 115.634 177.04 115.322 176.668 115.106C176.296 114.878 175.846 114.764 175.318 114.764C174.766 114.764 174.28 114.884 173.86 115.124C173.44 115.364 173.116 115.7 172.888 116.132C172.66 116.564 172.546 117.074 172.546 117.662C172.546 118.262 172.666 118.79 172.906 119.246C173.146 119.69 173.488 120.038 173.932 120.29C174.376 120.53 174.886 120.65 175.462 120.65C175.942 120.65 176.38 120.566 176.776 120.398C177.184 120.23 177.532 119.978 177.82 119.642L178.864 120.704C178.456 121.184 177.952 121.55 177.352 121.802C176.764 122.054 176.134 122.18 175.462 122.18ZM181.153 122V109.148H182.773V122H181.153ZM189.643 122.18C188.995 122.18 188.407 122.048 187.879 121.784C187.363 121.508 186.949 121.13 186.637 120.65C186.325 120.17 186.151 119.624 186.115 119.012V116.438C186.151 115.814 186.325 115.268 186.637 114.8C186.961 114.32 187.381 113.948 187.897 113.684C188.425 113.408 189.007 113.27 189.643 113.27C190.423 113.27 191.125 113.468 191.749 113.864C192.385 114.26 192.883 114.794 193.243 115.466C193.603 116.138 193.783 116.894 193.783 117.734C193.783 118.574 193.603 119.33 193.243 120.002C192.883 120.674 192.385 121.208 191.749 121.604C191.125 121.988 190.423 122.18 189.643 122.18ZM189.373 120.65C189.913 120.65 190.387 120.524 190.795 120.272C191.203 120.02 191.527 119.678 191.767 119.246C192.007 118.802 192.127 118.292 192.127 117.716C192.127 117.152 192.007 116.648 191.767 116.204C191.527 115.76 191.203 115.418 190.795 115.178C190.387 114.926 189.919 114.8 189.391 114.8C188.851 114.8 188.377 114.926 187.969 115.178C187.561 115.418 187.243 115.76 187.015 116.204C186.787 116.648 186.673 117.158 186.673 117.734C186.673 118.298 186.781 118.802 186.997 119.246C187.225 119.678 187.543 120.02 187.951 120.272C188.371 120.524 188.845 120.65 189.373 120.65ZM185.143 125.582V113.45H186.763V115.7L186.457 117.77L186.763 119.858V125.582H185.143ZM202.172 122.072L198.464 113.45H200.264L203.018 120.2H202.442L205.34 113.45H207.14L203.144 122.072H202.172ZM199.724 125.582L202.244 120.416L203.144 122.072L201.524 125.582H199.724ZM212.041 122.18C211.201 122.18 210.445 121.982 209.773 121.586C209.101 121.19 208.567 120.656 208.171 119.984C207.775 119.3 207.577 118.538 207.577 117.698C207.577 116.87 207.775 116.126 208.171 115.466C208.567 114.794 209.101 114.26 209.773 113.864C210.445 113.468 211.201 113.27 212.041 113.27C212.869 113.27 213.619 113.468 214.291 113.864C214.975 114.248 215.515 114.776 215.911 115.448C216.307 116.12 216.505 116.87 216.505 117.698C216.505 118.538 216.307 119.3 215.911 119.984C215.515 120.656 214.975 121.19 214.291 121.586C213.619 121.982 212.869 122.18 212.041 122.18ZM212.041 120.614C212.581 120.614 213.061 120.488 213.481 120.236C213.901 119.984 214.231 119.642 214.471 119.21C214.711 118.766 214.831 118.262 214.831 117.698C214.831 117.146 214.705 116.654 214.453 116.222C214.213 115.79 213.883 115.454 213.463 115.214C213.055 114.962 212.581 114.836 212.041 114.836C211.501 114.836 211.021 114.962 210.601 115.214C210.181 115.454 209.851 115.79 209.611 116.222C209.371 116.654 209.251 117.146 209.251 117.698C209.251 118.262 209.371 118.766 209.611 119.21C209.851 119.642 210.181 119.984 210.601 120.236C211.021 120.488 211.501 120.614 212.041 120.614ZM221.787 122.18C221.079 122.18 220.443 122.024 219.879 121.712C219.327 121.388 218.895 120.944 218.583 120.38C218.271 119.816 218.115 119.162 218.115 118.418V113.45H219.735V118.346C219.735 118.814 219.813 119.222 219.969 119.57C220.137 119.906 220.377 120.164 220.689 120.344C221.001 120.524 221.367 120.614 221.787 120.614C222.423 120.614 222.921 120.416 223.281 120.02C223.641 119.612 223.821 119.054 223.821 118.346V113.45H225.441V118.418C225.441 119.162 225.285 119.816 224.973 120.38C224.661 120.944 224.229 121.388 223.677 121.712C223.137 122.024 222.507 122.18 221.787 122.18ZM232.67 122V109.868H234.29V122H232.67ZM230.564 114.926V113.45H236.396V114.926H230.564ZM241.625 122.18C240.785 122.18 240.029 121.982 239.357 121.586C238.685 121.19 238.151 120.656 237.755 119.984C237.359 119.3 237.161 118.538 237.161 117.698C237.161 116.87 237.359 116.126 237.755 115.466C238.151 114.794 238.685 114.26 239.357 113.864C240.029 113.468 240.785 113.27 241.625 113.27C242.453 113.27 243.203 113.468 243.875 113.864C244.559 114.248 245.099 114.776 245.495 115.448C245.891 116.12 246.089 116.87 246.089 117.698C246.089 118.538 245.891 119.3 245.495 119.984C245.099 120.656 244.559 121.19 243.875 121.586C243.203 121.982 242.453 122.18 241.625 122.18ZM241.625 120.614C242.165 120.614 242.645 120.488 243.065 120.236C243.485 119.984 243.815 119.642 244.055 119.21C244.295 118.766 244.415 118.262 244.415 117.698C244.415 117.146 244.289 116.654 244.037 116.222C243.797 115.79 243.467 115.454 243.047 115.214C242.639 114.962 242.165 114.836 241.625 114.836C241.085 114.836 240.605 114.962 240.185 115.214C239.765 115.454 239.435 115.79 239.195 116.222C238.955 116.654 238.835 117.146 238.835 117.698C238.835 118.262 238.955 118.766 239.195 119.21C239.435 119.642 239.765 119.984 240.185 120.236C240.605 120.488 241.085 120.614 241.625 120.614ZM251.533 122.18C250.741 122.18 250.033 121.988 249.409 121.604C248.785 121.208 248.287 120.674 247.915 120.002C247.555 119.33 247.375 118.574 247.375 117.734C247.375 116.894 247.555 116.138 247.915 115.466C248.287 114.794 248.785 114.26 249.409 113.864C250.033 113.468 250.741 113.27 251.533 113.27C252.169 113.27 252.745 113.408 253.261 113.684C253.777 113.948 254.191 114.32 254.503 114.8C254.827 115.268 255.007 115.814 255.043 116.438V119.012C255.007 119.624 254.833 120.17 254.521 120.65C254.209 121.13 253.795 121.508 253.279 121.784C252.763 122.048 252.181 122.18 251.533 122.18ZM251.803 120.65C252.343 120.65 252.811 120.524 253.207 120.272C253.615 120.02 253.933 119.678 254.161 119.246C254.389 118.802 254.503 118.298 254.503 117.734C254.503 117.146 254.383 116.636 254.143 116.204C253.915 115.772 253.597 115.43 253.189 115.178C252.793 114.926 252.325 114.8 251.785 114.8C251.245 114.8 250.771 114.926 250.363 115.178C249.955 115.43 249.631 115.778 249.391 116.222C249.163 116.654 249.049 117.152 249.049 117.716C249.049 118.292 249.163 118.802 249.391 119.246C249.631 119.678 249.955 120.02 250.363 120.272C250.783 120.524 251.263 120.65 251.803 120.65ZM256.033 122H254.395V119.696L254.701 117.608L254.395 115.538V109.148H256.033V122ZM262.027 122.18C261.247 122.18 260.539 121.988 259.903 121.604C259.267 121.208 258.763 120.674 258.391 120.002C258.031 119.33 257.851 118.574 257.851 117.734C257.851 116.894 258.031 116.138 258.391 115.466C258.763 114.794 259.261 114.26 259.885 113.864C260.521 113.468 261.235 113.27 262.027 113.27C262.675 113.27 263.251 113.408 263.755 113.684C264.271 113.948 264.685 114.32 264.997 114.8C265.309 115.268 265.483 115.814 265.519 116.438V119.012C265.483 119.624 265.309 120.17 264.997 120.65C264.697 121.13 264.289 121.508 263.773 121.784C263.269 122.048 262.687 122.18 262.027 122.18ZM262.297 120.65C263.101 120.65 263.749 120.38 264.241 119.84C264.733 119.288 264.979 118.586 264.979 117.734C264.979 117.146 264.865 116.636 264.637 116.204C264.421 115.76 264.109 115.418 263.701 115.178C263.293 114.926 262.819 114.8 262.279 114.8C261.739 114.8 261.259 114.926 260.839 115.178C260.431 115.43 260.107 115.778 259.867 116.222C259.639 116.654 259.525 117.152 259.525 117.716C259.525 118.292 259.639 118.802 259.867 119.246C260.107 119.678 260.437 120.02 260.857 120.272C261.277 120.524 261.757 120.65 262.297 120.65ZM264.871 122V119.696L265.177 117.608L264.871 115.538V113.45H266.509V122H264.871ZM271.676 122.072L267.968 113.45H269.768L272.522 120.2H271.946L274.844 113.45H276.644L272.648 122.072H271.676ZM269.228 125.582L271.748 120.416L272.648 122.072L271.028 125.582H269.228ZM280.868 118.04L280.85 114.62L281.336 114.602C281.756 114.602 282.122 114.512 282.434 114.332C282.758 114.152 283.01 113.906 283.19 113.594C283.37 113.282 283.46 112.934 283.46 112.55C283.46 112.154 283.37 111.806 283.19 111.506C283.022 111.206 282.776 110.972 282.452 110.804C282.14 110.636 281.768 110.552 281.336 110.552C280.76 110.552 280.262 110.696 279.842 110.984C279.422 111.272 279.086 111.68 278.834 112.208L277.646 111.218C277.994 110.51 278.492 109.958 279.14 109.562C279.8 109.166 280.556 108.968 281.408 108.968C282.14 108.968 282.788 109.118 283.352 109.418C283.916 109.706 284.354 110.114 284.666 110.642C284.978 111.158 285.134 111.758 285.134 112.442C285.134 113.066 284.99 113.636 284.702 114.152C284.426 114.656 284.03 115.076 283.514 115.412C283.01 115.736 282.41 115.946 281.714 116.042L282.416 115.322L282.272 118.04H280.868ZM281.552 122.18C281.216 122.18 280.934 122.066 280.706 121.838C280.49 121.61 280.382 121.328 280.382 120.992C280.382 120.656 280.49 120.38 280.706 120.164C280.934 119.936 281.216 119.822 281.552 119.822C281.888 119.822 282.164 119.936 282.38 120.164C282.608 120.38 282.722 120.656 282.722 120.992C282.722 121.328 282.608 121.61 282.38 121.838C282.164 122.066 281.888 122.18 281.552 122.18Z" fill="#2D677C"/>
<path d="M159 232H220C228.284 232 235 238.716 235 247V259C235 267.284 228.284 274 220 274H174C165.716 274 159 267.284 159 259V232Z" fill="#E0F3FA"/>
<circle cx="183" cy="253" r="4" fill="#2D677C"/>
<circle cx="197" cy="253" r="4" fill="#2D677C"/>
<circle cx="211" cy="253" r="4" fill="#2D677C"/>
<path d="M280 181.278C280 172.84 286.84 166 295.278 166H513.75V206.278C513.75 214.715 506.91 221.556 498.472 221.556H295.278C286.84 221.556 280 214.715 280 206.278V181.278Z" fill="#2D677C"/>
<path d="M300.026 200.278L295.864 187.554H297.588L300.888 197.931H300.393L303.638 187.554H304.884L308.129 197.931H307.653L310.953 187.554H312.658L308.515 200.278H307.286L304.023 189.919H304.499L301.254 200.278H300.026ZM320.641 200.278V195.199C320.641 194.539 320.433 193.996 320.018 193.568C319.602 193.14 319.064 192.926 318.404 192.926C317.964 192.926 317.573 193.024 317.231 193.219C316.889 193.415 316.62 193.684 316.424 194.026C316.229 194.368 316.131 194.759 316.131 195.199L315.453 194.814C315.453 194.154 315.599 193.568 315.893 193.054C316.186 192.541 316.595 192.138 317.121 191.844C317.647 191.539 318.239 191.386 318.899 191.386C319.559 191.386 320.14 191.533 320.641 191.826C321.154 192.119 321.558 192.529 321.851 193.054C322.144 193.58 322.291 194.185 322.291 194.869V200.278H320.641ZM314.481 200.278V187.188H316.131V200.278H314.481ZM328.228 200.461C327.434 200.461 326.713 200.266 326.065 199.874C325.417 199.471 324.904 198.927 324.525 198.243C324.158 197.558 323.975 196.788 323.975 195.933C323.975 195.077 324.158 194.307 324.525 193.623C324.904 192.938 325.411 192.394 326.047 191.991C326.694 191.588 327.422 191.386 328.228 191.386C328.888 191.386 329.475 191.527 329.988 191.808C330.514 192.077 330.935 192.456 331.253 192.944C331.571 193.421 331.748 193.977 331.785 194.613V197.234C331.748 197.858 331.571 198.414 331.253 198.903C330.948 199.392 330.532 199.777 330.007 200.058C329.493 200.327 328.9 200.461 328.228 200.461ZM328.503 198.903C329.322 198.903 329.982 198.628 330.483 198.078C330.984 197.516 331.235 196.801 331.235 195.933C331.235 195.334 331.119 194.814 330.887 194.374C330.667 193.922 330.349 193.574 329.933 193.329C329.518 193.073 329.035 192.944 328.485 192.944C327.935 192.944 327.446 193.073 327.018 193.329C326.603 193.586 326.273 193.941 326.028 194.393C325.796 194.833 325.68 195.34 325.68 195.914C325.68 196.501 325.796 197.021 326.028 197.473C326.273 197.913 326.609 198.261 327.037 198.518C327.464 198.774 327.953 198.903 328.503 198.903ZM331.125 200.278V197.931L331.437 195.804L331.125 193.696V191.569H332.793V200.278H331.125ZM336.498 200.278V187.921H338.148V200.278H336.498ZM334.353 193.073V191.569H340.293V193.073H334.353ZM349.426 200.461C348.632 200.461 347.911 200.266 347.263 199.874C346.615 199.471 346.102 198.927 345.723 198.243C345.356 197.558 345.173 196.788 345.173 195.933C345.173 195.077 345.356 194.307 345.723 193.623C346.102 192.938 346.609 192.394 347.245 191.991C347.892 191.588 348.62 191.386 349.426 191.386C350.086 191.386 350.673 191.527 351.186 191.808C351.712 192.077 352.133 192.456 352.451 192.944C352.769 193.421 352.946 193.977 352.983 194.613V197.234C352.946 197.858 352.769 198.414 352.451 198.903C352.146 199.392 351.73 199.777 351.205 200.058C350.691 200.327 350.098 200.461 349.426 200.461ZM349.701 198.903C350.52 198.903 351.18 198.628 351.681 198.078C352.182 197.516 352.433 196.801 352.433 195.933C352.433 195.334 352.317 194.814 352.085 194.374C351.865 193.922 351.547 193.574 351.131 193.329C350.716 193.073 350.233 192.944 349.683 192.944C349.133 192.944 348.644 193.073 348.216 193.329C347.801 193.586 347.471 193.941 347.226 194.393C346.994 194.833 346.878 195.34 346.878 195.914C346.878 196.501 346.994 197.021 347.226 197.473C347.471 197.913 347.807 198.261 348.235 198.518C348.662 198.774 349.151 198.903 349.701 198.903ZM352.323 200.278V197.931L352.635 195.804L352.323 193.696V191.569H353.991V200.278H352.323ZM356.393 200.278V191.569H358.043V200.278H356.393ZM358.043 195.309L357.42 195.034C357.42 193.922 357.677 193.036 358.19 192.376C358.703 191.716 359.443 191.386 360.408 191.386C360.848 191.386 361.246 191.466 361.6 191.624C361.955 191.771 362.285 192.022 362.59 192.376L361.508 193.494C361.325 193.299 361.123 193.158 360.903 193.073C360.683 192.987 360.427 192.944 360.133 192.944C359.522 192.944 359.021 193.14 358.63 193.531C358.239 193.922 358.043 194.515 358.043 195.309ZM367.499 200.461C366.631 200.461 365.849 200.266 365.152 199.874C364.455 199.471 363.905 198.927 363.502 198.243C363.099 197.558 362.897 196.782 362.897 195.914C362.897 195.059 363.093 194.289 363.484 193.604C363.887 192.92 364.425 192.382 365.097 191.991C365.781 191.588 366.545 191.386 367.389 191.386C368.195 191.386 368.904 191.569 369.515 191.936C370.139 192.303 370.621 192.81 370.964 193.458C371.318 194.106 371.495 194.839 371.495 195.658C371.495 195.78 371.489 195.914 371.477 196.061C371.465 196.196 371.44 196.354 371.404 196.538H364.052V195.163H370.524L369.919 195.694C369.919 195.108 369.815 194.613 369.607 194.209C369.399 193.794 369.106 193.476 368.727 193.256C368.348 193.024 367.89 192.908 367.352 192.908C366.79 192.908 366.295 193.03 365.867 193.274C365.439 193.519 365.109 193.861 364.877 194.301C364.645 194.741 364.529 195.261 364.529 195.859C364.529 196.471 364.651 197.008 364.895 197.473C365.14 197.925 365.488 198.279 365.94 198.536C366.393 198.781 366.912 198.903 367.499 198.903C367.988 198.903 368.434 198.817 368.837 198.646C369.253 198.475 369.607 198.218 369.9 197.876L370.964 198.958C370.548 199.447 370.035 199.819 369.424 200.076C368.825 200.333 368.183 200.461 367.499 200.461ZM381.691 200.461C381.031 200.461 380.432 200.327 379.895 200.058C379.369 199.777 378.947 199.392 378.63 198.903C378.312 198.414 378.135 197.858 378.098 197.234V194.613C378.135 193.977 378.312 193.421 378.63 192.944C378.96 192.456 379.387 192.077 379.913 191.808C380.451 191.527 381.044 191.386 381.691 191.386C382.486 191.386 383.201 191.588 383.836 191.991C384.484 192.394 384.991 192.938 385.358 193.623C385.725 194.307 385.908 195.077 385.908 195.933C385.908 196.788 385.725 197.558 385.358 198.243C384.991 198.927 384.484 199.471 383.836 199.874C383.201 200.266 382.486 200.461 381.691 200.461ZM381.416 198.903C381.966 198.903 382.449 198.774 382.865 198.518C383.28 198.261 383.61 197.913 383.855 197.473C384.099 197.021 384.221 196.501 384.221 195.914C384.221 195.34 384.099 194.827 383.855 194.374C383.61 193.922 383.28 193.574 382.865 193.329C382.449 193.073 381.972 192.944 381.435 192.944C380.885 192.944 380.402 193.073 379.986 193.329C379.571 193.574 379.247 193.922 379.015 194.374C378.782 194.827 378.666 195.346 378.666 195.933C378.666 196.507 378.776 197.021 378.996 197.473C379.229 197.913 379.552 198.261 379.968 198.518C380.396 198.774 380.879 198.903 381.416 198.903ZM377.108 203.926V191.569H378.758V193.861L378.446 195.969L378.758 198.096V203.926H377.108ZM387.779 200.278V191.569H389.429V200.278H387.779ZM389.429 195.309L388.805 195.034C388.805 193.922 389.062 193.036 389.575 192.376C390.089 191.716 390.828 191.386 391.794 191.386C392.234 191.386 392.631 191.466 392.985 191.624C393.34 191.771 393.67 192.022 393.975 192.376L392.894 193.494C392.71 193.299 392.509 193.158 392.289 193.073C392.069 192.987 391.812 192.944 391.519 192.944C390.907 192.944 390.406 193.14 390.015 193.531C389.624 193.922 389.429 194.515 389.429 195.309ZM395.155 200.278V191.569H396.805V200.278H395.155ZM395.98 189.828C395.675 189.828 395.424 189.73 395.229 189.534C395.033 189.327 394.935 189.07 394.935 188.764C394.935 188.471 395.033 188.227 395.229 188.031C395.424 187.823 395.675 187.719 395.98 187.719C396.286 187.719 396.536 187.823 396.732 188.031C396.927 188.227 397.025 188.471 397.025 188.764C397.025 189.07 396.927 189.327 396.732 189.534C396.536 189.73 396.286 189.828 395.98 189.828ZM403.215 200.461C402.36 200.461 401.584 200.259 400.887 199.856C400.202 199.453 399.659 198.909 399.255 198.224C398.864 197.528 398.669 196.758 398.669 195.914C398.669 195.059 398.864 194.289 399.255 193.604C399.659 192.92 400.202 192.382 400.887 191.991C401.584 191.588 402.36 191.386 403.215 191.386C403.887 191.386 404.511 191.514 405.085 191.771C405.66 192.016 406.155 192.376 406.57 192.853L405.47 193.953C405.201 193.635 404.871 193.397 404.48 193.238C404.101 193.067 403.68 192.981 403.215 192.981C402.665 192.981 402.176 193.109 401.749 193.366C401.321 193.611 400.985 193.953 400.74 194.393C400.496 194.833 400.374 195.34 400.374 195.914C400.374 196.489 400.496 196.996 400.74 197.436C400.985 197.876 401.321 198.224 401.749 198.481C402.176 198.738 402.665 198.866 403.215 198.866C403.68 198.866 404.101 198.787 404.48 198.628C404.871 198.457 405.207 198.212 405.489 197.894L406.57 198.994C406.167 199.459 405.672 199.819 405.085 200.076C404.511 200.333 403.887 200.461 403.215 200.461ZM408.225 200.278V191.569H409.875V200.278H408.225ZM409.05 189.828C408.744 189.828 408.494 189.73 408.298 189.534C408.103 189.327 408.005 189.07 408.005 188.764C408.005 188.471 408.103 188.227 408.298 188.031C408.494 187.823 408.744 187.719 409.05 187.719C409.355 187.719 409.606 187.823 409.802 188.031C409.997 188.227 410.095 188.471 410.095 188.764C410.095 189.07 409.997 189.327 409.802 189.534C409.606 189.73 409.355 189.828 409.05 189.828ZM418.467 200.278V195.199C418.467 194.539 418.259 193.996 417.843 193.568C417.428 193.14 416.89 192.926 416.23 192.926C415.79 192.926 415.399 193.024 415.057 193.219C414.714 193.415 414.445 193.684 414.25 194.026C414.054 194.368 413.957 194.759 413.957 195.199L413.278 194.814C413.278 194.154 413.425 193.568 413.718 193.054C414.012 192.541 414.421 192.138 414.947 191.844C415.472 191.539 416.065 191.386 416.725 191.386C417.385 191.386 417.965 191.551 418.467 191.881C418.98 192.211 419.383 192.645 419.677 193.183C419.97 193.708 420.117 194.271 420.117 194.869V200.278H418.467ZM412.307 200.278V191.569H413.957V200.278H412.307ZM425.962 204.109C425.07 204.109 424.275 203.944 423.579 203.614C422.894 203.284 422.344 202.82 421.929 202.221L422.992 201.139C423.347 201.592 423.768 201.934 424.257 202.166C424.746 202.411 425.327 202.533 425.999 202.533C426.891 202.533 427.594 202.294 428.107 201.818C428.633 201.353 428.895 200.724 428.895 199.929V197.766L429.189 195.804L428.895 193.861V191.569H430.545V199.929C430.545 200.761 430.35 201.488 429.959 202.111C429.58 202.734 429.042 203.223 428.345 203.578C427.661 203.932 426.867 204.109 425.962 204.109ZM425.962 200.131C425.168 200.131 424.453 199.942 423.817 199.563C423.194 199.184 422.699 198.664 422.332 198.004C421.965 197.332 421.782 196.581 421.782 195.749C421.782 194.918 421.965 194.179 422.332 193.531C422.699 192.871 423.194 192.352 423.817 191.973C424.453 191.582 425.168 191.386 425.962 191.386C426.647 191.386 427.252 191.521 427.777 191.789C428.303 192.058 428.718 192.437 429.024 192.926C429.342 193.403 429.513 193.965 429.537 194.613V196.923C429.5 197.558 429.323 198.121 429.005 198.609C428.7 199.086 428.284 199.459 427.759 199.728C427.233 199.997 426.634 200.131 425.962 200.131ZM426.292 198.573C426.83 198.573 427.3 198.457 427.704 198.224C428.119 197.992 428.437 197.668 428.657 197.253C428.877 196.825 428.987 196.33 428.987 195.768C428.987 195.206 428.871 194.717 428.639 194.301C428.419 193.873 428.107 193.543 427.704 193.311C427.3 193.067 426.824 192.944 426.274 192.944C425.724 192.944 425.241 193.067 424.825 193.311C424.41 193.543 424.08 193.873 423.835 194.301C423.603 194.717 423.487 195.199 423.487 195.749C423.487 196.299 423.603 196.788 423.835 197.216C424.08 197.644 424.41 197.98 424.825 198.224C425.253 198.457 425.742 198.573 426.292 198.573ZM440.466 200.461C439.659 200.461 438.938 200.266 438.302 199.874C437.667 199.471 437.16 198.927 436.781 198.243C436.414 197.558 436.231 196.788 436.231 195.933C436.231 195.077 436.414 194.307 436.781 193.623C437.16 192.938 437.667 192.394 438.302 191.991C438.938 191.588 439.659 191.386 440.466 191.386C441.114 191.386 441.7 191.527 442.226 191.808C442.751 192.077 443.173 192.456 443.491 192.944C443.821 193.421 444.004 193.977 444.041 194.613V197.234C444.004 197.858 443.827 198.414 443.509 198.903C443.191 199.392 442.77 199.777 442.244 200.058C441.719 200.327 441.126 200.461 440.466 200.461ZM440.741 198.903C441.291 198.903 441.767 198.774 442.171 198.518C442.586 198.261 442.91 197.913 443.142 197.473C443.375 197.021 443.491 196.507 443.491 195.933C443.491 195.334 443.369 194.814 443.124 194.374C442.892 193.934 442.568 193.586 442.152 193.329C441.749 193.073 441.272 192.944 440.722 192.944C440.172 192.944 439.69 193.073 439.274 193.329C438.859 193.586 438.529 193.941 438.284 194.393C438.052 194.833 437.936 195.34 437.936 195.914C437.936 196.501 438.052 197.021 438.284 197.473C438.529 197.913 438.859 198.261 439.274 198.518C439.702 198.774 440.191 198.903 440.741 198.903ZM445.049 200.278H443.381V197.931L443.692 195.804L443.381 193.696V187.188H445.049V200.278ZM451.485 200.461C450.617 200.461 449.835 200.266 449.138 199.874C448.441 199.471 447.891 198.927 447.488 198.243C447.085 197.558 446.883 196.782 446.883 195.914C446.883 195.059 447.079 194.289 447.47 193.604C447.873 192.92 448.411 192.382 449.083 191.991C449.767 191.588 450.531 191.386 451.375 191.386C452.181 191.386 452.89 191.569 453.501 191.936C454.125 192.303 454.607 192.81 454.95 193.458C455.304 194.106 455.481 194.839 455.481 195.658C455.481 195.78 455.475 195.914 455.463 196.061C455.451 196.196 455.426 196.354 455.39 196.538H448.038V195.163H454.51L453.905 195.694C453.905 195.108 453.801 194.613 453.593 194.209C453.385 193.794 453.092 193.476 452.713 193.256C452.334 193.024 451.876 192.908 451.338 192.908C450.776 192.908 450.281 193.03 449.853 193.274C449.425 193.519 449.095 193.861 448.863 194.301C448.631 194.741 448.515 195.261 448.515 195.859C448.515 196.471 448.637 197.008 448.881 197.473C449.126 197.925 449.474 198.279 449.926 198.536C450.379 198.781 450.898 198.903 451.485 198.903C451.974 198.903 452.42 198.817 452.823 198.646C453.239 198.475 453.593 198.218 453.886 197.876L454.95 198.958C454.534 199.447 454.021 199.819 453.41 200.076C452.811 200.333 452.169 200.461 451.485 200.461ZM458.368 200.278V187.921H460.018V200.278H458.368ZM456.223 193.073V191.569H462.163V193.073H456.223ZM467.214 200.461C466.42 200.461 465.699 200.266 465.051 199.874C464.403 199.471 463.89 198.927 463.511 198.243C463.144 197.558 462.961 196.788 462.961 195.933C462.961 195.077 463.144 194.307 463.511 193.623C463.89 192.938 464.397 192.394 465.033 191.991C465.68 191.588 466.408 191.386 467.214 191.386C467.874 191.386 468.461 191.527 468.974 191.808C469.5 192.077 469.922 192.456 470.239 192.944C470.557 193.421 470.734 193.977 470.771 194.613V197.234C470.734 197.858 470.557 198.414 470.239 198.903C469.934 199.392 469.518 199.777 468.993 200.058C468.479 200.327 467.887 200.461 467.214 200.461ZM467.489 198.903C468.308 198.903 468.968 198.628 469.469 198.078C469.97 197.516 470.221 196.801 470.221 195.933C470.221 195.334 470.105 194.814 469.873 194.374C469.653 193.922 469.335 193.574 468.919 193.329C468.504 193.073 468.021 192.944 467.471 192.944C466.921 192.944 466.432 193.073 466.004 193.329C465.589 193.586 465.259 193.941 465.014 194.393C464.782 194.833 464.666 195.34 464.666 195.914C464.666 196.501 464.782 197.021 465.014 197.473C465.259 197.913 465.595 198.261 466.023 198.518C466.45 198.774 466.939 198.903 467.489 198.903ZM470.111 200.278V197.931L470.423 195.804L470.111 193.696V191.569H471.779V200.278H470.111ZM474.2 200.278V191.569H475.85V200.278H474.2ZM475.025 189.828C474.719 189.828 474.469 189.73 474.273 189.534C474.078 189.327 473.98 189.07 473.98 188.764C473.98 188.471 474.078 188.227 474.273 188.031C474.469 187.823 474.719 187.719 475.025 187.719C475.33 187.719 475.581 187.823 475.777 188.031C475.972 188.227 476.07 188.471 476.07 188.764C476.07 189.07 475.972 189.327 475.777 189.534C475.581 189.73 475.33 189.828 475.025 189.828ZM478.281 200.278V187.188H479.931V200.278H478.281ZM485.114 200.461C484.625 200.461 484.161 200.4 483.721 200.278C483.293 200.143 482.896 199.96 482.529 199.728C482.162 199.483 481.844 199.196 481.576 198.866L482.639 197.803C482.957 198.194 483.323 198.487 483.739 198.683C484.154 198.866 484.619 198.958 485.132 198.958C485.646 198.958 486.043 198.872 486.324 198.701C486.605 198.518 486.746 198.267 486.746 197.949C486.746 197.632 486.629 197.387 486.397 197.216C486.177 197.033 485.89 196.886 485.536 196.776C485.181 196.654 484.802 196.538 484.399 196.428C484.008 196.306 483.635 196.153 483.281 195.969C482.926 195.786 482.633 195.536 482.401 195.218C482.181 194.9 482.071 194.478 482.071 193.953C482.071 193.427 482.199 192.975 482.456 192.596C482.712 192.205 483.067 191.906 483.519 191.698C483.983 191.49 484.539 191.386 485.187 191.386C485.872 191.386 486.477 191.508 487.002 191.753C487.54 191.985 487.98 192.339 488.322 192.816L487.259 193.879C487.014 193.562 486.709 193.317 486.342 193.146C485.988 192.975 485.584 192.889 485.132 192.889C484.656 192.889 484.289 192.975 484.032 193.146C483.788 193.305 483.666 193.531 483.666 193.824C483.666 194.118 483.776 194.344 483.996 194.503C484.216 194.662 484.503 194.796 484.857 194.906C485.224 195.016 485.603 195.132 485.994 195.254C486.385 195.364 486.758 195.517 487.112 195.713C487.467 195.908 487.754 196.171 487.974 196.501C488.206 196.831 488.322 197.265 488.322 197.803C488.322 198.622 488.029 199.269 487.442 199.746C486.868 200.223 486.092 200.461 485.114 200.461ZM492.974 196.244L492.956 192.761L493.451 192.743C493.879 192.743 494.252 192.651 494.569 192.468C494.899 192.284 495.156 192.034 495.339 191.716C495.523 191.398 495.614 191.044 495.614 190.653C495.614 190.249 495.523 189.895 495.339 189.589C495.168 189.284 494.918 189.046 494.588 188.874C494.27 188.703 493.891 188.618 493.451 188.618C492.864 188.618 492.357 188.764 491.929 189.058C491.502 189.351 491.159 189.767 490.903 190.304L489.693 189.296C490.047 188.575 490.554 188.013 491.214 187.609C491.887 187.206 492.657 187.004 493.524 187.004C494.27 187.004 494.93 187.157 495.504 187.463C496.079 187.756 496.525 188.172 496.843 188.709C497.161 189.235 497.319 189.846 497.319 190.543C497.319 191.178 497.173 191.759 496.879 192.284C496.598 192.798 496.195 193.226 495.669 193.568C495.156 193.898 494.545 194.112 493.836 194.209L494.551 193.476L494.404 196.244H492.974ZM493.671 200.461C493.329 200.461 493.042 200.345 492.809 200.113C492.589 199.881 492.479 199.593 492.479 199.251C492.479 198.909 492.589 198.628 492.809 198.408C493.042 198.176 493.329 198.059 493.671 198.059C494.013 198.059 494.294 198.176 494.514 198.408C494.747 198.628 494.863 198.909 494.863 199.251C494.863 199.593 494.747 199.881 494.514 200.113C494.294 200.345 494.013 200.461 493.671 200.461Z" fill="white"/>
<defs>
<clipPath id="clip0_710_5206">
<rect width="24" height="24" fill="white" transform="translate(151 12.5)"/>
</clipPath>
<clipPath id="clip1_710_5206">
<rect width="24.5" height="24.5" fill="white" transform="translate(482.75 339.75)"/>
</clipPath>
</defs>
</svg>
