<svg width="42" height="42" viewBox="0 0 42 42" fill="none" xmlns="http://www.w3.org/2000/svg">
<g clip-path="url(#clip0_530_728)">
<path d="M12.5987 12.962H10.2793L16.6026 30.8364L20.1425 20.7204L17.398 12.962H14.9508V11.2588H25.7876V12.962H23.2499L29.5731 30.8364L31.846 24.341C34.8276 16.0191 29.4022 13.4268 29.4022 11.5696C29.4022 9.71234 30.9078 8.20684 32.765 8.20684C32.8654 8.20684 32.963 8.21228 33.0586 8.22119C29.9118 5.25062 25.6687 3.42896 20.9998 3.42896C14.899 3.42896 9.52523 6.53865 6.375 11.2588H12.5985V12.962H12.5987Z" fill="#00769D" style="fill:#00769D;fill:color(display-p3 0.0000 0.4627 0.6157);fill-opacity:1;"/>
<path d="M3.42969 20.9999C3.42969 27.727 7.21075 33.5702 12.763 36.5229L4.83349 14.1079C3.93021 16.2241 3.42969 18.5535 3.42969 20.9999Z" fill="#00769D" style="fill:#00769D;fill:color(display-p3 0.0000 0.4627 0.6157);fill-opacity:1;"/>
<path d="M36.2929 12.3416C36.5442 13.8214 36.4681 15.4847 36.0824 17.1545H36.1523L35.8866 17.9137C35.7292 18.4619 35.531 19.0226 35.3058 19.5736L29.2598 36.5117C34.8004 33.5555 38.5718 27.7186 38.5718 20.9999C38.5718 17.8517 37.743 14.8973 36.2929 12.3416Z" fill="#00769D" style="fill:#00769D;fill:color(display-p3 0.0000 0.4627 0.6157);fill-opacity:1;"/>
<path d="M15.5801 37.7182C17.2871 38.2711 19.1079 38.5711 20.9992 38.5711C22.8031 38.5711 24.5434 38.2988 26.1816 37.7938L21.0419 23.2649L15.5801 37.7182Z" fill="#00769D" style="fill:#00769D;fill:color(display-p3 0.0000 0.4627 0.6157);fill-opacity:1;"/>
<path d="M35.8492 6.15073C31.8828 2.18437 26.6092 0 20.9999 0C15.3906 0 10.1171 2.18437 6.15073 6.15073C2.18437 10.1171 0 15.3906 0 21C0 26.6093 2.18437 31.8828 6.15073 35.8492C10.1171 39.8155 15.3907 41.9999 21 41.9999C26.6093 41.9999 31.8828 39.8155 35.8493 35.8492C39.8156 31.8828 42 26.6092 42 21C41.9999 15.3906 39.8155 10.1171 35.8492 6.15073ZM20.9999 40.5185C10.2374 40.5185 1.48139 31.7625 1.48139 21C1.48139 10.2374 10.2374 1.48139 20.9999 1.48139C31.7625 1.48139 40.5184 10.2374 40.5184 21C40.5184 31.7625 31.7626 40.5185 20.9999 40.5185Z" fill="#00769D" style="fill:#00769D;fill:color(display-p3 0.0000 0.4627 0.6157);fill-opacity:1;"/>
</g>
<defs>
<clipPath id="clip0_530_728">
<rect width="42" height="42" fill="white" style="fill:white;fill-opacity:1;"/>
</clipPath>
</defs>
</svg>
