<svg className="container mx-auto max-w-5xl bg-transparent" width="139" height="43" viewBox="0 0 139 43" fill="none" xmlns="http://www.w3.org/2000/svg">
<rect x="0.5" y="0.5" width="138" height="42" rx="21" fill="#FFFEEE"/>
<rect x="0.5" y="0.5" width="138" height="42" rx="21" stroke="black"/>
<rect x="0.5" y="0.5" width="138" height="42" rx="21" stroke="url(#paint0_linear_14327_2472)"/>
<path d="M16.96 27V15.8H23.528V17.144H18.304V20.328H22.76V21.672H18.304V27H16.96ZM24.335 27V19H25.679V20C25.9617 19.6267 26.319 19.3307 26.751 19.112C27.183 18.888 27.6523 18.776 28.159 18.776C28.4683 18.776 28.767 18.816 29.055 18.896L28.511 20.24C28.2923 20.1707 28.079 20.136 27.871 20.136C27.471 20.136 27.103 20.2347 26.767 20.432C26.4363 20.624 26.1723 20.8853 25.975 21.216C25.7777 21.5467 25.679 21.9147 25.679 22.32V27H24.335ZM33.1519 27.208C32.4159 27.208 31.7439 27.0187 31.1359 26.64C30.5332 26.2613 30.0505 25.7547 29.6879 25.12C29.3305 24.48 29.1519 23.7733 29.1519 23C29.1519 22.4133 29.2559 21.8667 29.4639 21.36C29.6719 20.848 29.9572 20.4 30.3199 20.016C30.6879 19.6267 31.1145 19.3227 31.5999 19.104C32.0852 18.8853 32.6025 18.776 33.1519 18.776C33.7545 18.776 34.3065 18.8987 34.8079 19.144C35.3145 19.384 35.7465 19.72 36.1039 20.152C36.4665 20.584 36.7359 21.0853 36.9119 21.656C37.0932 22.2267 37.1599 22.8373 37.1119 23.488H30.5839C30.6479 23.9413 30.7972 24.3467 31.0319 24.704C31.2665 25.056 31.5652 25.336 31.9279 25.544C32.2959 25.752 32.7039 25.8587 33.1519 25.864C33.6319 25.864 34.0665 25.7413 34.4559 25.496C34.8452 25.2453 35.1599 24.904 35.3999 24.472L36.7679 24.792C36.4479 25.5013 35.9652 26.0827 35.3199 26.536C34.6745 26.984 33.9519 27.208 33.1519 27.208ZM30.5439 22.432H35.7599C35.7172 21.984 35.5732 21.576 35.3279 21.208C35.0825 20.8347 34.7705 20.536 34.3919 20.312C34.0132 20.088 33.5999 19.976 33.1519 19.976C32.7039 19.976 32.2932 20.0853 31.9199 20.304C31.5465 20.5227 31.2372 20.8187 30.9919 21.192C30.7519 21.56 30.6025 21.9733 30.5439 22.432ZM41.9331 27.208C41.1971 27.208 40.5251 27.0187 39.9171 26.64C39.3145 26.2613 38.8318 25.7547 38.4691 25.12C38.1118 24.48 37.9331 23.7733 37.9331 23C37.9331 22.4133 38.0371 21.8667 38.2451 21.36C38.4531 20.848 38.7385 20.4 39.1011 20.016C39.4691 19.6267 39.8958 19.3227 40.3811 19.104C40.8665 18.8853 41.3838 18.776 41.9331 18.776C42.5358 18.776 43.0878 18.8987 43.5891 19.144C44.0958 19.384 44.5278 19.72 44.8851 20.152C45.2478 20.584 45.5171 21.0853 45.6931 21.656C45.8745 22.2267 45.9411 22.8373 45.8931 23.488H39.3651C39.4291 23.9413 39.5785 24.3467 39.8131 24.704C40.0478 25.056 40.3465 25.336 40.7091 25.544C41.0771 25.752 41.4851 25.8587 41.9331 25.864C42.4131 25.864 42.8478 25.7413 43.2371 25.496C43.6265 25.2453 43.9411 24.904 44.1811 24.472L45.5491 24.792C45.2291 25.5013 44.7465 26.0827 44.1011 26.536C43.4558 26.984 42.7331 27.208 41.9331 27.208ZM39.3251 22.432H44.5411C44.4985 21.984 44.3545 21.576 44.1091 21.208C43.8638 20.8347 43.5518 20.536 43.1731 20.312C42.7945 20.088 42.3811 19.976 41.9331 19.976C41.4851 19.976 41.0745 20.0853 40.7011 20.304C40.3278 20.5227 40.0185 20.8187 39.7731 21.192C39.5331 21.56 39.3838 21.9733 39.3251 22.432ZM51.1944 27V15.8H57.7624V17.144H52.5384V20.328H56.9944V21.672H52.5384V27H51.1944ZM61.6675 27.208C60.9315 27.208 60.2595 27.0187 59.6515 26.64C59.0488 26.2613 58.5662 25.7547 58.2035 25.12C57.8462 24.48 57.6675 23.7733 57.6675 23C57.6675 22.4133 57.7715 21.8667 57.9795 21.36C58.1875 20.848 58.4728 20.4 58.8355 20.016C59.2035 19.6267 59.6302 19.3227 60.1155 19.104C60.6008 18.8853 61.1182 18.776 61.6675 18.776C62.4035 18.776 63.0728 18.9653 63.6755 19.344C64.2835 19.7227 64.7662 20.232 65.1235 20.872C65.4862 21.512 65.6675 22.2213 65.6675 23C65.6675 23.5813 65.5635 24.1253 65.3555 24.632C65.1475 25.1387 64.8595 25.5867 64.4915 25.976C64.1288 26.36 63.7048 26.6613 63.2195 26.88C62.7395 27.0987 62.2222 27.208 61.6675 27.208ZM61.6675 25.864C62.1688 25.864 62.6195 25.7333 63.0195 25.472C63.4248 25.2053 63.7422 24.856 63.9715 24.424C64.2062 23.9867 64.3235 23.512 64.3235 23C64.3235 22.4773 64.2035 21.9973 63.9635 21.56C63.7288 21.1227 63.4115 20.7733 63.0115 20.512C62.6115 20.2507 62.1635 20.12 61.6675 20.12C61.1662 20.12 60.7155 20.2533 60.3155 20.52C59.9155 20.7813 59.5982 21.1307 59.3635 21.568C59.1288 22.0053 59.0115 22.4827 59.0115 23C59.0115 23.5333 59.1315 24.0187 59.3715 24.456C59.6115 24.888 59.9342 25.232 60.3395 25.488C60.7448 25.7387 61.1875 25.864 61.6675 25.864ZM66.9913 27V19H68.3353V20C68.6179 19.6267 68.9753 19.3307 69.4073 19.112C69.8393 18.888 70.3086 18.776 70.8153 18.776C71.1246 18.776 71.4233 18.816 71.7113 18.896L71.1673 20.24C70.9486 20.1707 70.7353 20.136 70.5273 20.136C70.1273 20.136 69.7593 20.2347 69.4233 20.432C69.0926 20.624 68.8286 20.8853 68.6313 21.216C68.4339 21.5467 68.3353 21.9147 68.3353 22.32V27H66.9913ZM75.8081 27.208C75.0721 27.208 74.4001 27.0187 73.7921 26.64C73.1895 26.2613 72.7068 25.7547 72.3441 25.12C71.9868 24.48 71.8081 23.7733 71.8081 23C71.8081 22.4133 71.9121 21.8667 72.1201 21.36C72.3281 20.848 72.6135 20.4 72.9761 20.016C73.3441 19.6267 73.7708 19.3227 74.2561 19.104C74.7415 18.8853 75.2588 18.776 75.8081 18.776C76.4108 18.776 76.9628 18.8987 77.4641 19.144C77.9708 19.384 78.4028 19.72 78.7601 20.152C79.1228 20.584 79.3921 21.0853 79.5681 21.656C79.7495 22.2267 79.8161 22.8373 79.7681 23.488H73.2401C73.3041 23.9413 73.4535 24.3467 73.6881 24.704C73.9228 25.056 74.2215 25.336 74.5841 25.544C74.9521 25.752 75.3601 25.8587 75.8081 25.864C76.2881 25.864 76.7228 25.7413 77.1121 25.496C77.5015 25.2453 77.8161 24.904 78.0561 24.472L79.4241 24.792C79.1041 25.5013 78.6215 26.0827 77.9761 26.536C77.3308 26.984 76.6081 27.208 75.8081 27.208ZM73.2001 22.432H78.4161C78.3735 21.984 78.2295 21.576 77.9841 21.208C77.7388 20.8347 77.4268 20.536 77.0481 20.312C76.6695 20.088 76.2561 19.976 75.8081 19.976C75.3601 19.976 74.9495 20.0853 74.5761 20.304C74.2028 20.5227 73.8935 20.8187 73.6481 21.192C73.4081 21.56 73.2588 21.9733 73.2001 22.432ZM84.9325 27H83.2125L80.2925 18.984H81.7245L84.0685 25.44L86.4125 18.984H87.8445L84.9325 27ZM92.355 27.208C91.619 27.208 90.947 27.0187 90.339 26.64C89.7363 26.2613 89.2537 25.7547 88.891 25.12C88.5337 24.48 88.355 23.7733 88.355 23C88.355 22.4133 88.459 21.8667 88.667 21.36C88.875 20.848 89.1603 20.4 89.523 20.016C89.891 19.6267 90.3177 19.3227 90.803 19.104C91.2883 18.8853 91.8057 18.776 92.355 18.776C92.9577 18.776 93.5097 18.8987 94.011 19.144C94.5177 19.384 94.9497 19.72 95.307 20.152C95.6697 20.584 95.939 21.0853 96.115 21.656C96.2963 22.2267 96.363 22.8373 96.315 23.488H89.787C89.851 23.9413 90.0003 24.3467 90.235 24.704C90.4697 25.056 90.7683 25.336 91.131 25.544C91.499 25.752 91.907 25.8587 92.355 25.864C92.835 25.864 93.2697 25.7413 93.659 25.496C94.0483 25.2453 94.363 24.904 94.603 24.472L95.971 24.792C95.651 25.5013 95.1683 26.0827 94.523 26.536C93.8777 26.984 93.155 27.208 92.355 27.208ZM89.747 22.432H94.963C94.9203 21.984 94.7763 21.576 94.531 21.208C94.2857 20.8347 93.9737 20.536 93.595 20.312C93.2163 20.088 92.803 19.976 92.355 19.976C91.907 19.976 91.4963 20.0853 91.123 20.304C90.7497 20.5227 90.4403 20.8187 90.195 21.192C89.955 21.56 89.8057 21.9733 89.747 22.432ZM97.6631 27V19H99.0071V20C99.2898 19.6267 99.6471 19.3307 100.079 19.112C100.511 18.888 100.98 18.776 101.487 18.776C101.796 18.776 102.095 18.816 102.383 18.896L101.839 20.24C101.62 20.1707 101.407 20.136 101.199 20.136C100.799 20.136 100.431 20.2347 100.095 20.432C99.7645 20.624 99.5005 20.8853 99.3031 21.216C99.1058 21.5467 99.0071 21.9147 99.0071 22.32V27H97.6631Z" fill="#212121"/>
<g clip-path="url(#clip0_14327_2472)">
<path d="M113.635 20.8081L115.505 22.6777L109.068 29.1138C108.803 29.379 108.378 29.379 108.113 29.1138L107.199 28.1996C106.934 27.9345 106.934 27.5094 107.199 27.2443L113.635 20.8081ZM117.959 19.2722L117.04 18.3534C116.78 18.0929 116.35 18.0929 116.09 18.3534L113.955 20.4881L115.829 22.3531L117.959 20.223C118.22 19.9625 118.22 19.5328 117.959 19.2722ZM113.686 13.7679L113.478 14.4414C113.306 14.9983 112.87 15.4342 112.313 15.6059L111.64 15.8136C111.532 15.8469 111.532 15.9995 111.64 16.0327L112.313 16.2404C112.87 16.4121 113.306 16.8481 113.478 17.4049L113.686 18.0785C113.719 18.1863 113.871 18.1863 113.905 18.0785L114.112 17.4049C114.284 16.8481 114.72 16.4121 115.277 16.2404L115.951 16.0327C116.058 15.9995 116.058 15.8469 115.951 15.8136L115.277 15.6059C114.72 15.4342 114.284 14.9983 114.112 14.4414L113.905 13.7678C113.871 13.6601 113.719 13.6601 113.686 13.7679ZM118.705 22.2647L118.579 22.676C118.474 23.0161 118.207 23.2823 117.867 23.3872L117.456 23.5141C117.39 23.5344 117.39 23.6275 117.456 23.6478L117.867 23.7747C118.207 23.8796 118.474 24.1458 118.579 24.4859L118.705 24.8972C118.726 24.9631 118.819 24.9631 118.839 24.8972L118.966 24.4859C119.071 24.1458 119.337 23.8796 119.677 23.7747L120.089 23.6478C120.154 23.6275 120.154 23.5344 120.089 23.5141L119.677 23.3872C119.337 23.2823 119.071 23.0161 118.966 22.676L118.839 22.2647C118.819 22.1988 118.726 22.1988 118.705 22.2647ZM121.221 18.2206L121.063 18.7316C120.933 19.154 120.602 19.4846 120.18 19.6149L119.669 19.7725C119.587 19.7977 119.587 19.9134 119.669 19.9386L120.18 20.0962C120.602 20.2264 120.933 20.5571 121.063 20.9795L121.221 21.4904C121.246 21.5722 121.362 21.5722 121.387 21.4904L121.544 20.9795C121.675 20.5571 122.005 20.2264 122.428 20.0962L122.939 19.9386C123.02 19.9134 123.02 19.7977 122.939 19.7725L122.428 19.6149C122.005 19.4846 121.675 19.154 121.544 18.7316L121.387 18.2206C121.362 18.1389 121.246 18.1389 121.221 18.2206Z" fill="#212121"/>
</g>
<defs>
<linearGradient id="paint0_linear_14327_2472" x1="139" y1="39.3143" x2="83.4695" y2="85.077" gradientUnits="userSpaceOnUse">
<stop offset="0.06" stop-color="#FF8585"/>
<stop offset="0.45" stop-color="#56D5FF"/>
<stop offset="1" stop-color="#DCD536"/>
</linearGradient>
<clipPath id="clip0_14327_2472">
<rect width="16" height="16" fill="white" transform="translate(107 13.5)"/>
</clipPath>
</defs>
</svg>