<svg width="72" height="72" viewBox="0 0 72 72" fill="none" xmlns="http://www.w3.org/2000/svg">
    <rect width="72" height="72" rx="10" fill="#FFFEEE" />
    <path
        d="M49.623 24.7551C49.623 24.7551 51.109 26.241 51.1102 26.2423C51.3552 26.4873 51.7756 26.4943 52.0277 26.2423C52.281 25.989 52.281 25.5783 52.0277 25.325C52.0277 25.325 50.082 23.3794 50.0814 23.3788L48.1357 21.4331C47.8824 21.1798 47.4718 21.1797 47.2183 21.4331C46.9649 21.6864 46.9649 22.0971 47.2183 22.3504L48.7056 23.8378L46.8244 25.7189C44.102 23.2742 40.551 21.7358 36.6499 21.5815V19.2973H41.1904C41.5486 19.2973 41.839 19.0069 41.839 18.6486C41.839 18.2904 41.5486 18 41.1904 18H30.8122C30.4539 18 30.1636 18.2904 30.1636 18.6486C30.1636 19.0069 30.454 19.2973 30.8122 19.2973H35.3527V21.5816C26.7107 21.9233 19.7852 29.0593 19.7852 37.7837C19.7852 46.7253 27.0597 53.9999 36.0014 53.9999C44.9431 53.9999 52.2176 46.7253 52.2176 37.7837C52.2176 33.4633 50.5191 29.5324 47.755 26.6229L49.623 24.7551ZM36.65 52.6877V48.1621C36.65 47.8039 36.3597 47.5135 36.0014 47.5135C35.6431 47.5135 35.3528 47.8039 35.3528 48.1621V52.6877C27.6414 52.3561 21.4291 46.1436 21.0974 38.4323H25.623C25.9813 38.4323 26.2716 38.1419 26.2716 37.7837C26.2716 37.4254 25.9813 37.1351 25.623 37.1351H21.0974C21.429 29.4237 27.6414 23.2114 35.3528 22.8797V26.4323C35.3528 26.7905 35.6431 27.0809 36.0014 27.0809C36.3597 27.0809 36.65 26.7905 36.65 26.4323V22.8797C44.3614 23.2113 50.5737 29.4237 50.9054 37.1351H46.3798C46.0216 37.1351 45.7312 37.4254 45.7312 37.7837C45.7312 38.1419 46.0216 38.4323 46.3798 38.4323H50.9054C50.5737 46.1437 44.3614 52.3561 36.65 52.6877Z"
        fill="black" />
    <path
        d="M36.0028 34.5405C34.2144 34.5405 32.7595 35.9954 32.7595 37.7838C32.7595 38.4438 32.9581 39.0581 33.2982 39.571L27.7603 45.1089C27.507 45.3622 27.507 45.7728 27.7602 46.0261C27.9966 46.2626 28.424 46.28 28.6777 46.0262L34.2156 40.4883C34.7285 40.8283 35.3428 41.0269 36.0028 41.0269C37.7911 41.0269 39.2461 39.572 39.2461 37.7837C39.246 35.9955 37.7911 34.5405 36.0028 34.5405ZM36.0028 39.7298C34.9297 39.7298 34.0568 38.8568 34.0568 37.7838C34.0568 36.7108 34.9298 35.8379 36.0028 35.8379C37.0757 35.8379 37.9487 36.7108 37.9487 37.7838C37.9487 38.8568 37.0757 39.7298 36.0028 39.7298Z"
        fill="black" />
</svg>