<svg width="72" height="72" viewBox="0 0 72 72" fill="none" xmlns="http://www.w3.org/2000/svg">
    <rect width="72" height="72" rx="10" fill="#FFFEEE" />
    <path
        d="M41.0752 19H23.8667C23.6368 19 23.4164 19.0913 23.2538 19.2538C23.0913 19.4164 23 19.6368 23 19.8667V52.8C23 52.9138 23.0224 53.0265 23.0659 53.1317C23.1095 53.2369 23.1733 53.3324 23.2538 53.4129C23.3343 53.4934 23.4298 53.5572 23.535 53.6008C23.6401 53.6443 23.7528 53.6667 23.8667 53.6667H48.1333C48.2472 53.6667 48.3599 53.6443 48.465 53.6008C48.5702 53.5572 48.6657 53.4934 48.7462 53.4129C48.8267 53.3324 48.8905 53.2369 48.9341 53.1317C48.9776 53.0265 49 52.9138 49 52.8V26.9248C48.9976 24.8237 48.1619 22.8094 46.6762 21.3238C45.1906 19.8381 43.1763 19.0024 41.0752 19ZM47.2604 26.8H42.0997C41.8549 26.7932 41.6228 26.6897 41.4541 26.5121C41.2855 26.3345 41.1941 26.0973 41.2 25.8525V20.7396C42.7968 20.7733 44.3188 21.4226 45.4481 22.5519C46.5774 23.6813 47.2267 25.2033 47.2604 26.8ZM24.7334 51.9333V20.7333H39.4667V25.8525C39.4612 26.5569 39.7353 27.2347 40.2289 27.7373C40.7225 28.2399 41.3953 28.5261 42.0997 28.5333H47.2667V51.9333H24.7334ZM42.3168 35.005L34.5168 31.0009C34.3845 30.9349 34.2376 30.9035 34.0899 30.9099C33.9421 30.9162 33.7984 30.9599 33.6722 31.037C33.546 31.1141 33.4415 31.222 33.3684 31.3505C33.2954 31.4791 33.2562 31.6241 33.2545 31.7719V39.1599C32.684 38.9116 32.0486 38.8541 31.4428 38.9959C30.8371 39.1377 30.2932 39.4713 29.8923 39.947C29.4913 40.4227 29.2546 41.0152 29.2175 41.6363C29.1803 42.2573 29.3446 42.8738 29.686 43.3939C30.0274 43.9141 30.5275 44.3102 31.1121 44.5232C31.6967 44.7362 32.3344 44.7549 32.9304 44.5763C33.5264 44.3978 34.0488 44.0316 34.42 43.5323C34.7911 43.0329 34.9912 42.4271 34.9903 41.8049C34.9954 41.7852 34.9813 33.214 34.9878 33.1908L41.054 36.305L41.0483 42.0678C40.4776 41.8203 39.8423 41.7635 39.2368 41.906C38.6313 42.0485 38.0879 42.3826 37.6875 42.8586C37.2871 43.3347 37.051 43.9272 37.0144 44.5482C36.9777 45.1692 37.1425 45.7854 37.4841 46.3052C37.8257 46.825 38.326 47.2207 38.9105 47.4335C39.4951 47.6462 40.1327 47.6646 40.7285 47.4859C41.3243 47.3072 41.8466 46.941 42.2176 46.4417C42.5886 45.9424 42.7886 45.3367 42.7878 44.7147C42.775 44.5781 42.7872 35.9042 42.7878 35.7768C42.788 35.6172 42.7441 35.4607 42.661 35.3245C42.5779 35.1884 42.4588 35.0778 42.3168 35.005ZM32.1013 42.9611C31.7977 42.9567 31.508 42.833 31.2949 42.6168C31.0817 42.4005 30.9623 42.109 30.9623 41.8054C30.9623 41.5018 31.0818 41.2103 31.2949 40.9941C31.5081 40.7778 31.7978 40.6541 32.1014 40.6497C32.405 40.6541 32.6947 40.7778 32.9078 40.9941C33.1209 41.2104 33.2404 41.5018 33.2404 41.8055C33.2404 42.1091 33.1209 42.4005 32.9078 42.6168C32.6946 42.833 32.4049 42.9567 32.1013 42.9611ZM39.8984 45.8709C39.5947 45.8665 39.3051 45.7428 39.0919 45.5265C38.8788 45.3103 38.7593 45.0188 38.7593 44.7152C38.7593 44.4116 38.8788 44.1201 39.0919 43.9038C39.3051 43.6876 39.5947 43.5639 39.8984 43.5595C40.202 43.5639 40.4916 43.6876 40.7048 43.9038C40.9179 44.1201 41.0374 44.4116 41.0374 44.7152C41.0374 45.0188 40.9179 45.3103 40.7048 45.5265C40.4916 45.7428 40.202 45.8665 39.8984 45.8709Z"
        fill="black" />
</svg>