<svg width="24" height="24" viewBox="0 0 24 24" fill="none" xmlns="http://www.w3.org/2000/svg">
    <path
        d="M20.4857 7.51529C18.2195 5.24912 15.2063 4.00098 12.0013 4.00098C8.79631 4.00098 5.78314 5.24916 3.51697 7.51529C0.375028 10.6573 -0.671832 15.111 0.417028 19.1362C0.499997 19.4427 0.777918 19.6555 1.09568 19.6555H22.907C23.2248 19.6555 23.5027 19.4427 23.5857 19.1362C23.8608 18.1191 24 17.0641 24 15.9997C24 12.7947 22.7518 9.78146 20.4857 7.51529ZM22.3544 18.2494H1.64829C0.213403 11.6322 5.28101 5.40709 12.0013 5.40709C18.7164 5.40709 23.7904 11.627 22.3544 18.2494Z"
        fill="black" />
    <path
        d="M11.9999 10.0131C12.3882 10.0131 12.7029 9.69836 12.7029 9.31009V7.98428C12.7029 7.59602 12.3882 7.28125 11.9999 7.28125C11.6116 7.28125 11.2969 7.59602 11.2969 7.98428V9.31009C11.2968 9.69836 11.6116 10.0131 11.9999 10.0131Z"
        fill="black" />
    <path
        d="M8.60889 8.70717C8.41469 8.37089 7.98479 8.25558 7.64851 8.44983C7.31223 8.64394 7.19706 9.07392 7.39117 9.4102L8.05403 10.5584C8.18425 10.784 8.42055 10.9101 8.66355 10.9101C9.19961 10.9101 9.54344 10.326 9.27175 9.85537L8.60889 8.70717Z"
        fill="black" />
    <path
        d="M6.56222 12.0463L5.41407 11.3834C5.07778 11.1892 4.64785 11.3044 4.45369 11.6408C4.25953 11.977 4.37475 12.407 4.71103 12.6011C5.95932 13.3219 5.96663 13.3584 6.21005 13.3584C6.9263 13.3584 7.18397 12.4053 6.56222 12.0463Z"
        fill="black" />
    <path
        d="M5.31009 15.2969H3.98428C3.59602 15.2969 3.28125 15.6116 3.28125 15.9999C3.28125 16.3882 3.59602 16.7029 3.98428 16.7029H5.31009C5.69836 16.7029 6.01312 16.3882 6.01312 15.9999C6.01312 15.6116 5.69836 15.2969 5.31009 15.2969Z"
        fill="black" />
    <path
        d="M17.9922 15.9999C17.9922 16.3882 18.307 16.7029 18.6952 16.7029H20.021C20.4093 16.7029 20.7241 16.3882 20.7241 15.9999C20.7241 15.6116 20.4093 15.2969 20.021 15.2969H18.6952C18.307 15.2969 17.9922 15.6116 17.9922 15.9999Z"
        fill="black" />
    <path
        d="M18.5935 11.3834L17.4454 12.0463C17.1091 12.2404 16.9939 12.6704 17.188 13.0067C17.3823 13.3431 17.8124 13.4581 18.1484 13.264L19.2966 12.6011C19.6329 12.407 19.748 11.977 19.5539 11.6407C19.3598 11.3045 18.9298 11.1892 18.5935 11.3834Z"
        fill="black" />
    <path
        d="M16.3582 8.4498C16.0218 8.25559 15.5919 8.3709 15.3978 8.70714L14.7349 9.85534C14.5408 10.1916 14.656 10.6216 14.9923 10.8157C15.3288 11.01 15.7586 10.8945 15.9527 10.5584L16.6155 9.41017C16.8097 9.07389 16.6945 8.6439 16.3582 8.4498Z"
        fill="black" />
    <path
        d="M13.7065 13.2997L11.5036 15.5025C11.0593 15.9469 11.3802 16.7027 12.0007 16.7027C12.1807 16.7027 12.3606 16.6341 12.4979 16.4968L14.7007 14.2939C14.9753 14.0194 14.9753 13.5742 14.7007 13.2997C14.4262 13.0251 13.9811 13.0251 13.7065 13.2997Z"
        fill="black" />
</svg>