<svg viewBox="0 0 200 200" height="24" width="24" xmlns="http://www.w3.org/2000/svg">
  <!-- Background circle -->
  <circle cx="100" cy="100" r="90" fill="#f0f9ff" stroke="#3b82f6" stroke-width="6" />

  <!-- Document with value proposition -->
  <rect x="60" y="45" width="80" height="110" rx="4" fill="white" stroke="#3b82f6" stroke-width="3" />

  <!-- Document lines -->
  <line x1="75" y1="70" x2="125" y2="70" stroke="#64748b" stroke-width="3" />
  <line x1="75" y1="85" x2="125" y2="85" stroke="#64748b" stroke-width="3" />
  <line x1="75" y1="100" x2="110" y2="100" stroke="#64748b" stroke-width="3" />

  <!-- Target/bullseye -->
  <circle cx="135" cy="60" r="20" fill="#ef4444" stroke="#3b82f6" stroke-width="3" />
  <circle cx="135" cy="60" r="13" fill="white" stroke="#3b82f6" stroke-width="2" />
  <circle cx="135" cy="60" r="6" fill="#3b82f6" />

  <!-- Upward arrow indicating growth/value -->
  <path d="M100 130 L120 110 L110 110 L110 90 L90 90 L90 110 L80 110 Z" fill="#10b981" />

  <!-- Lightbulb for ideas -->
  <path d="M60 55 Q50 35 60 25 Q70 15 80 25 Q90 35 80 55 L75 60 L65 60 Z" fill="#fbbf24" stroke="#3b82f6"
    stroke-width="2" />
  <line x1="70" y1="60" x2="70" y2="65" stroke="#3b82f6" stroke-width="2" />
</svg>