<svg width="40" height="40" viewBox="0 0 40 40" fill="none" xmlns="http://www.w3.org/2000/svg">
    <rect width="40" height="40" rx="10" fill="#FFFEEE" />
    <path d="M16.25 24.243V26.9143L13.9062 28.2607L11.5625 26.9143V24.2214L13.9062 22.875"
        stroke="black" stroke-width="0.937496" stroke-miterlimit="2.6131" stroke-linecap="round"
        stroke-linejoin="round" />
    <path
        d="M18.6641 20.6484C18.6641 21.1641 18.2422 21.5859 17.7266 21.5859C17.2109 21.5859 16.7891 21.1641 16.7891 20.6484V18.7734C16.7891 18.2578 17.2109 17.8359 17.7266 17.8359C18.2422 17.8359 18.6641 18.2578 18.6641 18.7734"
        stroke="black" stroke-width="0.937496" stroke-miterlimit="22.9256" stroke-linecap="round"
        stroke-linejoin="round" />
    <path
        d="M22.0391 20.6487C22.039 21.1641 21.617 21.5859 21.1016 21.5859C20.586 21.5859 20.1641 21.1641 20.1641 20.6484V20.4141C20.1641 19.8984 20.5859 19.4766 21.1016 19.4766C21.6171 19.4766 22.039 19.8984 22.0391 20.4139"
        stroke="black" stroke-width="0.937496" stroke-miterlimit="22.9256" stroke-linecap="round"
        stroke-linejoin="round" />
    <path d="M22.0391 21.5859V19.4766" stroke="black" stroke-width="0.937496"
        stroke-miterlimit="2.6131" stroke-linecap="round" stroke-linejoin="round" />
    <path
        d="M13.9062 17.6014V16.5469L19.414 13.3828L24.9217 16.5469V22.875L19.414 26.039L13.9062 22.875V21.8201"
        stroke="black" stroke-width="0.937496" stroke-miterlimit="2.6131" stroke-linecap="round"
        stroke-linejoin="round" />
    <path d="M21.4062 14.4906V10.4884L24.9219 8.46875L28.4375 10.4884V14.5277L24.9219 16.5473"
        stroke="black" stroke-width="0.937496" stroke-miterlimit="2.6131" stroke-linecap="round"
        stroke-linejoin="round" />
    <path fill-rule="evenodd" clip-rule="evenodd"
        d="M25.7847 25.4375L28.4366 26.9609V30.0078L25.7847 31.5312L23.1328 30.0078V26.9609L25.7847 25.4375Z"
        stroke="black" stroke-width="0.937496" stroke-miterlimit="2.6131" stroke-linecap="round"
        stroke-linejoin="round" />
    <path d="M13.9062 19.7109L13.9069 19.7116" stroke="black" stroke-width="0.937496"
        stroke-miterlimit="2.6131" stroke-linecap="round" stroke-linejoin="round" />
</svg>