<svg width="24" height="24" viewBox="0 0 24 24" fill="none" xmlns="http://www.w3.org/2000/svg">
<path d="M7.89289 5.55548L7.89295 5.55557C8.36108 5.26369 8.6948 4.79864 8.82149 4.26183C8.93025 3.68223 8.73637 2.9945 8.18661 2.20573L8.18659 2.2057C8.12653 2.11949 8.09123 2.01847 8.08454 1.91362C8.07785 1.80876 8.10001 1.70408 8.14862 1.61093C8.19724 1.51778 8.27044 1.43974 8.36029 1.38526C8.45014 1.33079 8.55319 1.30198 8.65826 1.30195H8.65831H8.66563H8.67002L8.67002 1.302C8.7046 1.30276 9.78421 1.33645 11.0035 1.88635C12.2285 2.43884 13.5998 3.51607 14.1822 5.59779L14.1832 5.60123L14.1832 5.60124C14.342 6.21088 14.4025 6.84199 14.3622 7.47069C14.3182 8.46853 14.4996 9.91136 15.734 10.7085C15.3986 9.89056 15.3199 8.75133 15.9739 7.23575C16.0053 7.16309 16.0513 7.09769 16.1091 7.04364L16.2457 7.18968L16.1091 7.04363C16.1669 6.98957 16.2352 6.94802 16.3098 6.92158L16.3766 7.11009L16.3098 6.92158C16.3844 6.89514 16.4636 6.88439 16.5426 6.89C16.6215 6.8956 16.6984 6.91745 16.7685 6.95416M7.89289 5.55548L16.6758 7.13134M7.89289 5.55548L7.88761 5.55901C7.65184 5.71663 7.42858 5.8922 7.21982 6.08416C6.36622 6.85638 5.57498 7.69483 4.85346 8.5917C3.75467 9.94529 3.07225 11.5886 2.88898 13.3224C2.70569 15.0564 3.02952 16.8062 3.82118 18.3597L3.82116 18.3597L3.82231 18.3619C5.02436 20.6505 6.8867 21.7404 8.50286 22.2522C10.0875 22.7539 11.4414 22.7023 11.7255 22.6845M7.89289 5.55548L11.7255 22.6845M16.7685 6.95416L16.6758 7.13134M16.7685 6.95416C16.7684 6.9541 16.7683 6.95404 16.7682 6.95399L16.6758 7.13134M16.7685 6.95416C16.818 6.98006 18.3375 7.80075 19.5778 9.4271C20.8273 11.0657 21.7927 13.5243 20.6892 16.7874L20.4997 16.7233M16.6758 7.13134C16.7358 7.16265 22.6556 10.3481 20.4997 16.7233M20.4997 16.7233L20.6892 16.7874C18.841 22.252 13.7777 22.6981 12.1809 22.6983C11.9606 22.6983 11.8036 22.6898 11.7255 22.6845M20.4997 16.7233L11.7255 22.6845M5.59642 9.1836C4.61218 10.3934 4.00016 11.8629 3.8346 13.4136C3.66904 14.9644 3.95704 16.53 4.66368 17.9203M5.59642 9.1836L11.6916 21.7346C11.4964 21.7536 6.87743 22.1346 4.66368 17.9203M5.59642 9.1836C6.28686 8.32585 7.04397 7.52398 7.8607 6.78548L5.59642 9.1836ZM4.66368 17.9203L4.84197 17.8297C4.84178 17.8293 4.84158 17.8289 4.84138 17.8285C4.84117 17.8281 4.84095 17.8277 4.84074 17.8273L4.66368 17.9203ZM17.9854 11.6058C18.041 11.7286 18.0517 11.867 18.0157 11.9968C17.9797 12.1267 17.8992 12.2398 17.7883 12.3164L17.6747 12.1518L17.9854 11.6058ZM17.9854 11.6058C17.9299 11.4832 17.8332 11.3839 17.7121 11.3253L17.9854 11.6058ZM13.0737 5.90353C13.0738 5.90393 13.0739 5.90432 13.074 5.90472C13.0741 5.90511 13.0742 5.90551 13.0743 5.90591L13.2674 5.85381L13.0737 5.90353ZM9.73377 2.62C9.70167 2.54222 9.66666 2.46548 9.62876 2.38992C9.54537 2.37176 9.46136 2.35579 9.37682 2.34203C9.41809 2.41532 9.45638 2.48996 9.49164 2.56578C9.57295 2.58171 9.65368 2.5998 9.73377 2.62ZM8.5201 6.51916C8.52088 6.51866 8.52167 6.51817 8.52245 6.51767C8.52318 6.51719 8.5239 6.5167 8.52463 6.51621L8.41331 6.35005L8.5201 6.51916ZM16.7994 8.32103C16.8187 8.25611 16.8398 8.1899 16.8629 8.12237C16.8011 8.08073 16.7434 8.04305 16.6904 8.00933C16.667 8.07577 16.6454 8.14109 16.6255 8.2053C16.6794 8.24007 16.7375 8.27865 16.7994 8.32103Z" fill="#1D4ED8" stroke="#1D4ED8" stroke-width="0.4"/>
</svg>
