<svg width="24" height="24" viewBox="0 0 24 24" fill="none" xmlns="http://www.w3.org/2000/svg">
    <path
        d="M16.5 7.6665C16.5 7.9425 16.276 8.1665 16 8.1665C15.724 8.1665 15.5 7.9425 15.5 7.6665C15.481 7.629 15.301 7.5 15 7.5C14.699 7.5 14.519 7.629 14.498 7.68C14.498 7.956 14.275 8.1735 13.999 8.1735C13.723 8.1735 13.5 7.943 13.5 7.6665C13.5 7.0125 14.159 6.5 15 6.5C15.841 6.5 16.5 7.0125 16.5 7.6665ZM9.04 6.1475C8.7215 6.211 8.4045 6.388 8.1465 6.6465C7.8885 6.9045 7.7115 7.2215 7.6475 7.54C7.5705 7.926 7.6665 8.288 7.911 8.532C8.01 8.631 8.141 8.681 8.272 8.681C8.399 8.681 8.526 8.6335 8.622 8.537C8.8175 8.3415 8.821 8.0305 8.626 7.8355C8.6045 7.7845 8.641 7.566 8.8535 7.3535C9.066 7.142 9.2855 7.1045 9.3245 7.1175C9.52 7.3135 9.8365 7.313 10.0315 7.118C10.227 6.9225 10.227 6.6065 10.032 6.411C9.788 6.1665 9.428 6.07 9.04 6.1475ZM17.5 18.9395V20.5C17.5 20.776 17.276 21 17 21H7C6.724 21 6.5 20.776 6.5 20.5V18.939C3.4105 17.0335 1.5 13.6385 1.5 10C1.5 9.724 1.724 9.5 2 9.5H2.5C2.5 9.124 2.6785 8.774 3 8.5045C3 8.503 3 8.5015 3 8.5C3 8.0865 3.2145 7.7085 3.585 7.435C3.529 7.295 3.5 7.1485 3.5 7C3.5 6.2125 4.27 5.585 5.288 5.508C5.3005 5.1715 5.4225 4.8705 5.646 4.6465C6.034 4.2585 6.636 4.185 7.2365 4.4155C7.5035 3.855 7.971 3.5 8.5 3.5C8.7865 3.5 9.061 3.6055 9.2955 3.799C9.7585 3.539 10.3825 3.435 10.968 3.5425C11.2415 3.1975 11.608 3 12 3C12.354 3 12.6805 3.1545 12.939 3.432C13.463 3.16 14.182 3.2725 14.801 3.725C15.0125 3.578 15.251 3.5 15.5 3.5C16.029 3.5 16.4965 3.855 16.7635 4.4155C17.364 4.1845 17.966 4.2585 18.3535 4.6465C18.5965 4.8895 18.7185 5.226 18.711 5.6C19.3445 5.7765 19.815 6.182 19.956 6.6825C20.593 6.938 21 7.4375 21 8C21 8.1485 20.971 8.295 20.915 8.435C21.2855 8.7085 21.5 9.0865 21.5 9.5H22C22.276 9.5 22.5 9.724 22.5 10C22.5 13.6385 20.5895 17.034 17.5 18.9395ZM3.5 9.5H20.5C20.5 9.355 20.297 9.181 20.017 9.086C19.8465 9.028 19.7205 8.8835 19.687 8.7065C19.653 8.53 19.717 8.349 19.8535 8.232C19.908 8.1855 20 8.093 20 8C20 7.848 19.7675 7.637 19.3775 7.5465C19.133 7.4895 18.969 7.2605 18.993 7.011C18.9935 7.003 18.9955 6.99 18.9975 6.976C18.9695 6.7935 18.634 6.5395 18.1015 6.508C17.945 6.499 17.8025 6.417 17.7155 6.287C17.6285 6.157 17.6075 5.9935 17.6585 5.8455C17.733 5.6295 17.728 5.4365 17.6455 5.354C17.517 5.225 17.1345 5.2735 16.769 5.5485C16.629 5.654 16.4445 5.678 16.2815 5.6125C16.119 5.547 16.0025 5.4015 15.975 5.2285C15.9035 4.7785 15.6725 4.5 15.5 4.5C15.415 4.5 15.3145 4.5725 15.2245 4.699C15.138 4.821 15.0015 4.898 14.852 4.9085C14.704 4.917 14.5565 4.862 14.454 4.7535C14.446 4.745 14.4165 4.711 14.4095 4.702C13.983 4.2755 13.498 4.2095 13.354 4.3535C13.3515 4.356 13.338 4.371 13.3175 4.421C13.2405 4.6085 13.0575 4.7315 12.855 4.7315C12.8545 4.7315 12.8535 4.7315 12.853 4.7315C12.6495 4.7305 12.467 4.6065 12.391 4.4175C12.292 4.1715 12.1315 4 12 4C11.8835 4 11.7435 4.1325 11.644 4.3375C11.533 4.5655 11.2675 4.674 11.029 4.59C10.5055 4.4065 9.8585 4.5305 9.5945 4.816C9.4885 4.9305 9.336 4.988 9.1805 4.974C9.0255 4.9595 8.8865 4.8735 8.804 4.7415C8.709 4.5905 8.5955 4.5 8.5 4.5C8.3275 4.5 8.0965 4.7785 8.024 5.228C7.996 5.401 7.8795 5.5465 7.7175 5.612C7.556 5.6775 7.37 5.6535 7.23 5.548C6.8645 5.2735 6.4815 5.225 6.3535 5.3535C6.267 5.44 6.264 5.6405 6.3455 5.864C6.407 6.0315 6.374 6.219 6.2595 6.356C6.145 6.493 5.9675 6.558 5.7905 6.528C5.697 6.512 5.601 6.5 5.5 6.5C4.8895 6.5 4.5 6.796 4.5 7C4.5 7.093 4.592 7.1855 4.6465 7.232C4.783 7.3485 4.847 7.53 4.813 7.7065C4.7795 7.8835 4.6535 8.028 4.483 8.086C4.203 8.181 4 8.355 4 8.5C4 8.5045 4.001 8.523 4.016 8.564C4.0995 8.795 4.0035 9.0525 3.7885 9.1715C3.6105 9.2705 3.5 9.396 3.5 9.5ZM16.5 20V19H7.5V20H16.5ZM21.487 10.5H2.513C2.675 13.5455 4.31 16.35 6.8815 18H17.1185C19.69 16.35 21.325 13.5455 21.487 10.5Z"
        fill="black" />
</svg>