<svg width="24" height="24" viewBox="0 0 24 24" fill="none" xmlns="http://www.w3.org/2000/svg">
<path d="M18.7085 7.20989C18.6155 7.11614 18.5049 7.04174 18.3831 6.99101C18.2612 6.94022 18.1305 6.91406 17.9985 6.91406C17.8665 6.91406 17.7357 6.94022 17.6139 6.99101C17.492 7.04174 17.3815 7.11614 17.2885 7.20989L9.83849 14.6699L6.70846 11.5299C6.61198 11.4366 6.49803 11.3633 6.37318 11.3141C6.24828 11.2649 6.11499 11.2408 5.98078 11.2431C5.84662 11.2454 5.71423 11.2741 5.59111 11.3277C5.46804 11.3811 5.35673 11.4584 5.26347 11.5549C5.17025 11.6514 5.09691 11.7653 5.04771 11.8902C4.99851 12.0151 4.97441 12.1484 4.97671 12.2826C4.97902 12.4167 5.00777 12.5492 5.06124 12.6722C5.11476 12.7953 5.19195 12.9066 5.28847 12.9999L9.12847 16.8399C9.22145 16.9336 9.33204 17.008 9.45391 17.0588C9.57574 17.1096 9.70649 17.1357 9.83849 17.1357C9.97049 17.1357 10.1012 17.1096 10.2231 17.0588C10.3449 17.008 10.4555 16.9336 10.5485 16.8399L18.7085 8.67989C18.81 8.58624 18.891 8.47257 18.9464 8.34609C19.0018 8.21957 19.0304 8.08301 19.0304 7.94486C19.0304 7.80677 19.0018 7.67016 18.9464 7.54368C18.891 7.4172 18.81 7.30353 18.7085 7.20989Z" fill="black"/>
</svg>
