<svg width="72" height="72" viewBox="0 0 72 72" fill="none" xmlns="http://www.w3.org/2000/svg">
<rect width="72" height="72" rx="10" fill="#FFFEEE"/>
<path d="M40.1301 46.059L45.8477 51.7766C47.4359 53.3649 50.1889 53.3649 51.7771 51.7766C53.4712 50.1884 53.4712 47.4354 51.7771 45.8472L46.0595 40.1296C47.1183 38.1178 47.7536 35.7884 47.7536 33.3531C47.7536 32.9296 47.7536 32.506 47.6477 32.1884L51.5653 28.2707C51.9889 27.8472 51.9889 27.2119 51.5653 26.7884C51.1418 26.3649 50.5065 26.3649 50.083 26.7884L47.2242 29.6472C46.5889 27.2119 45.3183 25.0943 43.5183 23.2943C37.9065 17.6825 28.9065 17.6825 23.2948 23.2943C17.683 28.906 17.683 37.906 23.2948 43.5178C27.9536 48.1766 34.8359 48.9178 40.1301 46.059ZM50.1889 47.3296C51.0359 48.1766 51.0359 49.4472 50.1889 50.2943C49.3418 51.1413 48.0712 51.1413 47.2242 50.2943L41.8242 44.8943C42.3536 44.4707 42.883 44.0472 43.4124 43.5178C43.9418 42.9884 44.3653 42.459 44.7889 41.9296L50.1889 47.3296ZM24.7771 24.7766C29.5418 20.0119 37.2712 20.0119 42.0359 24.7766C43.8359 26.5766 45.0006 28.906 45.4242 31.4472L43.3065 33.5649L39.8124 30.0707C39.3889 29.6472 38.7536 29.6472 38.3301 30.0707L32.8242 35.5766L30.3889 33.1413C29.9653 32.7178 29.3301 32.7178 28.9065 33.1413L24.6712 37.3766C24.2477 37.8002 24.2477 38.4355 24.6712 38.859C25.0948 39.2825 25.7301 39.2825 26.1536 38.859L29.6477 35.3649C31.2359 36.6355 32.4006 38.9649 33.5653 37.8002L39.0712 32.2943L42.5653 35.7884C42.9889 36.2119 43.6242 36.2119 44.0477 35.7884L45.5301 34.306C45.3183 37.2707 44.0477 39.9178 42.0359 42.0355C37.2712 46.8002 29.5418 46.8002 24.7771 42.0355C20.0124 37.2707 20.0124 29.5413 24.7771 24.7766Z" fill="black"/>
</svg>
