<svg width="72" height="72" viewBox="0 0 72 72" fill="none" xmlns="http://www.w3.org/2000/svg">
    <rect width="72" height="72" rx="10" fill="#FFFEEE" />
    <g clip-path="url(#clip0_2_1152)">
        <path
            d="M26.1563 37.6874C26.1588 35.818 26.8024 34.006 27.9796 32.5538C29.1568 31.1016 30.7965 30.097 32.625 29.7078V28.5627C30.9619 28.8701 29.4144 29.6261 28.1497 30.749C26.8851 31.872 25.9513 33.3191 25.4494 34.9342C24.9474 36.5493 24.8964 38.2708 25.3017 39.9127C25.7071 41.5547 26.5535 43.0547 27.7494 44.2506C28.9453 45.4465 30.4452 46.2928 32.0872 46.6982C33.7292 47.1036 35.4507 47.0525 37.0657 46.5506C38.6808 46.0486 40.128 45.1149 41.2509 43.8502C42.3739 42.5855 43.1298 41.038 43.4372 39.3749H42.2921C41.875 41.3476 40.742 43.0958 39.1117 44.2823C37.4814 45.4687 35.4694 46.0092 33.4641 45.7994C31.4587 45.5897 29.6021 44.6447 28.2526 43.1466C26.9031 41.6486 26.1562 39.7037 26.1563 37.6874Z"
            fill="black" />
        <path
            d="M50.0625 37.125H34.875V21.9375C34.875 21.7883 34.8157 21.6452 34.7102 21.5398C34.6048 21.4343 34.4617 21.375 34.3125 21.375C31.0862 21.375 27.9323 22.3317 25.2498 24.1242C22.5672 25.9166 20.4764 28.4643 19.2417 31.445C18.0071 34.4257 17.684 37.7056 18.3134 40.8699C18.9429 44.0342 20.4965 46.9408 22.7778 49.2222C25.0592 51.5035 27.9658 53.0571 31.1301 53.6866C34.2944 54.316 37.5743 53.9929 40.555 52.7583C43.5357 51.5236 46.0834 49.4328 47.8759 46.7502C49.6683 44.0677 50.625 40.9138 50.625 37.6875C50.625 37.5383 50.5657 37.3952 50.4602 37.2898C50.3548 37.1843 50.2117 37.125 50.0625 37.125ZM34.3125 52.875C30.3332 52.875 26.5129 51.3132 23.6732 48.5256C20.8336 45.738 19.2013 41.9473 19.1276 37.9687C19.0539 33.9902 20.5446 30.1416 23.2791 27.2507C26.0136 24.3599 29.7735 22.6577 33.75 22.5103V37.6875C33.75 37.8367 33.8093 37.9798 33.9148 38.0852C34.0203 38.1907 34.1633 38.25 34.3125 38.25H49.4898C49.3398 42.1764 47.6756 45.8923 44.8462 48.6188C42.0168 51.3452 38.2418 52.8705 34.3125 52.875Z"
            fill="black" />
        <path
            d="M53.6916 31.3926C53.0444 28.1646 51.457 25.2001 49.1291 22.8721C46.8013 20.544 43.837 18.9564 40.609 18.3089C39.5578 18.1025 38.4889 17.999 37.4175 18C37.3137 18 37.2096 18.0001 37.1088 18.003C36.9625 18.0072 36.8235 18.0683 36.7215 18.1733C36.6195 18.2782 36.5625 18.4189 36.5625 18.5653V34.875C36.5625 35.0242 36.6218 35.1673 36.7273 35.2727C36.8327 35.3782 36.9758 35.4375 37.125 35.4375H53.4348C53.5811 35.4375 53.7217 35.3804 53.8267 35.2784C53.9317 35.1764 53.9927 35.0375 53.997 34.8912C54 34.7903 54 34.6865 54 34.5825C54.001 33.5117 53.8977 32.4434 53.6916 31.3926ZM37.6875 34.3125V19.1273C38.5959 19.142 39.5012 19.2376 40.3926 19.4128C43.4016 20.0163 46.1649 21.4962 48.3349 23.6664C50.5048 25.8365 51.9845 28.6 52.5877 31.609C52.7625 32.5 52.8579 33.4047 52.8728 34.3125H37.6875Z"
            fill="black" />
    </g>
    <defs>
        <clipPath id="clip0_2_1152">
            <rect width="36" height="36" fill="white" transform="translate(18 18)" />
        </clipPath>
    </defs>
</svg>