<svg width="24" height="24" viewBox="0 0 24 24" fill="none" xmlns="http://www.w3.org/2000/svg">
    <path
        d="M11.9952 24.0557C13.7362 24.0557 15.2179 23.9849 16.3968 23.8977C18.2821 23.7571 19.8941 22.4146 20.4065 20.6024C21.5715 16.4818 22.7362 12.3832 23.9006 8.30661C24.0438 7.81606 24.0438 7.2948 23.9006 6.80426C23.6967 6.11801 23.3048 5.46364 22.7704 4.88895C20.2349 1.98457 16.3621 0.0533245 12.0079 0.0556682C7.64337 0.052387 3.75837 1.99536 1.22384 4.91332C1.10696 5.03989 0.997588 5.17004 0.895713 5.30379C0.543988 5.75608 0.27833 6.26912 0.111963 6.81739C-0.0280115 7.30393 -0.0268735 7.82022 0.115244 8.30614C1.27962 12.3749 2.44368 16.4713 3.60743 20.5954C4.11884 22.4047 5.72712 23.7468 7.60915 23.8897C8.81806 23.9816 10.3152 24.0557 11.9952 24.0557Z"
        fill="#F9973E" />
    <path
        d="M1.22384 4.91335C1.10696 5.03991 0.997588 5.17006 0.895713 5.30381C0.543898 5.75604 0.278231 6.2691 0.111963 6.81741C-0.0280115 7.30395 -0.0268735 7.82024 0.115244 8.30616C1.20618 12.1187 2.29665 15.9551 3.38665 19.8154C4.2549 19.9818 5.13698 20.0654 6.02103 20.0652C13.6902 20.0652 19.9073 13.8482 19.9073 6.17897C19.9085 4.76358 19.693 3.35634 19.2684 2.00616C17.0639 0.724009 14.5581 0.0508716 12.0079 0.0556897C7.64337 0.0524085 3.75837 1.99538 1.22384 4.91335Z"
        fill="#FCA84C" />
    <path
        d="M18.6149 7.11164C17.7981 8.68852 16.9806 10.2684 16.1624 11.8512C16.0747 12.0213 15.9422 12.1644 15.7793 12.2649C15.6163 12.3654 15.429 12.4196 15.2376 12.4216C12.9938 12.4407 10.7498 12.4399 8.50541 12.4193C8.30664 12.4169 8.11257 12.3585 7.94556 12.2507C7.77855 12.1429 7.64536 11.9901 7.56134 11.8099C6.82916 10.2405 6.09713 8.67336 5.36525 7.10836C5.27074 6.90983 5.2425 6.68619 5.2847 6.4704C5.32689 6.2546 5.43729 6.05807 5.59963 5.90977C5.91745 5.622 6.25413 5.35578 6.60744 5.11289C6.79775 5.31789 6.98775 5.52289 7.17744 5.72789C7.52994 6.10289 8.14025 5.77008 8.00806 5.27273C7.93119 4.99148 7.85494 4.7093 7.77931 4.42617C8.88647 3.87859 10.0896 3.55173 11.3217 3.46383C11.3935 3.75383 11.4653 4.04398 11.5368 4.3343C11.5625 4.44089 11.6233 4.53573 11.7094 4.60357C11.7956 4.67141 11.902 4.7083 12.0117 4.7083C12.1213 4.7083 12.2277 4.67141 12.3139 4.60357C12.4 4.53573 12.4608 4.44089 12.4865 4.3343C12.5573 4.04367 12.6299 3.75352 12.7021 3.46289C13.9339 3.54885 15.1371 3.87414 16.2445 4.42055C16.1682 4.70492 16.0915 4.9893 16.0143 5.27367C15.8821 5.77102 16.4924 6.1057 16.8445 5.72883C17.0357 5.52164 17.2276 5.31477 17.4201 5.1082C17.7571 5.33861 18.079 5.59038 18.3838 5.86195C18.5564 6.01453 18.6729 6.22048 18.7148 6.44697C18.7567 6.67346 18.7215 6.90745 18.6149 7.11164Z"
        fill="white" />
    <path
        d="M10.6114 10.0858C10.8551 8.90359 11.1621 7.72 11.4518 6.53875C11.5981 5.95844 12.409 5.95844 12.5553 6.53875C12.8449 7.72 13.152 8.90359 13.3957 10.0858C13.4895 10.5367 13.3203 11.0064 12.9762 11.3322C12.7161 11.586 12.367 11.7281 12.0035 11.7281C11.6401 11.7281 11.291 11.586 11.0309 11.3322C10.6868 11.0064 10.5181 10.5367 10.6114 10.0858Z"
        fill="#34344F" />
</svg>