<svg width="24" height="24" viewBox="0 0 24 24" fill="none" xmlns="http://www.w3.org/2000/svg">
<g clip-path="url(#clip0_15494_2558)">
<path d="M23.25 19.5938H22.4062V19.5C22.4027 17.1155 21.5819 14.8043 20.0806 12.9518C18.5793 11.0992 16.4883 9.81736 14.1562 9.31988V8.25C14.1562 7.67813 13.9291 7.12968 13.5247 6.7253C13.1203 6.32093 12.5719 6.09375 12 6.09375C11.4281 6.09375 10.8797 6.32093 10.4753 6.7253C10.0709 7.12968 9.84375 7.67813 9.84375 8.25V9.31988C7.51174 9.81736 5.42074 11.0992 3.91944 12.9518C2.41814 14.8043 1.59729 17.1155 1.59375 19.5V19.5938H0.75C0.575952 19.5938 0.409032 19.6629 0.285961 19.786C0.16289 19.909 0.09375 20.076 0.09375 20.25C0.0948418 21.2194 0.480403 22.1487 1.16585 22.8342C1.85129 23.5196 2.78064 23.9052 3.75 23.9062H20.25C21.2194 23.9052 22.1487 23.5196 22.8342 22.8342C23.5196 22.1487 23.9052 21.2194 23.9062 20.25C23.9062 20.076 23.8371 19.909 23.714 19.786C23.591 19.6629 23.424 19.5938 23.25 19.5938ZM11.1562 8.25C11.1562 8.02622 11.2451 7.81161 11.4034 7.65338C11.5616 7.49514 11.7762 7.40625 12 7.40625C12.2238 7.40625 12.4384 7.49514 12.5966 7.65338C12.7549 7.81161 12.8438 8.02622 12.8438 8.25V9.13088C12.5651 9.10838 12.2843 9.09338 12 9.09338C11.7157 9.09338 11.4349 9.108 11.1562 9.13088V8.25ZM2.90625 19.5C2.90625 17.0882 3.86434 14.7752 5.56975 13.0697C7.27516 11.3643 9.58819 10.4062 12 10.4062C14.4118 10.4062 16.7248 11.3643 18.4303 13.0697C20.1357 14.7752 21.0938 17.0882 21.0938 19.5V19.5938H2.90625V19.5ZM20.25 22.5938H3.75C3.24306 22.593 2.74997 22.4283 2.34442 22.1241C1.93887 21.8199 1.64264 21.3927 1.5 20.9062H22.5C22.3574 21.3927 22.0611 21.8199 21.6556 22.1241C21.25 22.4283 20.7569 22.593 20.25 22.5938Z" fill="#1D4ED8"/>
<path d="M12 4.40625C12.174 4.40625 12.341 4.33711 12.464 4.21404C12.5871 4.09097 12.6562 3.92405 12.6562 3.75V0.75C12.6562 0.575952 12.5871 0.409032 12.464 0.285961C12.341 0.16289 12.174 0.09375 12 0.09375C11.826 0.09375 11.659 0.16289 11.536 0.285961C11.4129 0.409032 11.3438 0.575952 11.3438 0.75V3.75C11.3438 3.92405 11.4129 4.09097 11.536 4.21404C11.659 4.33711 11.826 4.40625 12 4.40625Z" fill="#1D4ED8"/>
<path d="M8.625 5.53125C8.71118 5.53125 8.79652 5.51428 8.87614 5.4813C8.95576 5.44832 9.0281 5.39998 9.08904 5.33904C9.14998 5.2781 9.19832 5.20576 9.2313 5.12614C9.26428 5.04652 9.28125 4.96118 9.28125 4.875V2.625C9.28125 2.45095 9.21211 2.28403 9.08904 2.16096C8.96597 2.03789 8.79905 1.96875 8.625 1.96875C8.45095 1.96875 8.28403 2.03789 8.16096 2.16096C8.03789 2.28403 7.96875 2.45095 7.96875 2.625V4.875C7.96875 4.96118 7.98572 5.04652 8.0187 5.12614C8.05168 5.20576 8.10002 5.2781 8.16096 5.33904C8.2219 5.39998 8.29424 5.44832 8.37386 5.4813C8.45348 5.51428 8.53882 5.53125 8.625 5.53125Z" fill="#1D4ED8"/>
<path d="M15.375 5.53125C15.4612 5.53125 15.5465 5.51428 15.6261 5.4813C15.7058 5.44832 15.7781 5.39998 15.839 5.33904C15.9 5.2781 15.9483 5.20576 15.9813 5.12614C16.0143 5.04652 16.0312 4.96118 16.0312 4.875V2.625C16.0312 2.45095 15.9621 2.28403 15.839 2.16096C15.716 2.03789 15.549 1.96875 15.375 1.96875C15.201 1.96875 15.034 2.03789 14.911 2.16096C14.7879 2.28403 14.7188 2.45095 14.7188 2.625V4.875C14.7188 4.96118 14.7357 5.04652 14.7687 5.12614C14.8017 5.20576 14.85 5.2781 14.911 5.33904C14.9719 5.39998 15.0442 5.44832 15.1239 5.4813C15.2035 5.51428 15.2888 5.53125 15.375 5.53125Z" fill="#1D4ED8"/>
</g>
<defs>
<clipPath id="clip0_15494_2558">
<rect width="24" height="24" fill="white"/>
</clipPath>
</defs>
</svg>
