<svg width="24" height="24" viewBox="0 0 24 24" fill="none" xmlns="http://www.w3.org/2000/svg">
<path d="M22.5 11.25C22.5 8.6175 20.55 6.4275 18.0187 6.05625C17.9475 3.22875 18 1.155 18 1.13625C18.0037 1.035 17.9625 0.9375 17.895 0.8625C17.8237 0.79125 17.7262 0.75 17.625 0.75H7.12125C7.0875 0.75 7.05375 0.75375 7.02 0.765C7.00125 0.76875 6.97875 0.77625 6.96 0.79125C6.9525 0.795 6.945 0.795 6.9375 0.8025C6.93375 0.8025 6.93 0.8025 6.92625 0.8025C6.92625 0.8025 6.92625 0.80625 6.91875 0.81C3.99 2.64375 1.8075 5.4675 1.59 5.75625C1.5825 5.76375 1.57875 5.77125 1.575 5.775C1.545 5.81625 1.5225 5.86125 1.51125 5.91375C1.50375 5.94 1.5 5.97 1.5 6V9.375C1.5 9.58875 1.5 9.795 1.50375 10.0013C1.5525 20.88 2.925 22.9088 3.0825 23.1075C3.15375 23.1975 3.2625 23.25 3.375 23.25H18.75C18.8662 23.25 18.975 23.1975 19.0462 23.1075C19.1175 23.0138 19.14 22.8975 19.1138 22.785L18.855 21.7425C19.425 21.75 19.7925 21.75 19.875 21.75C20.0063 21.75 20.1262 21.6825 20.1937 21.5737C20.2612 21.4613 20.2687 21.3225 20.2087 21.2062C19.6537 20.0963 19.1963 18.4275 18.84 16.2525C20.9587 15.5775 22.5 13.59 22.5 11.25ZM19.2938 21C15.1575 20.9737 5.93625 20.6963 4.0425 19.6163C3.7725 19.02 2.34375 15.5962 2.25375 9.93C2.25 9.74625 2.25 9.5625 2.25 9.375V6.225C3.97875 5.34 6.63 5.98125 6.66 5.98875C6.78 6.01875 6.9075 5.985 7.00125 5.9025C7.095 5.82 7.14 5.69625 7.12125 5.5725C6.84 3.6075 7.21875 2.06625 7.39125 1.5H17.2425C17.2312 2.22375 17.2163 3.89625 17.265 6H17.25C14.355 6 12 8.355 12 11.25C12 14.145 14.355 16.5 17.25 16.5C17.5425 16.5 17.8275 16.4775 18.1087 16.4288C18.4237 18.3337 18.8213 19.8638 19.2938 21ZM19.3913 12.8588C19.5375 13.005 19.5375 13.245 19.3913 13.3912C19.3162 13.4625 19.2225 13.5 19.125 13.5C19.0275 13.5 18.9338 13.4625 18.8587 13.3912L17.25 11.7825L15.6412 13.3912C15.5662 13.4625 15.4725 13.5 15.375 13.5C15.2775 13.5 15.1838 13.4625 15.1088 13.3912C14.9625 13.245 14.9625 13.005 15.1088 12.8588L16.7175 11.25L15.1088 9.64125C14.9625 9.495 14.9625 9.255 15.1088 9.10875C15.255 8.9625 15.495 8.9625 15.6412 9.10875L17.25 10.7175L18.8587 9.10875C19.005 8.9625 19.245 8.9625 19.3913 9.10875C19.5375 9.255 19.5375 9.495 19.3913 9.64125L17.7825 11.25L19.3913 12.8588Z" fill="#6577FF"/>
<path d="M5.625 9H10.875C11.0813 9 11.25 8.83125 11.25 8.625C11.25 8.41875 11.0813 8.25 10.875 8.25H5.625C5.41875 8.25 5.25 8.41875 5.25 8.625C5.25 8.83125 5.41875 9 5.625 9Z" fill="#6577FF"/>
<path d="M10.5 11.625C10.7063 11.625 10.875 11.4563 10.875 11.25C10.875 11.0437 10.7063 10.875 10.5 10.875H5.25C5.04375 10.875 4.875 11.0437 4.875 11.25C4.875 11.4563 5.04375 11.625 5.25 11.625H10.5Z" fill="#6577FF"/>
<path d="M11.25 13.875C11.25 13.6687 11.0813 13.5 10.875 13.5H5.625C5.41875 13.5 5.25 13.6687 5.25 13.875C5.25 14.0813 5.41875 14.25 5.625 14.25H10.875C11.0813 14.25 11.25 14.0813 11.25 13.875Z" fill="#6577FF"/>
<path d="M13.125 16.125H6.375C6.16875 16.125 6 16.2937 6 16.5C6 16.7063 6.16875 16.875 6.375 16.875H13.125C13.3313 16.875 13.5 16.7063 13.5 16.5C13.5 16.2937 13.3313 16.125 13.125 16.125Z" fill="#6577FF"/>
</svg>
