<svg width="24" height="24" viewBox="0 0 24 24" fill="none" xmlns="http://www.w3.org/2000/svg">
    <g clip-path="url(#clip0_15494_2938)">
        <path
            d="M16.063 6.84016C14.3605 3.40195 12.6346 0.387762 12.6174 0.357763C12.4905 0.136469 12.2549 0 11.9998 0C11.7447 0 11.5091 0.136469 11.3822 0.357763C11.365 0.38781 9.63908 3.402 7.93661 6.84016C5.61474 11.5291 4.4375 14.7582 4.4375 16.4377C4.4375 20.6076 7.82991 24 11.9998 24C16.1697 24 19.5621 20.6076 19.5621 16.4377C19.5621 14.7582 18.3848 11.5291 16.063 6.84016ZM11.9998 22.576C8.61512 22.576 5.86153 19.8224 5.86153 16.4377C5.86153 13.7737 9.84628 6.04299 11.9998 2.16238C14.1533 6.04266 18.138 13.7729 18.138 16.4377C18.138 19.8224 15.3844 22.576 11.9998 22.576Z"
            fill="black" />
        <path
            d="M16 15.7256C15.6068 15.7256 15.288 16.0444 15.288 16.4376C15.288 17.8693 14.372 19.1277 13.0085 19.5691C12.6344 19.6902 12.4293 20.0916 12.5504 20.4658C12.648 20.7671 12.9272 20.9587 13.2277 20.9587C13.3004 20.9587 13.3742 20.9475 13.4471 20.9239C15.4 20.2917 16.7121 18.4888 16.7121 16.4376C16.712 16.0444 16.3932 15.7256 16 15.7256Z"
            fill="black" />
    </g>
    <defs>
        <clipPath id="clip0_15494_2938">
            <rect width="24" height="24" fill="white" />
        </clipPath>
    </defs>
</svg>