<svg width="72" height="72" viewBox="0 0 72 72" fill="none" xmlns="http://www.w3.org/2000/svg">
<rect width="72" height="72" rx="10" fill="#FFFEEE"/>
<path d="M49 19H23C22.45 19 22 19.45 22 20V52C22 52.55 22.45 53 23 53H41C45.96 53 50 48.96 50 44V20C50 19.45 49.55 19 49 19ZM24 21H48V43H41C40.45 43 40 43.45 40 44V51H24V21ZM47.68 46.1C47.68 46.1 47.67 46.14 47.66 46.16C47.56 46.47 47.44 46.76 47.3 47.05C47.27 47.11 47.25 47.16 47.22 47.22C47.07 47.51 46.9 47.78 46.72 48.04C46.68 48.09 46.64 48.14 46.6 48.2C46.4 48.46 46.19 48.72 45.96 48.95C45.73 49.18 45.47 49.39 45.21 49.59C45.16 49.63 45.11 49.67 45.05 49.71C44.79 49.9 44.51 50.06 44.23 50.21C44.18 50.24 44.12 50.26 44.07 50.29C43.78 50.43 43.49 50.55 43.18 50.66C43.16 50.66 43.14 50.68 43.12 50.68C42.8 50.78 42.47 50.85 42.13 50.91C42.09 50.91 42.05 50.92 42.02 50.93V45.01H47.94C47.94 45.01 47.93 45.09 47.92 45.12C47.87 45.46 47.79 45.79 47.69 46.11L47.68 46.1ZM27 26C27 25.45 27.45 25 28 25H44C44.55 25 45 25.45 45 26C45 26.55 44.55 27 44 27H28C27.45 27 27 26.55 27 26ZM27 32C27 31.45 27.45 31 28 31H44C44.55 31 45 31.45 45 32C45 32.55 44.55 33 44 33H28C27.45 33 27 32.55 27 32ZM28 39C27.45 39 27 38.55 27 38C27 37.45 27.45 37 28 37H44C44.55 37 45 37.45 45 38C45 38.55 44.55 39 44 39H28Z" fill="black"/>
</svg>
