<svg width="24" height="24" viewBox="0 0 24 24" fill="none" xmlns="http://www.w3.org/2000/svg">
<g clip-path="url(#clip0_15494_3258)">
<path d="M2.62812 11.9997C2.62812 17.1518 6.84267 21.3663 11.9948 21.3663C17.1469 21.3663 21.3615 17.1518 21.3615 11.9997C21.3615 6.84755 17.1469 2.63301 11.9948 2.63301C6.84267 2.63301 2.62812 6.84755 2.62812 11.9997ZM3.94479 11.9997C3.94479 7.5268 7.52191 3.94967 11.9948 3.94967C16.4677 3.94967 20.0448 7.5268 20.0448 11.9997C20.0448 16.4725 16.4677 20.0497 11.9948 20.0497C7.52191 20.0497 3.94479 16.4726 3.94479 11.9997Z" fill="#1D4ED8" stroke="#1D4ED8" stroke-width="0.4"/>
<path d="M11.3469 5.125C11.3469 5.30795 11.4087 5.47595 11.5315 5.59871C11.6543 5.72148 11.8223 5.78333 12.0052 5.78333C12.1882 5.78333 12.3562 5.72148 12.4789 5.59871C12.6017 5.47595 12.6635 5.30795 12.6635 5.125V1.45833C12.6635 1.27538 12.6017 1.10738 12.4789 0.98462C12.3562 0.861856 12.1882 0.8 12.0052 0.8C11.8223 0.8 11.6543 0.861856 11.5315 0.98462C11.4087 1.10738 11.3469 1.27538 11.3469 1.45833V5.125Z" fill="#1D4ED8" stroke="#1D4ED8" stroke-width="0.4"/>
<path d="M18.8802 12.6587H22.5469C22.7298 12.6587 22.8978 12.5968 23.0206 12.474C23.1434 12.3513 23.2052 12.1833 23.2052 12.0003C23.2052 11.8174 23.1434 11.6494 23.0206 11.5266C22.8978 11.4038 22.7298 11.342 22.5469 11.342H18.8802C18.6973 11.342 18.5293 11.4038 18.4065 11.5266C18.2837 11.6494 18.2219 11.8174 18.2219 12.0003C18.2219 12.1833 18.2837 12.3513 18.4065 12.474C18.5293 12.5968 18.6973 12.6587 18.8802 12.6587Z" fill="#1D4ED8" stroke="#1D4ED8" stroke-width="0.4"/>
<path d="M11.3469 22.542C11.3469 22.7249 11.4087 22.8929 11.5315 23.0157C11.6543 23.1385 11.8223 23.2003 12.0052 23.2003C12.1882 23.2003 12.3562 23.1385 12.4789 23.0157C12.6017 22.8929 12.6635 22.7249 12.6635 22.542V18.8753C12.6635 18.6924 12.6017 18.5244 12.4789 18.4016C12.3562 18.2788 12.1882 18.217 12.0052 18.217C11.8223 18.217 11.6543 18.2788 11.5315 18.4016C11.4087 18.5244 11.3469 18.6924 11.3469 18.8753V22.542Z" fill="#1D4ED8" stroke="#1D4ED8" stroke-width="0.4"/>
<path d="M1.45833 12.6587H5.125C5.30795 12.6587 5.47595 12.5968 5.59871 12.474C5.72148 12.3513 5.78333 12.1833 5.78333 12.0003C5.78333 11.8174 5.72148 11.6494 5.59871 11.5266C5.47595 11.4038 5.30795 11.342 5.125 11.342H1.45833C1.27538 11.342 1.10738 11.4038 0.98462 11.5266C0.861856 11.6494 0.8 11.8174 0.8 12.0003C0.8 12.1833 0.861856 12.3513 0.98462 12.474C1.10738 12.5968 1.27538 12.6587 1.45833 12.6587Z" fill="#1D4ED8" stroke="#1D4ED8" stroke-width="0.4"/>
<path d="M9.05 12C9.05 13.6688 10.3312 14.95 12 14.95C13.6688 14.95 14.95 13.6688 14.95 12C14.95 10.3312 13.6688 9.05 12 9.05C10.3312 9.05 9.05 10.3312 9.05 12ZM10.3667 12C10.3667 11.1021 11.1021 10.3667 12 10.3667C12.8979 10.3667 13.6333 11.1021 13.6333 12C13.6333 12.8979 12.8979 13.6333 12 13.6333C11.1021 13.6333 10.3667 12.8979 10.3667 12Z" fill="#1D4ED8" stroke="#1D4ED8" stroke-width="0.4"/>
</g>
<defs>
<clipPath id="clip0_15494_3258">
<rect width="24" height="24" fill="white"/>
</clipPath>
</defs>
</svg>
