<svg width="72" height="72" viewBox="0 0 72 72" fill="none" xmlns="http://www.w3.org/2000/svg">
    <rect width="72" height="72" rx="10" fill="#FFFEEE" />
    <path
        d="M36 42.3939C35.379 42.3939 34.875 41.8899 34.875 41.2689V21.375C34.875 20.754 35.379 20.25 36 20.25C36.621 20.25 37.125 20.754 37.125 21.375V41.2689C37.125 41.8905 36.621 42.3939 36 42.3939Z"
        fill="black" />
    <path
        d="M28.8397 29.6594C28.5517 29.6594 28.2643 29.5497 28.0443 29.3297C27.605 28.8904 27.605 28.1783 28.0443 27.739L35.2038 20.5795C35.6431 20.1402 36.3553 20.1402 36.7946 20.5795C37.2339 21.0188 37.2339 21.7309 36.7946 22.1702L29.6356 29.3297C29.4157 29.5491 29.1277 29.6594 28.8397 29.6594Z"
        fill="black" />
    <path
        d="M43.1594 29.6594C42.8714 29.6594 42.5839 29.5497 42.364 29.3297L35.2045 22.1702C34.7652 21.7309 34.7652 21.0188 35.2045 20.5795C35.6438 20.1402 36.3559 20.1402 36.7952 20.5795L43.9547 27.739C44.394 28.1783 44.394 28.8904 43.9547 29.3297C43.7348 29.5491 43.4468 29.6594 43.1594 29.6594Z"
        fill="black" />
    <path
        d="M46.125 51.75C45.504 51.75 45 51.246 45 50.625C45 50.004 45.504 49.5 46.125 49.5C47.9863 49.5 49.5 47.9863 49.5 46.125C49.5 45.504 50.004 45 50.625 45C51.246 45 51.75 45.504 51.75 46.125C51.75 49.2266 49.2266 51.75 46.125 51.75Z"
        fill="black" />
    <path
        d="M50.625 47.25C50.004 47.25 49.5 46.746 49.5 46.125V37.125C49.5 36.504 50.004 36 50.625 36C51.246 36 51.75 36.504 51.75 37.125V46.125C51.75 46.746 51.246 47.25 50.625 47.25Z"
        fill="black" />
    <path
        d="M46.125 51.75H25.875C25.254 51.75 24.75 51.246 24.75 50.625C24.75 50.004 25.254 49.5 25.875 49.5H46.125C46.746 49.5 47.25 50.004 47.25 50.625C47.25 51.246 46.746 51.75 46.125 51.75Z"
        fill="black" />
    <path
        d="M25.875 51.75C22.7734 51.75 20.25 49.2266 20.25 46.125C20.25 45.504 20.754 45 21.375 45C21.996 45 22.5 45.504 22.5 46.125C22.5 47.9863 24.0137 49.5 25.875 49.5C26.496 49.5 27 50.004 27 50.625C27 51.246 26.496 51.75 25.875 51.75Z"
        fill="black" />
    <path
        d="M21.375 47.25C20.754 47.25 20.25 46.746 20.25 46.125V37.125C20.25 36.504 20.754 36 21.375 36C21.996 36 22.5 36.504 22.5 37.125V46.125C22.5 46.746 21.996 47.25 21.375 47.25Z"
        fill="black" />
</svg>