<svg width="72" height="72" viewBox="0 0 72 72" fill="none" xmlns="http://www.w3.org/2000/svg">
    <rect width="72" height="72" rx="10" fill="#FFFEEE" />
    <path
        d="M28.1221 48.325C27.8522 48.325 27.5822 48.222 27.3764 48.0161C23.7548 44.3944 23.7548 38.5018 27.3764 34.8802C27.7882 34.4683 28.456 34.4683 28.8679 34.8802C29.2798 35.292 29.2798 35.9598 28.8679 36.3717C26.0687 39.1709 26.0687 43.7254 28.8679 46.5245C29.2798 46.9364 29.2798 47.6042 28.8679 48.0161C28.6619 48.222 28.392 48.325 28.1221 48.325Z"
        fill="black" />
    <path
        d="M32.0774 45.0717C31.8075 45.0717 31.5376 44.9687 31.3317 44.7628C29.504 42.9351 29.504 39.9613 31.3317 38.1336C31.7435 37.7218 32.4113 37.7218 32.8232 38.1336C33.2351 38.5454 33.2351 39.2132 32.8232 39.6251C31.818 40.6303 31.818 42.2661 32.8232 43.2712C33.2351 43.6831 33.2351 44.3509 32.8232 44.7628C32.6172 44.9688 32.3474 45.0717 32.0774 45.0717Z"
        fill="black" />
    <path
        d="M24.1574 51.4896C23.8875 51.4896 23.6175 51.3866 23.4117 51.1806C18.0451 45.814 18.0451 37.0818 23.4117 31.7151C23.8236 31.3033 24.4914 31.3033 24.9032 31.7151C25.3151 32.1269 25.3151 32.7947 24.9032 33.2066C20.359 37.7509 20.359 45.1449 24.9032 49.6891C25.3151 50.1009 25.3151 50.7687 24.9032 51.1806C24.6973 51.3866 24.4273 51.4896 24.1574 51.4896Z"
        fill="black" />
    <path
        d="M51.5593 54C51.1575 54 50.7737 53.7692 50.5975 53.3792L49.1755 50.2305C48.9549 49.742 48.4642 49.4317 47.9303 49.4417C46.0578 49.4744 43.758 49.509 42.5843 49.4858C41.3217 49.4608 40.5858 48.9248 40.1908 48.4795C39.6435 47.8626 39.3924 47.0198 39.4838 46.1065C39.5367 45.5772 39.3936 45.3968 39.1088 45.0377C38.8934 44.7661 38.6252 44.4281 38.4958 43.9468C38.2995 43.216 38.5863 42.4195 39.2264 41.9176C39.2551 41.8953 39.2849 41.8743 39.3157 41.8549L41.4349 40.5218L38.2676 39.3202C38.2406 39.3099 38.214 39.2985 38.1879 39.2862C37.4314 38.9256 37.0126 38.0987 37.1695 37.2755L37.5792 35.1248C37.6209 34.9055 37.5727 34.6846 37.4433 34.5027C37.3139 34.3207 37.121 34.2027 36.9001 34.1702L34.8151 33.8637C34.238 33.7788 33.7434 33.414 33.4918 32.888C33.2402 32.3621 33.2667 31.748 33.5627 31.2457L37.5368 24.5002C38.1413 23.4741 38.3798 22.26 38.2084 21.0816L37.9357 19.2066C37.8518 18.6302 38.2511 18.0949 38.8276 18.0111C39.404 17.9273 39.9393 18.3266 40.0231 18.903L40.2958 20.7779C40.5361 22.4303 40.2017 24.1324 39.3542 25.571L35.6521 31.8548L37.207 32.0834C38.0021 32.2004 38.6964 32.6254 39.1622 33.2801C39.6279 33.9349 39.8016 34.7302 39.6513 35.5195L39.2836 37.4496L42.8432 38.8001C43.4708 39.0382 43.9022 39.601 43.9687 40.269C44.0354 40.9371 43.7239 41.5741 43.1556 41.9316L40.6113 43.532C40.6557 43.5936 40.7117 43.6643 40.7613 43.7268C41.1202 44.1791 41.7207 44.9361 41.5827 46.3163C41.5641 46.5022 41.5636 46.8484 41.7688 47.0796C41.9779 47.3154 42.3504 47.3713 42.626 47.3769C43.7646 47.3993 46.0391 47.3651 47.8934 47.3326C49.2723 47.3111 50.5302 48.1052 51.0979 49.3623L52.5199 52.5109C52.7597 53.0418 52.5236 53.6665 51.9928 53.9063C51.852 53.9698 51.7044 54 51.5593 54Z"
        fill="black" />
</svg>