<svg width="24" height="24" viewBox="0 0 24 24" fill="none" xmlns="http://www.w3.org/2000/svg">
    <path
        d="M14.1562 15.418L14.6967 15.9595L15.3285 16.5879L15.5717 16.8329L16.8334 15.5708L15.4191 14.1553L14.1562 15.418Z"
        fill="#5D6D7E" />
    <path
        d="M18.1188 15.5635L22.4704 19.9153C22.7977 20.241 23.001 20.6944 23.0002 21.1928C23.0002 21.6922 22.7979 22.1455 22.4704 22.4724C22.1442 22.7987 21.692 23.0004 21.1925 23.0004C20.6934 23.0004 20.2416 22.7984 19.9143 22.4708L15.5625 18.1195L18.1188 15.5635Z"
        fill="#F15540" />
    <path
        d="M17.5195 16.1644L17.8729 15.8101L22.2252 20.1625C22.5008 20.4376 22.6516 20.803 22.6514 21.1924C22.6514 21.583 22.5003 21.9495 22.2252 22.2245C22.1757 22.2725 22.1117 22.2968 22.048 22.2968C21.9837 22.2968 21.9196 22.2725 21.8706 22.2235C21.7733 22.1254 21.7733 21.9679 21.8706 21.8707C22.0518 21.69 22.1515 21.448 22.1515 21.1919C22.1517 20.9367 22.0523 20.6968 21.8714 20.5162L17.5195 16.1644Z"
        fill="#FFA184" />
    <path
        d="M15.5647 18.1193L18.1208 15.5632L17.9295 15.3719C17.815 15.2564 17.6571 15.186 17.4825 15.186C17.3068 15.186 17.1491 15.2563 17.0347 15.3704L15.3729 17.0337C15.2586 17.1466 15.1875 17.3054 15.1875 17.4805C15.1875 17.6546 15.2586 17.8144 15.3729 17.9275L15.5647 18.1193Z"
        fill="#34495E" />
    <path
        d="M1 9.17096C1 4.65908 4.65843 1 9.171 1C13.6841 1 17.3423 4.65908 17.342 9.17096C17.3422 13.6844 13.6836 17.3423 9.171 17.3437C4.65843 17.3423 1 13.6843 1 9.17096Z"
        fill="#34495E" />
    <path
        d="M9.16972 16.4583C13.1931 16.4583 16.4562 13.1956 16.4562 9.17091C16.4562 5.14749 13.1931 1.88477 9.16972 1.88477C5.1461 1.88477 1.88281 5.14749 1.88281 9.17091C1.88286 13.1957 5.14558 16.4583 9.16972 16.4583Z"
        fill="#5D6D7E" />
    <path
        d="M9.17176 15.875C12.8731 15.875 15.875 12.8744 15.875 9.17127C15.875 5.47038 12.8731 2.46826 9.17176 2.46826C5.4701 2.46826 2.46875 5.47043 2.46875 9.17127C2.46875 12.8743 5.46971 15.875 9.17176 15.875Z"
        fill="#E6EAEE" />
    <path
        d="M9.34831 3.56781C9.23444 3.39886 9.03821 3.29302 8.8225 3.30514C7.89695 3.36134 7.02278 3.62174 6.22339 4.08559C5.94211 4.25037 5.84599 4.61338 6.00923 4.89508C6.17346 5.17494 6.5368 5.27424 6.81709 5.10804C7.45445 4.74031 8.15197 4.53131 8.89194 4.48666C9.217 4.46973 9.46691 4.18901 9.44658 3.86451C9.44302 3.75198 9.40516 3.65108 9.34831 3.56781Z"
        fill="white" />
    <path
        d="M5.55153 5.51193C5.52051 5.46453 5.47947 5.42096 5.43405 5.38324C5.18006 5.176 4.80817 5.21647 4.60269 5.46926C3.99889 6.21078 3.58342 7.10058 3.40028 8.04723C3.18338 9.17135 3.29664 10.3221 3.72775 11.3774C3.85348 11.6813 4.19886 11.8239 4.50051 11.6997C4.80344 11.5767 4.94721 11.2323 4.82325 10.9284C4.47962 10.0875 4.39038 9.16834 4.56487 8.2714C4.708 7.51579 5.03977 6.80564 5.52175 6.21473C5.6889 6.00912 5.69363 5.71981 5.55153 5.51193Z"
        fill="white" />
</svg>