<svg width="24" height="24" viewBox="0 0 24 24" fill="none" xmlns="http://www.w3.org/2000/svg">
    <path
        d="M19.5 0.75H4.5C2.84315 0.75 1.5 2.09315 1.5 3.75V20.25C1.5 21.9069 2.84315 23.25 4.5 23.25H19.5C21.1569 23.25 22.5 21.9069 22.5 20.25V3.75C22.5 2.09315 21.1569 0.75 19.5 0.75Z"
        fill="#DDEBFD" />
    <path
        d="M17.6265 10.8435C17.4844 10.71 17.296 10.6372 17.1012 10.6402C16.9063 10.6433 16.7203 10.7221 16.5825 10.86L13.3485 14.0947C13.2079 14.2354 13.1289 14.4261 13.1289 14.625C13.1289 14.8239 13.2079 15.0146 13.3485 15.1552L21.0157 22.8247C21.4665 22.5625 21.8408 22.1869 22.1014 21.7352C22.3621 21.2835 22.5 20.7715 22.5015 20.25V15.4252L17.6265 10.8435Z"
        fill="#4071F7" />
    <path
        d="M14.25 10.5C15.4926 10.5 16.5 9.49264 16.5 8.25C16.5 7.00736 15.4926 6 14.25 6C13.0074 6 12 7.00736 12 8.25C12 9.49264 13.0074 10.5 14.25 10.5Z"
        fill="#5392F9" />
    <path
        d="M10.2802 9.9698C10.137 9.83429 9.94722 9.75879 9.75 9.75879C9.55278 9.75879 9.36305 9.83429 9.21975 9.9698L1.5 17.6895V20.25C1.5 21.0457 1.81607 21.8088 2.37868 22.3714C2.94129 22.934 3.70435 23.25 4.5 23.25H19.5C20.0215 23.2485 20.5335 23.1106 20.9852 22.85C21.4369 22.5893 21.8125 22.215 22.0748 21.7643L10.2802 9.9698Z"
        fill="#5392F9" />
</svg>