<svg width="72" height="72" viewBox="0 0 72 72" fill="none" xmlns="http://www.w3.org/2000/svg">
    <rect width="72" height="72" rx="10" fill="#FFFEEE" />
    <path
        d="M51 41.5991C51 40.9044 50.7716 40.2949 50.357 39.8833C50.1754 39.7037 49.9593 39.5625 49.7216 39.4684C49.484 39.3743 49.2297 39.3292 48.9741 39.3358H44.3075L45.8642 36.6837C45.8898 36.6402 45.9108 36.5943 45.927 36.5466C46.6507 34.4205 46.1182 32.5776 44.4661 31.4901C43.8293 31.0711 43.0966 30.9102 42.456 31.0484C42.2006 31.1022 41.9589 31.2075 41.7456 31.3577C41.5323 31.508 41.352 31.7001 41.2156 31.9224C41.1783 31.9813 41.1495 32.0453 41.13 32.1123L40.2109 35.2753L35.7403 39.9872H33.0062C32.8254 39.9872 32.6508 40.0526 32.5146 40.1713C32.3784 40.29 32.29 40.454 32.2657 40.6328L31.0068 49.8864C30.9924 49.9919 31.0009 50.0992 31.0315 50.2011C31.0621 50.3031 31.1143 50.3973 31.1844 50.4775C31.2546 50.5577 31.3411 50.6219 31.4381 50.666C31.5352 50.71 31.6406 50.7328 31.7472 50.7328H35.1577C36.0748 50.9812 36.8204 51.4141 37.5424 51.8332C38.5302 52.4069 39.5517 53 40.8775 53L45.6839 52.9958C46.8768 52.9958 47.7098 52.0633 47.7098 50.728C47.7125 50.4119 47.6607 50.0976 47.5567 49.799C48.3124 49.4825 48.7948 48.7005 48.7948 47.685C48.7974 47.3688 48.7456 47.0546 48.6416 46.7559C49.3973 46.4394 49.8795 45.6574 49.8795 44.6419C49.8821 44.3303 49.8319 44.0204 49.731 43.7254C50.5046 43.4178 51 42.6284 51 41.5991ZM48.9741 42.3746H46.6181C46.4199 42.3746 46.2298 42.4532 46.0897 42.5931C45.9495 42.733 45.8708 42.9228 45.8708 43.1206C45.8708 43.3185 45.9495 43.5082 46.0897 43.6481C46.2298 43.788 46.4199 43.8666 46.6181 43.8666H47.8538C48.3162 43.8666 48.3852 44.3526 48.3852 44.6425C48.3852 44.9323 48.3162 45.4183 47.8538 45.4183H45.4266C45.2284 45.4183 45.0383 45.4969 44.8982 45.6368C44.7581 45.7767 44.6794 45.9664 44.6794 46.1643C44.6794 46.3621 44.7581 46.5519 44.8982 46.6918C45.0383 46.8317 45.2284 46.9103 45.4266 46.9103H46.7689C47.2314 46.9103 47.3004 47.3962 47.3004 47.6861C47.3004 48.0399 47.2082 48.4619 46.7689 48.4619H44.3418C44.1436 48.4619 43.9536 48.5405 43.8135 48.6804C43.6733 48.8203 43.5946 49.0101 43.5946 49.2079C43.5946 49.4058 43.6733 49.5955 43.8135 49.7354C43.9536 49.8753 44.1436 49.9539 44.3418 49.9539H45.6841C46.1465 49.9539 46.2155 50.4398 46.2155 50.7297C46.2155 51.0836 46.1233 51.5056 45.6841 51.5056C45.6841 51.5056 40.8426 51.5044 40.8253 51.5056C39.9272 51.4897 39.2038 51.0738 38.2938 50.5452C37.4993 50.0839 36.5987 49.561 35.4393 49.2656C35.379 49.2503 35.317 49.2425 35.2547 49.2425H32.6028L33.6587 41.4805H36.0614C36.1629 41.4805 36.2634 41.4598 36.3567 41.4198C36.45 41.3797 36.5341 41.3211 36.6039 41.2475L41.4201 36.1712C41.5021 36.0849 41.5621 35.9803 41.5953 35.8661L42.5301 32.6509C42.5915 32.5763 42.6771 32.5253 42.772 32.5068C43.0112 32.4545 43.354 32.5449 43.6439 32.7357C44.3808 33.2206 45.1278 34.179 44.5357 35.9968L42.3592 39.7044C42.2925 39.8176 42.257 39.9465 42.2563 40.0779C42.2556 40.2093 42.2897 40.3385 42.3551 40.4525C42.4206 40.5665 42.5151 40.6611 42.629 40.7269C42.743 40.7927 42.8723 40.8272 43.0039 40.8269V40.8276H48.9778C49.0369 40.8223 49.0965 40.8296 49.1525 40.8491C49.2085 40.8686 49.2598 40.8997 49.3028 40.9405C49.4298 41.0665 49.5055 41.3127 49.5055 41.599C49.5055 41.8888 49.4365 42.3746 48.9741 42.3746Z"
        fill="black" />
    <path
        d="M28.8998 41C28.7692 41 28.641 40.9659 28.5277 40.9012C28.4144 40.8364 28.32 40.7432 28.254 40.6308C26.3309 37.36 21.1973 30.386 21.1457 30.316C21.0391 30.1713 20.9882 29.9933 21.0023 29.8143C21.0164 29.6353 21.0945 29.4673 21.2225 29.3411L22.8026 27.782C22.9272 27.6591 23.091 27.5837 23.2655 27.5689C23.44 27.5541 23.6142 27.6008 23.7578 27.7009L28.7443 31.1776C35.3852 22.7085 41.0658 19.2525 41.3094 19.1065C41.4258 19.0368 41.559 19 41.6948 19H44.2511C44.4029 19 44.5511 19.046 44.6761 19.132C44.8011 19.2181 44.8969 19.3399 44.951 19.4816C45.005 19.6232 45.0146 19.7779 44.9786 19.9251C44.9426 20.0723 44.8626 20.2052 44.7492 20.306C37.5079 26.7455 29.6293 40.4843 29.5505 40.6224C29.4855 40.7363 29.3916 40.8312 29.2782 40.8975C29.1649 40.9638 29.036 40.9991 28.9047 41H28.8998ZM22.7347 29.9515C23.8351 31.4573 27.0083 35.8357 28.8843 38.7958C30.7734 35.6153 36.5237 26.2995 42.3672 20.4953H41.9116C40.9021 21.1481 35.5047 24.8343 29.4939 32.6525C29.3765 32.8052 29.2046 32.9068 29.0141 32.9362C28.8236 32.9656 28.629 32.9204 28.471 32.8102L23.4118 29.2834L22.7347 29.9515Z"
        fill="black" />
</svg>