<svg width="72" height="72" viewBox="0 0 72 72" fill="none" xmlns="http://www.w3.org/2000/svg">
<rect width="72" height="72" rx="10" fill="#FFFEEE"/>
<path fill-rule="evenodd" clip-rule="evenodd" d="M36.375 20.25H21.75C21.1537 20.25 20.58 20.487 20.16 20.9089C19.7363 21.3311 19.5 21.9034 19.5 22.5V51.75C19.5 52.9927 20.5087 54 21.75 54H44.25C45.4912 54 46.5 52.9927 46.5 51.75C46.5 47.9509 46.5 38.25 46.5 38.25C46.5 37.836 46.1625 37.5 45.75 37.5C45.3375 37.5 45 37.836 45 38.25V51.75C45 52.1644 44.6663 52.5 44.25 52.5H21.75C21.3338 52.5 21 52.1644 21 51.75C21 46.3455 21 27.9045 21 22.5C21 22.3012 21.0788 22.1104 21.2213 21.9697C21.36 21.8291 21.5512 21.75 21.75 21.75H36.375C36.7875 21.75 37.125 21.414 37.125 21C37.125 20.586 36.7875 20.25 36.375 20.25ZM25.3125 45.75H40.6875C41.1 45.75 41.4375 45.414 41.4375 45C41.4375 44.586 41.1 44.25 40.6875 44.25H25.3125C24.9 44.25 24.5625 44.586 24.5625 45C24.5625 45.414 24.9 45.75 25.3125 45.75ZM25.3125 41.625H40.6875C41.1 41.625 41.4375 41.289 41.4375 40.875C41.4375 40.461 41.1 40.125 40.6875 40.125H25.3125C24.9 40.125 24.5625 40.461 24.5625 40.875C24.5625 41.289 24.9 41.625 25.3125 41.625ZM32.25 28.875H25.5C25.0875 28.875 24.75 29.211 24.75 29.625C24.75 30.039 25.0875 30.375 25.5 30.375H28.125V37.875C28.125 38.289 28.4625 38.625 28.875 38.625C29.2875 38.625 29.625 38.289 29.625 37.875V30.375H32.25C32.6625 30.375 33 30.039 33 29.625C33 29.211 32.6625 28.875 32.25 28.875ZM48.69 28.2397C48.5813 27.9454 48.3 27.75 47.9887 27.75C47.6737 27.75 47.3925 27.9454 47.2838 28.2397L46.3912 30.6536L43.9763 31.5465C43.6838 31.6556 43.4887 31.9361 43.4887 32.25C43.4887 32.5639 43.6838 32.8444 43.9763 32.9535L46.3912 33.8464L47.2838 36.2603C47.3925 36.5546 47.6737 36.75 47.9887 36.75C48.3 36.75 48.5813 36.5546 48.69 36.2603L49.5825 33.8464L51.9975 32.9535C52.2937 32.8444 52.4887 32.5639 52.4887 32.25C52.4887 31.9361 52.2937 31.6556 51.9975 31.5465L49.5825 30.6536L48.69 28.2397ZM47.9887 30.6611L48.2963 31.4974C48.3713 31.7029 48.5362 31.8645 48.7387 31.9406L49.575 32.25L48.7387 32.5594C48.5362 32.6355 48.3713 32.7971 48.2963 33.0026L47.9887 33.8389L47.6775 33.0026C47.6025 32.7971 47.4412 32.6355 47.235 32.5594L46.3987 32.25L47.235 31.9406C47.4412 31.8645 47.6025 31.7029 47.6775 31.4974L47.9887 30.6611ZM41.955 18.4897C41.8462 18.1954 41.565 18 41.25 18C40.935 18 40.6538 18.1954 40.545 18.4897L38.7413 23.367L33.8663 25.1715C33.57 25.2806 33.375 25.5611 33.375 25.875C33.375 26.1889 33.57 26.4694 33.8663 26.5785L38.7413 28.383L40.545 33.2603C40.6538 33.5546 40.935 33.75 41.25 33.75C41.565 33.75 41.8462 33.5546 41.955 33.2603L43.7587 28.383L48.6337 26.5785C48.93 26.4694 49.125 26.1889 49.125 25.875C49.125 25.5611 48.93 25.2806 48.6337 25.1715L43.7587 23.367L41.955 18.4897ZM41.25 20.9111L42.4725 24.2107C42.5475 24.4162 42.7087 24.5779 42.915 24.654L46.215 25.875L42.915 27.096C42.7087 27.1721 42.5475 27.3338 42.4725 27.5393L41.25 30.8389L40.0275 27.5393C39.9525 27.3338 39.7913 27.1721 39.585 27.096L36.285 25.875L39.585 24.654C39.7913 24.5779 39.9525 24.4162 40.0275 24.2107L41.25 20.9111ZM47.25 20.625H46.5C46.0875 20.625 45.75 20.961 45.75 21.375C45.75 21.789 46.0875 22.125 46.5 22.125H47.25V22.875C47.25 23.289 47.5875 23.625 48 23.625C48.4125 23.625 48.75 23.289 48.75 22.875V22.125H49.5C49.9125 22.125 50.25 21.789 50.25 21.375C50.25 20.961 49.9125 20.625 49.5 20.625H48.75V19.875C48.75 19.461 48.4125 19.125 48 19.125C47.5875 19.125 47.25 19.461 47.25 19.875V20.625Z" fill="black"/>
</svg>
