<svg width="72" height="72" viewBox="0 0 72 72" fill="none" xmlns="http://www.w3.org/2000/svg">
    <rect width="72" height="72" rx="10" fill="#FFFEEE" />
    <path fill-rule="evenodd" clip-rule="evenodd"
        d="M24.7945 42.1035C20.0145 37.3236 20.0145 29.5736 24.7945 24.7936C29.5746 20.0135 37.3245 20.0135 42.1045 24.7936C46.8846 29.5736 46.8846 37.3235 42.1045 42.1035C37.3246 46.8836 29.5746 46.8836 24.7945 42.1035ZM23.7763 23.7753C18.4339 29.1177 18.4339 37.7795 23.7763 43.1217C28.9479 48.2933 37.2299 48.4587 42.6004 43.6178L51.332 52.3494C51.6132 52.6305 52.0692 52.6305 52.3502 52.3494C52.6315 52.0682 52.6315 51.6123 52.3502 51.331L43.6187 42.5996C48.4596 37.2291 48.2943 28.9469 43.1227 23.7753C37.7805 18.433 29.1187 18.433 23.7763 23.7753ZM31.6813 26.6402C31.6813 25.8449 32.326 25.2002 33.1213 25.2002C33.9166 25.2002 34.5613 25.8449 34.5613 26.6402C34.5613 27.4355 33.9166 28.0802 33.1213 28.0802C32.326 28.0802 31.6813 27.4355 31.6813 26.6402ZM33.1213 23.7602C31.5307 23.7602 30.2413 25.0496 30.2413 26.6402C30.2413 28.2308 31.5307 29.5202 33.1213 29.5202C34.712 29.5202 36.0013 28.2308 36.0013 26.6402C36.0013 25.0496 34.712 23.7602 33.1213 23.7602ZM32.4013 32.4002C31.2084 32.4002 30.2413 33.3673 30.2413 34.5602V36.2437C30.2413 36.6414 30.5637 36.9637 30.9613 36.9637H31.3213C31.719 36.9637 32.0413 37.2861 32.0413 37.6837V40.3203C32.0413 40.7179 32.3637 41.0403 32.7613 41.0403H33.4813C33.8789 41.0403 34.2013 40.7179 34.2013 40.3203V37.6837C34.2013 37.2861 34.5237 36.9637 34.9213 36.9637H35.2813C35.6789 36.9637 36.0013 36.6414 36.0013 36.2437V34.5602C36.0013 33.3673 35.0342 32.4002 33.8413 32.4002H32.4013ZM28.8013 34.5602C28.8013 32.572 30.4131 30.9602 32.4013 30.9602H33.8413C35.8295 30.9602 37.4413 32.572 37.4413 34.5602V36.2437C37.4413 37.3141 36.6629 38.2025 35.6413 38.3739V40.3203C35.6413 41.5132 34.6742 42.4803 33.4813 42.4803H32.7613C31.5684 42.4803 30.6013 41.5132 30.6013 40.3203V38.3739C29.5798 38.2025 28.8013 37.3141 28.8013 36.2437V34.5602Z"
        fill="black" />
</svg>