<svg width="40" height="40" viewBox="0 0 40 40" fill="none" xmlns="http://www.w3.org/2000/svg">
    <rect width="40" height="40" rx="10" fill="#FFFEEE" />
    <path
        d="M23.8672 8.70312C20.7606 8.70312 18.2422 11.2215 18.2422 14.3281V20.0469C18.2422 21.8174 19.0758 23.4845 20.4922 24.5469L22.1797 25.8125C23.242 26.6092 23.8672 27.8596 23.8672 29.1875C23.8672 27.8596 24.4924 26.6092 25.5547 25.8125L27.2422 24.5469C28.6586 23.4845 29.4922 21.8174 29.4922 20.0469V14.3281C29.4922 11.2215 26.9738 8.70312 23.8672 8.70312Z"
        stroke="black" stroke-miterlimit="10" />
    <path
        d="M18.2422 14.3281C18.2422 16.0986 19.0758 17.7658 20.4922 18.8281L22.1797 20.0938C23.242 20.8905 23.8672 22.1409 23.8672 23.4688C23.8672 22.1409 24.4924 20.8905 25.5547 20.0938L27.2422 18.8281C28.6586 17.7658 29.4922 16.0986 29.4922 14.3281"
        stroke="black" stroke-miterlimit="10" />
    <path d="M10.5078 13.9766H12.6172" stroke="black" stroke-miterlimit="10" />
    <path d="M10.5078 17.1406V10.8125H12.6172" stroke="black" stroke-miterlimit="10" />
    <path d="M14.0234 14.3281H16.1328" stroke="black" stroke-miterlimit="10" />
    <path d="M16.1328 16.4375H14.0234V12.2188H16.1328" stroke="black" stroke-miterlimit="10" />
    <path d="M23.8672 8.70312V32" stroke="black" stroke-miterlimit="10" />
</svg>