<svg width="24" height="24" viewBox="0 0 24 24" fill="none" xmlns="http://www.w3.org/2000/svg">
<path d="M22.9975 7.50262C22.9975 5.5718 21.7643 4.0009 20.2484 4.0009C19.0894 4.0009 18.0979 4.92048 17.6941 6.21584C14.5835 3.33139 9.70805 3.25507 6.50308 6.04062V5.11613C6.48546 4.48286 5.94193 3.98333 5.28902 4.00043C4.98805 4.00828 4.70146 4.12722 4.48777 4.33301C4.0543 3.99957 3.44027 4.00276 3.01044 4.34063C2.54167 3.89958 1.79299 3.91058 1.33827 4.3653C1.13189 4.57166 1.0129 4.84568 1.00494 5.13308L1.00592 8.30317C0.974064 8.72418 1.07121 9.1449 1.28515 9.51248C1.49953 9.87297 1.81341 10.1683 2.19141 10.3653C2.32317 10.4334 2.41742 10.5542 2.44914 10.6958C2.50642 10.9319 2.52626 11.1751 2.508 11.417C2.19004 15.1233 2.06942 17.712 2.17703 18.5194C2.20167 18.9082 2.36632 19.2763 2.64226 19.5593C3.25618 20.1376 4.23289 20.1377 4.84691 19.5595C5.13169 19.2764 5.2981 18.9009 5.31386 18.5056C5.34484 17.8927 5.34253 17.2786 5.30684 16.666C7.96122 20.2533 13.1112 21.0743 16.8097 18.4997C17.5983 17.9508 18.2807 17.2711 18.8255 16.492C18.7857 17.7068 18.7687 18.4968 18.7683 18.517C18.7419 19.31 19.3833 19.9735 20.2008 19.999C21.0183 20.0246 21.7023 19.4026 21.7287 18.6096C21.7297 18.5788 21.7297 18.5479 21.7287 18.517V18.5096C21.7279 18.4737 21.6539 14.8766 21.433 11.0973C21.4188 10.8568 21.5232 10.6241 21.7142 10.4702C22.5696 9.71123 23.0387 8.62642 22.9975 7.50262ZM4.5318 18.4354C4.53087 18.6453 4.45144 18.8477 4.30819 19.0051C3.99647 19.3061 3.49246 19.306 3.18083 19.0049C3.04362 18.8387 2.96483 18.6343 2.9559 18.4216C2.85659 17.6765 2.98177 15.0815 3.29069 11.4801C3.31485 11.1649 3.2903 10.8479 3.21784 10.5397C3.1392 10.18 2.90175 9.87188 2.56838 9.6968C2.31792 9.56886 2.10992 9.37469 1.96854 9.13676C1.82765 8.89116 1.7656 8.61033 1.79039 8.33026V5.13303C1.8086 4.92267 1.99922 4.76645 2.2161 4.78411C2.4077 4.79973 2.55974 4.94719 2.57584 5.13303V7.47972C2.57584 7.69008 2.75168 7.86064 2.96856 7.86064C3.18544 7.86064 3.36129 7.69008 3.36129 7.47972V5.19222C3.38461 4.98186 3.57935 4.82963 3.79628 4.8523C3.98101 4.87158 4.1269 5.01309 4.14674 5.19222V7.47977C4.14674 7.69013 4.32258 7.86069 4.53946 7.86069C4.75634 7.86069 4.93218 7.69013 4.93218 7.47977V5.11613C4.9504 4.90577 5.14101 4.74955 5.3579 4.76721C5.5495 4.78283 5.70153 4.93029 5.71763 5.11613L5.71817 6.98139C5.71827 6.98348 5.71802 6.98548 5.71817 6.98758L5.71856 8.34055C5.73943 8.61176 5.67713 8.88292 5.53948 9.11985C5.39815 9.35778 5.19015 9.552 4.93965 9.6799C4.60637 9.85483 4.36902 10.1628 4.29032 10.5222C4.23014 10.8349 4.20613 11.153 4.2188 11.4708C4.49327 15.4911 4.59547 17.7691 4.5318 18.4354ZM12.0012 19.2376C9.09442 19.2333 6.45345 17.5958 5.22928 15.0386C5.17508 14.0459 5.10007 12.8479 5.00278 11.4206C4.99472 11.1719 5.01362 10.9231 5.05913 10.6783C5.09084 10.537 5.18495 10.4164 5.31646 10.3483C5.69461 10.1515 6.00854 9.85612 6.22292 9.49553C6.43352 9.13652 6.53091 8.72551 6.50308 8.31336V7.11604C9.27286 4.17108 13.9796 3.96162 17.0158 6.64813C17.19 6.80226 17.3566 6.96434 17.5149 7.13385C17.5049 7.25512 17.4994 7.37802 17.4994 7.50262C17.4581 8.62671 17.9275 9.7118 18.7834 10.4707C18.9742 10.6246 19.0785 10.8571 19.0645 11.0973C18.9895 12.3986 18.9315 13.6708 18.8872 14.7878C17.7335 17.4874 15.0141 19.2447 12.0012 19.2376ZM21.2147 9.88226C20.8308 10.1908 20.6207 10.6579 20.6486 11.1407C20.8653 14.8483 20.9403 18.3808 20.9432 18.5204C20.9672 18.8925 20.6756 19.213 20.292 19.2363C19.9084 19.2596 19.5779 18.9768 19.5539 18.6047C19.5522 18.5782 19.5521 18.5515 19.5536 18.5249C19.5542 18.4892 19.6307 14.9205 19.8488 11.1396C19.8761 10.6572 19.6661 10.1909 19.2827 9.88264C18.6128 9.26532 18.2493 8.39821 18.2848 7.50267C18.2848 5.99186 19.1657 4.76278 20.2484 4.76278C21.3311 4.76278 22.212 5.99181 22.212 7.50267C22.2476 8.39797 21.8843 9.26489 21.2147 9.88226Z" fill="#1D4ED8" stroke="#1D4ED8" stroke-width="0.2"/>
<path d="M12.2843 16.6685H12.2844C14.7046 16.6658 16.6658 14.7046 16.6685 12.2844V12.2843C16.6685 9.86289 14.7056 7.9 12.2843 7.9C9.86289 7.9 7.9 9.86289 7.9 12.2843C7.9 14.7056 9.86289 16.6685 12.2843 16.6685ZM8.95685 12.2843C8.95685 10.4466 10.4466 8.95685 12.2843 8.95685C14.1211 8.95905 15.6096 10.4476 15.6117 12.2844C15.6116 14.122 14.1219 15.6117 12.2843 15.6117C10.4466 15.6117 8.95685 14.1219 8.95685 12.2843Z" fill="#1D4ED8" stroke="#1D4ED8" stroke-width="0.2"/>
</svg>
