<svg width="24" height="24" viewBox="0 0 24 24" fill="none" xmlns="http://www.w3.org/2000/svg">
    <g clip-path="url(#clip0_15494_4977)">
        <path
            d="M11.9984 13.5999C12.8821 13.5999 13.5984 12.8836 13.5984 11.9999C13.5984 11.1162 12.8821 10.3999 11.9984 10.3999C11.1148 10.3999 10.3984 11.1162 10.3984 11.9999C10.3984 12.8836 11.1148 13.5999 11.9984 13.5999Z"
            fill="#1D4ED8" />
        <path
            d="M12.2857 0.917408C12.2107 0.842419 12.109 0.800293 12.0029 0.800293C11.8968 0.800293 11.7951 0.842419 11.7201 0.917408L10.1201 2.51741C10.0472 2.59285 10.0069 2.69389 10.0078 2.79877C10.0087 2.90365 10.0508 3.00397 10.125 3.07814C10.1991 3.1523 10.2995 3.19437 10.4043 3.19528C10.5092 3.19619 10.6103 3.15587 10.6857 3.08301L11.6029 2.16581V9.63621C11.8674 9.5882 12.1384 9.5882 12.4029 9.63621V2.16581L13.3201 3.08301C13.3955 3.15587 13.4966 3.19619 13.6015 3.19528C13.7063 3.19437 13.8067 3.1523 13.8808 3.07814C13.955 3.00397 13.9971 2.90365 13.998 2.79877C13.9989 2.69389 13.9586 2.59285 13.8857 2.51741L12.2857 0.917408Z"
            fill="#1D4ED8" />
        <path
            d="M6.90654 4.64618C6.96246 4.59024 7.00054 4.51897 7.01597 4.44139C7.0314 4.36381 7.02348 4.2834 6.99321 4.21032C6.96294 4.13724 6.91169 4.07477 6.84592 4.03082C6.78016 3.98686 6.70284 3.9634 6.62374 3.96338H4.36094C4.25485 3.96338 4.15311 4.00552 4.07809 4.08054C4.00308 4.15555 3.96094 4.25729 3.96094 4.36338V6.62618C3.96094 6.73227 4.00308 6.83401 4.07809 6.90902C4.15311 6.98404 4.25485 7.02618 4.36094 7.02618C4.46702 7.02618 4.56877 6.98404 4.64378 6.90902C4.71879 6.83401 4.76094 6.73227 4.76094 6.62618V5.32898L10.0433 10.6114C10.1962 10.3903 10.3878 10.1986 10.6089 10.0458L5.32654 4.76338H6.62374C6.72982 4.76336 6.83154 4.7212 6.90654 4.64618Z"
            fill="#1D4ED8" />
        <path
            d="M3.07959 13.8828C3.15458 13.8078 3.1967 13.706 3.1967 13.6C3.1967 13.4939 3.15458 13.3922 3.07959 13.3172L2.16239 12.4H9.63279C9.58479 12.1355 9.58479 11.8645 9.63279 11.6H2.16239L3.07959 10.6828C3.15245 10.6073 3.19277 10.5063 3.19186 10.4014C3.19095 10.2965 3.14888 10.1962 3.07472 10.122C3.00055 10.0479 2.90023 10.0058 2.79535 10.0049C2.69047 10.004 2.58943 10.0443 2.51399 10.1172L0.91399 11.7172C0.839001 11.7922 0.796875 11.8939 0.796875 12C0.796875 12.106 0.839001 12.2078 0.91399 12.2828L2.51399 13.8828C2.589 13.9578 2.69072 13.9999 2.79679 13.9999C2.90286 13.9999 3.00458 13.9578 3.07959 13.8828Z"
            fill="#1D4ED8" />
        <path
            d="M4.64374 17.0911C4.5878 17.0351 4.51653 16.9971 4.43895 16.9816C4.36137 16.9662 4.28096 16.9741 4.20788 17.0044C4.1348 17.0347 4.07233 17.0859 4.02838 17.1517C3.98442 17.2175 3.96095 17.2948 3.96094 17.3739V19.6367C3.96094 19.7428 4.00308 19.8445 4.07809 19.9195C4.15311 19.9945 4.25485 20.0367 4.36094 20.0367H6.62374C6.72982 20.0367 6.83157 19.9945 6.90658 19.9195C6.98159 19.8445 7.02374 19.7428 7.02374 19.6367C7.02374 19.5306 6.98159 19.4288 6.90658 19.3538C6.83157 19.2788 6.72982 19.2367 6.62374 19.2367H5.32654L10.6089 13.9543C10.3878 13.8014 10.1962 13.6098 10.0433 13.3887L4.76094 18.6711V17.3739C4.76091 17.2678 4.71876 17.1661 4.64374 17.0911Z"
            fill="#1D4ED8" />
        <path
            d="M12.0029 14.3998C11.8687 14.4001 11.7348 14.388 11.6029 14.3638V21.8342L10.6857 20.917C10.6103 20.8441 10.5092 20.8038 10.4043 20.8047C10.2995 20.8056 10.1991 20.8477 10.125 20.9218C10.0508 20.996 10.0087 21.0963 10.0078 21.2012C10.0069 21.3061 10.0472 21.4071 10.1201 21.4826L11.7201 23.0826C11.7951 23.1576 11.8968 23.1997 12.0029 23.1997C12.109 23.1997 12.2107 23.1576 12.2857 23.0826L13.8857 21.4826C13.9586 21.4071 13.9989 21.3061 13.998 21.2012C13.9971 21.0963 13.955 20.996 13.8808 20.9218C13.8067 20.8477 13.7063 20.8056 13.6015 20.8047C13.4966 20.8038 13.3955 20.8441 13.3201 20.917L12.4029 21.8342V14.3638C12.2709 14.388 12.1371 14.4001 12.0029 14.3998Z"
            fill="#1D4ED8" />
        <path
            d="M19.6386 16.9739C19.5325 16.9739 19.4308 17.016 19.3558 17.091C19.2808 17.166 19.2386 17.2678 19.2386 17.3739V18.6711L13.9562 13.3887C13.8034 13.6098 13.6117 13.8014 13.3906 13.9543L18.673 19.2367H17.3758C17.2697 19.2367 17.168 19.2788 17.093 19.3538C17.018 19.4288 16.9758 19.5306 16.9758 19.6367C16.9758 19.7428 17.018 19.8445 17.093 19.9195C17.168 19.9945 17.2697 20.0367 17.3758 20.0367H19.6386C19.7447 20.0367 19.8465 19.9945 19.9215 19.9195C19.9965 19.8445 20.0386 19.7428 20.0386 19.6367V17.3739C20.0386 17.2678 19.9965 17.166 19.9215 17.091C19.8465 17.016 19.7447 16.9739 19.6386 16.9739Z"
            fill="#1D4ED8" />
        <path
            d="M21.486 10.1172C21.4105 10.0443 21.3095 10.004 21.2046 10.0049C21.0997 10.0058 20.9994 10.0479 20.9253 10.122C20.8511 10.1962 20.809 10.2965 20.8081 10.4014C20.8072 10.5063 20.8475 10.6073 20.9204 10.6828L21.8376 11.6H14.3672C14.4152 11.8645 14.4152 12.1355 14.3672 12.4H21.8376L20.9204 13.3172C20.8475 13.3926 20.8072 13.4937 20.8081 13.5985C20.809 13.7034 20.8511 13.8037 20.9253 13.8779C20.9994 13.9521 21.0997 13.9941 21.2046 13.995C21.3095 13.9959 21.4105 13.9556 21.486 13.8828L23.086 12.2828C23.161 12.2078 23.2031 12.106 23.2031 12C23.2031 11.8939 23.161 11.7922 23.086 11.7172L21.486 10.1172Z"
            fill="#1D4ED8" />
        <path
            d="M13.699 10.303C13.7939 10.3978 13.88 10.501 13.9562 10.6114L19.2386 5.32898V6.62618C19.2386 6.73227 19.2808 6.83401 19.3558 6.90902C19.4308 6.98404 19.5325 7.02618 19.6386 7.02618C19.7447 7.02618 19.8465 6.98404 19.9215 6.90902C19.9965 6.83401 20.0386 6.73227 20.0386 6.62618V4.36338C20.0386 4.25729 19.9965 4.15555 19.9215 4.08054C19.8465 4.00552 19.7447 3.96338 19.6386 3.96338H17.3758C17.2697 3.96338 17.168 4.00552 17.093 4.08054C17.018 4.15555 16.9758 4.25729 16.9758 4.36338C16.9758 4.46947 17.018 4.57121 17.093 4.64622C17.168 4.72124 17.2697 4.76338 17.3758 4.76338H18.673L13.3906 10.0458C13.501 10.122 13.6042 10.2081 13.699 10.303Z"
            fill="#1D4ED8" />
    </g>
    <defs>
        <clipPath id="clip0_15494_4977">
            <rect width="24" height="24" fill="white" />
        </clipPath>
    </defs>
</svg>