<svg width="72" height="72" viewBox="0 0 72 72" fill="none" xmlns="http://www.w3.org/2000/svg">
    <rect width="72" height="72" rx="10" fill="#FFFEEE" />
    <path
        d="M51.5693 20H43.292C41.9124 20 40.8613 21.1501 40.8613 22.5032V29.4038H23.1898C21.7445 29.4038 20.6277 30.6216 20.6277 32.0423V47.1966C19.9708 47.1966 19.3796 47.1966 18.7226 47.1966H18.6569C18.3285 47.1966 18 47.5349 18 47.8732C18 50.0381 19.6423 51.797 21.6788 52H22.8613H28.9051H37.3139H43.8832H45.1971C46.9051 52 48.3504 50.9175 49.0073 49.2939C49.2044 48.7526 49.5985 47.1966 48.6131 47.1966C48.0876 47.1966 47.4963 47.1966 46.9708 47.1966V41.2431H51.5693C52.9489 41.2431 54 40.093 54 38.74V22.5032C54 21.1501 52.8832 20 51.5693 20ZM43.292 21.3531H51.5693C52.2263 21.3531 52.6861 21.8943 52.6861 22.5032V36.981H42.1095V22.5032C42.1095 21.8943 42.635 21.3531 43.292 21.3531ZM47.365 48.6173H47.8248C47.4963 49.8351 46.4453 50.6469 45.1971 50.7146C44.8029 50.7146 44.4745 50.7146 44.0803 50.7146C42.0438 50.7146 40.073 50.7146 38.0365 50.7146C33.1752 50.7146 28.3796 50.7146 23.5182 50.7146C22.9927 50.7146 22.4672 50.7146 21.9416 50.7146C20.6934 50.7146 19.5766 49.8351 19.3139 48.6173H20.4964H46.9051H47.365ZM45.6569 47.2643C43.2263 47.2643 40.8613 47.2643 38.4963 47.2643C35.6058 47.2643 32.7153 47.2643 29.8248 47.2643C27.3285 47.2643 24.8321 47.2643 22.3358 47.2643C22.2044 47.2643 22.073 47.2643 21.8759 47.2643V32.1099C21.8759 31.3658 22.4672 30.8245 23.1241 30.8245H40.7956V38.8753C40.7956 40.296 41.9124 41.3784 43.2263 41.3784H45.5912V47.2643H45.6569ZM51.5693 40.0254H43.292C42.635 40.0254 42.1752 39.4841 42.1752 38.8753V38.4017H52.7518V38.8753C52.6861 39.4841 52.1606 40.0254 51.5693 40.0254Z"
        fill="black" />
    <path
        d="M46.35 25.7H48.4875C49.2188 25.7 49.8375 25.0813 49.8375 24.35C49.8375 23.6188 49.2188 23 48.4875 23H46.35C45.6188 23 45 23.6188 45 24.35C45 25.0813 45.5625 25.7 46.35 25.7ZM46.35 24.0688H48.4875C48.6 24.0688 48.7125 24.1813 48.7125 24.2938C48.7125 24.4063 48.6 24.5188 48.4875 24.5188H46.35C46.2375 24.5188 46.125 24.4063 46.125 24.2938C46.125 24.1813 46.1813 24.0688 46.35 24.0688Z"
        fill="black" />
</svg>