<svg width="24" height="24" viewBox="0 0 24 24" fill="none" xmlns="http://www.w3.org/2000/svg">
<path d="M8.49818 5.1001L11.1982 7.8001C11.5982 8.2001 12.3982 8.2001 12.7982 7.8001L15.4982 5.1001C16.1982 4.4001 15.6982 3.1001 14.6982 3.1001H9.29818C8.29818 3.2001 7.79818 4.4001 8.49818 5.1001Z" stroke="#1D4ED8" stroke-width="1.5" stroke-miterlimit="10" stroke-linecap="round" stroke-linejoin="round"/>
<path d="M8.49818 18.8999L11.1982 16.1999C11.5982 15.7999 12.3982 15.7999 12.7982 16.1999L15.4982 18.8999C16.1982 19.5999 15.6982 20.8999 14.6982 20.8999H9.29818C8.29818 20.7999 7.79818 19.5999 8.49818 18.8999Z" stroke="#1D4ED8" stroke-width="1.5" stroke-miterlimit="10" stroke-linecap="round" stroke-linejoin="round"/>
<path d="M2.20156 11.5001L4.40156 8.00012C4.70156 7.40012 5.50156 7.30012 6.00156 7.80012L9.50156 11.3001C9.90156 11.7001 9.90156 12.3001 9.50156 12.7001L6.00156 16.2001C5.50156 16.7001 4.80156 16.6001 4.40156 16.0001L2.20156 12.5001C1.90156 12.2001 1.90156 11.8001 2.20156 11.5001Z" stroke="#1D4ED8" stroke-width="1.5" stroke-miterlimit="10" stroke-linecap="round" stroke-linejoin="round"/>
<path d="M21.8031 11.5L19.6031 8.00004C19.3031 7.50004 18.5031 7.40004 18.0031 7.80004L14.5031 11.3C14.1031 11.7 14.1031 12.3 14.5031 12.7L18.0031 16.2C18.5031 16.7 19.2031 16.6 19.6031 16L21.8031 12.5C22.1031 12.2 22.1031 11.8 21.8031 11.5Z" stroke="#1D4ED8" stroke-width="1.5" stroke-miterlimit="10" stroke-linecap="round" stroke-linejoin="round"/>
</svg>
