<svg width="72" height="72" viewBox="0 0 72 72" fill="none" xmlns="http://www.w3.org/2000/svg">
    <rect width="72" height="72" rx="10" fill="#FFFEEE" />
    <path
        d="M34.7279 50.1999H20.5519C19.3279 50.1999 18.3359 49.2079 18.3359 47.9839V24.1359C18.3439 22.9119 19.3359 21.9199 20.5519 21.9199H34.7199C35.9439 21.9199 36.9359 22.9119 36.9359 24.1359V33.5519C36.9359 33.7759 36.7599 33.9519 36.5359 33.9519C36.3119 33.9519 36.1359 33.7759 36.1359 33.5519V24.1359C36.1359 23.3519 35.5039 22.7199 34.7199 22.7199H20.5519C19.7679 22.7199 19.1359 23.3519 19.1359 24.1359V47.9839C19.1359 48.7679 19.7679 49.3999 20.5519 49.3999H34.7199C35.5039 49.3999 36.1359 48.7679 36.1359 47.9839V38.5679C36.1359 38.3439 36.3119 38.1679 36.5359 38.1679C36.7599 38.1679 36.9359 38.3439 36.9359 38.5679V47.9839C36.9359 49.1999 35.9439 50.1999 34.7279 50.1999Z"
        fill="black" />
    <path
        d="M36.536 26.008H18.744C18.52 26.008 18.344 25.832 18.344 25.608C18.344 25.384 18.52 25.208 18.744 25.208H36.544C36.768 25.208 36.944 25.384 36.944 25.608C36.944 25.832 36.76 26.008 36.536 26.008Z"
        fill="black" />
    <path
        d="M36.536 46.9118H18.744C18.52 46.9118 18.344 46.7358 18.344 46.5118C18.344 46.2878 18.52 46.1118 18.744 46.1118H36.544C36.768 46.1118 36.944 46.2878 36.944 46.5118C36.944 46.7358 36.76 46.9118 36.536 46.9118Z"
        fill="black" />
    <path
        d="M28.808 24.3598H26.472C26.248 24.3598 26.072 24.1838 26.072 23.9598C26.072 23.7358 26.248 23.5598 26.472 23.5598H28.808C29.032 23.5598 29.208 23.7358 29.208 23.9598C29.208 24.1838 29.024 24.3598 28.808 24.3598Z"
        fill="black" />
    <path
        d="M30.2319 48.552H25.0479C24.8239 48.552 24.6479 48.376 24.6479 48.152C24.6479 47.928 24.8239 47.752 25.0479 47.752H30.2319C30.4559 47.752 30.6319 47.928 30.6319 48.152C30.6319 48.376 30.4559 48.552 30.2319 48.552Z"
        fill="black" />
    <path
        d="M51.5758 48.296H40.3438C39.1678 48.296 38.2158 47.344 38.2158 46.168V25.952C38.2158 24.776 39.1678 23.824 40.3438 23.824H51.5758C52.7518 23.824 53.7038 24.776 53.7038 25.952V46.168C53.7038 47.344 52.7438 48.296 51.5758 48.296ZM40.3438 24.624C39.6158 24.624 39.0158 25.216 39.0158 25.952V46.168C39.0158 46.896 39.6158 47.496 40.3438 47.496H51.5758C52.3038 47.496 52.9038 46.896 52.9038 46.168V25.952C52.9038 25.216 52.3038 24.624 51.5758 24.624H40.3438Z"
        fill="black" />
    <path
        d="M38.6158 41.0399C38.5118 41.0399 38.4078 40.9999 38.3358 40.9199L34.5998 37.1999C33.9758 36.5759 33.9758 35.5519 34.5998 34.9279L38.3278 31.1999C38.4878 31.0479 38.7358 31.0479 38.8958 31.1999C39.0558 31.3519 39.0558 31.6079 38.8958 31.7679L35.1678 35.4959C34.8558 35.8079 34.8558 36.3279 35.1678 36.6399L38.8958 40.3679C39.0558 40.5279 39.0558 40.7759 38.8958 40.9359C38.8158 40.9999 38.7118 41.0399 38.6158 41.0399Z"
        fill="black" />
    <path
        d="M47.1759 34.8719C46.8559 34.8719 46.5199 34.8079 46.1839 34.6879C46.1599 34.6799 46.1279 34.6639 46.1039 34.6479C46.0799 34.6319 46.0159 34.5999 45.9599 34.5839C45.8959 34.5999 45.8239 34.6399 45.8159 34.6479C45.7919 34.6639 45.7679 34.6719 45.7359 34.6879C44.4799 35.1359 43.3119 34.7439 42.5439 33.5919C41.3919 31.8799 41.3599 28.9839 42.4719 27.7599C42.8399 27.3519 43.6719 26.7679 45.0559 27.5039C45.1439 27.5519 45.2319 27.6079 45.3199 27.6639C45.4799 27.7679 45.7679 27.9519 45.8879 27.9279C46.0079 27.9039 46.1199 27.9359 46.2079 27.9999C46.2399 27.9199 46.2959 27.8479 46.3839 27.7999C46.4559 27.7599 46.5359 27.7119 46.6079 27.6639C46.6959 27.6079 46.7839 27.5519 46.8719 27.5039C48.2559 26.7679 49.0799 27.3439 49.4559 27.7599C50.5679 28.9919 50.5279 31.8799 49.3839 33.5919C48.8159 34.4319 48.0399 34.8719 47.1759 34.8719ZM46.4879 33.9439C47.3999 34.2559 48.1439 33.9919 48.7119 33.1439C49.6319 31.7759 49.7119 29.2319 48.8559 28.2879C48.4719 27.8559 47.9439 27.8319 47.2399 28.2079C47.1839 28.2399 47.1039 28.2879 47.0239 28.3359C46.9439 28.3839 46.8639 28.4399 46.7679 28.4879C46.6239 28.5679 46.4479 28.5519 46.3279 28.4559C46.2799 28.5839 46.1679 28.6799 46.0319 28.7039C45.6079 28.7839 45.2079 28.5359 44.8879 28.3279C44.8079 28.2799 44.7359 28.2319 44.6719 28.1999C43.9679 27.8319 43.4479 27.8559 43.0559 28.2799C42.2079 29.2239 42.2799 31.7599 43.1999 33.1359C43.7679 33.9839 44.5119 34.2479 45.4239 33.9359C45.5119 33.8879 45.6959 33.7999 45.9039 33.7759H45.9919C46.2159 33.8079 46.3999 33.8959 46.4879 33.9439Z"
        fill="black" />
    <path
        d="M47.3681 30.0959C47.0561 30.0959 46.7441 30.0159 46.4641 29.8479C45.9121 29.5279 45.5761 28.9599 45.5601 28.3199C45.5601 28.1679 45.6401 28.0319 45.7681 27.9599C46.3281 27.6559 46.9921 27.6639 47.5441 27.9759C48.0961 28.2959 48.4321 28.8639 48.4481 29.5039C48.4481 29.6559 48.3681 29.7919 48.2401 29.8639C47.9601 30.0239 47.6641 30.0959 47.3681 30.0959ZM46.4001 28.5759C46.4721 28.8239 46.6321 29.0319 46.8641 29.1679C47.0961 29.2959 47.3521 29.3359 47.6081 29.2719C47.5361 29.0239 47.3761 28.8159 47.1441 28.6799C46.9121 28.5519 46.6481 28.5119 46.4001 28.5759Z"
        fill="black" />
    <path
        d="M45.9598 44.968C43.5918 44.968 41.6638 43.04 41.6638 40.672C41.6638 38.304 43.5918 36.376 45.9598 36.376C48.3278 36.376 50.2558 38.304 50.2558 40.672C50.2558 43.04 48.3278 44.968 45.9598 44.968ZM45.9598 37.176C44.0318 37.176 42.4638 38.744 42.4638 40.672C42.4638 42.6 44.0318 44.168 45.9598 44.168C47.8878 44.168 49.4558 42.6 49.4558 40.672C49.4558 38.744 47.8798 37.176 45.9598 37.176Z"
        fill="black" />
    <path
        d="M44.4479 42.0799C44.3119 42.0799 44.1759 42.0079 44.1039 41.8799L43.6159 41.0399C43.5039 40.8479 43.5679 40.5999 43.7599 40.4959C43.9519 40.3839 44.1999 40.4479 44.3039 40.6399L44.5919 41.1359L47.7519 39.3119C47.9439 39.1999 48.1919 39.2639 48.2959 39.4559C48.4079 39.6479 48.3439 39.8959 48.1519 39.9999L44.6479 42.0239C44.5839 42.0639 44.5119 42.0799 44.4479 42.0799Z"
        fill="black" />
</svg>