<svg width="72" height="72" viewBox="0 0 72 72" fill="none" xmlns="http://www.w3.org/2000/svg">
<rect width="72" height="72" rx="10" fill="#FFFEEE"/>
<g clip-path="url(#clip0_15204_2019)">
<path d="M51.2266 40.615C50.7314 40.615 50.33 41.0164 50.33 41.5116V49.4723C50.3282 50.9573 49.1252 52.1607 47.6402 52.1621H22.4829C20.998 52.1607 19.7949 50.9573 19.7932 49.4723V26.1082C19.7949 24.6236 20.998 23.4202 22.4829 23.4184H30.4436C30.9389 23.4184 31.3402 23.0171 31.3402 22.5218C31.3402 22.027 30.9389 21.6252 30.4436 21.6252H22.4829C20.0082 21.628 18.0028 23.6335 18 26.1082V49.4727C18.0028 51.9474 20.0082 53.9528 22.4829 53.9556H47.6402C50.115 53.9528 52.1204 51.9474 52.1232 49.4727V41.5116C52.1232 41.0164 51.7218 40.615 51.2266 40.615Z" fill="black"/>
<path d="M51.7671 19.3182C50.1914 17.7426 47.6369 17.7426 46.0612 19.3182L30.0655 35.3139C29.9559 35.4235 29.8767 35.5594 29.8354 35.7086L27.7319 43.3026C27.6454 43.614 27.7333 43.9474 27.9617 44.1761C28.1904 44.4044 28.5238 44.4924 28.8352 44.4062L36.4292 42.3024C36.5784 42.261 36.7143 42.1819 36.8239 42.0723L52.8192 26.0763C54.3924 24.4995 54.3924 21.9471 52.8192 20.3703L51.7671 19.3182ZM32.0191 35.8967L45.1103 22.8051L49.3323 27.0271L36.2408 40.1187L32.0191 35.8967ZM31.1757 37.589L34.5488 40.9624L29.883 42.2551L31.1757 37.589ZM51.5514 24.8084L50.6005 25.7593L46.3781 21.5369L47.3294 20.5861C48.2046 19.7108 49.6237 19.7108 50.4989 20.5861L51.5514 21.6382C52.4252 22.5144 52.4252 23.9325 51.5514 24.8084Z" fill="black"/>
</g>
<defs>
<clipPath id="clip0_15204_2019">
<rect width="36" height="36" fill="white" transform="translate(18 18)"/>
</clipPath>
</defs>
</svg>
