<svg width="72" height="72" viewBox="0 0 72 72" fill="none" xmlns="http://www.w3.org/2000/svg">
    <rect width="72" height="72" rx="10" fill="#FFFEEE" />
    <path
        d="M35.9968 21.9357C36.3532 21.9357 36.8132 22.1625 37.368 22.5213C37.922 22.8797 38.5368 23.3481 39.3344 23.5629C40.132 23.7777 40.8968 23.6753 41.5556 23.6421C42.2136 23.6089 42.726 23.6465 43.0344 23.8233C43.3428 24.0001 43.6304 24.4253 43.932 25.0129C44.232 25.6005 44.528 26.3129 45.1132 26.8965C45.6968 27.4817 46.4092 27.7777 46.9968 28.0777C47.582 28.3777 48.0092 28.6673 48.1868 28.9753C48.3632 29.2833 48.3992 29.7957 48.3656 30.4545C48.3344 31.1129 48.232 31.8777 48.4468 32.6753C48.6592 33.4733 49.1304 34.0877 49.4884 34.6421C49.8468 35.1957 50.0744 35.6565 50.0744 36.0129C50.0744 36.3673 49.8472 36.8277 49.4884 37.3817C49.1304 37.9361 48.6596 38.5501 48.4468 39.3485C48.232 40.1465 48.3344 40.9109 48.3656 41.5693C48.3992 42.2277 48.3632 42.7405 48.1868 43.0485C48.0096 43.3569 47.582 43.6465 46.9968 43.9465C46.4092 44.2465 45.6968 44.5421 45.1132 45.1269C44.528 45.7109 44.232 46.4233 43.932 47.0109C43.6304 47.5985 43.3428 48.0233 43.0344 48.2005C42.726 48.3797 42.2132 48.4153 41.5556 48.3817C40.8972 48.3485 40.132 48.2465 39.3344 48.4605C38.5368 48.6753 37.922 49.1465 37.368 49.5025C36.8132 49.8605 36.3532 50.0877 35.9968 50.0877C35.6428 50.0877 35.1796 49.8605 34.628 49.5025C34.074 49.1461 33.4592 48.6753 32.6616 48.4605C31.8616 48.2465 31.0992 48.3485 30.4404 48.3817C29.782 48.4153 29.2692 48.3777 28.9608 48.2005C28.6524 48.0237 28.3632 47.5985 28.0636 47.0109C27.7632 46.4233 27.4676 45.7109 26.882 45.1269C26.2964 44.5421 25.584 44.2465 24.9988 43.9465C24.4112 43.6465 23.9864 43.3565 23.8088 43.0485C23.63 42.7401 23.5944 42.2277 23.6276 41.5693C23.6612 40.9109 23.7632 40.1485 23.5488 39.3485C23.3344 38.5501 22.8636 37.9361 22.5072 37.3817C22.1488 36.8277 21.9216 36.3673 21.9216 36.0129C21.9216 35.6565 22.1488 35.1957 22.5072 34.6421C22.864 34.0877 23.3344 33.4733 23.5488 32.6753C23.7632 31.8777 23.6612 31.1129 23.6276 30.4545C23.5944 29.7957 23.63 29.2829 23.8088 28.9753C23.986 28.6669 24.4112 28.3777 24.9988 28.0777C25.584 27.7777 26.2964 27.4817 26.882 26.8965C27.4676 26.3129 27.7632 25.6005 28.0636 25.0129C28.3632 24.4253 28.6528 24.0005 28.9608 23.8233C29.2688 23.6461 29.7816 23.6089 30.4404 23.6421C31.0992 23.6753 31.8616 23.7777 32.6616 23.5629C33.4592 23.3485 34.074 22.8797 34.628 22.5213C35.1796 22.1625 35.6428 21.9357 35.9968 21.9357ZM35.9968 20.4253C35.1052 20.4253 34.4048 20.8653 33.8068 21.2505C33.2068 21.6377 32.678 21.9921 32.2716 22.1029C31.8652 22.2113 31.2256 22.1673 30.5132 22.1317C29.8016 22.0965 28.9784 22.0653 28.2048 22.5129C27.432 22.9589 27.0428 23.6901 26.7172 24.3253C26.3924 24.9589 26.1112 25.5293 25.8132 25.8277C25.5152 26.1253 24.9444 26.4065 24.3112 26.7317C23.6756 27.0569 22.9424 27.4465 22.4964 28.2193C22.0504 28.9925 22.08 29.8169 22.1152 30.5293C22.1532 31.2421 22.1968 31.8797 22.0864 32.2861C21.978 32.6925 21.624 33.2217 21.2364 33.8217C20.8484 34.4193 20.4092 35.1193 20.4092 36.0133C20.4092 36.9049 20.8488 37.6049 21.2364 38.2033C21.624 38.8033 21.978 39.3321 22.0864 39.7385C22.1968 40.1449 22.1532 40.7845 22.1152 41.4969C22.08 42.2069 22.0504 43.0321 22.4964 43.8053C22.9424 44.5785 23.6756 44.9677 24.3112 45.2929C24.9444 45.6177 25.5152 45.8993 25.8132 46.1965C26.1112 46.4949 26.3924 47.0661 26.7172 47.6993C27.0424 48.3349 27.432 49.0661 28.2048 49.5137C28.9784 49.9597 29.8016 49.9301 30.5132 49.8929C31.2256 49.8573 31.864 49.8137 32.2716 49.9241C32.678 50.0325 33.2068 50.3865 33.8068 50.7737C34.4048 51.1605 35.1056 51.6001 35.9968 51.6001C36.888 51.6001 37.5884 51.1605 38.1884 50.7729C38.7868 50.3857 39.318 50.0313 39.7244 49.9233C40.1308 49.8129 40.768 49.8565 41.4808 49.8921C42.1932 49.9293 43.0184 49.9589 43.7908 49.5129C44.562 49.0653 44.9492 48.3341 45.276 47.6985C45.6012 47.0653 45.8844 46.4941 46.1824 46.1957C46.4808 45.8985 47.0496 45.6169 47.6848 45.2921C48.32 44.9669 49.0512 44.5777 49.4972 43.8045C49.9432 43.0313 49.9136 42.2065 49.8784 41.4961C49.8432 40.7837 49.7996 40.1437 49.9072 39.7377C50.018 39.3313 50.372 38.8025 50.7572 38.2025C51.1448 37.6045 51.5844 36.9041 51.5844 36.0125C51.5844 35.1189 51.1444 34.4189 50.7572 33.8209C50.372 33.2209 50.018 32.6917 49.9072 32.2853C49.7992 31.8789 49.8432 31.2389 49.8784 30.5285C49.9136 29.8161 49.9432 28.9913 49.4972 28.2185C49.0512 27.4457 48.32 27.0561 47.6848 26.7309C47.0496 26.4057 46.4808 26.1245 46.1824 25.8269C45.8848 25.5285 45.6012 24.9581 45.276 24.3245C44.9496 23.6893 44.562 22.9581 43.7908 22.5121C43.018 22.0645 42.1932 22.0957 41.4808 22.1309C40.7684 22.1665 40.1308 22.2101 39.7244 22.1021C39.318 21.9917 38.7868 21.6369 38.1884 21.2497C37.5884 20.8649 36.8884 20.4253 35.9968 20.4253Z"
        fill="black" />
    <path
        d="M29.428 36.4481H30.7968V42.1357H29.428C29.0572 42.1357 28.7532 41.8373 28.7532 41.4065V37.1753C28.7532 36.7437 29.0572 36.4481 29.428 36.4481ZM37.022 28.5649C37.232 28.8125 37.3804 29.2585 37.468 29.7689C37.628 30.6901 37.5632 31.3269 37.3968 32.1149C37.3404 32.3857 37.3068 32.6189 37.328 32.8793C37.3508 33.1397 37.468 33.4621 37.7032 33.6729C38.176 34.0937 38.6032 34.0061 39.0096 34.0061H42.1244C42.7532 34.0061 42.916 34.1977 43.076 34.5165C43.2344 34.8369 43.2636 35.3541 43.1972 35.6957L41.9472 41.9645C41.8284 42.5665 41.6572 42.7789 41.4012 42.9353C41.1448 43.0937 40.6872 43.1897 39.9872 43.1897H35.3304C34.4968 43.1397 33.3992 42.7145 32.3092 42.3749V35.9933C33.6616 34.2709 35.338 32.7933 36.0444 30.3289C36.2904 29.4709 36.288 28.7105 36.382 28.3289C36.4632 27.9917 36.928 28.4545 37.022 28.5649ZM35.2756 27.1337C35.0156 27.4421 34.9468 27.7689 34.892 28.0669C34.788 28.6601 34.7764 29.2669 34.5904 29.9105C34.034 31.8561 32.624 33.1481 31.2092 34.9357H29.428C28.2136 34.9357 27.2428 35.9625 27.2428 37.1753V41.4065C27.2428 42.6189 28.2136 43.6481 29.428 43.6481H31.2532C31.2868 43.6601 31.3196 43.6733 31.3532 43.6829C32.4968 44.0001 33.8432 44.6233 35.2572 44.7025H35.3008H39.9868C40.8072 44.7025 41.5508 44.6165 42.1932 44.2233C42.8348 43.8297 43.2572 43.1269 43.4308 42.2605L44.6784 35.9921C44.8056 35.3565 44.7948 34.5777 44.4308 33.8441C44.066 33.1129 43.2244 32.4965 42.1244 32.4965H39.0096C38.9072 32.4965 38.8636 32.4921 38.876 32.4277C39.068 31.5421 39.1512 30.6277 38.9572 29.5109C38.8432 28.8505 38.6384 28.2109 38.2408 27.6713C37.8448 27.1313 37.2032 26.7129 36.5992 26.6829C35.9944 26.6525 35.536 26.8233 35.2756 27.1337Z"
        fill="black" />
</svg>