<svg width="193" height="40" viewBox="0 0 193 40" fill="none" xmlns="http://www.w3.org/2000/svg">
<rect x="0.5" y="0.5" width="192" height="39" rx="19.5" fill="white"/>
<rect x="0.5" y="0.5" width="192" height="39" rx="19.5" stroke="black"/>
<rect x="0.5" y="0.5" width="192" height="39" rx="19.5" stroke="url(#paint0_linear_14384_2015)"/>
<path d="M34.5 19.25C34.5 16.6175 32.55 14.4275 30.0187 14.0562C29.9475 11.2287 30 9.155 30 9.13625C30.0037 9.035 29.9625 8.9375 29.895 8.8625C29.8237 8.79125 29.7262 8.75 29.625 8.75H19.1213C19.0875 8.75 19.0537 8.75375 19.02 8.765C19.0012 8.76875 18.9787 8.77625 18.96 8.79125C18.9525 8.795 18.945 8.795 18.9375 8.8025C18.9338 8.8025 18.93 8.8025 18.9262 8.8025C18.9262 8.8025 18.9263 8.80625 18.9188 8.81C15.99 10.6437 13.8075 13.4675 13.59 13.7563C13.5825 13.7638 13.5787 13.7712 13.575 13.775C13.545 13.8162 13.5225 13.8613 13.5113 13.9138C13.5038 13.94 13.5 13.97 13.5 14V17.375C13.5 17.5887 13.5 17.795 13.5038 18.0013C13.5525 28.88 14.925 30.9088 15.0825 31.1075C15.1538 31.1975 15.2625 31.25 15.375 31.25H30.75C30.8662 31.25 30.975 31.1975 31.0462 31.1075C31.1175 31.0138 31.14 30.8975 31.1138 30.785L30.855 29.7425C31.425 29.75 31.7925 29.75 31.875 29.75C32.0063 29.75 32.1262 29.6825 32.1937 29.5737C32.2612 29.4613 32.2687 29.3225 32.2087 29.2062C31.6537 28.0963 31.1963 26.4275 30.84 24.2525C32.9587 23.5775 34.5 21.59 34.5 19.25ZM31.2938 29C27.1575 28.9737 17.9362 28.6963 16.0425 27.6163C15.7725 27.02 14.3438 23.5962 14.2538 17.93C14.25 17.7463 14.25 17.5625 14.25 17.375V14.225C15.9787 13.34 18.63 13.9813 18.66 13.9887C18.78 14.0188 18.9075 13.985 19.0013 13.9025C19.095 13.82 19.14 13.6962 19.1213 13.5725C18.84 11.6075 19.2187 10.0662 19.3912 9.5H29.2425C29.2312 10.2237 29.2163 11.8963 29.265 14H29.25C26.355 14 24 16.355 24 19.25C24 22.145 26.355 24.5 29.25 24.5C29.5425 24.5 29.8275 24.4775 30.1087 24.4288C30.4237 26.3337 30.8213 27.8638 31.2938 29ZM31.3913 20.8588C31.5375 21.005 31.5375 21.245 31.3913 21.3912C31.3162 21.4625 31.2225 21.5 31.125 21.5C31.0275 21.5 30.9338 21.4625 30.8587 21.3912L29.25 19.7825L27.6412 21.3912C27.5662 21.4625 27.4725 21.5 27.375 21.5C27.2775 21.5 27.1838 21.4625 27.1088 21.3912C26.9625 21.245 26.9625 21.005 27.1088 20.8588L28.7175 19.25L27.1088 17.6412C26.9625 17.495 26.9625 17.255 27.1088 17.1088C27.255 16.9625 27.495 16.9625 27.6412 17.1088L29.25 18.7175L30.8587 17.1088C31.005 16.9625 31.245 16.9625 31.3913 17.1088C31.5375 17.255 31.5375 17.495 31.3913 17.6412L29.7825 19.25L31.3913 20.8588Z" fill="#6577FF"/>
<path d="M17.625 17H22.875C23.0813 17 23.25 16.8313 23.25 16.625C23.25 16.4187 23.0813 16.25 22.875 16.25H17.625C17.4187 16.25 17.25 16.4187 17.25 16.625C17.25 16.8313 17.4187 17 17.625 17Z" fill="#6577FF"/>
<path d="M22.5 19.625C22.7063 19.625 22.875 19.4563 22.875 19.25C22.875 19.0437 22.7063 18.875 22.5 18.875H17.25C17.0437 18.875 16.875 19.0437 16.875 19.25C16.875 19.4563 17.0437 19.625 17.25 19.625H22.5Z" fill="#6577FF"/>
<path d="M23.25 21.875C23.25 21.6687 23.0813 21.5 22.875 21.5H17.625C17.4187 21.5 17.25 21.6687 17.25 21.875C17.25 22.0813 17.4187 22.25 17.625 22.25H22.875C23.0813 22.25 23.25 22.0813 23.25 21.875Z" fill="#6577FF"/>
<path d="M25.125 24.125H18.375C18.1687 24.125 18 24.2937 18 24.5C18 24.7063 18.1687 24.875 18.375 24.875H25.125C25.3313 24.875 25.5 24.7063 25.5 24.5C25.5 24.2937 25.3313 24.125 25.125 24.125Z" fill="#6577FF"/>
<path d="M44.8038 25.5V14.3H48.6598C49.2624 14.3 49.8064 14.4493 50.2918 14.748C50.7824 15.0467 51.1718 15.4493 51.4598 15.956C51.7531 16.4627 51.8998 17.0227 51.8998 17.636C51.8998 18.26 51.7504 18.8253 51.4518 19.332C51.1584 19.8333 50.7664 20.2333 50.2758 20.532C49.7851 20.8307 49.2464 20.98 48.6598 20.98H46.4678V25.5H44.8038ZM46.4678 19.316H48.4918C48.8118 19.316 49.1024 19.236 49.3638 19.076C49.6304 18.916 49.8411 18.7027 49.9958 18.436C50.1558 18.1693 50.2358 17.868 50.2358 17.532C50.2358 17.196 50.1558 16.8947 49.9958 16.628C49.8411 16.356 49.6304 16.1427 49.3638 15.988C49.1024 15.828 48.8118 15.748 48.4918 15.748H46.4678V19.316ZM53.4288 25.5V13.5H55.0928V25.5H53.4288ZM63.1215 17.5H64.7855V25.5H63.1135L63.0495 24.34C62.8148 24.7507 62.4975 25.0813 62.0975 25.332C61.6975 25.5827 61.2255 25.708 60.6815 25.708C60.0948 25.708 59.5428 25.5987 59.0255 25.38C58.5082 25.156 58.0522 24.8467 57.6575 24.452C57.2682 24.0573 56.9642 23.604 56.7455 23.092C56.5268 22.5747 56.4175 22.02 56.4175 21.428C56.4175 20.8573 56.5242 20.3213 56.7375 19.82C56.9508 19.3133 57.2468 18.8707 57.6255 18.492C58.0042 18.1133 58.4415 17.8173 58.9375 17.604C59.4388 17.3853 59.9748 17.276 60.5455 17.276C61.1268 17.276 61.6388 17.4093 62.0815 17.676C62.5295 17.9373 62.9002 18.2733 63.1935 18.684L63.1215 17.5ZM60.6415 24.1C61.1108 24.1 61.5215 23.9853 61.8735 23.756C62.2255 23.5213 62.4975 23.2067 62.6895 22.812C62.8868 22.4173 62.9855 21.98 62.9855 21.5C62.9855 21.0147 62.8868 20.5747 62.6895 20.18C62.4922 19.7853 62.2175 19.4733 61.8655 19.244C61.5188 19.0093 61.1108 18.892 60.6415 18.892C60.1775 18.892 59.7535 19.0093 59.3695 19.244C58.9855 19.4787 58.6815 19.7933 58.4575 20.188C58.2335 20.5827 58.1215 21.02 58.1215 21.5C58.1215 21.9853 58.2362 22.4253 58.4655 22.82C58.7002 23.2093 59.0068 23.5213 59.3855 23.756C59.7695 23.9853 60.1882 24.1 60.6415 24.1ZM72.3136 17.5H73.9776V25.708C73.9776 26.2573 73.8603 26.764 73.6256 27.228C73.3963 27.692 73.0843 28.092 72.6896 28.428C72.295 28.7693 71.8416 29.0333 71.3296 29.22C70.823 29.4067 70.2923 29.5 69.7376 29.5C69.1776 29.5 68.639 29.38 68.1216 29.14C67.6043 28.9053 67.1483 28.5853 66.7536 28.18C66.3643 27.7747 66.0736 27.316 65.8816 26.804L67.4096 26.116C67.5163 26.4467 67.687 26.74 67.9216 26.996C68.1616 27.252 68.439 27.4547 68.7536 27.604C69.0736 27.7533 69.4016 27.828 69.7376 27.828C70.0683 27.828 70.3856 27.7747 70.6896 27.668C70.999 27.5667 71.2736 27.4227 71.5136 27.236C71.759 27.0493 71.9536 26.8253 72.0976 26.564C72.2416 26.3027 72.3136 26.0173 72.3136 25.708V24.356C72.0523 24.7613 71.7163 25.0893 71.3056 25.34C70.895 25.5853 70.4176 25.708 69.8736 25.708C69.3083 25.708 68.775 25.5987 68.2736 25.38C67.7723 25.1613 67.3323 24.86 66.9536 24.476C66.575 24.0867 66.279 23.6387 66.0656 23.132C65.8523 22.6253 65.7456 22.0813 65.7456 21.5C65.7456 20.9187 65.8523 20.3747 66.0656 19.868C66.279 19.356 66.575 18.908 66.9536 18.524C67.3323 18.1347 67.7723 17.8307 68.2736 17.612C68.775 17.3933 69.3083 17.284 69.8736 17.284C70.4176 17.284 70.895 17.4093 71.3056 17.66C71.7163 17.9053 72.0523 18.2333 72.3136 18.644V17.5ZM69.8896 24.1C70.3536 24.1 70.759 23.9827 71.1056 23.748C71.4523 23.508 71.7216 23.1907 71.9136 22.796C72.1056 22.4013 72.2016 21.9693 72.2016 21.5C72.2016 21.02 72.103 20.5853 71.9056 20.196C71.7136 19.8013 71.4443 19.4867 71.0976 19.252C70.751 19.012 70.3483 18.892 69.8896 18.892C69.4416 18.892 69.031 19.0093 68.6576 19.244C68.2896 19.4787 67.9963 19.7933 67.7776 20.188C67.559 20.5827 67.4496 21.02 67.4496 21.5C67.4496 21.98 67.559 22.4173 67.7776 22.812C68.0016 23.2067 68.2976 23.5213 68.6656 23.756C69.039 23.9853 69.447 24.1 69.8896 24.1ZM75.7569 17.5H77.4209V25.5H75.7569V17.5ZM76.6049 16.34C76.3489 16.34 76.1355 16.2573 75.9649 16.092C75.7942 15.9267 75.7089 15.7187 75.7089 15.468C75.7089 15.2227 75.7942 15.0173 75.9649 14.852C76.1355 14.6813 76.3462 14.596 76.5969 14.596C76.8422 14.596 77.0502 14.6813 77.2209 14.852C77.3915 15.0173 77.4769 15.2227 77.4769 15.468C77.4769 15.7187 77.3915 15.9267 77.2209 16.092C77.0555 16.2573 76.8502 16.34 76.6049 16.34ZM85.4184 17.5H87.0824V25.5H85.4104L85.3464 24.34C85.1117 24.7507 84.7944 25.0813 84.3944 25.332C83.9944 25.5827 83.5224 25.708 82.9784 25.708C82.3917 25.708 81.8397 25.5987 81.3224 25.38C80.805 25.156 80.349 24.8467 79.9544 24.452C79.565 24.0573 79.261 23.604 79.0424 23.092C78.8237 22.5747 78.7144 22.02 78.7144 21.428C78.7144 20.8573 78.821 20.3213 79.0344 19.82C79.2477 19.3133 79.5437 18.8707 79.9224 18.492C80.301 18.1133 80.7384 17.8173 81.2344 17.604C81.7357 17.3853 82.2717 17.276 82.8424 17.276C83.4237 17.276 83.9357 17.4093 84.3784 17.676C84.8264 17.9373 85.197 18.2733 85.4904 18.684L85.4184 17.5ZM82.9384 24.1C83.4077 24.1 83.8184 23.9853 84.1704 23.756C84.5224 23.5213 84.7944 23.2067 84.9864 22.812C85.1837 22.4173 85.2824 21.98 85.2824 21.5C85.2824 21.0147 85.1837 20.5747 84.9864 20.18C84.789 19.7853 84.5144 19.4733 84.1624 19.244C83.8157 19.0093 83.4077 18.892 82.9384 18.892C82.4744 18.892 82.0504 19.0093 81.6664 19.244C81.2824 19.4787 80.9784 19.7933 80.7544 20.188C80.5304 20.5827 80.4184 21.02 80.4184 21.5C80.4184 21.9853 80.533 22.4253 80.7624 22.82C80.997 23.2093 81.3037 23.5213 81.6824 23.756C82.0664 23.9853 82.485 24.1 82.9384 24.1ZM88.6788 25.5V17.5H90.3428V18.348C90.6201 18.0173 90.9614 17.756 91.3668 17.564C91.7721 17.372 92.2094 17.276 92.6788 17.276C92.9774 17.276 93.2734 17.316 93.5668 17.396L92.9028 19.076C92.6948 18.996 92.4868 18.956 92.2788 18.956C91.9268 18.956 91.6041 19.044 91.3108 19.22C91.0174 19.3907 90.7828 19.6227 90.6068 19.916C90.4308 20.2093 90.3428 20.5347 90.3428 20.892V25.5H88.6788ZM94.4913 17.5H96.1553V25.5H94.4913V17.5ZM95.3393 16.34C95.0833 16.34 94.8699 16.2573 94.6993 16.092C94.5286 15.9267 94.4433 15.7187 94.4433 15.468C94.4433 15.2227 94.5286 15.0173 94.6993 14.852C94.8699 14.6813 95.0806 14.596 95.3313 14.596C95.5766 14.596 95.7846 14.6813 95.9553 14.852C96.1259 15.0173 96.2113 15.2227 96.2113 15.468C96.2113 15.7187 96.1259 15.9267 95.9553 16.092C95.7899 16.2573 95.5846 16.34 95.3393 16.34ZM100.36 25.652C99.9387 25.6253 99.528 25.54 99.128 25.396C98.728 25.252 98.376 25.0573 98.072 24.812C97.7733 24.5613 97.5493 24.268 97.4 23.932L98.816 23.324C98.8853 23.468 99.0053 23.6093 99.176 23.748C99.352 23.8867 99.5573 24.0013 99.792 24.092C100.027 24.1773 100.272 24.22 100.528 24.22C100.779 24.22 101.011 24.1853 101.224 24.116C101.443 24.0413 101.621 23.9293 101.76 23.78C101.899 23.6307 101.968 23.452 101.968 23.244C101.968 23.0093 101.888 22.828 101.728 22.7C101.573 22.5667 101.379 22.4653 101.144 22.396C100.909 22.3267 100.675 22.26 100.44 22.196C99.9173 22.0787 99.4373 21.9187 99 21.716C98.568 21.508 98.224 21.244 97.968 20.924C97.712 20.5987 97.584 20.2013 97.584 19.732C97.584 19.22 97.7227 18.7773 98 18.404C98.2773 18.0253 98.64 17.7347 99.088 17.532C99.5413 17.3293 100.024 17.228 100.536 17.228C101.176 17.228 101.763 17.364 102.296 17.636C102.829 17.908 103.237 18.2813 103.52 18.756L102.2 19.54C102.12 19.38 102 19.236 101.84 19.108C101.68 18.98 101.499 18.8787 101.296 18.804C101.093 18.724 100.883 18.6787 100.664 18.668C100.392 18.6573 100.139 18.6893 99.904 18.764C99.6747 18.8333 99.4907 18.9453 99.352 19.1C99.2133 19.2547 99.144 19.452 99.144 19.692C99.144 19.9267 99.2267 20.1027 99.392 20.22C99.5573 20.332 99.7653 20.4227 100.016 20.492C100.272 20.5613 100.533 20.6387 100.8 20.724C101.275 20.8733 101.72 21.0573 102.136 21.276C102.552 21.4893 102.888 21.7533 103.144 22.068C103.4 22.3827 103.523 22.7667 103.512 23.22C103.512 23.7213 103.36 24.1613 103.056 24.54C102.757 24.9187 102.368 25.2067 101.888 25.404C101.408 25.6013 100.899 25.684 100.36 25.652ZM104.882 25.5V17.5H106.546V18.348C106.823 18.0173 107.162 17.756 107.562 17.564C107.967 17.372 108.405 17.276 108.874 17.276C109.445 17.276 109.97 17.4147 110.45 17.692C110.93 17.964 111.311 18.3267 111.594 18.78C111.877 18.3267 112.253 17.964 112.722 17.692C113.197 17.4147 113.719 17.276 114.29 17.276C114.882 17.276 115.421 17.42 115.906 17.708C116.391 17.996 116.778 18.3827 117.066 18.868C117.354 19.3533 117.498 19.892 117.498 20.484V25.5H115.834V20.908C115.834 20.556 115.749 20.2333 115.578 19.94C115.407 19.6467 115.178 19.4093 114.89 19.228C114.602 19.0467 114.282 18.956 113.93 18.956C113.578 18.956 113.258 19.0413 112.97 19.212C112.682 19.3827 112.453 19.6147 112.282 19.908C112.111 20.2013 112.026 20.5347 112.026 20.908V25.5H110.362V20.908C110.362 20.5347 110.277 20.2013 110.106 19.908C109.935 19.6147 109.703 19.3827 109.41 19.212C109.122 19.0413 108.802 18.956 108.45 18.956C108.103 18.956 107.783 19.0467 107.49 19.228C107.202 19.4093 106.973 19.6467 106.802 19.94C106.631 20.2333 106.546 20.556 106.546 20.908V25.5H104.882ZM128.128 25.708C127.371 25.708 126.659 25.5587 125.992 25.26C125.326 24.956 124.739 24.54 124.232 24.012C123.731 23.4787 123.336 22.86 123.048 22.156C122.766 21.452 122.624 20.7 122.624 19.9C122.624 19.1 122.766 18.348 123.048 17.644C123.336 16.94 123.731 16.324 124.232 15.796C124.739 15.2627 125.326 14.8467 125.992 14.548C126.659 14.244 127.371 14.092 128.128 14.092C129.035 14.092 129.87 14.3027 130.632 14.724C131.395 15.1453 132.027 15.7053 132.528 16.404L131.048 17.196C130.702 16.7587 130.272 16.4093 129.76 16.148C129.248 15.8867 128.704 15.756 128.128 15.756C127.595 15.756 127.096 15.8653 126.632 16.084C126.168 16.3027 125.76 16.6013 125.408 16.98C125.056 17.3587 124.782 17.7987 124.584 18.3C124.387 18.8013 124.288 19.3347 124.288 19.9C124.288 20.4707 124.387 21.0067 124.584 21.508C124.782 22.004 125.056 22.444 125.408 22.828C125.766 23.2067 126.176 23.5053 126.64 23.724C127.104 23.9373 127.6 24.044 128.128 24.044C128.715 24.044 129.262 23.9133 129.768 23.652C130.28 23.3853 130.707 23.0333 131.048 22.596L132.528 23.404C132.027 24.1027 131.395 24.6627 130.632 25.084C129.87 25.5 129.035 25.708 128.128 25.708ZM141.285 20.484V25.5H139.621V20.892C139.621 20.5347 139.533 20.2093 139.357 19.916C139.186 19.6227 138.954 19.3907 138.661 19.22C138.373 19.044 138.048 18.956 137.685 18.956C137.333 18.956 137.01 19.044 136.717 19.22C136.424 19.3907 136.189 19.6227 136.013 19.916C135.837 20.2093 135.749 20.5347 135.749 20.892V25.5H134.085V13.5H135.749V18.348C136.026 18.0173 136.368 17.756 136.773 17.564C137.178 17.372 137.616 17.276 138.085 17.276C138.677 17.276 139.216 17.42 139.701 17.708C140.186 17.996 140.57 18.3827 140.853 18.868C141.141 19.3533 141.285 19.892 141.285 20.484ZM146.246 25.708C145.51 25.708 144.838 25.5187 144.23 25.14C143.627 24.7613 143.144 24.2547 142.782 23.62C142.424 22.98 142.246 22.2733 142.246 21.5C142.246 20.9133 142.35 20.3667 142.558 19.86C142.766 19.348 143.051 18.9 143.414 18.516C143.782 18.1267 144.208 17.8227 144.694 17.604C145.179 17.3853 145.696 17.276 146.246 17.276C146.859 17.276 147.422 17.404 147.934 17.66C148.446 17.9107 148.883 18.26 149.246 18.708C149.608 19.1507 149.875 19.6627 150.046 20.244C150.216 20.82 150.267 21.4333 150.198 22.084H144.03C144.099 22.452 144.232 22.7853 144.43 23.084C144.632 23.3773 144.888 23.6093 145.198 23.78C145.512 23.9507 145.862 24.0387 146.246 24.044C146.651 24.044 147.019 23.9427 147.35 23.74C147.686 23.5373 147.96 23.2573 148.174 22.9L149.862 23.292C149.542 24.0013 149.059 24.5827 148.414 25.036C147.768 25.484 147.046 25.708 146.246 25.708ZM143.974 20.812H148.518C148.464 20.428 148.328 20.0813 148.11 19.772C147.896 19.4573 147.627 19.2093 147.302 19.028C146.982 18.8413 146.63 18.748 146.246 18.748C145.867 18.748 145.515 18.8387 145.19 19.02C144.87 19.2013 144.603 19.4493 144.39 19.764C144.182 20.0733 144.043 20.4227 143.974 20.812ZM156.731 23.228L158.219 24.036C157.856 24.5427 157.395 24.948 156.835 25.252C156.28 25.556 155.678 25.708 155.027 25.708C154.291 25.708 153.619 25.5187 153.011 25.14C152.408 24.7613 151.926 24.2547 151.563 23.62C151.206 22.98 151.027 22.2733 151.027 21.5C151.027 20.9133 151.131 20.3667 151.339 19.86C151.547 19.348 151.832 18.9 152.195 18.516C152.563 18.1267 152.99 17.8227 153.475 17.604C153.96 17.3853 154.478 17.276 155.027 17.276C155.678 17.276 156.28 17.428 156.835 17.732C157.395 18.036 157.856 18.444 158.219 18.956L156.731 19.764C156.507 19.4973 156.246 19.2947 155.947 19.156C155.648 19.012 155.342 18.94 155.027 18.94C154.59 18.94 154.192 19.06 153.835 19.3C153.483 19.5347 153.203 19.8467 152.995 20.236C152.792 20.62 152.691 21.0413 152.691 21.5C152.691 21.9533 152.795 22.3747 153.003 22.764C153.211 23.148 153.491 23.4573 153.843 23.692C154.2 23.9267 154.595 24.044 155.027 24.044C155.358 24.044 155.672 23.9693 155.971 23.82C156.27 23.6707 156.523 23.4733 156.731 23.228ZM166.3 25.5H164.38L162.412 22.108L161.124 23.644V25.5H159.46V13.5H161.124V21.06L164.1 17.5H166.276L163.548 20.756L166.3 25.5ZM170.636 25.708C169.9 25.708 169.228 25.5187 168.62 25.14C168.018 24.7613 167.535 24.2547 167.172 23.62C166.815 22.98 166.636 22.2733 166.636 21.5C166.636 20.9133 166.74 20.3667 166.948 19.86C167.156 19.348 167.442 18.9 167.804 18.516C168.172 18.1267 168.599 17.8227 169.084 17.604C169.57 17.3853 170.087 17.276 170.636 17.276C171.25 17.276 171.812 17.404 172.324 17.66C172.836 17.9107 173.274 18.26 173.636 18.708C173.999 19.1507 174.266 19.6627 174.436 20.244C174.607 20.82 174.658 21.4333 174.588 22.084H168.42C168.49 22.452 168.623 22.7853 168.82 23.084C169.023 23.3773 169.279 23.6093 169.588 23.78C169.903 23.9507 170.252 24.0387 170.636 24.044C171.042 24.044 171.41 23.9427 171.74 23.74C172.076 23.5373 172.351 23.2573 172.564 22.9L174.252 23.292C173.932 24.0013 173.45 24.5827 172.804 25.036C172.159 25.484 171.436 25.708 170.636 25.708ZM168.364 20.812H172.908C172.855 20.428 172.719 20.0813 172.5 19.772C172.287 19.4573 172.018 19.2093 171.692 19.028C171.372 18.8413 171.02 18.748 170.636 18.748C170.258 18.748 169.906 18.8387 169.58 19.02C169.26 19.2013 168.994 19.4493 168.78 19.764C168.572 20.0733 168.434 20.4227 168.364 20.812ZM175.913 25.5V17.5H177.577V18.348C177.854 18.0173 178.196 17.756 178.601 17.564C179.006 17.372 179.444 17.276 179.913 17.276C180.212 17.276 180.508 17.316 180.801 17.396L180.137 19.076C179.929 18.996 179.721 18.956 179.513 18.956C179.161 18.956 178.838 19.044 178.545 19.22C178.252 19.3907 178.017 19.6227 177.841 19.916C177.665 20.2093 177.577 20.5347 177.577 20.892V25.5H175.913Z" fill="#212121"/>
<defs>
<linearGradient id="paint0_linear_14384_2015" x1="193" y1="36.5714" x2="141.482" y2="99.9418" gradientUnits="userSpaceOnUse">
<stop offset="0.06" stop-color="#FF8585"/>
<stop offset="0.45" stop-color="#56D5FF"/>
<stop offset="1" stop-color="#DCD536"/>
</linearGradient>
</defs>
</svg>
