<svg width="24" height="24" viewBox="0 0 24 24" fill="none" xmlns="http://www.w3.org/2000/svg">
    <path
        d="M21.9028 10.8184C21.8092 10.7182 21.6959 10.6383 21.5701 10.5837C21.4443 10.529 21.3087 10.5007 21.1715 10.5006H17.5845V8.77939C17.5833 8.54029 17.5067 8.30767 17.3655 8.11471L14.3385 4.00159C14.2831 3.93231 14.2522 3.8466 14.2509 3.7579V2.62924C14.2397 2.31971 14.1064 2.02719 13.8801 1.81568C13.6539 1.60416 13.353 1.49087 13.0435 1.50058H6.37585C6.06627 1.49087 5.76544 1.60416 5.53917 1.81568C5.31291 2.02719 5.17961 2.31971 5.16845 2.62924V3.7579C5.16952 3.83871 5.14362 3.91758 5.09485 3.98202C5.09485 3.98202 1.89493 8.34263 1.88705 8.35694C1.85832 8.41234 1.84095 8.47292 1.83595 8.53512L1.83594 20.6256C1.83652 21.1227 2.03425 21.5993 2.38576 21.9508C2.73726 22.3023 3.21384 22.5 3.71094 22.5006C3.71404 22.5018 20.4801 22.5006 20.4801 22.5006C20.7331 22.4998 20.9765 22.4034 21.1614 22.2308C21.3464 22.0581 21.4594 21.822 21.4777 21.5697L22.1691 11.5695C22.1783 11.4328 22.1594 11.2956 22.1136 11.1665C22.0679 11.0373 21.9961 10.9188 21.9028 10.8184ZM21.3542 11.33C21.3777 11.355 21.3958 11.3845 21.4072 11.4168C21.4186 11.4491 21.4231 11.4834 21.4205 11.5175L21.2963 13.3137C20.9926 13.2339 20.6736 13.2321 20.369 13.3086C20.0644 13.3851 19.784 13.5373 19.554 13.7511C19.3955 13.9063 19.189 14.0031 18.9683 14.0254C18.7477 14.0478 18.5259 13.9944 18.3396 13.8741L17.3816 13.2592C17.1342 13.0991 16.8498 13.0053 16.5557 12.9868C16.2615 12.9683 15.9676 13.0258 15.7021 13.1538L15.1328 13.4251L15.0009 11.5179C14.9986 11.4837 15.0034 11.4495 15.015 11.4172C15.0265 11.385 15.0445 11.3554 15.0678 11.3304C15.0912 11.3053 15.1194 11.2853 15.1508 11.2716C15.1822 11.2579 15.216 11.2507 15.2502 11.2506H21.1715C21.2058 11.2504 21.2398 11.2574 21.2712 11.2711C21.3027 11.2848 21.331 11.3048 21.3542 11.33ZM20.8521 19.7397H15.5696L15.1884 14.2289L16.0248 13.8305C16.1753 13.758 16.3418 13.7255 16.5085 13.736C16.6752 13.7465 16.8364 13.7998 16.9766 13.8906L17.9346 14.5054C18.2634 14.718 18.6547 14.8123 19.0443 14.7727C19.4338 14.7332 19.7983 14.5622 20.0776 14.2879C20.1833 14.1842 20.3112 14.106 20.4516 14.0591C20.5921 14.0123 20.7413 13.9981 20.8881 14.0177L21.2445 14.0634L20.8521 19.7397ZM8.46069 10.9474C8.02988 10.9478 7.61684 11.1191 7.31221 11.4238C7.00758 11.7284 6.83625 12.1414 6.83582 12.5722V17.2216C6.83316 17.4509 6.74024 17.6698 6.57721 17.831C6.41418 17.9921 6.19419 18.0825 5.96495 18.0825C5.73572 18.0825 5.51573 17.9921 5.3527 17.8309C5.18968 17.6698 5.09676 17.4508 5.09412 17.2216V16.0802C5.09379 15.7819 4.97516 15.4959 4.76425 15.285C4.55335 15.0741 4.26739 14.9555 3.96912 14.9552H2.58594V8.91012H11.8357V14.3224H10.4609C10.3615 14.3223 10.2662 14.2828 10.1958 14.2124C10.1255 14.1421 10.086 14.0468 10.0859 13.9474V12.5722C10.0854 12.1414 9.91401 11.7283 9.60932 11.4237C9.30463 11.1191 8.89154 10.9478 8.46069 10.9474ZM5.5874 4.5782H13.4598L11.961 8.16011H2.95141L5.5874 4.5782ZM14.113 4.9608L16.4677 8.16011H12.7743L14.113 4.9608ZM14.8153 19.7075C14.829 19.8009 14.9361 21.7177 14.9744 21.7506H13.0246L14.7471 19.7203C14.757 19.7136 14.7681 19.7091 14.7799 19.7069C14.7916 19.7047 14.8036 19.7049 14.8153 19.7075ZM15.2502 10.5006C15.1134 10.5016 14.9782 10.5304 14.8528 10.5854C14.7275 10.6404 14.6147 10.7203 14.5213 10.8204C14.4279 10.9204 14.3559 11.0385 14.3097 11.1673C14.2634 11.2961 14.2439 11.433 14.2523 11.5696L14.7635 18.9593C14.6515 18.9617 14.5412 18.9875 14.4398 19.0351C14.3384 19.0828 14.248 19.1511 14.1747 19.2358L12.5857 21.1087V8.91012H16.8345V10.5006H15.2502ZM5.91845 2.62924C5.93128 2.51937 5.98599 2.41869 6.07119 2.34815C6.15639 2.27761 6.26552 2.24266 6.37585 2.25058H13.0435C13.1538 2.24266 13.2629 2.27761 13.3481 2.34815C13.4333 2.41869 13.488 2.51937 13.5009 2.62924C13.5009 2.62924 13.5049 3.80471 13.5064 3.82821H5.91294C5.91438 3.80469 5.91845 2.62924 5.91845 2.62924ZM3.71094 21.7506C3.41267 21.7503 3.12671 21.6316 2.9158 21.4207C2.70489 21.2098 2.58626 20.9238 2.58594 20.6256V15.7052H3.96911C4.06855 15.7052 4.16389 15.7448 4.23421 15.8151C4.30452 15.8854 4.34405 15.9807 4.34411 16.0802V17.2216C4.34379 17.4347 4.38547 17.6457 4.46678 17.8427C4.5481 18.0396 4.66743 18.2186 4.81798 18.3694C4.96852 18.5201 5.14731 18.6397 5.34412 18.7213C5.54093 18.803 5.7519 18.845 5.96496 18.845C6.17802 18.845 6.38899 18.803 6.58581 18.7213C6.78262 18.6397 6.96141 18.5201 7.11195 18.3694C7.26249 18.2186 7.38183 18.0396 7.46314 17.8427C7.54445 17.6457 7.58614 17.4347 7.58581 17.2216V12.5722C7.58581 12.3401 7.67801 12.1176 7.84211 11.9535C8.00622 11.7894 8.22879 11.6972 8.46088 11.6972C8.69296 11.6972 8.91553 11.7894 9.07964 11.9535C9.24374 12.1176 9.33594 12.3401 9.33594 12.5722V13.9474C9.33626 14.2456 9.45489 14.5316 9.6658 14.7425C9.87671 14.9534 10.1627 15.072 10.4609 15.0724H11.8357V21.7506H3.71094ZM20.4801 21.7506H15.9416C15.8784 21.7504 15.8175 21.7263 15.7713 21.6831C15.7251 21.6399 15.697 21.5808 15.6926 21.5177L15.6215 20.4897H20.8002L20.7291 21.5177C20.7247 21.5808 20.6966 21.6399 20.6504 21.6831C20.6042 21.7263 20.5434 21.7504 20.4801 21.7506Z"
        fill="black" />
</svg>