<svg width="72" height="72" viewBox="0 0 72 72" fill="none" xmlns="http://www.w3.org/2000/svg">
    <rect width="72" height="72" rx="10" fill="#FFFEEE" />
    <g clip-path="url(#clip0_15246_3202)">
        <path
            d="M50.4843 24.4689H47.5311V21.5156C47.5311 19.5771 45.954 18 44.0155 18H21.5156C19.5771 18 18 19.5771 18 21.5156V44.0155C18 45.954 19.5771 47.5311 21.5156 47.5311H24.4688V50.4844C24.4688 52.4229 26.0459 54 27.9844 54H50.4843C52.4228 54 53.9999 52.4229 53.9999 50.4844V27.9844C54 26.0459 52.4229 24.4689 50.4843 24.4689ZM21.5156 46.1249C20.3525 46.1249 19.4062 45.1787 19.4062 44.0155V21.5156C19.4062 20.3525 20.3525 19.4062 21.5156 19.4062H44.0155C45.1786 19.4062 46.1249 20.3525 46.1249 21.5156V44.0155C46.1249 45.1786 45.1786 46.1249 44.0155 46.1249H21.5156ZM52.5937 50.4844C52.5937 51.6475 51.6474 52.5938 50.4843 52.5938H27.9844C26.8213 52.5938 25.875 51.6475 25.875 50.4844V47.5311H44.0155C45.954 47.5311 47.5311 45.954 47.5311 44.0155V25.8751H50.4843C51.6474 25.8751 52.5937 26.8214 52.5937 27.9845V50.4844Z"
            fill="black" />
        <path
            d="M28.0034 50.1328H27.9844C27.596 50.1328 27.2812 50.4476 27.2812 50.8359C27.2812 51.2243 27.596 51.5391 27.9844 51.5391H28.0034C28.3917 51.5391 28.7065 51.2243 28.7065 50.8359C28.7065 50.4476 28.3918 50.1328 28.0034 50.1328Z"
            fill="black" />
        <path
            d="M50.4875 50.1328H30.0234C29.6351 50.1328 29.3203 50.4476 29.3203 50.8359C29.3203 51.2243 29.6351 51.5391 30.0234 51.5391H50.4874C50.8757 51.5391 51.1905 51.2243 51.1905 50.8359C51.1905 50.4476 50.8757 50.1328 50.4875 50.1328Z"
            fill="black" />
        <path
            d="M25.7377 20.4609H25.7187C25.3304 20.4609 25.0156 20.7757 25.0156 21.1641C25.0156 21.5524 25.3304 21.8672 25.7187 21.8672H25.7377C26.1261 21.8672 26.4409 21.5524 26.4409 21.1641C26.4409 20.7757 26.1261 20.4609 25.7377 20.4609Z"
            fill="black" />
        <path
            d="M23.6978 20.4609H21.5156C21.1273 20.4609 20.8125 20.7757 20.8125 21.1641C20.8125 21.5524 21.1273 21.8672 21.5156 21.8672H23.6977C24.086 21.8672 24.4008 21.5524 24.4008 21.1641C24.4009 20.7757 24.0861 20.4609 23.6978 20.4609Z"
            fill="black" />
        <path
            d="M38.6357 32.1421C38.4686 31.5234 38.0706 31.0068 37.5162 30.6883L34.0767 28.7025C34.0421 28.6801 34.0073 28.6586 33.9723 28.6385L30.5416 26.6576C30.1487 26.3985 29.6919 26.2617 29.2189 26.2617C27.892 26.2617 26.8125 27.3412 26.8125 28.6681V36.8673C26.8125 36.8959 26.8143 36.9241 26.8176 36.9518C26.8314 37.3442 26.9422 37.7295 27.14 38.0712C27.5682 38.8106 28.3654 39.2699 29.2206 39.2699C29.6414 39.2699 30.0573 39.158 30.4221 38.9466L33.9723 36.8968C33.9924 36.8851 34.0118 36.8727 34.0303 36.8594L37.491 34.8615C37.8688 34.6505 38.1829 34.34 38.3997 33.963C38.719 33.4074 38.8028 32.7607 38.6357 32.1421ZM37.1806 33.2623C37.0903 33.4193 36.9597 33.5482 36.8031 33.6352C36.7996 33.6371 36.7961 33.6391 36.7927 33.6411L33.2677 35.676C33.2475 35.6876 33.2282 35.7001 33.2096 35.7134L29.7182 37.7293C29.5664 37.8172 29.3943 37.8637 29.2206 37.8637C28.8655 37.8637 28.5345 37.6733 28.3569 37.3666C28.2688 37.2144 28.2223 37.042 28.2225 36.868C28.2225 36.8441 28.2213 36.8202 28.2188 36.7966V28.6681H28.2189C28.2189 28.1166 28.6675 27.668 29.219 27.668C29.4195 27.668 29.6124 27.7267 29.777 27.8379C29.7907 27.8471 29.8047 27.8559 29.819 27.8642L33.2707 29.8571C33.288 29.8671 33.3046 29.8777 33.321 29.8886C33.3327 29.8962 33.3446 29.9036 33.3567 29.9106L36.8144 31.9069C37.0443 32.039 37.209 32.2527 37.2782 32.5088C37.3473 32.7649 37.3126 33.0325 37.1806 33.2623Z"
            fill="black" />
    </g>
    <defs>
        <clipPath id="clip0_15246_3202">
            <rect width="36" height="36" fill="white" transform="translate(18 18)" />
        </clipPath>
    </defs>
</svg>