<svg width="72" height="72" viewBox="0 0 72 72" fill="none" xmlns="http://www.w3.org/2000/svg">
    <rect width="72" height="72" rx="10" fill="#FFFEEE" />
    <g clip-path="url(#clip0_15140_1937)">
        <path
            d="M54 46.6065C54.0003 47.0587 53.9321 47.5083 53.7975 47.94L52.077 53.472C52.0296 53.6251 51.9344 53.7589 51.8054 53.8539C51.6763 53.9489 51.5203 54.0001 51.36 54C51.2848 54 51.21 53.9888 51.138 53.967C51.044 53.9378 50.9566 53.8903 50.8809 53.8273C50.8051 53.7642 50.7426 53.6869 50.6968 53.5997C50.6509 53.5125 50.6227 53.4172 50.6138 53.3191C50.6048 53.221 50.6153 53.1221 50.6445 53.028L52.365 47.4945C52.4908 47.0908 52.5294 46.665 52.4782 46.2453C52.427 45.8255 52.2872 45.4215 52.0681 45.0598C51.849 44.6982 51.5555 44.3872 51.2072 44.1476C50.8589 43.9079 50.4636 43.7449 50.0475 43.6695L44.013 42.5745C43.8401 42.5432 43.6836 42.4522 43.5709 42.3173C43.4583 42.1824 43.3965 42.0123 43.3965 41.8365V33.0885C43.3852 32.7601 43.2468 32.4489 43.0105 32.2206C42.7742 31.9922 42.4584 31.8646 42.1298 31.8646C41.8012 31.8646 41.4854 31.9922 41.2491 32.2206C41.0127 32.4489 40.8743 32.7601 40.863 33.0885V48.5565C40.863 48.7047 40.819 48.8496 40.7367 48.9729C40.6544 49.0961 40.5374 49.1922 40.4005 49.2491C40.2636 49.3059 40.1129 49.3208 39.9675 49.2921C39.8221 49.2633 39.6885 49.1921 39.5835 49.0875L36.7875 46.29C36.6623 46.1575 36.5118 46.0514 36.3449 45.978C36.178 45.9047 35.998 45.8656 35.8157 45.863C35.6334 45.8604 35.4525 45.8944 35.2835 45.9629C35.1146 46.0315 34.9611 46.1333 34.8322 46.2622C34.7033 46.3911 34.6015 46.5446 34.533 46.7135C34.4644 46.8824 34.4304 47.0634 34.433 47.2457C34.4356 47.428 34.4747 47.608 34.5481 47.7749C34.6214 47.9418 34.7275 48.0923 34.86 48.2175L39.36 52.7175C39.5008 52.8581 39.58 53.0489 39.5802 53.248C39.5803 53.447 39.5014 53.6379 39.3608 53.7788C39.2201 53.9196 39.0293 53.9988 38.8303 53.9989C38.6313 53.9991 38.4403 53.9201 38.2995 53.7795L33.7995 49.2795C33.5336 49.0136 33.3226 48.6979 33.1787 48.3504C33.0348 48.003 32.9607 47.6306 32.9607 47.2545C32.9607 46.8784 33.0348 46.506 33.1787 46.1586C33.3226 45.8111 33.5336 45.4954 33.7995 45.2295C34.0654 44.9636 34.3811 44.7526 34.7286 44.6087C35.076 44.4648 35.4484 44.3907 35.8245 44.3907C36.2006 44.3907 36.573 44.4648 36.9204 44.6087C37.2679 44.7526 37.5836 44.9636 37.8495 45.2295L39.3645 46.7445V33.0945C39.3813 32.3719 39.6802 31.6845 40.1973 31.1794C40.7143 30.6742 41.4084 30.3914 42.1313 30.3914C42.8541 30.3914 43.5482 30.6742 44.0653 31.1794C44.5823 31.6845 44.8812 32.3719 44.898 33.0945V41.217L50.3175 42.1995C51.3499 42.3873 52.2838 42.9311 52.9567 43.7363C53.6295 44.5415 53.9987 45.5572 54 46.6065ZM31.2135 45C31.0649 44.9996 30.9224 44.9404 30.8173 44.8353C30.7121 44.7301 30.6529 44.5877 30.6525 44.439V42.339C30.6581 41.9136 30.5327 41.4967 30.2933 41.145C30.054 40.7932 29.7123 40.5235 29.3145 40.3725C29.0625 40.281 28.8165 40.1775 28.5735 40.0635C28.1898 39.8899 27.762 39.8387 27.3481 39.9168C26.9343 39.9949 26.5546 40.1985 26.2605 40.5L24.7605 42C24.6549 42.1033 24.513 42.1611 24.3653 42.1611C24.2175 42.1611 24.0757 42.1033 23.97 42L22.5 40.5315C22.4479 40.4795 22.4066 40.4178 22.3785 40.3499C22.3503 40.2819 22.3358 40.2091 22.3358 40.1355C22.3358 40.0619 22.3503 39.9891 22.3785 39.9211C22.4066 39.8532 22.4479 39.7915 22.5 39.7395L24 38.2395C24.3017 37.945 24.5056 37.5649 24.5842 37.1507C24.6628 36.7364 24.6123 36.3081 24.4395 35.9235C24.3247 35.6828 24.2221 35.4365 24.132 35.1855C23.9805 34.7877 23.7106 34.4461 23.3586 34.2068C23.0066 33.9675 22.5896 33.8421 22.164 33.8475H20.064C19.9901 33.8477 19.917 33.8333 19.8486 33.8053C19.7803 33.7772 19.7182 33.7359 19.6658 33.6838C19.6135 33.6317 19.5719 33.5698 19.5434 33.5016C19.515 33.4335 19.5002 33.3604 19.5 33.2865V31.2135C19.5004 31.0648 19.5596 30.9224 19.6648 30.8172C19.7699 30.7121 19.9123 30.6529 20.061 30.6525H22.161C22.5864 30.6581 23.0033 30.5327 23.3551 30.2933C23.7068 30.054 23.9765 29.7123 24.1275 29.3145C24.219 29.0625 24.3225 28.8165 24.4365 28.5735C24.6097 28.1897 24.6606 27.762 24.5826 27.3483C24.5045 26.9345 24.3011 26.5548 24 26.2605L22.5 24.7605C22.4479 24.7085 22.4066 24.6468 22.3785 24.5789C22.3503 24.5109 22.3358 24.4381 22.3358 24.3645C22.3358 24.2909 22.3503 24.2181 22.3785 24.1501C22.4066 24.0822 22.4479 24.0205 22.5 23.9685L23.9685 22.5C24.0204 22.4478 24.0821 22.4063 24.15 22.378C24.218 22.3497 24.2909 22.3351 24.3645 22.3351C24.4381 22.3351 24.511 22.3497 24.579 22.378C24.647 22.4063 24.7086 22.4478 24.7605 22.5L26.2605 24C26.5551 24.3016 26.9353 24.5054 27.3495 24.5837C27.7638 24.6621 28.1921 24.6112 28.5765 24.438C28.8165 24.3255 29.0625 24.222 29.3145 24.138C29.7123 23.9865 30.0539 23.7165 30.2932 23.3646C30.5325 23.0126 30.6579 22.5956 30.6525 22.17V20.07C30.6515 19.9956 30.6653 19.9218 30.693 19.8528C30.7208 19.7838 30.7619 19.7209 30.8141 19.6679C30.8662 19.6149 30.9284 19.5728 30.997 19.544C31.0655 19.5151 31.1391 19.5002 31.2135 19.5H33.2865C33.4352 19.5004 33.5776 19.5596 33.6828 19.6648C33.7879 19.7699 33.8471 19.9123 33.8475 20.061V22.161C33.842 22.5864 33.9674 23.0033 34.2067 23.3551C34.446 23.7068 34.7878 23.9765 35.1855 24.1275C35.4375 24.219 35.6835 24.3225 35.9265 24.4365C36.3103 24.6099 36.738 24.661 37.1518 24.5829C37.5656 24.5048 37.9453 24.3013 38.2395 24L39.7395 22.5C39.7914 22.4478 39.8531 22.4063 39.921 22.378C39.989 22.3497 40.0619 22.3351 40.1355 22.3351C40.2091 22.3351 40.282 22.3497 40.35 22.378C40.418 22.4063 40.4797 22.4478 40.5315 22.5L42 23.9685C42.0521 24.0205 42.0934 24.0822 42.1216 24.1501C42.1498 24.2181 42.1643 24.2909 42.1643 24.3645C42.1643 24.4381 42.1498 24.5109 42.1216 24.5789C42.0934 24.6468 42.0521 24.7085 42 24.7605L40.5 26.2605C40.1984 26.5544 39.9945 26.934 39.9159 27.3478C39.8373 27.7615 39.8877 28.1894 40.0605 28.5735C40.0963 28.6715 40.1521 28.761 40.2243 28.8362C40.2966 28.9115 40.3838 28.9708 40.4803 29.0104C40.5768 29.05 40.6806 29.0691 40.7848 29.0663C40.8891 29.0636 40.9917 29.0391 41.086 28.9945C41.1803 28.9498 41.2643 28.886 41.3325 28.8071C41.4007 28.7282 41.4517 28.6359 41.4823 28.5361C41.5128 28.4364 41.5222 28.3313 41.5099 28.2277C41.4975 28.1242 41.4637 28.0243 41.4105 27.9345C41.3712 27.829 41.3645 27.7141 41.3913 27.6047C41.418 27.4953 41.477 27.3965 41.5605 27.321L43.0605 25.821C43.4459 25.4339 43.6622 24.9099 43.6622 24.3637C43.6622 23.8176 43.4459 23.2936 43.0605 22.9065L41.5935 21.4395C41.2013 21.0641 40.6792 20.8545 40.1363 20.8545C39.5933 20.8545 39.0713 21.0641 38.679 21.4395L37.179 22.9395C37.1041 23.023 37.0058 23.0819 36.8969 23.1087C36.788 23.1354 36.6736 23.1287 36.5685 23.0895C36.2835 22.9545 35.994 22.8345 35.6955 22.725C35.5883 22.6784 35.4976 22.6005 35.4355 22.5014C35.3734 22.4024 35.3427 22.2868 35.3475 22.17V20.07C35.3485 19.7986 35.2959 19.5298 35.1928 19.2788C35.0897 19.0278 34.9381 18.7996 34.7466 18.6073C34.5552 18.415 34.3276 18.2624 34.0771 18.1581C33.8265 18.0539 33.5579 18.0002 33.2865 18H31.2135C30.667 18.0004 30.143 18.2177 29.7566 18.6041C29.3702 18.9905 29.1529 19.5145 29.1525 20.061V22.161C29.1572 22.278 29.1265 22.3937 29.0644 22.493C29.0024 22.5923 28.9118 22.6705 28.8045 22.7175C28.5045 22.8255 28.2165 22.9455 27.9345 23.0805C27.829 23.12 27.7141 23.1268 27.6047 23.1C27.4952 23.0733 27.3964 23.0142 27.321 22.9305L25.821 21.4305C25.4288 21.0551 24.9067 20.8455 24.3638 20.8455C23.8208 20.8455 23.2988 21.0551 22.9065 21.4305L21.4395 22.8975C21.0542 23.2846 20.8378 23.8085 20.8378 24.3547C20.8378 24.9009 21.0542 25.4249 21.4395 25.812L22.9395 27.312C23.0228 27.387 23.0816 27.4853 23.1084 27.5942C23.1351 27.703 23.1285 27.8174 23.0895 27.9225C22.9545 28.2075 22.8345 28.497 22.725 28.7955C22.6785 28.9028 22.6005 28.9934 22.5015 29.0555C22.4024 29.1177 22.2868 29.1483 22.17 29.1435H20.07C19.7979 29.1425 19.5283 29.1954 19.2767 29.2991C19.0251 29.4027 18.7965 29.5552 18.6041 29.7476C18.4117 29.94 18.2592 30.1686 18.1556 30.4202C18.0519 30.6718 17.999 30.9414 18 31.2135V33.2865C18.0004 33.833 18.2177 34.357 18.6041 34.7434C18.9905 35.1298 19.5145 35.3471 20.061 35.3475H22.161C22.278 35.3428 22.3937 35.3735 22.493 35.4356C22.5923 35.4977 22.6705 35.5882 22.7175 35.6955C22.8255 35.9955 22.9455 36.2835 23.0805 36.5655C23.1198 36.671 23.1265 36.7859 23.0997 36.8953C23.073 37.0047 23.014 37.1035 22.9305 37.179L21.4305 38.679C21.0452 39.0661 20.8288 39.59 20.8288 40.1362C20.8288 40.6824 21.0452 41.2064 21.4305 41.5935L22.8975 43.059C23.2898 43.4344 23.8118 43.644 24.3548 43.644C24.8977 43.644 25.4198 43.4344 25.812 43.059L27.312 41.559C27.3869 41.4755 27.4852 41.4166 27.5941 41.3898C27.703 41.3631 27.8175 41.3698 27.9225 41.409C28.2075 41.544 28.497 41.664 28.7955 41.7735C28.9028 41.8201 28.9934 41.898 29.0556 41.9971C29.1177 42.0961 29.1483 42.2117 29.1435 42.3285V44.4285C29.1423 44.7007 29.195 44.9705 29.2986 45.2223C29.4022 45.4741 29.5546 45.7028 29.7471 45.8954C29.9395 46.088 30.1682 46.2405 30.4198 46.3443C30.6715 46.4481 30.9413 46.501 31.2135 46.5C31.4124 46.5 31.6032 46.421 31.7438 46.2803C31.8845 46.1397 31.9635 45.9489 31.9635 45.75C31.9635 45.5511 31.8845 45.3603 31.7438 45.2197C31.6032 45.079 31.4124 45 31.2135 45ZM32.25 36.522C31.4051 36.522 30.5791 36.2715 29.8766 35.802C29.1741 35.3326 28.6265 34.6654 28.3032 33.8848C27.9799 33.1042 27.8953 32.2453 28.0601 31.4166C28.2249 30.5879 28.6318 29.8267 29.2293 29.2292C29.8267 28.6318 30.5879 28.2249 31.4166 28.0601C32.2453 27.8952 33.1042 27.9798 33.8848 28.3032C34.6654 28.6265 35.3326 29.1741 35.8021 29.8766C36.2715 30.5791 36.522 31.4051 36.522 32.25C36.5204 33.3825 36.0698 34.4682 35.269 35.269C34.4682 36.0698 33.3825 36.5204 32.25 36.522ZM35.022 32.25C35.022 31.7017 34.8594 31.1658 34.5549 30.71C34.2503 30.2541 33.8173 29.8988 33.3108 29.689C32.8043 29.4792 32.2469 29.4243 31.7092 29.5313C31.1715 29.6382 30.6776 29.9022 30.2899 30.2899C29.9022 30.6776 29.6382 31.1715 29.5313 31.7092C29.4243 32.2469 29.4792 32.8043 29.689 33.3108C29.8988 33.8173 30.2541 34.2502 30.71 34.5548C31.1658 34.8594 31.7018 35.022 32.25 35.022C32.985 35.0212 33.6896 34.7289 34.2092 34.2092C34.7289 33.6895 35.0212 32.9849 35.022 32.25Z"
            fill="black" />
    </g>
    <defs>
        <clipPath id="clip0_15140_1937">
            <rect width="36" height="36" fill="white" transform="translate(18 18)" />
        </clipPath>
    </defs>
</svg>