<svg width="72" height="72" viewBox="0 0 72 72" fill="none" xmlns="http://www.w3.org/2000/svg">
<rect width="72" height="72" rx="10" fill="#FFFEEE"/>
<path d="M31.1977 34.7961C30.8784 34.7961 30.5722 34.6693 30.3465 34.4435C30.1207 34.2178 29.9939 33.9116 29.9939 33.5923V29.9923C29.9777 29.8253 29.9966 29.6566 30.0495 29.4973C30.1023 29.3379 30.1879 29.1914 30.3007 29.0671C30.4135 28.9428 30.5511 28.8434 30.7046 28.7755C30.8581 28.7075 31.0242 28.6724 31.192 28.6724C31.3599 28.6724 31.5259 28.7075 31.6794 28.7755C31.8329 28.8434 31.9705 28.9428 32.0834 29.0671C32.1962 29.1914 32.2818 29.3379 32.3346 29.4973C32.3874 29.6566 32.4064 29.8253 32.3902 29.9923V33.5923C32.3902 33.9097 32.2649 34.2141 32.0416 34.4396C31.8183 34.665 31.515 34.7931 31.1977 34.7961Z" fill="black"/>
<path d="M36.0006 34.7962C35.6814 34.7962 35.3752 34.6693 35.1494 34.4436C34.9237 34.2178 34.7969 33.9117 34.7969 33.5924V28.7999C34.8258 28.5022 34.9645 28.2259 35.186 28.0248C35.4075 27.8238 35.6959 27.7124 35.995 27.7124C36.2941 27.7124 36.5825 27.8238 36.804 28.0248C37.0255 28.2259 37.1642 28.5022 37.1931 28.7999V33.6037C37.1902 33.919 37.0636 34.2206 36.8406 34.4436C36.6176 34.6667 36.316 34.7932 36.0006 34.7962Z" fill="black"/>
<path d="M40.8031 34.7965C40.4839 34.7965 40.1777 34.6696 39.9519 34.4439C39.7262 34.2182 39.5994 33.912 39.5994 33.5927V26.404C39.5832 26.2369 39.6021 26.0682 39.6549 25.9089C39.7078 25.7495 39.7933 25.603 39.9062 25.4787C40.019 25.3544 40.1566 25.2551 40.3101 25.1871C40.4636 25.1191 40.6296 25.084 40.7975 25.084C40.9654 25.084 41.1314 25.1191 41.2849 25.1871C41.4384 25.2551 41.576 25.3544 41.6888 25.4787C41.8017 25.603 41.8872 25.7495 41.9401 25.9089C41.9929 26.0682 42.0118 26.2369 41.9956 26.404V33.604C41.9927 33.9193 41.8661 34.2209 41.6431 34.444C41.4201 34.667 41.1185 34.7935 40.8031 34.7965Z" fill="black"/>
<path d="M45.5978 54H26.4053C25.1313 54 23.9094 53.4939 23.0086 52.593C22.1077 51.6921 21.6016 50.4703 21.6016 49.1962V27.45C21.6002 26.5696 21.7931 25.6998 22.1664 24.9025C22.5398 24.1052 23.0845 23.4001 23.7616 22.8375L27.9016 19.395C28.9788 18.4973 30.3356 18.0039 31.7378 18H45.5978C46.8719 18 48.0937 18.5061 48.9946 19.407C49.8955 20.3079 50.4016 21.5297 50.4016 22.8038V49.1962C50.4016 50.4703 49.8955 51.6921 48.9946 52.593C48.0937 53.4939 46.8719 54 45.5978 54ZM31.7378 20.3963C30.9149 20.4092 30.121 20.703 29.4878 21.2287L25.2916 24.6825C24.8856 25.0202 24.5591 25.4433 24.3355 25.9217C24.1119 26.4001 23.9966 26.9219 23.9978 27.45V49.1962C24.0008 49.8309 24.2542 50.4386 24.7029 50.8874C25.1517 51.3361 25.7595 51.5895 26.3941 51.5925H45.5978C46.2324 51.5895 46.8402 51.3361 47.289 50.8874C47.7377 50.4386 47.9911 49.8309 47.9941 49.1962V22.8038C47.9911 22.1691 47.7377 21.5614 47.289 21.1126C46.8402 20.6639 46.2324 20.4105 45.5978 20.4075L31.7378 20.3963Z" fill="black"/>
<path d="M43.2005 46.7998H28.8005C28.6334 46.816 28.4647 46.7971 28.3054 46.7443C28.146 46.6914 27.9995 46.6059 27.8752 46.493C27.7509 46.3802 27.6515 46.2426 27.5836 46.0891C27.5156 45.9356 27.4805 45.7696 27.4805 45.6017C27.4805 45.4338 27.5156 45.2678 27.5836 45.1143C27.6515 44.9608 27.7509 44.8232 27.8752 44.7104C27.9995 44.5975 28.146 44.512 28.3054 44.4591C28.4647 44.4063 28.6334 44.3874 28.8005 44.4036H43.2005C43.3675 44.3874 43.5362 44.4063 43.6955 44.4591C43.8549 44.512 44.0014 44.5975 44.1257 44.7104C44.25 44.8232 44.3494 44.9608 44.4173 45.1143C44.4853 45.2678 44.5204 45.4338 44.5204 45.6017C44.5204 45.7696 44.4853 45.9356 44.4173 46.0891C44.3494 46.2426 44.25 46.3802 44.1257 46.493C44.0014 46.6059 43.8549 46.6914 43.6955 46.7443C43.5362 46.7971 43.3675 46.816 43.2005 46.7998Z" fill="black"/>
<path d="M43.1985 40.8037H28.7985C28.5007 40.7748 28.2244 40.6361 28.0234 40.4146C27.8223 40.1932 27.7109 39.9047 27.7109 39.6056C27.7109 39.3065 27.8223 39.0181 28.0234 38.7966C28.2244 38.5751 28.5007 38.4364 28.7985 38.4075H43.1985C43.3655 38.3913 43.5342 38.4102 43.6935 38.463C43.8529 38.5159 43.9994 38.6014 44.1237 38.7143C44.248 38.8271 44.3474 38.9647 44.4153 39.1182C44.4833 39.2717 44.5184 39.4377 44.5184 39.6056C44.5184 39.7735 44.4833 39.9395 44.4153 40.093C44.3474 40.2465 44.248 40.3841 44.1237 40.4969C43.9994 40.6098 43.8529 40.6954 43.6935 40.7482C43.5342 40.801 43.3655 40.8199 43.1985 40.8037Z" fill="black"/>
</svg>
