<svg width="72" height="72" viewBox="0 0 72 72" fill="none" xmlns="http://www.w3.org/2000/svg">
<rect width="72" height="72" rx="10" fill="#FFFEEE"/>
<path d="M44.6613 21.3717H39.2373C38.6227 19.9789 37.2437 19.0801 35.7213 19.0801C34.1986 19.0801 32.8195 19.9789 32.2049 21.3717H26.7807C24.7346 21.374 23.0766 23.0323 23.0742 25.0784V49.1234C23.0766 51.1695 24.7346 52.8278 26.7807 52.8301H44.6613C46.7074 52.8278 48.3657 51.1695 48.368 49.1234V25.0784C48.3657 23.0323 46.7074 21.374 44.6613 21.3717ZM32.8153 23.0592C33.2114 23.0592 33.5541 22.7836 33.6393 22.3963C33.8465 21.4529 34.7222 20.7676 35.7213 20.7676C36.7203 20.7676 37.5957 21.4529 37.8029 22.3963C37.8879 22.7836 38.2306 23.0592 38.6272 23.0592H40.3002V23.7995C40.2989 24.9141 39.3958 25.8172 38.2813 25.8185H33.161C32.0462 25.8172 31.1431 24.9141 31.1418 23.7995V23.0592H32.8153ZM46.6805 49.1234C46.6795 50.2382 45.7761 51.1416 44.6613 51.1426H26.7807C25.6661 51.1416 24.763 50.2382 24.7617 49.1234V25.0784C24.763 23.9636 25.6661 23.0605 26.7807 23.0592H29.4543V23.7995C29.4567 25.8456 31.1149 27.5036 33.161 27.506H38.2813C40.3273 27.5036 41.9853 25.8456 41.9877 23.7995V23.0592H44.6613C45.7761 23.0605 46.6792 23.9636 46.6805 25.0784V49.1234Z" fill="black"/>
<path d="M39.8947 34.6698L34.3555 40.0782L31.5426 37.3326C31.2117 37.0088 30.6817 37.0128 30.355 37.3408C30.0286 37.669 30.0273 38.199 30.3524 38.5286L30.3637 38.5397L33.7656 41.8614C34.0936 42.1815 34.617 42.1815 34.9448 41.8614L41.0733 35.8777C41.4047 35.5518 41.41 35.0194 41.0857 34.6869C40.7608 34.3544 40.2288 34.347 39.8947 34.6703V34.6698Z" fill="black"/>
</svg>
