<svg width="72" height="72" viewBox="0 0 72 72" fill="none" xmlns="http://www.w3.org/2000/svg">
<rect width="72" height="72" rx="10" fill="#FFFEEE"/>
<path d="M41.8613 39.7798H37.8499L38.6856 37.0027C38.9412 36.1723 38.8609 35.2748 38.4618 34.503C38.0627 33.7313 37.3767 33.1469 36.5513 32.8755C36.3143 32.7974 36.0636 32.7691 35.8151 32.7923C35.5666 32.8155 35.3256 32.8898 35.1071 33.0105C34.8887 33.1312 34.6975 33.2957 34.5456 33.4937C34.3936 33.6917 34.2842 33.919 34.2242 34.1613L34.0956 34.7013C33.6107 36.6471 32.6064 38.4247 31.1899 39.8441L30.457 40.5641C30.2708 40.3295 30.0344 40.1396 29.7652 40.0084C29.496 39.8771 29.2008 39.8078 28.9013 39.8055H27.9627C27.4352 39.8055 26.9289 40.0133 26.5535 40.3839C26.1781 40.7545 25.9638 41.2581 25.957 41.7855V50.0655C25.957 50.5975 26.1683 51.1077 26.5445 51.4838C26.9206 51.8599 27.4308 52.0713 27.9627 52.0713H28.9013C29.2466 52.0705 29.5857 51.98 29.8855 51.8087C30.1852 51.6374 30.4353 51.3912 30.6113 51.0941L30.7913 51.1841C31.9534 51.7644 33.2339 52.068 34.5327 52.0713H39.1485C39.9115 52.075 40.6635 51.8889 41.3368 51.5298C42.0101 51.1707 42.5836 50.6499 43.0056 50.0141C43.9039 48.671 44.3827 47.0913 44.3813 45.4755V42.2741C44.3813 41.9444 44.316 41.6179 44.189 41.3136C44.0621 41.0093 43.876 40.7332 43.6417 40.5012C43.4073 40.2693 43.1293 40.0861 42.8237 39.9623C42.5181 39.8384 42.191 39.7764 41.8613 39.7798ZM29.5699 50.0655C29.5699 50.2565 29.494 50.4396 29.359 50.5747C29.224 50.7097 29.0408 50.7855 28.8499 50.7855H27.9627C27.7718 50.7855 27.5887 50.7097 27.4536 50.5747C27.3186 50.4396 27.2427 50.2565 27.2427 50.0655V41.7855C27.2427 41.5946 27.3186 41.4115 27.4536 41.2764C27.5887 41.1414 27.7718 41.0655 27.9627 41.0655H28.9013C29.0832 41.0786 29.2534 41.1601 29.3775 41.2938C29.5016 41.4274 29.5704 41.6032 29.5699 41.7855V50.0655ZM43.0699 45.4755C43.0752 46.8476 42.6725 48.1902 41.9127 49.3327C41.6088 49.7871 41.1976 50.1597 40.7155 50.4176C40.2334 50.6755 39.6952 50.8107 39.1485 50.8113H34.5327C33.435 50.8102 32.3525 50.5549 31.3699 50.0655L30.8556 49.8084V41.9141L32.0385 40.7313C33.6211 39.1489 34.7452 37.1672 35.2913 34.997L35.4199 34.4698C35.4581 34.3288 35.5505 34.2086 35.677 34.1355C35.7419 34.1072 35.812 34.0926 35.8827 34.0926C35.9535 34.0926 36.0236 34.1072 36.0885 34.1355C36.3418 34.2198 36.5761 34.3532 36.7779 34.5281C36.9797 34.7029 37.145 34.9159 37.2644 35.1547C37.3838 35.3935 37.455 35.6536 37.4738 35.9199C37.4927 36.1863 37.4588 36.4537 37.3742 36.707L36.2942 40.3198C36.2662 40.4156 36.261 40.5166 36.2788 40.6148C36.2967 40.713 36.3372 40.8057 36.397 40.8855C36.4554 40.9669 36.5328 41.0329 36.6224 41.0777C36.712 41.1225 36.8112 41.1448 36.9113 41.1427H41.7842C41.9429 41.1427 42.1 41.1739 42.2467 41.2347C42.3933 41.2954 42.5265 41.3844 42.6388 41.4967C42.751 41.6089 42.84 41.7421 42.9007 41.8888C42.9615 42.0354 42.9927 42.1925 42.9927 42.3513L43.0699 45.4755Z" fill="black"/>
<path d="M32.1411 27.3856L31.7297 29.7642C31.6802 30.0274 31.7072 30.2993 31.8074 30.5477C31.9077 30.796 32.077 31.0105 32.2954 31.1656C32.5371 31.3458 32.8296 31.4448 33.1311 31.4484C33.3638 31.4448 33.5926 31.3876 33.7997 31.2813L35.9982 30.1499L38.1454 31.2813C38.3815 31.406 38.648 31.4613 38.9142 31.4408C39.1804 31.4203 39.4354 31.3249 39.6497 31.1656C39.8658 31.0115 40.0337 30.7991 40.1338 30.5533C40.234 30.3075 40.2623 30.0383 40.2154 29.777L39.8554 27.3856L41.5397 25.7142C41.7342 25.5302 41.8725 25.2948 41.9385 25.0353C42.0045 24.7759 41.9955 24.503 41.9125 24.2484C41.8294 23.9942 41.6772 23.7681 41.4728 23.5955C41.2684 23.4229 41.02 23.3106 40.7554 23.2713L38.3511 22.9242L37.284 20.7256C37.1639 20.4876 36.9801 20.2876 36.7531 20.1478C36.5261 20.0081 36.2648 19.9341 35.9982 19.9341C35.7317 19.9341 35.4703 20.0081 35.2433 20.1478C35.0163 20.2876 34.8326 20.4876 34.7125 20.7256L33.6454 22.8984L31.2411 23.2456C30.9765 23.2849 30.7281 23.3972 30.5237 23.5698C30.3193 23.7423 30.167 23.9685 30.084 24.2227C29.9957 24.4808 29.9839 24.7589 30.05 25.0235C30.1162 25.2882 30.2575 25.528 30.4568 25.7142L32.1411 27.3856ZM31.3697 24.5184L34.1082 24.1199C34.2319 24.1279 34.3553 24.0992 34.4628 24.0375C34.5702 23.9757 34.6571 23.8836 34.7125 23.7727L35.9982 21.2913C36.0095 21.2667 36.0276 21.2458 36.0504 21.2312C36.0732 21.2166 36.0997 21.2088 36.1268 21.2088C36.1539 21.2088 36.1804 21.2166 36.2032 21.2312C36.226 21.2458 36.2441 21.2667 36.2554 21.2913L37.5411 23.7727C37.5873 23.8666 37.6562 23.9475 37.7415 24.0081C37.8268 24.0687 37.9258 24.1071 38.0297 24.1199L40.7682 24.5184C40.7949 24.5239 40.8196 24.5363 40.8399 24.5543C40.8603 24.5724 40.8754 24.5955 40.884 24.6213C40.8964 24.6428 40.9029 24.6672 40.9029 24.692C40.9029 24.7168 40.8964 24.7412 40.884 24.7627L38.904 26.6913C38.8291 26.7661 38.7727 26.8574 38.7392 26.9578C38.7057 27.0582 38.6961 27.1651 38.7111 27.2699L39.1868 29.9827C39.1955 30.0101 39.1938 30.0397 39.1819 30.0658C39.17 30.092 39.1489 30.1128 39.1225 30.1242C39.1003 30.1409 39.0732 30.1499 39.0454 30.1499C39.0176 30.1499 38.9905 30.1409 38.9682 30.1242L36.5254 28.8385C36.4351 28.7878 36.3332 28.7611 36.2297 28.7611C36.1261 28.7611 36.0243 28.7878 35.934 28.8385L33.4782 30.1242C33.458 30.1398 33.4331 30.1483 33.4075 30.1483C33.3819 30.1483 33.3571 30.1398 33.3368 30.1242C33.3105 30.1128 33.2893 30.092 33.2774 30.0658C33.2655 30.0397 33.2638 30.0101 33.2725 29.9827L33.7482 27.2699C33.7632 27.1651 33.7536 27.0582 33.7201 26.9578C33.6867 26.8574 33.6303 26.7661 33.5554 26.6913L31.5754 24.7627C31.563 24.7412 31.5564 24.7168 31.5564 24.692C31.5564 24.6672 31.563 24.6428 31.5754 24.6213C31.542 24.6232 31.5089 24.6142 31.4811 24.5956C31.4532 24.5771 31.4322 24.55 31.4211 24.5184H31.3697Z" fill="black"/>
<path d="M27.4365 35.0357C27.6281 35.0392 27.8179 34.9999 27.9923 34.9206C28.1666 34.8413 28.3211 34.724 28.4443 34.5774C28.5675 34.4307 28.6565 34.2584 28.7045 34.073C28.7526 33.8876 28.7587 33.6938 28.7223 33.5057L28.3751 31.5514L29.8151 30.15C29.9965 29.9835 30.1263 29.7684 30.1891 29.5303C30.2518 29.2922 30.2448 29.041 30.169 28.8068C30.0932 28.5725 29.9517 28.3649 29.7613 28.2087C29.5709 28.0525 29.3397 27.9543 29.0951 27.9257L27.128 27.6428L26.2408 25.8557C26.1225 25.6501 25.952 25.4793 25.7466 25.3605C25.5412 25.2417 25.3081 25.1792 25.0708 25.1792C24.8336 25.1792 24.6005 25.2417 24.3951 25.3605C24.1897 25.4793 24.0192 25.6501 23.9008 25.8557L23.0137 27.6428L21.0465 27.9257C20.802 27.9543 20.5707 28.0525 20.3804 28.2087C20.19 28.3649 20.0485 28.5725 19.9726 28.8068C19.8968 29.041 19.8898 29.2922 19.9526 29.5303C20.0153 29.7684 20.1451 29.9835 20.3265 30.15L21.7537 31.5514L21.4065 33.5057C21.362 33.748 21.388 33.998 21.4815 34.2259C21.5749 34.4538 21.7319 34.6501 21.9337 34.7914C22.1308 34.9355 22.3648 35.0205 22.6085 35.0364C22.8521 35.0523 23.0952 34.9986 23.3094 34.8814L25.0708 33.9557L26.8323 34.8814C27.018 34.9817 27.2255 35.0346 27.4365 35.0357ZM25.0708 32.5928C24.9672 32.5922 24.8652 32.6188 24.7751 32.67L22.6794 33.7243L23.1423 31.4357C23.1494 31.3257 23.1297 31.2155 23.085 31.1147C23.0402 31.014 22.9716 30.9256 22.8851 30.8571L21.2265 29.1986L23.5408 28.8643C23.6431 28.8518 23.7406 28.8133 23.8238 28.7526C23.9071 28.6918 23.9734 28.6108 24.0165 28.5171L25.0837 26.4214L26.1251 28.5171C26.1682 28.6108 26.2346 28.6918 26.3178 28.7526C26.4011 28.8133 26.4985 28.8518 26.6008 28.8643L28.9151 29.2371L27.2565 30.8571C27.1817 30.932 27.1252 31.0232 27.0918 31.1236C27.0583 31.2241 27.0487 31.3309 27.0637 31.4357L27.4365 33.75L25.3665 32.67C25.2764 32.6188 25.1745 32.5922 25.0708 32.5928Z" fill="black"/>
<path d="M52.0049 28.8128C51.9314 28.5802 51.7933 28.3732 51.6066 28.2161C51.4199 28.059 51.1924 27.9583 50.9506 27.9257L48.9834 27.6428L48.0963 25.8557C47.9779 25.6501 47.8074 25.4793 47.602 25.3605C47.3966 25.2417 47.1636 25.1792 46.9263 25.1792C46.689 25.1792 46.456 25.2417 46.2505 25.3605C46.0451 25.4793 45.8747 25.6501 45.7563 25.8557L44.8692 27.6428L42.902 27.9257C42.6574 27.9543 42.4262 28.0525 42.2358 28.2087C42.0455 28.3649 41.9039 28.5725 41.8281 28.8068C41.7523 29.041 41.7453 29.2922 41.8081 29.5303C41.8708 29.7684 42.0006 29.9835 42.182 30.15L43.6092 31.5514L43.262 33.5057C43.2175 33.748 43.2435 33.998 43.3369 34.2259C43.4304 34.4538 43.5873 34.6501 43.7892 34.7914C43.9863 34.9355 44.2203 35.0205 44.4639 35.0364C44.7075 35.0523 44.9507 34.9986 45.1649 34.8814L46.9263 33.9557L48.6877 34.8814C48.8734 34.9817 49.081 35.0346 49.292 35.0357C49.4835 35.0392 49.6734 34.9999 49.8478 34.9206C50.0221 34.8413 50.1766 34.724 50.2998 34.5774C50.423 34.4307 50.5119 34.2584 50.56 34.073C50.6081 33.8876 50.6142 33.6938 50.5777 33.5057L50.2306 31.5514L51.6577 30.15C51.8368 29.9832 51.9646 29.7689 52.0261 29.532C52.0876 29.2951 52.0803 29.0457 52.0049 28.8128ZM49.112 30.8571C49.0371 30.932 48.9807 31.0232 48.9472 31.1236C48.9138 31.2241 48.9041 31.3309 48.9192 31.4357L49.292 33.75L47.222 32.67C47.1317 32.6193 47.0299 32.5927 46.9263 32.5927C46.8227 32.5927 46.7209 32.6193 46.6306 32.67L44.5349 33.7243L44.9977 31.4357C45.0049 31.3257 44.9852 31.2155 44.9404 31.1147C44.8956 31.014 44.8271 30.9256 44.7406 30.8571L43.082 29.1986L45.3963 28.8643C45.4986 28.8518 45.596 28.8133 45.6793 28.7526C45.7626 28.6918 45.8289 28.6108 45.872 28.5171L46.9392 26.4214L47.9806 28.5171C48.0237 28.6108 48.09 28.6918 48.1733 28.7526C48.2566 28.8133 48.354 28.8518 48.4563 28.8643L50.7706 29.2371L49.112 30.8571Z" fill="black"/>
</svg>
