<svg width="72" height="72" viewBox="0 0 72 72" fill="none" xmlns="http://www.w3.org/2000/svg">
<rect width="72" height="72" rx="10" fill="#FFFEEE"/>
<path d="M21.375 30.375C21.6734 30.375 21.9595 30.2565 22.1705 30.0455C22.3815 29.8345 22.5 29.5484 22.5 29.25V23.625C22.5 23.3266 22.6185 23.0405 22.8295 22.8295C23.0405 22.6185 23.3266 22.5 23.625 22.5H29.8125C30.1109 22.5 30.397 22.3815 30.608 22.1705C30.819 21.9595 30.9375 21.6734 30.9375 21.375C30.9375 21.0766 30.819 20.7905 30.608 20.5795C30.397 20.3685 30.1109 20.25 29.8125 20.25H23.625C22.7299 20.25 21.8714 20.6056 21.2385 21.2385C20.6056 21.8714 20.25 22.7299 20.25 23.625V29.25C20.25 29.5484 20.3685 29.8345 20.5795 30.0455C20.7905 30.2565 21.0766 30.375 21.375 30.375Z" fill="black"/>
<path d="M48.375 20.25H42.1875C41.8891 20.25 41.603 20.3685 41.392 20.5795C41.181 20.7905 41.0625 21.0766 41.0625 21.375C41.0625 21.6734 41.181 21.9595 41.392 22.1705C41.603 22.3815 41.8891 22.5 42.1875 22.5H48.375C48.6734 22.5 48.9595 22.6185 49.1705 22.8295C49.3815 23.0405 49.5 23.3266 49.5 23.625V29.25C49.5 29.5484 49.6185 29.8345 49.8295 30.0455C50.0405 30.2565 50.3266 30.375 50.625 30.375C50.9234 30.375 51.2095 30.2565 51.4205 30.0455C51.6315 29.8345 51.75 29.5484 51.75 29.25V23.625C51.75 22.7299 51.3944 21.8714 50.7615 21.2385C50.1286 20.6056 49.2701 20.25 48.375 20.25Z" fill="black"/>
<path d="M50.625 41.625C50.3266 41.625 50.0405 41.7435 49.8295 41.9545C49.6185 42.1655 49.5 42.4516 49.5 42.75V48.375C49.5 48.6734 49.3815 48.9595 49.1705 49.1705C48.9595 49.3815 48.6734 49.5 48.375 49.5H42.1875C41.8891 49.5 41.603 49.6185 41.392 49.8295C41.181 50.0405 41.0625 50.3266 41.0625 50.625C41.0625 50.9234 41.181 51.2095 41.392 51.4205C41.603 51.6315 41.8891 51.75 42.1875 51.75H48.375C49.2701 51.75 50.1286 51.3944 50.7615 50.7615C51.3944 50.1286 51.75 49.2701 51.75 48.375V42.75C51.75 42.4516 51.6315 42.1655 51.4205 41.9545C51.2095 41.7435 50.9234 41.625 50.625 41.625Z" fill="black"/>
<path d="M29.8125 49.5H23.625C23.3266 49.5 23.0405 49.3815 22.8295 49.1705C22.6185 48.9595 22.5 48.6734 22.5 48.375V42.75C22.5 42.4516 22.3815 42.1655 22.1705 41.9545C21.9595 41.7435 21.6734 41.625 21.375 41.625C21.0766 41.625 20.7905 41.7435 20.5795 41.9545C20.3685 42.1655 20.25 42.4516 20.25 42.75V48.375C20.25 49.2701 20.6056 50.1286 21.2385 50.7615C21.8714 51.3944 22.7299 51.75 23.625 51.75H29.8125C30.1109 51.75 30.397 51.6315 30.608 51.4205C30.819 51.2095 30.9375 50.9234 30.9375 50.625C30.9375 50.3266 30.819 50.0405 30.608 49.8295C30.397 49.6185 30.1109 49.5 29.8125 49.5Z" fill="black"/>
<path d="M50.625 34.875H21.375C21.0766 34.875 20.7905 34.9935 20.5795 35.2045C20.3685 35.4155 20.25 35.7016 20.25 36C20.25 36.2984 20.3685 36.5845 20.5795 36.7955C20.7905 37.0065 21.0766 37.125 21.375 37.125H50.625C50.9234 37.125 51.2095 37.0065 51.4205 36.7955C51.6315 36.5845 51.75 36.2984 51.75 36C51.75 35.7016 51.6315 35.4155 51.4205 35.2045C51.2095 34.9935 50.9234 34.875 50.625 34.875Z" fill="black"/>
</svg>
