<svg width="24" height="24" viewBox="0 0 24 24" fill="none" xmlns="http://www.w3.org/2000/svg">
    <g clip-path="url(#clip0_15494_2411)">
        <path
            d="M14.7482 18.705L18.5599 22.5168C19.6187 23.5756 21.454 23.5756 22.5129 22.5168C23.6423 21.458 23.6423 19.6227 22.5129 18.5638L18.7011 14.7521C19.407 13.4109 19.8305 11.858 19.8305 10.2344C19.8305 9.95207 19.8305 9.66971 19.7599 9.45795L22.3717 6.84619C22.654 6.56383 22.654 6.1403 22.3717 5.85795C22.0893 5.5756 21.6658 5.5756 21.3835 5.85795L19.4776 7.76383C19.054 6.1403 18.207 4.72854 17.007 3.52854C13.2658 -0.212638 7.26581 -0.212638 3.52463 3.52854C-0.216544 7.26972 -0.216544 13.2697 3.52463 17.0109C6.63051 20.1168 11.2187 20.6109 14.7482 18.705ZM21.454 19.5521C22.0187 20.1168 22.0187 20.9638 21.454 21.5285C20.8893 22.0932 20.0423 22.0932 19.4776 21.5285L15.8776 17.9285C16.2305 17.6462 16.5835 17.3638 16.9364 17.0109C17.2893 16.658 17.5717 16.305 17.854 15.9521L21.454 19.5521ZM4.51287 4.51677C7.68934 1.3403 12.8423 1.3403 16.0188 4.51677C17.2188 5.71677 17.9952 7.26972 18.2776 8.96383L16.8658 10.3756L14.5364 8.04619C14.254 7.76383 13.8305 7.76383 13.5482 8.04619L9.87757 11.7168L8.25404 10.0932C7.97169 9.81089 7.54816 9.81089 7.26581 10.0932L4.44228 12.9168C4.15993 13.1991 4.15993 13.6227 4.44228 13.905C4.72463 14.1874 5.14816 14.1874 5.43051 13.905L7.75993 11.5756C8.81875 12.4227 9.59522 13.9756 10.3717 13.1991L14.0423 9.52854L16.3717 11.858C16.654 12.1403 17.0776 12.1403 17.3599 11.858L18.3482 10.8697C18.207 12.8462 17.3599 14.6109 16.0188 16.0227C12.8423 19.1991 7.68934 19.1991 4.51287 16.0227C1.3364 12.8462 1.3364 7.69324 4.51287 4.51677Z"
            fill="black" />
    </g>
    <defs>
        <clipPath id="clip0_15494_2411">
            <rect width="24" height="24" fill="white" />
        </clipPath>
    </defs>
</svg>