<svg width="76" height="64" viewBox="0 0 76 64" fill="none" xmlns="http://www.w3.org/2000/svg">
<g filter="url(#filter0_d_15337_2077)">
<path fill-rule="evenodd" clip-rule="evenodd" d="M25 15C20.5817 15 17 18.5817 17 23V32.5885C17 37.0067 20.5817 40.5885 25 40.5885H31.6016L38.0011 44.6569L44.4005 40.5885H51C55.4183 40.5885 59 37.0067 59 32.5884V23C59 18.5817 55.4183 15 51 15H25Z" fill="white"/>
<path d="M31.6016 40.5885L31.8698 40.1665L31.747 40.0885H31.6016V40.5885ZM38.0011 44.6569L37.7328 45.0788L38.0011 45.2493L38.2693 45.0788L38.0011 44.6569ZM44.4005 40.5885V40.0885H44.2551L44.1323 40.1665L44.4005 40.5885ZM17.5 23C17.5 18.8579 20.8579 15.5 25 15.5V14.5C20.3056 14.5 16.5 18.3056 16.5 23H17.5ZM17.5 32.5885V23H16.5V32.5885H17.5ZM25 40.0885C20.8579 40.0885 17.5 36.7306 17.5 32.5885H16.5C16.5 37.2829 20.3056 41.0885 25 41.0885V40.0885ZM31.6016 40.0885H25V41.0885H31.6016V40.0885ZM38.2693 44.2349L31.8698 40.1665L31.3333 41.0104L37.7328 45.0788L38.2693 44.2349ZM44.1323 40.1665L37.7328 44.2349L38.2693 45.0788L44.6688 41.0104L44.1323 40.1665ZM51 40.0885H44.4005V41.0885H51V40.0885ZM58.5 32.5884C58.5 36.7306 55.1421 40.0885 51 40.0885V41.0885C55.6944 41.0885 59.5 37.2829 59.5 32.5884H58.5ZM58.5 23V32.5884H59.5V23H58.5ZM51 15.5C55.1421 15.5 58.5 18.8579 58.5 23H59.5C59.5 18.3056 55.6944 14.5 51 14.5V15.5ZM25 15.5H51V14.5H25V15.5Z" fill="black"/>
<path d="M31.6016 40.5885L31.8698 40.1665L31.747 40.0885H31.6016V40.5885ZM38.0011 44.6569L37.7328 45.0788L38.0011 45.2493L38.2693 45.0788L38.0011 44.6569ZM44.4005 40.5885V40.0885H44.2551L44.1323 40.1665L44.4005 40.5885ZM17.5 23C17.5 18.8579 20.8579 15.5 25 15.5V14.5C20.3056 14.5 16.5 18.3056 16.5 23H17.5ZM17.5 32.5885V23H16.5V32.5885H17.5ZM25 40.0885C20.8579 40.0885 17.5 36.7306 17.5 32.5885H16.5C16.5 37.2829 20.3056 41.0885 25 41.0885V40.0885ZM31.6016 40.0885H25V41.0885H31.6016V40.0885ZM38.2693 44.2349L31.8698 40.1665L31.3333 41.0104L37.7328 45.0788L38.2693 44.2349ZM44.1323 40.1665L37.7328 44.2349L38.2693 45.0788L44.6688 41.0104L44.1323 40.1665ZM51 40.0885H44.4005V41.0885H51V40.0885ZM58.5 32.5884C58.5 36.7306 55.1421 40.0885 51 40.0885V41.0885C55.6944 41.0885 59.5 37.2829 59.5 32.5884H58.5ZM58.5 23V32.5884H59.5V23H58.5ZM51 15.5C55.1421 15.5 58.5 18.8579 58.5 23H59.5C59.5 18.3056 55.6944 14.5 51 14.5V15.5ZM25 15.5H51V14.5H25V15.5Z" fill="url(#paint0_linear_15337_2077)"/>
</g>
<defs>
<filter id="filter0_d_15337_2077" x="0.5" y="0.5" width="75" height="62.7495" filterUnits="userSpaceOnUse" color-interpolation-filters="sRGB">
<feFlood flood-opacity="0" result="BackgroundImageFix"/>
<feColorMatrix in="SourceAlpha" type="matrix" values="0 0 0 0 0 0 0 0 0 0 0 0 0 0 0 0 0 0 127 0" result="hardAlpha"/>
<feOffset dy="2"/>
<feGaussianBlur stdDeviation="8"/>
<feColorMatrix type="matrix" values="0 0 0 0 0.293333 0 0 0 0 0.333211 0 0 0 0 0.431373 0 0 0 0.2 0"/>
<feBlend mode="normal" in2="BackgroundImageFix" result="effect1_dropShadow_15337_2077"/>
<feBlend mode="normal" in="SourceGraphic" in2="effect1_dropShadow_15337_2077" result="shape"/>
</filter>
<linearGradient id="paint0_linear_15337_2077" x1="59" y1="42.1148" x2="34.0747" y2="51.1139" gradientUnits="userSpaceOnUse">
<stop offset="0.06" stop-color="#FF8585"/>
<stop offset="0.45" stop-color="#56D5FF"/>
<stop offset="1" stop-color="#DCD536"/>
</linearGradient>
</defs>
</svg>
