<svg width="72" height="72" viewBox="0 0 72 72" fill="none" xmlns="http://www.w3.org/2000/svg">
    <rect width="72" height="72" rx="10" fill="#FFFEEE" />
    <g clip-path="url(#clip0_15246_3304)">
        <path
            d="M32.6232 43.0314C32.1573 43.0314 31.7794 42.6535 31.7794 42.1876V40.8446C31.7794 39.8915 32.287 38.9951 33.1043 38.5039L34.3667 37.7469C35.2489 37.2174 35.7971 36.2494 35.7971 35.22V34.9552C35.7971 33.2051 34.3733 31.7812 32.6232 31.7812C30.873 31.7812 29.4492 33.2051 29.4492 34.9552C29.4492 35.4211 29.0713 35.799 28.6055 35.799C28.1396 35.799 27.7617 35.4211 27.7617 34.9552C27.7617 32.2746 29.9425 30.0938 32.6232 30.0938C35.3038 30.0938 37.4846 32.2746 37.4846 34.9552V35.22C37.4846 36.8389 36.6228 38.3616 35.2346 39.1938L33.9728 39.9508C33.6609 40.1381 33.4669 40.4809 33.4669 40.8445V42.1875C33.4669 42.6534 33.089 43.0314 32.6232 43.0314Z"
            fill="black" />
        <path
            d="M19.125 53.7188C18.9487 53.7188 18.7723 53.6633 18.6235 53.5534C18.334 53.3392 18.2121 52.9651 18.3203 52.6218L20.4516 45.8438C19.0305 43.5641 18.2812 40.9472 18.2812 38.25C18.2812 30.3409 24.7159 23.9062 32.625 23.9062C40.5341 23.9062 46.9688 30.3409 46.9688 38.25C46.9688 46.1591 40.5341 52.5938 32.625 52.5938C29.7345 52.5938 26.9682 51.7494 24.5869 50.1454L19.6029 53.5704C19.459 53.6692 19.2919 53.7188 19.125 53.7188ZM24.5924 48.274C24.7681 48.274 24.9434 48.3289 25.0922 48.4377C27.2895 50.0526 29.8944 50.9062 32.625 50.9062C39.6035 50.9062 45.2812 45.2285 45.2812 38.25C45.2812 31.2715 39.6035 25.5938 32.625 25.5938C25.6465 25.5938 19.9688 31.2715 19.9688 38.25C19.9688 40.7505 20.6982 43.1724 22.0781 45.2538C22.2188 45.4659 22.2561 45.7306 22.1797 45.9734L20.6641 50.7936L24.1144 48.4222C24.2583 48.3234 24.4254 48.274 24.5924 48.274Z"
            fill="black" />
        <path
            d="M52.8749 48.0938C52.7079 48.0938 52.5414 48.0444 52.397 47.9455L47.942 44.8853C47.558 44.6216 47.4608 44.0964 47.7244 43.7119C47.9887 43.3285 48.5138 43.2307 48.8978 43.4943L51.3362 45.1692L49.82 40.3484C49.7437 40.1056 49.781 39.8407 49.9216 39.6288C51.3016 37.5474 52.031 35.1255 52.031 32.625C52.031 25.6465 46.3533 19.9688 39.3748 19.9688C36.8529 19.9688 34.4205 20.7054 32.3408 22.0985C31.9525 22.3578 31.4295 22.254 31.1703 21.8672C30.9109 21.48 31.0142 20.9558 31.4016 20.6966C33.7598 19.1162 36.5174 18.2812 39.3749 18.2812C47.284 18.2812 53.7186 24.7159 53.7186 32.625C53.7186 35.3222 52.9694 37.9391 51.5483 40.2188L53.6796 46.9968C53.7878 47.3401 53.6659 47.7142 53.3764 47.9284C53.2276 48.0383 53.0512 48.0938 52.8749 48.0938Z"
            fill="black" />
        <path
            d="M32.625 46.4062C33.091 46.4062 33.4688 46.0285 33.4688 45.5625C33.4688 45.0965 33.091 44.7188 32.625 44.7188C32.159 44.7188 31.7812 45.0965 31.7812 45.5625C31.7812 46.0285 32.159 46.4062 32.625 46.4062Z"
            fill="black" />
    </g>
    <defs>
        <clipPath id="clip0_15246_3304">
            <rect width="36" height="36" fill="white" transform="translate(18 18)" />
        </clipPath>
    </defs>
</svg>