<svg width="24" height="24" viewBox="0 0 24 24" fill="none" xmlns="http://www.w3.org/2000/svg">
<g clip-path="url(#clip0_15494_2483)">
<path d="M10.7885 5.82276C10.6969 5.77004 10.5927 5.74219 10.487 5.74219C10.2718 5.74219 10.0713 5.85793 9.96317 6.04504C9.79718 6.33345 9.89658 6.70342 10.1854 6.87027C10.277 6.92299 10.3813 6.95085 10.4869 6.95085C10.7021 6.95085 10.9027 6.8351 11.0107 6.64799C11.1767 6.35964 11.0773 5.98962 10.7885 5.82276Z" fill="#212121"/>
<path d="M6.33863 9.87988C6.23302 9.87988 6.12879 9.90774 6.03601 9.96115C5.74783 10.1279 5.64884 10.4981 5.81494 10.7857C5.92245 10.9725 6.12309 11.0885 6.33869 11.0886C6.44431 11.0886 6.5486 11.0607 6.64091 11.0076C6.78066 10.9269 6.88057 10.7967 6.92242 10.6408C6.96426 10.4848 6.94279 10.3218 6.86204 10.182C6.75436 9.99563 6.55383 9.87988 6.33863 9.87988Z" fill="#212121"/>
<path d="M7.86214 15.5342C7.5289 15.5342 7.25781 15.8053 7.25781 16.1385C7.25781 16.4717 7.52896 16.7428 7.86214 16.7428C8.19539 16.7428 8.46647 16.4717 8.46647 16.1385C8.46647 15.8053 8.19539 15.5342 7.86214 15.5342Z" fill="#212121"/>
<path d="M13.8136 17.1314C13.7216 17.078 13.6168 17.0498 13.5105 17.0498C13.2959 17.0498 13.0956 17.1651 12.9867 17.3527C12.8207 17.641 12.9201 18.011 13.2073 18.177C13.2993 18.2303 13.4041 18.2585 13.5104 18.2585C13.7252 18.2585 13.9256 18.143 14.0342 17.9556C14.1147 17.8158 14.136 17.653 14.0941 17.4973C14.0522 17.3412 13.9519 17.211 13.8136 17.1314Z" fill="#212121"/>
<path d="M17.6594 12.9102C17.5537 12.9102 17.4495 12.938 17.3571 12.9911C17.2172 13.0719 17.1171 13.2025 17.0755 13.3586C17.0337 13.5147 17.0554 13.6777 17.1356 13.816C17.2431 14.0027 17.4438 14.1188 17.6594 14.1188C17.765 14.1188 17.8693 14.091 17.9616 14.0378C18.1016 13.957 18.2016 13.8265 18.2432 13.6704C18.2849 13.5143 18.2632 13.3513 18.183 13.213C18.0755 13.0262 17.8749 12.9102 17.6594 12.9102Z" fill="#212121"/>
<path d="M23.9988 11.8907L23.998 11.8428C23.9944 11.539 23.755 11.2904 23.4516 11.2751C22.5955 11.2319 21.8397 10.7203 21.4792 9.94024C21.4075 9.78519 21.2707 9.66996 21.1057 9.6257C20.9407 9.58144 20.7647 9.61281 20.625 9.71129C20.239 9.98352 19.7658 10.1335 19.2928 10.1335C18.892 10.1335 18.4952 10.0268 18.1454 9.82485C17.3708 9.37764 16.9228 8.51236 17.0041 7.62054C17.0196 7.45041 16.9587 7.28217 16.8379 7.16142C16.7171 7.04061 16.5483 6.98001 16.3788 6.99514C16.31 7.00142 16.24 7.00458 16.1708 7.00458C15.3494 7.00458 14.5845 6.56359 14.1746 5.85371C13.7274 5.07913 13.772 4.10582 14.2883 3.374C14.3868 3.23443 14.4182 3.05831 14.374 2.8933C14.3297 2.72829 14.2145 2.59142 14.0595 2.51977C13.2797 2.15936 12.7683 1.40394 12.7249 0.548271C12.7095 0.245012 12.4611 0.00587063 12.1575 0.00195688L12.1105 0.00120866C12.0738 0.000575552 12.037 0 12 0C5.3832 0 0 5.3832 0 12C0 18.6169 5.3832 24.0001 12 24.0001C18.6169 24.0001 24 18.6169 24 12C24 11.9635 23.9994 11.9271 23.9988 11.8907ZM12 22.8489C6.01791 22.8489 1.1511 17.9821 1.1511 12C1.1511 6.13584 5.82792 1.34345 11.6476 1.15674C11.8293 2.00643 12.3246 2.75367 13.035 3.25279C12.571 4.25972 12.6125 5.45019 13.1778 6.42926C13.7402 7.40338 14.7478 8.03994 15.858 8.14141C15.9593 9.24578 16.5906 10.2563 17.5699 10.8218C18.0944 11.1246 18.6902 11.2847 19.2928 11.2846C19.8005 11.2846 20.2938 11.1754 20.7466 10.9655C21.2459 11.6759 21.9933 12.1711 22.8431 12.3527C22.6565 18.1723 17.8642 22.8489 12 22.8489Z" fill="#212121"/>
</g>
<defs>
<clipPath id="clip0_15494_2483">
<rect width="24" height="24" fill="white"/>
</clipPath>
</defs>
</svg>
