<svg width="24" height="24" viewBox="0 0 24 24" fill="none" xmlns="http://www.w3.org/2000/svg">
<path d="M14.2258 5.85458C14.9946 5.23352 15.1687 4.56961 15.1793 4.122C15.2052 3.03304 14.3453 2.23617 14.2471 2.14894C14.004 1.93269 13.6316 1.95448 13.4153 2.19765C13.199 2.44082 13.2208 2.8132 13.464 3.02949C13.4695 3.03441 14.0143 3.5441 14.0012 4.09407C13.9943 4.38707 13.8255 4.66309 13.4853 4.9379C12.7165 5.55895 12.5424 6.22286 12.5318 6.67048C12.5059 7.75943 13.3659 8.55631 13.464 8.64358C13.5765 8.74366 13.717 8.79295 13.8569 8.79295C14.0192 8.79295 14.1808 8.72655 14.297 8.59588C14.5132 8.35272 14.4926 7.98135 14.2494 7.7651C14.0948 7.62447 13.6964 7.15795 13.71 6.694C13.7185 6.40263 13.8873 6.12802 14.2258 5.85458Z" fill="#1D4ED8"/>
<path d="M10.4758 5.85458C11.2446 5.23352 11.4187 4.56961 11.4293 4.122C11.4552 3.03304 10.5953 2.23617 10.4971 2.14894C10.254 1.93269 9.88155 1.95448 9.66526 2.19765C9.44901 2.44082 9.47081 2.8132 9.71397 3.02949C9.71948 3.03441 10.2643 3.5441 10.2512 4.09407C10.2443 4.38707 10.0755 4.66309 9.7353 4.9379C8.96647 5.55895 8.79241 6.22286 8.78182 6.67048C8.75596 7.75943 9.61585 8.55631 9.71397 8.64358C9.82651 8.74366 9.96698 8.79295 10.1069 8.79295C10.2692 8.79295 10.4308 8.72655 10.547 8.59588C10.7632 8.35272 10.7426 7.98135 10.4994 7.7651C10.3448 7.62447 9.94644 7.15795 9.95999 6.694C9.96855 6.40263 10.1373 6.12802 10.4758 5.85458Z" fill="#1D4ED8"/>
<path d="M18.9139 11.6151H18.2166V11.183C18.2166 10.8576 17.9528 10.5938 17.6273 10.5938H2.58922C2.26383 10.5938 2 10.8575 2 11.183V14.2927C2 17.0405 3.52091 19.4566 5.80428 20.8215H2.58957C2.26418 20.8215 2.00035 21.0853 2.00035 21.4108C2.00035 21.7362 2.2641 22 2.58957 22H17.6274C17.9528 22 18.2166 21.7362 18.2166 21.4108C18.2166 21.0853 17.9528 20.8215 17.6274 20.8215H14.4123C15.7108 20.0454 16.7626 18.9294 17.4284 17.6055H18.9139C20.5655 17.6055 21.9092 16.2619 21.9092 14.6103C21.9092 12.9587 20.5655 11.6151 18.9139 11.6151ZM17.0382 14.2927C17.0381 17.8927 13.9294 20.8215 10.1083 20.8215C6.28717 20.8215 3.17844 17.8927 3.17844 14.2927V11.7722H17.0381V14.2927H17.0382ZM18.9139 16.4271H17.9C18.1059 15.749 18.2166 15.0329 18.2166 14.2927V12.7934H18.9139C19.9157 12.7934 20.7308 13.6085 20.7308 14.6103C20.7308 15.6121 19.9157 16.4271 18.9139 16.4271Z" fill="#1D4ED8"/>
<path d="M6.74144 5.85458C7.51027 5.23352 7.68433 4.56961 7.69492 4.122C7.72078 3.03304 6.86089 2.23617 6.76273 2.14894C6.5196 1.93269 6.14718 1.95448 5.93089 2.19765C5.71464 2.44078 5.73643 2.8132 5.9796 3.02949C5.98511 3.03441 6.52987 3.5441 6.51683 4.09407C6.50987 4.38707 6.34112 4.66309 6.00093 4.9379C5.23209 5.55896 5.05803 6.22287 5.04744 6.67048C5.02162 7.7594 5.88151 8.55627 5.97964 8.64354C6.0919 8.74338 6.23171 8.79249 6.37101 8.79249C6.53339 8.79249 6.69507 8.72573 6.81152 8.59483C7.02777 8.35166 7.00597 7.97928 6.7628 7.76299C6.7573 7.75807 6.21253 7.24838 6.22558 6.69841C6.23245 6.4054 6.4012 6.12935 6.74144 5.85458Z" fill="#1D4ED8"/>
</svg>
