<svg width="24" height="24" viewBox="0 0 24 24" fill="none" xmlns="http://www.w3.org/2000/svg">
    <path
        d="M11.9997 14.6488C10.4659 14.6488 9.22266 13.4053 9.22266 11.8717V5.17694C9.22266 3.64334 10.4659 2.3999 11.9997 2.3999C13.5335 2.3999 14.7767 3.64334 14.7767 5.17694V11.8717C14.7767 13.4056 13.5335 14.6488 11.9997 14.6488Z"
        fill="#4183F3" />
    <path d="M10.9062 17.8682H13.0874V21.5999H10.9062V17.8682Z" fill="#35A551" />
    <path
        d="M16.7752 11.8633C16.7752 14.5018 14.6368 16.6657 11.998 16.6657C10.7768 16.6657 9.66301 16.202 8.81845 15.4424L7.28125 16.9796C8.52133 18.1234 10.178 18.8226 11.9982 18.8226C15.8416 18.8226 18.9575 15.7071 18.9575 11.8633H16.7752Z"
        fill="#E64236" />
    <path
        d="M7.22114 11.8633H5.03906C5.03906 13.8867 5.90282 15.7081 7.28138 16.9798L8.81858 15.4426C7.83842 14.5609 7.22114 13.2807 7.22114 11.8633Z"
        fill="#F7B809" />
</svg>