<svg width="72" height="72" viewBox="0 0 72 72" fill="none" xmlns="http://www.w3.org/2000/svg">
<rect width="72" height="72" rx="10" fill="#FFFEEE"/>
<path d="M50.2933 48.7048L44.5318 42.9433C46.7159 40.3492 47.8138 37.0118 47.5963 33.6277C47.3788 30.2436 45.8627 27.0742 43.3645 24.7811C40.8662 22.488 37.5788 21.2483 34.1885 21.3209C30.7982 21.3934 27.5669 22.7726 25.169 25.1704C22.7711 27.5683 21.392 30.7996 21.3194 34.19C21.2469 37.5803 22.4865 40.8677 24.7796 43.3659C27.0727 45.8642 30.2421 47.3803 33.6262 47.5978C37.0104 47.8153 40.3477 46.7174 42.9418 44.5333L48.7033 50.2948C48.9166 50.4935 49.1986 50.6017 49.4901 50.5965C49.7815 50.5914 50.0596 50.4733 50.2657 50.2672C50.4719 50.0611 50.5899 49.783 50.5951 49.4915C50.6002 49.2001 50.492 48.918 50.2933 48.7048ZM23.6233 34.4998C23.6233 32.3489 24.2611 30.2463 25.4561 28.4579C26.651 26.6696 28.3495 25.2757 30.3366 24.4526C32.3238 23.6295 34.5104 23.4141 36.6199 23.8337C38.7295 24.2533 40.6672 25.2891 42.1881 26.81C43.709 28.3309 44.7447 30.2686 45.1643 32.3782C45.584 34.4877 45.3686 36.6743 44.5455 38.6614C43.7224 40.6486 42.3285 42.347 40.5401 43.542C38.7517 44.737 36.6492 45.3748 34.4983 45.3748C31.615 45.3716 28.8508 44.2248 26.812 42.186C24.7733 40.1473 23.6265 37.383 23.6233 34.4998ZM38.9983 31.1248H29.9983C29.6999 31.1248 29.4138 31.2433 29.2028 31.4543C28.9918 31.6652 28.8733 31.9514 28.8733 32.2498C28.8733 32.5481 28.9918 32.8343 29.2028 33.0453C29.4138 33.2562 29.6999 33.3748 29.9983 33.3748H38.9983C39.2967 33.3748 39.5828 33.2562 39.7938 33.0453C40.0048 32.8343 40.1233 32.5481 40.1233 32.2498C40.1233 31.9514 40.0048 31.6652 39.7938 31.4543C39.5828 31.2433 39.2967 31.1248 38.9983 31.1248ZM35.9983 35.6248H29.9983C29.6999 35.6248 29.4138 35.7433 29.2028 35.9543C28.9918 36.1652 28.8733 36.4514 28.8733 36.7498C28.8733 37.0481 28.9918 37.3343 29.2028 37.5453C29.4138 37.7562 29.6999 37.8748 29.9983 37.8748H35.9983C36.2967 37.8748 36.5828 37.7562 36.7938 37.5453C37.0048 37.3343 37.1233 37.0481 37.1233 36.7498C37.1233 36.4514 37.0048 36.1652 36.7938 35.9543C36.5828 35.7433 36.2967 35.6248 35.9983 35.6248Z" fill="black"/>
</svg>
