<svg width="24" height="24" viewBox="0 0 24 24" fill="none" xmlns="http://www.w3.org/2000/svg">
<path d="M4.26906 7.43004C3.87906 7.04004 3.87906 6.40004 4.26906 6.02004L6.01906 4.27004C6.40906 3.88004 7.03906 3.88004 7.42906 4.27004L9.35906 6.20004L6.19906 9.36004L4.26906 7.43004Z" fill="#F2F2F2"/>
<path d="M16.5692 19.7202L6.19922 9.3602L9.35922 6.2002L19.7292 16.5702C20.1192 16.9602 20.1192 17.6002 19.7292 17.9902L17.9792 19.7402C17.5992 20.1202 16.9492 20.1302 16.5692 19.7402V19.7202Z" fill="#333333"/>
<path d="M16.2092 20.0799L3.91923 7.77992C3.32923 7.18992 3.33923 6.23992 3.91923 5.65992L5.66923 3.90992C6.23923 3.33992 7.21923 3.33992 7.78923 3.90992L20.0892 16.1999C20.6692 16.7799 20.6692 17.7399 20.0892 18.3199L18.3392 20.0699C17.7592 20.6599 16.8092 20.6599 16.2192 20.0699L16.2092 20.0799ZM6.36923 4.61992L4.61923 6.36992C4.42923 6.55992 4.41923 6.87992 4.61923 7.07992L16.9192 19.3799C17.1092 19.5699 17.4392 19.5699 17.6292 19.3799L19.3792 17.6299C19.5792 17.4299 19.5792 17.1199 19.3792 16.9199L7.07923 4.61992C6.87923 4.41992 6.56923 4.42992 6.36923 4.61992Z" fill="black"/>
<path d="M5.84922 9.70994C5.64922 9.50994 5.64922 9.19994 5.84922 8.99994L9.00922 5.83994C9.20922 5.63994 9.51922 5.63994 9.71922 5.83994C9.91922 6.03994 9.91922 6.34994 9.71922 6.54994L6.55922 9.70994C6.35922 9.90994 6.04922 9.90994 5.84922 9.70994Z" fill="black"/>
<path d="M13 5.49023H11C10.72 5.49023 10.5 5.27023 10.5 4.99023C10.5 4.71023 10.72 4.49023 11 4.49023H13C13.28 4.49023 13.5 4.71023 13.5 4.99023C13.5 5.27023 13.28 5.49023 13 5.49023Z" fill="#FF8C00"/>
<path d="M12 6.49023C11.72 6.49023 11.5 6.27023 11.5 5.99023V3.99023C11.5 3.71023 11.72 3.49023 12 3.49023C12.28 3.49023 12.5 3.71023 12.5 3.99023V5.99023C12.5 6.27023 12.28 6.49023 12 6.49023Z" fill="#FF8C00"/>
<path d="M17 8.49023H15C14.72 8.49023 14.5 8.27023 14.5 7.99023C14.5 7.71023 14.72 7.49023 15 7.49023H17C17.28 7.49023 17.5 7.71023 17.5 7.99023C17.5 8.27023 17.28 8.49023 17 8.49023Z" fill="#3AE4DE"/>
<path d="M16 9.49023C15.72 9.49023 15.5 9.27023 15.5 8.99023V6.99023C15.5 6.71023 15.72 6.49023 16 6.49023C16.28 6.49023 16.5 6.71023 16.5 6.99023V8.99023C16.5 9.27023 16.28 9.49023 16 9.49023Z" fill="#3AE4DE"/>
<path d="M20 5.49023H18C17.72 5.49023 17.5 5.27023 17.5 4.99023C17.5 4.71023 17.72 4.49023 18 4.49023H20C20.28 4.49023 20.5 4.71023 20.5 4.99023C20.5 5.27023 20.28 5.49023 20 5.49023Z" fill="#FFDC00"/>
<path d="M19 6.49023C18.72 6.49023 18.5 6.27023 18.5 5.99023V3.99023C18.5 3.71023 18.72 3.49023 19 3.49023C19.28 3.49023 19.5 3.71023 19.5 3.99023V5.99023C19.5 6.27023 19.28 6.49023 19 6.49023Z" fill="#FFDC00"/>
</svg>
