<svg width="72" height="72" viewBox="0 0 72 72" fill="none" xmlns="http://www.w3.org/2000/svg">
<rect width="72" height="72" rx="10" fill="#FFFEEE"/>
<g clip-path="url(#clip0_15293_1866)">
<path d="M49.8833 39.8842C50.2128 40.2138 50.2128 40.7479 49.8833 41.0775L45.1512 45.8095C44.993 45.9677 44.7784 46.0567 44.5546 46.0567C44.3309 46.0567 44.1162 45.9678 43.958 45.8095L41.0817 42.9332C40.7522 42.6036 40.7522 42.0694 41.0817 41.7399C41.4112 41.4104 41.9455 41.4104 42.275 41.7399L44.5546 44.0196L48.6901 39.8842C49.0196 39.5548 49.5538 39.5547 49.8833 39.8842ZM53.9986 42.8468C53.9986 47.5426 50.1783 51.3629 45.4825 51.3629C44.6207 51.3629 43.7886 51.2338 43.004 50.9946C39.4428 52.746 35.8355 53.63 32.2596 53.63C31.7507 53.63 31.243 53.6122 30.7356 53.5764C26.6501 53.2879 22.523 51.8285 18.4691 49.2385C18.2507 49.099 18.1086 48.8668 18.0836 48.6088C17.7406 45.067 18.4602 41.6116 20.1099 38.8792C21.6781 36.2817 24.0131 34.3928 26.9141 33.3572C25.7781 32.007 24.9789 30.4241 24.5857 28.7248C24.1345 26.7749 24.2611 24.7714 24.9422 23.0834C26.1311 20.1369 28.8066 18.4186 32.2829 18.3693L32.2948 18.3691L32.3068 18.3693C35.783 18.4187 38.4585 20.1369 39.6474 23.0835C40.3285 24.7714 40.4551 26.7749 40.0039 28.7248C39.6106 30.4242 38.8113 32.0073 37.6751 33.3576C39.0427 33.8453 40.2853 34.523 41.3864 35.3824C42.6024 34.7125 43.9985 34.3307 45.4823 34.3307C50.1783 34.3306 53.9986 38.151 53.9986 42.8468ZM28.8025 32.9209C29.9803 34.0891 31.1553 34.6814 32.2948 34.6814C33.4343 34.6814 34.6093 34.0891 35.7871 32.9209C38.3144 30.4146 39.2583 26.6289 38.0825 23.7147C37.1481 21.3988 35.093 20.1 32.2948 20.0566C29.4966 20.1 27.4415 21.3988 26.507 23.7147C25.3313 26.629 26.2751 30.4147 28.8025 32.9209ZM40.9783 50.071C38.571 48.5647 36.9663 45.8898 36.9663 42.8468C36.9663 40.2724 38.1147 37.9612 39.926 36.3983C38.8669 35.6505 37.6665 35.0815 36.3419 34.7C35.0306 35.8078 33.6722 36.369 32.2948 36.369C30.9174 36.369 29.5591 35.8078 28.2477 34.7001C22.5503 36.3459 19.2486 41.5098 19.7283 48.0376C26.8667 52.4783 33.836 53.1475 40.9783 50.071ZM52.3111 42.8468C52.3111 39.0815 49.2478 36.0181 45.4825 36.0181C41.7172 36.0181 38.6538 39.0814 38.6538 42.8468C38.6538 46.6122 41.7171 49.6754 45.4825 49.6754C49.2479 49.6754 52.3111 46.6121 52.3111 42.8468Z" fill="black"/>
</g>
<defs>
<clipPath id="clip0_15293_1866">
<rect width="36" height="36" fill="white" transform="translate(18 18)"/>
</clipPath>
</defs>
</svg>
