<svg width="72" height="72" viewBox="0 0 72 72" fill="none" xmlns="http://www.w3.org/2000/svg">
<rect width="72" height="72" rx="10" fill="#FFFEEE"/>
<g clip-path="url(#clip0_15293_1834)">
<path d="M51.75 21H20.25C19.836 21 19.5 20.664 19.5 20.25C19.5 19.836 19.836 19.5 20.25 19.5H51.75C52.164 19.5 52.5 19.836 52.5 20.25C52.5 20.664 52.164 21 51.75 21Z" fill="black"/>
<path d="M51.75 28.5H35.25C34.836 28.5 34.5 28.164 34.5 27.75C34.5 27.336 34.836 27 35.25 27H51.75C52.164 27 52.5 27.336 52.5 27.75C52.5 28.164 52.164 28.5 51.75 28.5Z" fill="black"/>
<path d="M51.75 36H35.25C34.836 36 34.5 35.664 34.5 35.25C34.5 34.836 34.836 34.5 35.25 34.5H51.75C52.164 34.5 52.5 34.836 52.5 35.25C52.5 35.664 52.164 36 51.75 36Z" fill="black"/>
<path d="M51.75 43.5H35.25C34.836 43.5 34.5 43.164 34.5 42.75C34.5 42.336 34.836 42 35.25 42H51.75C52.164 42 52.5 42.336 52.5 42.75C52.5 43.164 52.164 43.5 51.75 43.5Z" fill="black"/>
<path d="M51.75 51H20.25C19.836 51 19.5 50.664 19.5 50.25C19.5 49.836 19.836 49.5 20.25 49.5H51.75C52.164 49.5 52.5 49.836 52.5 50.25C52.5 50.664 52.164 51 51.75 51Z" fill="black"/>
<path d="M30.75 36H18.75C18.336 36 18 35.664 18 35.25C18 34.836 18.336 34.5 18.75 34.5H30.75C31.164 34.5 31.5 34.836 31.5 35.25C31.5 35.664 31.164 36 30.75 36Z" fill="black"/>
<path d="M24.7504 41.9999C24.5584 41.9999 24.3664 41.9264 24.2194 41.7809C23.9269 41.4884 23.9269 41.0129 24.2194 40.7204L29.6899 35.2499L24.2194 29.7809C23.9269 29.4884 23.9269 29.0129 24.2194 28.7204C24.5119 28.4279 24.9874 28.4279 25.2799 28.7204L31.2799 34.7204C31.5724 35.0129 31.5724 35.4884 31.2799 35.7809L25.2799 41.7809C25.1344 41.9264 24.9424 41.9999 24.7504 41.9999Z" fill="black"/>
</g>
<defs>
<clipPath id="clip0_15293_1834">
<rect width="36" height="36" fill="white" transform="translate(18 18)"/>
</clipPath>
</defs>
</svg>
