<svg width="40" height="40" viewBox="0 0 40 40" fill="none" xmlns="http://www.w3.org/2000/svg">
    <rect width="40" height="40" rx="10" fill="#FFFEEE" />
    <g clip-path="url(#clip0_15494_3306)">
        <path
            d="M22.1191 20.706V19.2939C22.1191 18.1241 21.1708 17.1758 20.001 17.1758H17.8828V22.8242H20.001C21.1708 22.8242 22.1191 21.8758 22.1191 20.706Z"
            stroke="black" stroke-width="1.40625" stroke-miterlimit="10" />
        <path
            d="M14.2422 29.718C15.9291 30.7203 17.8988 31.2965 20.0033 31.2965C26.2424 31.2965 31.3002 26.2388 31.3002 19.9996C31.3002 17.895 30.7242 15.9252 29.722 14.2383"
            stroke="black" stroke-width="1.40625" stroke-miterlimit="10" />
        <path
            d="M25.7612 10.2813C24.0743 9.27908 22.1045 8.70312 20 8.70312C13.7609 8.70312 8.70312 13.7609 8.70312 20C8.70312 22.1045 9.27927 24.0741 10.2815 25.761"
            stroke="black" stroke-width="1.40625" stroke-miterlimit="10" />
        <path
            d="M14.8293 27.9879C14.8293 26.4299 13.5663 25.167 12.0084 25.167C10.4505 25.167 9.1875 26.4299 9.1875 27.9879C9.1875 29.5458 10.4505 30.8088 12.0084 30.8088C13.5663 30.8088 14.8293 29.5458 14.8293 27.9879Z"
            stroke="black" stroke-width="1.40625" stroke-miterlimit="10" />
        <path
            d="M27.9928 14.8322C29.5507 14.8322 30.8137 13.5693 30.8137 12.0113C30.8137 10.4534 29.5507 9.19043 27.9928 9.19043C26.4348 9.19043 25.1719 10.4534 25.1719 12.0113C25.1719 13.5693 26.4348 14.8322 27.9928 14.8322Z"
            stroke="black" stroke-width="1.40625" stroke-miterlimit="10" />
    </g>
    <defs>
        <clipPath id="clip0_15494_3306">
            <rect width="24" height="24" fill="white" transform="translate(8 8)" />
        </clipPath>
    </defs>
</svg>