<svg width="24" height="24" viewBox="0 0 24 24" fill="none" xmlns="http://www.w3.org/2000/svg">
    <path
        d="M5 2C3.34315 2 2 3.34315 2 5V19C2 20.6569 3.34315 22 5 22H19C20.6569 22 22 20.6569 22 19V5C22 3.34315 20.6569 2 19 2H5Z"
        fill="#F7F7FF" />
    <path fill-rule="evenodd" clip-rule="evenodd"
        d="M6 8C6 7.44772 6.44772 7 7 7H13C13.5523 7 14 7.44772 14 8C14 8.55228 13.5523 9 13 9H7C6.44772 9 6 8.55228 6 8Z"
        fill="#00DA74" />
    <path fill-rule="evenodd" clip-rule="evenodd"
        d="M6 12C6 11.4477 6.44772 11 7 11H17C17.5523 11 18 11.4477 18 12C18 12.5523 17.5523 13 17 13H7C6.44772 13 6 12.5523 6 12Z"
        fill="#00DA74" />
    <path fill-rule="evenodd" clip-rule="evenodd"
        d="M6 16C6 15.4477 6.44772 15 7 15H10C10.5523 15 11 15.4477 11 16C11 16.5523 10.5523 17 10 17H7C6.44772 17 6 16.5523 6 16Z"
        fill="#00DA74" />
</svg>