<svg width="24" height="24" viewBox="0 0 24 24" fill="none" xmlns="http://www.w3.org/2000/svg">
<path d="M12 23.0001C9.87901 22.9977 7.84559 22.1541 6.34582 20.6543C4.84605 19.1546 4.00242 17.1211 4 15.0001C4 8.04724 11.354 1.40639 11.6672 1.12709C11.7588 1.04525 11.8772 1 12 1C12.1228 1 12.2412 1.04525 12.3328 1.12709C12.646 1.40639 20 8.04724 20 15.0001C19.9976 17.1211 19.1539 19.1546 17.6542 20.6543C16.1544 22.1541 14.121 22.9977 12 23.0001ZM12 2.18619C10.5666 3.56874 5 9.30604 5 15.0001C5 16.8567 5.7375 18.6371 7.05025 19.9499C8.36301 21.2626 10.1435 22.0001 12 22.0001C13.8565 22.0001 15.637 21.2626 16.9497 19.9499C18.2625 18.6371 19 16.8567 19 15.0001C19 9.30604 13.4333 3.56874 12 2.18619Z" fill="black"/>
<path d="M9.2488 20.2637C9.16101 20.2637 9.07475 20.2406 8.9988 20.1966C8.08838 19.668 7.33239 18.9101 6.80622 17.9983C6.28005 17.0865 6.00207 16.0527 6 15C6 14.8674 6.05268 14.7402 6.14645 14.6464C6.24021 14.5527 6.36739 14.5 6.5 14.5C6.63261 14.5 6.75979 14.5527 6.85355 14.6464C6.94732 14.7402 7 14.8674 7 15C7.00176 15.8774 7.23353 16.739 7.67219 17.4989C8.11085 18.2588 8.74107 18.8905 9.5 19.3308C9.59531 19.3859 9.66977 19.4709 9.71182 19.5727C9.75387 19.6744 9.76115 19.7872 9.73255 19.8935C9.70395 19.9999 9.64106 20.0938 9.55364 20.1607C9.46621 20.2276 9.3589 20.2638 9.2488 20.2637Z" fill="black"/>
</svg>
